<svg width="41" height="41" viewBox="0 0 41 41" fill="none" xmlns="http://www.w3.org/2000/svg">
<g opacity="0.8">
<rect x="0.253086" y="0.253086" width="40.4938" height="40.4938" rx="10" fill="white"/>
<path d="M27.4566 26.6927L27.4564 26.6925L25.5122 24.7524C26.5313 23.5597 27.1478 22.012 27.1478 20.3233C27.1478 16.5594 24.0865 13.4981 20.3225 13.4981C16.5586 13.4981 13.4966 16.5593 13.4966 20.3233C13.4966 24.0873 16.5586 27.1493 20.3225 27.1493C21.851 27.1493 23.264 26.6441 24.4027 25.7923L26.3835 27.7676L26.3839 27.768C26.5322 27.9153 26.7266 27.9893 26.9199 27.9893C27.1131 27.9893 27.3092 27.9158 27.4579 27.7654C27.7543 27.4683 27.7525 26.9886 27.4566 26.6927ZM15.0151 20.3233C15.0151 17.3971 17.3962 15.0166 20.3225 15.0166C23.2482 15.0166 25.6293 17.3971 25.6293 20.3233C25.6293 23.2496 23.2481 25.6307 20.3225 25.6307C17.3963 25.6307 15.0151 23.2496 15.0151 20.3233Z" fill="black" stroke="black" stroke-width="0.5"/>
<rect x="0.253086" y="0.253086" width="40.4938" height="40.4938" rx="10" stroke="#CFD8DC" stroke-width="0.5"/>
</g>
</svg>
