<svg width="41" height="41" viewBox="0 0 41 41" fill="none" xmlns="http://www.w3.org/2000/svg">
<rect x="0.253086" y="0.253086" width="40.4938" height="40.4938" rx="10" fill="white"/>
<path d="M15.812 19.355C15.8692 19.2963 16.0852 19.0453 16.2864 18.8387C17.4659 17.5399 20.5429 15.414 22.1534 14.7651C22.398 14.6608 23.0163 14.4401 23.3467 14.4259C23.6633 14.4259 23.9651 14.4988 24.253 14.6466C24.612 14.8531 24.9 15.1781 25.0578 15.5618C25.1594 15.828 25.3171 16.6247 25.3171 16.6389C25.4749 17.5105 25.5617 18.9268 25.5617 20.4919C25.5617 21.9831 25.4749 23.3417 25.3457 24.2264C25.331 24.2406 25.1732 25.2307 25.0006 25.5698C24.684 26.1894 24.0656 26.5741 23.4039 26.5741H23.3467C22.9157 26.5589 22.0094 26.1742 22.0094 26.16C20.4857 25.5101 17.4797 23.4884 16.2716 22.1451C16.2716 22.1451 15.9314 21.7999 15.7834 21.5842C15.5527 21.2744 15.4383 20.8908 15.4383 20.5071C15.4383 20.0789 15.5675 19.68 15.812 19.355Z" fill="black"/>
<rect x="0.253086" y="0.253086" width="40.4938" height="40.4938" rx="10" stroke="#CFD8DC" stroke-width="0.5"/>
</svg>
