<svg width="117" height="160" viewBox="0 0 117 160" fill="none" xmlns="http://www.w3.org/2000/svg">
<g opacity="0.25">
<path d="M57.8784 117.264C67.9287 117.264 87.2157 112.094 79.2064 87.009C74.7625 73.1288 61.7796 62.4538 61.7796 62.4538C61.7796 62.4538 45.7998 70.9964 40.1287 87.9007C37.7388 95.0476 37.0671 117.341 57.8784 117.264Z" stroke="#E0F2ED" stroke-width="3.5" stroke-linecap="round" stroke-linejoin="round"/>
<path d="M72.9538 74.8347C72.9538 74.8347 93.3517 54.6994 60.0356 28.309C60.0356 28.309 26.5645 49.1164 47.4145 74.8347" stroke="#E0F2ED" stroke-width="3.5" stroke-linecap="round" stroke-linejoin="round"/>
<path d="M62.3997 117.264C62.3997 117.264 77.5786 132.772 95.1603 118.646C110.481 106.33 95.4187 91.9976 105.495 82.4598C105.495 82.4598 88.5979 75.8428 78.2633 84.6181" stroke="#E0F2ED" stroke-width="3.5" stroke-linecap="round" stroke-linejoin="round"/>
<path d="M56.0957 117.264C56.0957 117.264 40.9168 132.772 23.3351 118.646C8.01409 106.33 23.0768 91.9976 13.0005 82.4598C13.0005 82.4598 29.8976 75.8428 40.2321 84.6181" stroke="#E0F2ED" stroke-width="3.5" stroke-linecap="round" stroke-linejoin="round"/>
<path d="M97.9379 80.4825C97.9379 80.4825 105.547 73.6458 101.077 60.6186C97.434 49.9953 96.7364 41.7111 99.2168 34.5771C99.2168 34.5771 81.5704 37.0456 74.1295 43.262" stroke="#E0F2ED" stroke-width="3.5" stroke-linecap="round" stroke-linejoin="round"/>
<path d="M19.8084 80.4825C19.8084 80.4825 12.1996 73.6458 16.6693 60.6186C20.3122 49.9953 21.0098 41.7111 18.5295 34.5771C18.5295 34.5771 36.1758 37.0456 43.6167 43.262" stroke="#E0F2ED" stroke-width="3.5" stroke-linecap="round" stroke-linejoin="round"/>
<path d="M85.5104 37.7305C85.5104 37.7305 83.9602 25.44 75.8605 17.6598C67.7608 9.87971 63.0198 4.81357 59.8548 1.75063C59.8548 1.75063 54.6875 7.4888 40.5679 18.5516C31.5252 25.6726 32.2356 37.7047 32.2356 37.7047" stroke="#E0F2ED" stroke-width="3.5" stroke-linecap="round" stroke-linejoin="round"/>
<path d="M57.8783 117.264V154.019" stroke="#E0F2ED" stroke-width="3.5" stroke-linecap="round" stroke-linejoin="round"/>
<path d="M66.9081 140.475C66.9081 140.475 77.0489 159.098 97.3435 158.219C117.638 157.34 114.576 126.465 114.576 126.465C114.576 126.465 109.228 139.066 97.3435 139.066C85.4587 139.066 80.5885 128.326 66.9081 140.475Z" stroke="#E0F2ED" stroke-width="3.5" stroke-linecap="round" stroke-linejoin="round"/>
<path d="M49.5848 140.475C49.5848 140.475 39.4828 159.098 19.1624 158.219C-1.15798 157.34 1.91655 126.465 1.91655 126.465C1.91655 126.465 7.29055 139.066 19.1624 139.066C31.0343 139.066 35.9044 128.326 49.5848 140.475Z" stroke="#E0F2ED" stroke-width="3.5" stroke-linecap="round" stroke-linejoin="round"/>
</g>
</svg>
