<svg width="30" height="30" viewBox="0 0 30 30" fill="none" xmlns="http://www.w3.org/2000/svg">
<rect width="30" height="30" rx="10" fill="white" fill-opacity="0.3"/>
<path d="M15.0007 9.5C13.6199 9.5 12.5007 10.6193 12.5007 12C12.5007 13.3807 13.6199 14.5 15.0007 14.5C16.3814 14.5 17.5007 13.3807 17.5007 12C17.5007 10.6193 16.3814 9.5 15.0007 9.5Z" fill="white"/>
<path d="M12.334 15.8333C10.9533 15.8333 9.83398 16.9526 9.83398 18.3333V19.1255C9.83398 19.6277 10.1979 20.0558 10.6935 20.1367C13.5461 20.6025 16.4553 20.6025 19.3078 20.1367C19.8034 20.0558 20.1673 19.6277 20.1673 19.1255V18.3333C20.1673 16.9526 19.048 15.8333 17.6673 15.8333H17.4401C17.3171 15.8333 17.1949 15.8528 17.0779 15.891L16.5009 16.0794C15.5261 16.3977 14.4752 16.3977 13.5004 16.0794L12.9234 15.891C12.8064 15.8528 12.6842 15.8333 12.5612 15.8333H12.334Z" fill="white"/>
</svg>
