<svg width="60" height="58" viewBox="0 0 60 58" fill="none" xmlns="http://www.w3.org/2000/svg">
<rect width="60" height="58" rx="10" fill="#E0F2ED"/>
<path d="M30.509 20.9058C30.368 20.7833 30.1874 20.7158 30.0006 20.7158C29.8138 20.7158 29.6333 20.7833 29.4923 20.9058C28.8589 21.4543 28.3472 22.1293 27.9903 22.8874C27.6334 23.6454 27.439 24.4698 27.4198 25.3075C27.4194 25.3853 27.4408 25.4617 27.4818 25.5279C27.5228 25.5941 27.5816 25.6474 27.6515 25.6817C28.1583 25.9454 28.6335 26.2658 29.0681 26.6367C29.2831 26.8192 29.4781 27.01 29.6548 27.2042C29.8381 27.4058 30.1631 27.4058 30.3465 27.2042C30.524 27.01 30.719 26.8192 30.9331 26.6375C31.3676 26.2664 31.8429 25.946 32.3498 25.6825C32.4198 25.6483 32.4788 25.5951 32.5199 25.5289C32.561 25.4627 32.5827 25.3862 32.5823 25.3083C32.5632 24.4705 32.3689 23.646 32.0119 22.8877C31.655 22.1295 31.1433 21.4544 30.5098 20.9058H30.509ZM30.0006 34.0358C30.6696 32.8581 31.675 31.9069 32.8879 31.3041C34.1009 30.7013 35.4662 30.4744 36.809 30.6525C37.2156 30.7058 37.5198 31.0692 37.4881 31.4892C37.3657 33.0794 36.6475 34.5648 35.4772 35.6483C34.3068 36.7318 32.7706 37.3336 31.1756 37.3333H28.8256C27.2309 37.3334 25.6948 36.7315 24.5246 35.648C23.3544 34.5645 22.6364 33.0792 22.514 31.4892C22.4988 31.2893 22.5608 31.0913 22.6871 30.9357C22.8134 30.7801 22.9945 30.6788 23.1931 30.6525C24.5359 30.4743 25.9012 30.7012 27.1142 31.3039C28.3272 31.9067 29.3326 32.858 30.0015 34.0358H30.0006ZM36.3723 29.775C34.8331 29.69 33.3273 30.0917 32.1006 30.7458C31.3656 31.1375 30.6923 31.6417 30.1656 32.2217C30.1447 32.2446 30.1192 32.2629 30.0908 32.2755C30.0624 32.288 30.0317 32.2945 30.0006 32.2945C29.9696 32.2945 29.9389 32.288 29.9105 32.2755C29.882 32.2629 29.8566 32.2446 29.8356 32.2217C29.3106 31.6408 28.6365 31.1375 27.9015 30.7458C26.6773 30.0933 25.1765 29.6925 23.6415 29.775C23.0331 28.8167 22.6165 27.7167 22.5165 26.6083C22.5071 26.5035 22.5185 26.3979 22.5501 26.2976C22.5817 26.1972 22.6328 26.1041 22.7004 26.0236C22.7681 25.943 22.8511 25.8767 22.9445 25.8283C23.0379 25.7799 23.14 25.7505 23.2448 25.7417C25.2906 25.5708 26.9981 25.975 28.5298 27.2725C29.2215 27.8583 29.6848 28.5617 30.0015 29.1617C30.3173 28.5617 30.7815 27.8583 31.4723 27.2725C33.0056 25.9742 34.7248 25.5708 36.769 25.7417C36.8739 25.7504 36.976 25.7797 37.0695 25.8281C37.163 25.8764 37.2461 25.9427 37.3138 26.0233C37.3816 26.1038 37.4328 26.197 37.4644 26.2974C37.496 26.3978 37.5075 26.5035 37.4981 26.6083C37.3973 27.7167 36.9806 28.8175 36.3731 29.775H36.3723Z" fill="#0D2344"/>
</svg>
