<svg width="30" height="30" viewBox="0 0 30 30" fill="none" xmlns="http://www.w3.org/2000/svg">
<rect width="30" height="30" rx="10" fill="white" fill-opacity="0.3"/>
<path d="M15.4066 8.52456C15.2938 8.42654 15.1494 8.37256 14.9999 8.37256C14.8505 8.37256 14.7061 8.42654 14.5933 8.52456C14.0865 8.96335 13.6772 9.50334 13.3917 10.1098C13.1061 10.7163 12.9506 11.3758 12.9353 12.0459C12.9349 12.1082 12.9521 12.1693 12.9849 12.2222C13.0177 12.2752 13.0647 12.3178 13.1206 12.3452C13.526 12.5562 13.9063 12.8125 14.2539 13.1092C14.4259 13.2552 14.5819 13.4079 14.7233 13.5632C14.8699 13.7246 15.1299 13.7246 15.2766 13.5632C15.4186 13.4079 15.5746 13.2552 15.7459 13.1099C16.0935 12.8131 16.4737 12.5567 16.8793 12.3459C16.9353 12.3186 16.9824 12.276 17.0153 12.223C17.0483 12.1701 17.0655 12.1089 17.0653 12.0466C17.0499 11.3763 16.8945 10.7167 16.609 10.1101C16.3234 9.50352 15.9141 8.96343 15.4073 8.52456H15.4066ZM14.9999 19.0286C15.5351 18.0864 16.3394 17.3254 17.3098 16.8432C18.2801 16.361 19.3724 16.1794 20.4466 16.3219C20.7719 16.3646 21.0153 16.6552 20.9899 16.9912C20.892 18.2634 20.3174 19.4517 19.3811 20.3185C18.4449 21.1854 17.2159 21.6668 15.9399 21.6666H14.0599C12.7841 21.6666 11.5553 21.1851 10.6191 20.3183C9.68297 19.4515 9.1085 18.2633 9.01058 16.9912C8.99847 16.8314 9.04802 16.6729 9.14906 16.5484C9.25011 16.424 9.39497 16.3429 9.55392 16.3219C10.6281 16.1794 11.7204 16.3608 12.6908 16.8431C13.6612 17.3253 14.4655 18.0863 15.0006 19.0286H14.9999ZM20.0973 15.6199C18.8659 15.5519 17.6613 15.8732 16.6799 16.3966C16.0919 16.7099 15.5533 17.1132 15.1319 17.5772C15.1152 17.5956 15.0948 17.6102 15.0721 17.6203C15.0493 17.6303 15.0248 17.6355 14.9999 17.6355C14.9751 17.6355 14.9505 17.6303 14.9278 17.6203C14.905 17.6102 14.8847 17.5956 14.8679 17.5772C14.4479 17.1126 13.9086 16.7099 13.3206 16.3966C12.3413 15.8746 11.1406 15.5539 9.91258 15.6199C9.42592 14.8532 9.09258 13.9732 9.01258 13.0866C9.00509 13.0027 9.01423 12.9183 9.03949 12.838C9.06475 12.7577 9.10563 12.6832 9.15977 12.6188C9.21392 12.5543 9.28027 12.5012 9.355 12.4625C9.42974 12.4238 9.51138 12.4003 9.59525 12.3932C11.2319 12.2566 12.5979 12.5799 13.8233 13.6179C14.3766 14.0866 14.7473 14.6492 15.0006 15.1292C15.2533 14.6492 15.6246 14.0866 16.1773 13.6179C17.4039 12.5792 18.7793 12.2566 20.4146 12.3932C20.4985 12.4002 20.5802 12.4237 20.655 12.4623C20.7299 12.501 20.7963 12.5541 20.8505 12.6185C20.9047 12.683 20.9456 12.7575 20.9709 12.8378C20.9962 12.9181 21.0054 13.0027 20.9979 13.0866C20.9173 13.9732 20.5839 14.8539 20.0979 15.6199H20.0973Z" fill="white"/>
</svg>
