<svg width="20" height="20" viewBox="0 0 20 20" fill="none" xmlns="http://www.w3.org/2000/svg">
<path d="M7.05818 7.0579C7.30226 6.81382 7.69799 6.81382 7.94206 7.0579L10.0001 9.11596L12.0582 7.05791C12.3023 6.81383 12.698 6.81383 12.9421 7.05791C13.1861 7.30198 13.1861 7.69771 12.9421 7.94179L10.884 9.99985L12.9421 12.0579C13.1861 12.302 13.1861 12.6977 12.9421 12.9418C12.698 13.1859 12.3023 13.1859 12.0582 12.9418L10.0001 10.8837L7.94207 12.9418C7.69799 13.1859 7.30226 13.1859 7.05819 12.9418C6.81411 12.6977 6.81411 12.302 7.05819 12.0579L9.11625 9.99985L7.05818 7.94178C6.8141 7.6977 6.8141 7.30198 7.05818 7.0579Z" fill="black"/>
<path fill-rule="evenodd" clip-rule="evenodd" d="M6.0974 3.14048C8.67036 2.85291 11.3299 2.85291 13.9028 3.14048C15.4248 3.31058 16.6539 4.50945 16.8329 6.04025C17.1406 8.67102 17.1406 11.3287 16.8329 13.9595C16.6539 15.4903 15.4248 16.6891 13.9028 16.8592C11.3299 17.1468 8.67036 17.1468 6.0974 16.8592C4.57541 16.6891 3.34633 15.4903 3.16729 13.9595C2.8596 11.3287 2.8596 8.67102 3.16729 6.04025C3.34633 4.50945 4.57542 3.31058 6.0974 3.14048ZM13.764 4.38274C11.2833 4.10549 8.71693 4.10549 6.23624 4.38274C5.28255 4.48933 4.51917 5.24204 4.40883 6.18546C4.11242 8.71975 4.11242 11.28 4.40883 13.8142C4.51917 14.7577 5.28255 15.5104 6.23624 15.617C8.71693 15.8942 11.2833 15.8942 13.764 15.617C14.7177 15.5104 15.481 14.7577 15.5914 13.8142C15.8878 11.28 15.8878 8.71975 15.5914 6.18546C15.481 5.24204 14.7177 4.48933 13.764 4.38274Z" fill="black"/>
</svg>
