<svg width="30" height="30" viewBox="0 0 30 30" fill="none" xmlns="http://www.w3.org/2000/svg">
<rect width="30" height="30" rx="10" fill="white" fill-opacity="0.3"/>
<path d="M10.2001 10.2002C9.31644 10.2002 8.6001 10.9165 8.6001 11.8002V15.0002C8.6001 15.8839 9.31644 16.6002 10.2001 16.6002L10.2001 11.8002H18.2001C18.2001 10.9165 17.4838 10.2002 16.6001 10.2002H10.2001Z" fill="white"/>
<path fill-rule="evenodd" clip-rule="evenodd" d="M11.8001 15.0002C11.8001 14.1165 12.5164 13.4002 13.4001 13.4002H19.8001C20.6838 13.4002 21.4001 14.1165 21.4001 15.0002V18.2002C21.4001 19.0839 20.6838 19.8002 19.8001 19.8002H13.4001C12.5164 19.8002 11.8001 19.0839 11.8001 18.2002V15.0002ZM16.6001 18.2002C17.4838 18.2002 18.2001 17.4839 18.2001 16.6002C18.2001 15.7165 17.4838 15.0002 16.6001 15.0002C15.7164 15.0002 15.0001 15.7165 15.0001 16.6002C15.0001 17.4839 15.7164 18.2002 16.6001 18.2002Z" fill="white"/>
</svg>
