<svg width="99" height="99" viewBox="0 0 99 99" fill="none" xmlns="http://www.w3.org/2000/svg">
<g filter="url(#filter0_d_695_8791)">
<rect x="16" y="16" width="59" height="59" rx="16" fill="#28766F"/>
<path fill-rule="evenodd" clip-rule="evenodd" d="M45 32.5C44.1716 32.5 43.5 33.1716 43.5 34V42.5C43.5 43.0523 43.0523 43.5 42.5 43.5H34C33.1716 43.5 32.5 44.1716 32.5 45V46C32.5 46.8284 33.1716 47.5 34 47.5H42.5C43.0523 47.5 43.5 47.9477 43.5 48.5V57C43.5 57.8284 44.1716 58.5 45 58.5H46C46.8284 58.5 47.5 57.8284 47.5 57V48.5C47.5 47.9477 47.9477 47.5 48.5 47.5H57C57.8284 47.5 58.5 46.8284 58.5 46V45C58.5 44.1716 57.8284 43.5 57 43.5H48.5C47.9477 43.5 47.5 43.0523 47.5 42.5V34C47.5 33.1716 46.8284 32.5 46 32.5H45Z" fill="white"/>
</g>
<defs>
<filter id="filter0_d_695_8791" x="0" y="0" width="99" height="99" filterUnits="userSpaceOnUse" color-interpolation-filters="sRGB">
<feFlood flood-opacity="0" result="BackgroundImageFix"/>
<feColorMatrix in="SourceAlpha" type="matrix" values="0 0 0 0 0 0 0 0 0 0 0 0 0 0 0 0 0 0 127 0" result="hardAlpha"/>
<feOffset dx="4" dy="4"/>
<feGaussianBlur stdDeviation="10"/>
<feComposite in2="hardAlpha" operator="out"/>
<feColorMatrix type="matrix" values="0 0 0 0 0.14902 0 0 0 0 0.196078 0 0 0 0 0.219608 0 0 0 0.2 0"/>
<feBlend mode="normal" in2="BackgroundImageFix" result="effect1_dropShadow_695_8791"/>
<feBlend mode="normal" in="SourceGraphic" in2="effect1_dropShadow_695_8791" result="shape"/>
</filter>
</defs>
</svg>
