<svg width="24" height="24" viewBox="0 0 24 24" fill="none" xmlns="http://www.w3.org/2000/svg">
<path fill-rule="evenodd" clip-rule="evenodd" d="M13.5579 5.53472C12.6873 4.69936 11.3128 4.69936 10.4422 5.53472L5.8158 9.97405C5.70245 10.0828 5.6262 10.2245 5.59787 10.379C5.04373 13.4009 5.00283 16.4945 5.47687 19.53L5.58939 20.2505H8.56585V14.0391C8.56585 13.6249 8.90164 13.2891 9.31585 13.2891H14.6843C15.0985 13.2891 15.4343 13.6249 15.4343 14.0391V20.2505H18.4107L18.5232 19.53C18.9973 16.4945 18.9564 13.4009 18.4023 10.379C18.3739 10.2245 18.2977 10.0828 18.1843 9.97406L13.5579 5.53472ZM9.40369 4.4524C10.8546 3.06014 13.1455 3.06014 14.5964 4.4524L19.2229 8.89174C19.5634 9.21853 19.7925 9.64422 19.8777 10.1085C20.4622 13.2961 20.5053 16.5594 20.0053 19.7614L19.8245 20.9189C19.7498 21.3976 19.3375 21.7505 18.853 21.7505H14.6843C14.2701 21.7505 13.9343 21.4147 13.9343 21.0005V14.7891H10.0659V21.0005C10.0659 21.4147 9.73007 21.7505 9.31585 21.7505H5.14712C4.66264 21.7505 4.25035 21.3976 4.1756 20.9189L3.99484 19.7614C3.49479 16.5594 3.53794 13.2961 4.12247 10.1085C4.2076 9.64422 4.43668 9.21853 4.77725 8.89173L9.40369 4.4524Z" fill="#616161"/>
</svg>
