<svg width="24" height="24" viewBox="0 0 24 24" fill="none" xmlns="http://www.w3.org/2000/svg">
<path d="M13.7967 4.13597C12.8143 3.12135 11.1871 3.12135 10.2047 4.13596L5.40619 9.09169C5.13061 9.37631 4.94542 9.73612 4.87396 10.1258C4.2912 13.3038 4.24819 16.5572 4.74672 19.7495L4.92322 20.8797C4.97897 21.2367 5.28644 21.4998 5.64774 21.4998H9.0007C9.27685 21.4998 9.5007 21.276 9.5007 20.9998V13.9998H14.5007V20.9998C14.5007 21.276 14.7246 21.4998 15.0007 21.4998H18.3536C18.7149 21.4998 19.0224 21.2367 19.0781 20.8797L19.2546 19.7495C19.7532 16.5572 19.7102 13.3038 19.1274 10.1258C19.0559 9.73612 18.8708 9.37631 18.5952 9.0917L13.7967 4.13597Z" fill="#28766F"/>
</svg>
