<svg width="200" height="200" viewBox="0 0 200 200" fill="none" xmlns="http://www.w3.org/2000/svg">
<g clip-path="url(#clip0_682_8655)">
<g style="mix-blend-mode:multiply">
<path d="M156.934 57.6379C137.769 23.8942 76.6887 61.1562 54.6452 91.4357C26.7759 129.75 26.5395 166.521 55.1967 193.561C83.5895 220.355 130.343 204.558 141.76 169.367C147.389 152.016 145.248 133.181 150.607 115.63C156.969 94.7979 168.909 78.7049 156.934 57.6379Z" fill="#C5CAE9"/>
</g>
<path d="M99.9993 171.024C142.832 171.024 177.555 168.997 177.555 166.496C177.555 163.995 142.832 161.968 99.9993 161.968C57.1664 161.968 22.4434 163.995 22.4434 166.496C22.4434 168.997 57.1664 171.024 99.9993 171.024Z" fill="#F5F5F5"/>
<path d="M64.8694 129.591H138.346L134.55 37.4094H61.0703L64.8694 129.591Z" fill="#DBDBDB"/>
<path d="M53.6214 27.8529H125.496C127.897 27.8529 130.199 28.8065 131.896 30.504C133.594 32.2014 134.547 34.5037 134.547 36.9043V37.4094H53.6214C52.4211 37.4094 51.27 36.9326 50.4212 36.0839C49.5725 35.2352 49.0957 34.084 49.0957 32.8837V32.3786C49.0957 31.1783 49.5725 30.0272 50.4212 29.1784C51.27 28.3297 52.4211 27.8529 53.6214 27.8529V27.8529Z" fill="#DBDBDB"/>
<path d="M126.842 37.4094V35.7659C126.842 35.0612 127.122 34.3853 127.62 33.8869C128.118 33.3886 128.794 33.1086 129.499 33.1086V33.1086C129.848 33.1086 130.193 33.1774 130.515 33.311C130.838 33.4446 131.13 33.6404 131.377 33.8872C131.623 34.1339 131.819 34.4269 131.952 34.7493C132.085 35.0717 132.153 35.4171 132.153 35.7659V37.4094H126.842Z" fill="#A6A6A6"/>
<path d="M61.8985 141.348H135.379L132.154 37.4094H58.6738L61.8985 141.348Z" fill="white"/>
<path d="M123.209 141.348H128.524L132.153 37.4094H126.839L123.209 141.348Z" fill="#C7C7C7"/>
<path d="M49.7285 141.348H123.209L126.838 37.4094H53.3581L49.7285 141.348Z" fill="#EBEBEB"/>
<path d="M123.098 53.2285L114.777 53.1524L106.449 53.1074L89.7992 53.0693L73.1428 53.1074L64.8145 53.1524L56.4863 53.2285L64.8076 53.3081L73.1324 53.3531L89.7854 53.3877L106.442 53.3531L114.77 53.3081L123.098 53.2285Z" fill="#DBDBDB"/>
<path d="M122.912 58.332L114.587 58.2524L106.263 58.2074L89.6098 58.1729L72.9533 58.2074L64.6286 58.2524L56.2969 58.332L64.6216 58.4081L72.9464 58.4531L89.5994 58.4912L106.252 58.4531L114.581 58.4081L122.912 58.332Z" fill="#DBDBDB"/>
<path d="M122.721 63.4321L114.4 63.356L106.071 63.311L89.4218 63.2729L72.7654 63.3076L64.4371 63.3525L56.1055 63.4321L64.4302 63.5117L72.755 63.5567L89.408 63.5913L106.064 63.5532L114.393 63.5117L122.721 63.4321Z" fill="#DBDBDB"/>
<path d="M122.533 68.5321L114.209 68.456L105.884 68.411L89.2309 68.3729L72.5779 68.411L64.2462 68.456L55.918 68.5321L64.2427 68.6117L72.5675 68.6566L89.2205 68.6912L105.873 68.6566L114.202 68.6117L122.533 68.5321Z" fill="#DBDBDB"/>
<path d="M122.344 73.6356L114.019 73.556L105.694 73.511L89.0449 73.4764L72.3884 73.511L64.0602 73.556L55.7285 73.6356L64.0533 73.7117L72.378 73.7567L89.031 73.7948L105.687 73.7567L114.016 73.7117L122.344 73.6356Z" fill="#DBDBDB"/>
<path d="M122.156 78.7357L113.832 78.6596L105.507 78.6146L88.8539 78.5765L72.2009 78.6146L63.8692 78.6596L55.541 78.7357L63.8658 78.8153L72.1905 78.8603L88.8435 78.8949L105.496 78.8568L113.825 78.8153L122.156 78.7357Z" fill="#DBDBDB"/>
<path d="M121.967 83.8391L113.642 83.7596L105.317 83.7146L88.6679 83.6765L72.0115 83.7146L63.6832 83.7596L55.3516 83.8391L63.6763 83.9153L72.0011 83.9602L88.6541 83.9983L105.311 83.9602L113.639 83.9153L121.967 83.8391Z" fill="#DBDBDB"/>
<path d="M121.779 88.9392L113.455 88.8631L105.13 88.8181L88.4769 88.78L71.8205 88.8181L63.4923 88.8596L55.1641 88.9392L63.4888 89.0188L71.8136 89.0638L88.4666 89.0984L105.12 89.0603L113.448 89.0153L121.779 88.9392Z" fill="#DBDBDB"/>
<path d="M121.59 94.0393L113.265 93.9632L104.94 93.9182L88.2875 93.8801L71.6345 93.9182L63.3063 93.9632L54.9746 94.0393L63.2994 94.1189L71.6241 94.1639L88.2771 94.2019L104.934 94.1639L113.262 94.1189L121.59 94.0393Z" fill="#DBDBDB"/>
<path d="M121.402 99.1428L113.078 99.0632L104.753 99.0182L88.1 98.9836L71.4435 99.0182L63.1153 99.0632L54.7871 99.1428L63.1119 99.2189L71.4366 99.2639L88.0896 99.302L104.743 99.2639L113.071 99.2189L121.402 99.1428Z" fill="#DBDBDB"/>
<path d="M121.213 104.243L112.892 104.167L104.564 104.122L87.914 104.084L71.2576 104.122L62.9293 104.163L54.5977 104.243L62.9224 104.322L71.2472 104.367L87.9002 104.402L104.557 104.367L112.885 104.322L121.213 104.243Z" fill="#DBDBDB"/>
<path d="M121.026 109.346L112.701 109.267L104.376 109.222L87.723 109.184L71.0666 109.222L62.7384 109.267L54.4102 109.346L62.7349 109.422L71.0597 109.467L87.7127 109.505L104.366 109.467L112.694 109.422L121.026 109.346Z" fill="#DBDBDB"/>
<path d="M120.836 114.446L112.511 114.367L104.187 114.325L87.537 114.287L70.8806 114.322L62.5524 114.367L54.2207 114.446L62.5455 114.522L70.8702 114.567L87.5232 114.605L104.18 114.567L112.508 114.522L120.836 114.446Z" fill="#DBDBDB"/>
<path d="M120.649 119.546L112.324 119.47L103.999 119.425L87.3461 119.387L70.6897 119.425L62.3614 119.47L54.0332 119.546L62.358 119.626L70.6827 119.671L87.3323 119.706L103.989 119.671L112.317 119.626L120.649 119.546Z" fill="#DBDBDB"/>
<path d="M120.459 124.65L112.134 124.57L103.81 124.525L87.1566 124.491L70.5037 124.525L62.1754 124.57L53.8438 124.65L62.1685 124.726L70.4933 124.771L87.1463 124.809L103.803 124.771L112.131 124.726L120.459 124.65Z" fill="#DBDBDB"/>
<path d="M120.272 129.75L111.947 129.674L103.622 129.629L86.9691 129.591L70.3127 129.629L61.9845 129.674L53.6562 129.75L61.981 129.83L70.3058 129.875L86.9553 129.909L103.612 129.871L111.94 129.83L120.272 129.75Z" fill="#DBDBDB"/>
<path d="M120.08 134.85L111.755 134.774L103.431 134.729L86.7777 134.691L70.1247 134.729L61.7965 134.774L53.4648 134.85L61.7896 134.93L70.1144 134.975L86.7673 135.013L103.424 134.975L111.752 134.93L120.08 134.85Z" fill="#DBDBDB"/>
<path d="M65.6452 37.4094L65.2749 50.4052L64.8528 63.3975L64.0051 89.3856L63.0398 115.367L62.5554 128.359L62.0156 141.348L62.3858 128.352L62.808 115.36L63.6591 89.3717L64.6245 63.3906L65.1089 50.3983L65.6452 37.4094Z" fill="white"/>
<path d="M128.147 37.4094L127.881 46.7687L127.58 56.128L126.967 74.8432L126.272 93.5583L125.922 102.914L125.531 112.27L125.794 102.911L126.099 93.5514L126.708 74.8328L127.407 56.1211L127.756 46.7653L128.147 37.4094Z" fill="#A6A6A6"/>
<path d="M129.122 37.4094L128.759 49.5713L128.358 61.7332L127.551 86.0536L126.659 110.374L126.212 122.532L125.725 134.691L126.084 122.529L126.489 110.367L127.295 86.0466L128.185 61.7263L128.634 49.5679L129.122 37.4094Z" fill="#A6A6A6"/>
<path d="M130.097 37.4094L129.785 48.1077L129.436 58.8061L128.734 80.1993L127.941 101.592L127.547 112.287L127.107 122.982L127.419 112.284L127.768 101.586L128.474 80.1923L129.263 58.7991L129.661 48.1043L130.097 37.4094Z" fill="#A6A6A6"/>
<path d="M131.073 37.4094L130.792 47.3189L130.467 57.2318L129.82 77.0541L129.083 96.873L128.716 106.782L128.305 116.688L128.588 106.779L128.91 96.8661L129.561 77.0437L130.298 57.2248L130.664 47.3154L131.073 37.4094Z" fill="#A6A6A6"/>
<path d="M67.3984 60.4496C68.0384 60.7398 68.7077 60.9602 69.3949 61.107C69.7355 61.1813 70.0852 61.2058 70.4329 61.1797C70.7789 61.1451 71.1249 61.0793 71.4709 61.0136C72.8549 60.7506 74.2389 60.4323 75.6229 60.1659C76.3176 60.02 77.0199 59.9125 77.7265 59.8441C78.4454 59.7998 79.1669 59.8604 79.8683 60.024C80.5568 60.1933 81.2359 60.3989 81.9028 60.6399C82.0572 60.6949 82.2174 60.732 82.3802 60.7506C82.5496 60.761 82.7195 60.761 82.8889 60.7506C83.2349 60.7506 83.5809 60.7091 83.9269 60.6849L86.0305 60.5015C86.7438 60.4305 87.4624 60.4305 88.1757 60.5015C89.6013 60.7506 90.8884 61.3457 92.2551 61.6225C92.5963 61.6958 92.9441 61.7341 93.2931 61.7367C93.6412 61.7263 93.9882 61.6905 94.3311 61.6295L96.3932 61.3181C97.0852 61.2246 97.7772 61.1278 98.4692 61.0447C99.1676 60.9474 99.8713 60.8931 100.576 60.8821C99.8806 60.9294 99.1876 61.0126 98.5004 61.1312C97.8084 61.2385 97.1164 61.3561 96.4244 61.4772L94.3484 61.8232C93.9979 61.8933 93.643 61.9384 93.2862 61.9582C92.9253 61.962 92.5649 61.9307 92.2101 61.8647C91.5079 61.7267 90.8146 61.5465 90.1341 61.325C89.4748 61.1036 88.8008 60.929 88.1169 60.8025C87.4258 60.743 86.7305 60.7511 86.0409 60.8267L83.9372 61.0274C83.5912 61.0586 83.2452 61.0828 82.8716 61.0932C82.6916 61.0932 82.5256 61.0932 82.3249 61.0932C82.1381 61.071 81.9546 61.0269 81.7782 60.9617C81.1217 60.7195 80.453 60.5116 79.7749 60.3389C79.1037 60.1769 78.4125 60.114 77.7231 60.152C77.0311 60.2039 76.3391 60.3216 75.6471 60.4358C74.2631 60.671 72.8791 60.9582 71.4951 61.19C71.1491 61.2419 70.8031 61.2973 70.4571 61.3181C70.0993 61.334 69.7411 61.2955 69.3949 61.2039C68.7015 61.0334 68.0313 60.7802 67.3984 60.4496Z" fill="#A6A6A6"/>
<path d="M103.984 61.0966C105.156 61.0956 106.326 61.1661 107.489 61.3076C108.071 61.3526 108.655 61.4218 109.219 61.4114C109.794 61.3663 110.366 61.2901 110.932 61.1831C112.087 60.9633 113.258 60.8338 114.434 60.7955C115.026 60.7968 115.617 60.8559 116.198 60.972C116.778 61.0761 117.336 61.2811 117.845 61.5775C117.315 61.3375 116.749 61.1833 116.171 61.1208C115.597 61.0413 115.018 61.0135 114.441 61.0377C113.288 61.1173 112.14 61.3284 110.981 61.5221C110.397 61.6319 109.808 61.7059 109.216 61.7436C108.624 61.7247 108.033 61.6704 107.448 61.581L105.718 61.3215C105.147 61.228 104.569 61.1381 103.984 61.0966Z" fill="#A6A6A6"/>
<path d="M67.3984 66.8713C68.3182 66.964 69.242 67.0102 70.1664 67.0097C71.0937 67.0305 72.021 67.0409 72.9344 67.0305C73.8479 67.0201 74.7821 67.0097 75.7024 66.9059C76.6228 66.8021 77.5501 66.7225 78.4704 66.6499C79.3908 66.5772 80.3319 66.5426 81.2661 66.5565C81.7369 66.56 82.2072 66.5912 82.6743 66.6499C83.1484 66.7156 83.5878 66.8194 84.0583 66.8852C84.9718 67.0236 85.8921 67.1204 86.8263 67.2069C87.7605 67.2934 88.674 67.373 89.5943 67.4491C87.7334 67.449 85.8738 67.3485 84.0237 67.1481C83.5601 67.0997 83.093 67.0063 82.6397 66.944C82.18 66.8951 81.718 66.8708 81.2557 66.8713C80.3354 66.8713 79.4116 66.9198 78.4877 66.9924C77.5639 67.0651 76.6401 67.1412 75.7197 67.2208C74.7902 67.3014 73.8566 67.3269 72.9241 67.2969C72.0014 67.2738 71.0787 67.2346 70.1561 67.1793C69.6924 67.1447 69.2288 67.1101 68.7721 67.0651C68.3101 67.0334 67.8511 66.9686 67.3984 66.8713V66.8713Z" fill="#A6A6A6"/>
<path d="M94.3184 67.4492C96.1868 67.2347 98.0586 67.0755 99.9409 66.9959C100.882 66.9544 101.827 66.9475 102.771 66.9959C103.249 67.0167 103.723 67.0894 104.183 67.1378C104.643 67.1862 105.114 67.2312 105.567 67.2658C107.432 67.4354 109.307 67.5322 111.182 67.6118C111.65 67.6118 112.117 67.6464 112.584 67.6291L113.988 67.553C114.926 67.5149 115.864 67.463 116.805 67.4354C115.871 67.5426 114.933 67.6257 113.999 67.7225L112.591 67.8471C112.12 67.8817 111.646 67.8783 111.175 67.8783C109.293 67.8783 107.414 67.7641 105.536 67.6222C105.069 67.5807 104.598 67.5322 104.131 67.4769C103.664 67.4215 103.2 67.3454 102.747 67.3177C101.82 67.252 100.882 67.2658 99.9443 67.2693C99.0067 67.2727 98.069 67.3073 97.1313 67.3454L94.3184 67.4492Z" fill="#A6A6A6"/>
<path d="M67.3984 72.2447C68.3446 72.2234 69.2886 72.1448 70.2253 72.0094L73.0521 71.6634C73.5261 71.615 73.9967 71.5631 74.4811 71.5562C74.9655 71.5493 75.4395 71.5839 75.9135 71.6219C76.8615 71.698 77.8061 71.8018 78.7507 71.9091C79.6953 72.0164 80.6329 72.1513 81.5706 72.2863C82.5023 72.4263 83.4417 72.5095 84.3836 72.5354C86.2727 72.6184 88.1688 72.5838 90.0649 72.5354C88.177 72.7551 86.2772 72.8556 84.3767 72.8364C83.4226 72.8232 82.4703 72.7493 81.5256 72.615L78.7092 72.2689C77.7681 72.1513 76.8304 72.0406 75.8893 71.9575C75.4187 71.916 74.9447 71.878 74.4845 71.878C74.0243 71.878 73.5469 71.9195 73.0763 71.9541L70.2426 72.1859C69.7685 72.2171 69.2945 72.2516 68.8205 72.2689C68.3466 72.2972 67.8711 72.2891 67.3984 72.2447V72.2447Z" fill="#A6A6A6"/>
<path d="M67.6758 81.386C68.7484 81.5624 69.821 81.7078 70.9005 81.815C71.98 81.9223 73.0595 82.0157 74.1391 82.0607C76.2989 82.1733 78.4642 82.1213 80.6162 81.905L82.232 81.7112C82.7782 81.6596 83.3269 81.6388 83.8755 81.6489C84.9689 81.6651 86.0565 81.7228 87.1383 81.8219C88.2213 81.9119 89.3008 82.0192 90.3803 82.123C91.4598 82.2268 92.5393 82.3513 93.6223 82.424C91.4494 82.424 89.2835 82.1991 87.1175 82.078C86.038 82.0261 84.955 81.9603 83.8755 81.9569C83.3394 81.9543 82.8035 81.9797 82.2701 82.033L80.6542 82.2441C78.4835 82.4464 76.2999 82.4707 74.1252 82.3167C71.9546 82.1733 69.7984 81.8621 67.6758 81.386V81.386Z" fill="#A6A6A6"/>
<path d="M99.0312 82.7009C100.415 82.476 101.827 82.3099 103.232 82.175C104.638 82.0221 106.055 81.9897 107.467 82.0781C108.878 82.1923 110.276 82.4241 111.667 82.5625C112.359 82.6109 113.072 82.6005 113.771 82.6248C114.47 82.649 115.183 82.6732 115.885 82.7113C114.473 82.7735 113.075 82.8358 111.65 82.8254C110.937 82.7943 110.238 82.694 109.539 82.6213C108.84 82.5486 108.159 82.4587 107.467 82.4241C106.069 82.3261 104.666 82.3353 103.27 82.4518L99.0312 82.7009Z" fill="#A6A6A6"/>
<path d="M79.5273 50.6093C81.6552 50.3083 83.797 50.1215 85.9422 49.9969C88.0912 49.858 90.2472 49.8661 92.3951 50.0212C94.5403 50.1976 96.6682 50.4952 98.8065 50.5574C100.945 50.6197 103.093 50.6093 105.242 50.6093C103.097 50.7408 100.952 50.8204 98.7995 50.81C98.2632 50.81 97.7235 50.81 97.1837 50.765C96.644 50.7201 96.1111 50.6855 95.5748 50.6405C94.5057 50.5471 93.4365 50.4398 92.3709 50.3637C91.3052 50.2876 90.236 50.2184 89.1669 50.2149C88.0978 50.2114 87.0252 50.2426 85.9526 50.2703C84.88 50.2979 83.8108 50.3464 82.7382 50.4087C81.6656 50.4709 80.5965 50.5332 79.5273 50.6093Z" fill="#A6A6A6"/>
<path d="M67.3984 86.6799C70.7373 86.7733 74.0278 86.0605 77.3978 86.192C79.069 86.3373 80.7194 86.5865 82.3733 86.801L83.612 86.9636L84.2279 87.0328C84.4286 87.0328 84.6292 87.0501 84.8368 87.0328C85.6603 87.0155 86.4942 86.9498 87.3246 86.8909C88.9888 86.7837 90.6462 86.6349 92.3243 86.5726C93.1685 86.5449 94.0024 86.6003 94.8362 86.6453C95.6701 86.6903 96.504 86.7733 97.3344 86.8563C98.1648 86.9394 98.9952 87.0293 99.8221 87.0812C100.234 87.1124 100.642 87.0812 101.064 87.0812H102.317C103.988 87.1089 105.656 87.1366 107.323 87.192L102.32 87.2508L101.068 87.275C100.86 87.275 100.659 87.275 100.445 87.2992C100.23 87.3235 100.023 87.2992 99.8117 87.2992C98.9744 87.2646 98.144 87.185 97.3101 87.1228C95.6528 87.0017 93.9851 86.846 92.3347 86.8875C90.6842 86.929 89.0131 87.1193 87.3488 87.2335C86.5149 87.2888 85.6811 87.3442 84.8403 87.3581C84.6292 87.3581 84.4113 87.358 84.1967 87.3407L83.5705 87.2646L82.3283 87.0951C80.6779 86.8633 79.0275 86.6245 77.3736 86.4411C76.5494 86.3685 75.7204 86.3685 74.8963 86.4411L72.3981 86.5865C71.5643 86.6314 70.7339 86.6799 69.8966 86.711C69.0644 86.7682 68.2289 86.7577 67.3984 86.6799V86.6799Z" fill="#A6A6A6"/>
<path d="M87.5293 97.0944C88.5844 97.1124 89.6395 97.0627 90.6883 96.9457L93.8472 96.6377C95.9652 96.4666 98.0958 96.5421 100.196 96.8626C100.712 96.9314 101.233 96.9627 101.753 96.956C102.276 96.9387 102.791 96.9111 103.335 96.8834C104.39 96.8349 105.445 96.7692 106.504 96.7484C107.033 96.7484 107.563 96.7484 108.092 96.7484C108.625 96.7428 109.158 96.7751 109.687 96.8453C110.725 97.0045 111.78 97.0979 112.836 97.1913C111.777 97.1752 110.721 97.1152 109.666 97.0114C109.145 96.9572 108.62 96.941 108.096 96.963C107.566 96.963 107.058 96.9976 106.514 97.0252L103.352 97.2086C102.822 97.2398 102.297 97.2744 101.764 97.2986C101.227 97.311 100.691 97.2832 100.158 97.2155C99.1203 97.0806 98.0823 96.9353 97.0166 96.8695C95.9663 96.8182 94.9138 96.8274 93.8646 96.8972C91.7643 97.0149 89.6434 97.302 87.5293 97.0944Z" fill="#A6A6A6"/>
<path d="M122.79 147.693C122.79 147.693 130.876 148.039 130.675 142.521C130.475 137.002 122.434 137.936 122.434 137.936L122.79 147.693Z" fill="#DD6A57"/>
<path d="M65.8685 139.988L66.2246 149.745L123.104 147.67L122.748 137.912L65.8685 139.988Z" fill="white"/>
<path d="M120.517 136.596L120.973 147.997L123.235 147.906L122.779 136.506L120.517 136.596Z" fill="#455A64"/>
<path d="M118.266 137.26L118.682 148.653L120.943 148.57L120.527 137.177L118.266 137.26Z" fill="#455A64"/>
<path d="M65.8769 139.991L58.9881 143.919L56.7148 145.206L59.078 146.344L66.2333 149.759L67.6173 148.721C67.6173 148.721 66.1883 147.828 66.1641 147.808L67.5481 146.77C67.5481 146.77 66.1191 145.877 66.0984 145.856L67.4824 144.839C67.4824 144.839 66.0499 143.922 66.0292 143.901L67.4132 142.884C67.4132 142.884 65.9842 141.971 65.9634 141.95L67.3474 140.929C67.3474 140.929 65.8977 140.012 65.8769 139.991Z" fill="white"/>
<path d="M58.9881 143.919L56.7148 145.206L59.078 146.344L58.9881 143.919Z" fill="#37474F"/>
<path opacity="0.1" d="M69.4688 142.555C73.382 142.341 77.2987 142.164 81.212 141.995L92.976 141.524L104.74 141.137L110.622 140.971L116.504 140.843L110.622 141.14L104.74 141.403L92.9933 141.87L81.2293 142.258C77.3056 142.375 73.3889 142.483 69.4688 142.555Z" fill="black"/>
<path opacity="0.1" d="M69.7012 146.939C73.6179 146.725 77.5312 146.548 81.4652 146.379L93.2292 145.908L104.993 145.521L110.875 145.354L116.757 145.226L110.875 145.524L104.993 145.787L93.2292 146.254L81.4652 146.642C77.5381 146.759 73.6214 146.866 69.7012 146.939Z" fill="black"/>
</g>
<defs>
<clipPath id="clip0_682_8655">
<rect width="200" height="200" fill="white"/>
</clipPath>
</defs>
</svg>
