<svg width="20" height="20" viewBox="0 0 20 20" fill="none" xmlns="http://www.w3.org/2000/svg">
<path fill-rule="evenodd" clip-rule="evenodd" d="M14.9881 4.51974C11.673 4.14922 8.32686 4.14922 5.01172 4.51974C4.78742 4.54481 4.6794 4.80785 4.82135 4.98333L7.7522 8.60629C8.80211 9.90413 9.37491 11.5229 9.37491 13.1923V15.6L10.6249 16.5166V13.1923C10.6249 11.5229 11.1977 9.90413 12.2476 8.60628L15.1785 4.98333C15.3204 4.80785 15.2124 4.54481 14.9881 4.51974ZM4.87288 3.27747C8.2803 2.89664 11.7195 2.89664 15.1269 3.27747C16.3327 3.41224 16.9134 4.82623 16.1503 5.7695L13.2194 9.39246C12.3495 10.4678 11.8749 11.8091 11.8749 13.1923V17.75C11.8749 17.9855 11.7425 18.2011 11.5324 18.3075C11.3223 18.414 11.0702 18.3933 10.8803 18.254L8.38031 16.4207C8.21976 16.3029 8.12491 16.1158 8.12491 15.9167V13.1923C8.12491 11.8091 7.65031 10.4678 6.78038 9.39246L3.84953 5.7695C3.08646 4.82623 3.66711 3.41224 4.87288 3.27747Z" fill="black"/>
</svg>
