<svg width="165" height="89" viewBox="0 0 165 89" fill="none" xmlns="http://www.w3.org/2000/svg">
<g clip-path="url(#clip0_644_12144)">
<rect width="165" height="89" fill="#F3D48A"/>
<g clip-path="url(#clip1_644_12144)">
<path d="M168.891 15.2594C170.25 15.2594 170.992 13.6622 170.107 12.6321C169.354 11.7553 168.197 11.2094 166.928 10.9325C164.711 10.4488 162.014 11.976 161.361 12.3602C161.192 9.33897 158.559 6.94025 155.334 6.94025C155.203 6.94025 155.073 6.94435 154.943 6.95254C154.118 2.62526 150 -0.665039 145.044 -0.665039C139.493 -0.665039 134.993 3.46074 134.993 8.54977C134.993 8.94492 135.02 9.33959 135.075 9.73091C134.831 9.70111 134.584 9.68607 134.338 9.68586C132.134 9.68586 129.604 11.0497 129.305 13.2407C129.305 13.2407 117.395 10.011 117.326 15.3261L168.891 15.2594Z" fill="#E5F1EF"/>
<path d="M15.7621 6.03645H55.0291C54.9533 5.65967 54.1691 1.6244 44.5013 5.29927C44.5013 5.29927 44.9788 3.29249 42.0784 4.18325C39.178 5.07402 40.2109 1.09158 37.6631 0.453916C36.1441 0.0738557 35.2811 0.699644 34.6734 1.39587C34.3806 -2.58411 30.8769 -5.72656 26.5975 -5.72656C22.1265 -5.72656 18.5024 -2.29619 18.5024 1.93607C18.5023 2.19599 18.516 2.45573 18.5434 2.71421C18.0843 2.14576 17.0735 1.6371 15.6925 1.66986C15.661 1.66986 15.6294 1.67191 15.5983 1.67396C12.8011 1.83696 12.9584 6.03645 15.7621 6.03645Z" fill="#E5F1EF"/>
<path d="M46.9844 70.9951L48.3912 23.2775C48.3912 23.2165 48.4154 23.1581 48.4585 23.115C48.5016 23.0719 48.56 23.0477 48.6209 23.0477C48.6819 23.0477 48.7403 23.0719 48.7834 23.115C48.8265 23.1581 48.8507 23.2165 48.8507 23.2775L50.219 70.9947L46.9844 70.9951Z" fill="#E5F1EF"/>
<path d="M50.427 14.3059C50.1813 17.8583 49.5367 20.9815 48.9617 22.8691C48.9455 22.9215 48.9122 22.9668 48.867 22.9978C48.8219 23.0288 48.7676 23.0437 48.7129 23.0399C48.6583 23.0362 48.6065 23.0141 48.566 22.9772C48.5255 22.9403 48.4987 22.8908 48.4899 22.8368C48.1794 20.8971 47.9673 17.7379 48.2122 14.1867C48.4989 9.99991 49.3458 6.40818 49.9732 4.73682C50.3701 6.47862 50.7157 10.1191 50.427 14.3059Z" fill="#C8D9D2"/>
<path d="M40.2451 26.9454C43.1435 25.2515 45.9342 24.0618 47.8218 23.4389C48.1453 23.332 48.3816 23.7444 48.1265 23.9713C46.8806 25.0717 44.531 26.875 41.2649 28.7839C37.6416 30.9012 34.3333 32.2794 32.5977 32.6991C33.8161 31.3915 36.6219 29.064 40.2451 26.9454Z" fill="#C8D9D2"/>
<path d="M56.5034 26.1071C59.8617 27.855 62.6056 29.9695 63.7372 31.1379C62.1302 30.8807 59.0635 29.6845 55.7027 27.9365C52.9825 26.5215 50.669 25.0566 49.2847 23.9303C49.039 23.7321 49.236 23.3418 49.5411 23.4155C51.2587 23.83 53.784 24.6925 56.5034 26.1071Z" fill="#C8D9D2"/>
<path d="M48.6776 24.2246C49.218 24.2246 49.656 23.7866 49.656 23.2462C49.656 22.7059 49.218 22.2678 48.6776 22.2678C48.1373 22.2678 47.6992 22.7059 47.6992 23.2462C47.6992 23.7866 48.1373 24.2246 48.6776 24.2246Z" fill="#E5F1EF"/>
<path d="M70.0469 74.2878L71.2755 32.6676C71.2755 32.6144 71.2966 32.5635 71.3342 32.5259C71.3717 32.4884 71.4227 32.4673 71.4758 32.4673C71.5289 32.4673 71.5798 32.4884 71.6174 32.5259C71.655 32.5635 71.6761 32.6144 71.6761 32.6676L72.8699 74.2878H70.0469Z" fill="#E5F1EF"/>
<path d="M74.0582 26.5247C73.3571 29.0553 72.4311 31.2173 71.7348 32.4947C71.7156 32.5303 71.6848 32.5583 71.6476 32.5742C71.6103 32.5901 71.5687 32.5929 71.5297 32.5821C71.4907 32.5713 71.4565 32.5476 71.4326 32.5148C71.4088 32.482 71.3968 32.4422 71.3986 32.4017C71.4605 30.9548 71.7738 28.6412 72.4753 26.1119C73.3018 23.1304 74.4411 20.6604 75.1439 19.546C75.1726 20.8623 74.8851 23.5436 74.0582 26.5247Z" fill="#C8D9D2"/>
<path d="M64.8363 34.1526C67.1801 33.3568 69.3716 32.9092 70.8279 32.738C70.8807 32.7316 70.934 32.7437 70.9789 32.7722C71.0237 32.8007 71.0574 32.8438 71.074 32.8942C71.0907 32.9447 71.0895 32.9993 71.0704 33.0489C71.0514 33.0985 71.0158 33.14 70.9696 33.1664C69.9073 33.7774 67.9439 34.7333 65.3023 35.6298C62.3724 36.6246 59.7792 37.1316 58.4629 37.1787C59.5359 36.4149 61.9055 35.1474 64.8363 34.1526Z" fill="#C8D9D2"/>
<path d="M76.704 35.9468C78.8746 37.7053 80.5406 39.6376 81.1869 40.6488C80.0639 40.2257 78.0252 38.909 75.8558 37.1504C74.0993 35.7264 72.6446 34.3245 71.8107 33.3089C71.7795 33.2706 71.7623 33.223 71.7617 33.1736C71.7612 33.1243 71.7775 33.0762 71.8079 33.0374C71.8383 32.9985 71.881 32.9711 71.929 32.9597C71.977 32.9483 72.0274 32.9536 72.072 32.9747C73.2499 33.528 74.9487 34.5236 76.704 35.9468Z" fill="#C8D9D2"/>
<path d="M71.5566 33.5164C72.028 33.5164 72.4101 33.1343 72.4101 32.6629C72.4101 32.1916 72.028 31.8094 71.5566 31.8094C71.0852 31.8094 70.7031 32.1916 70.7031 32.6629C70.7031 33.1343 71.0852 33.5164 71.5566 33.5164Z" fill="#E5F1EF"/>
<path d="M5.05273 83.7322H140.875C140.875 83.7322 127.749 66.6766 104.441 70.3858C73.8305 75.257 62.4647 64.7128 47.7661 60.9708C33.7595 57.4044 23.0646 62.1277 15.8525 68.006C9.9759 72.7952 5.05273 78.2446 5.05273 83.7326V83.7322Z" fill="#907B00"/>
<path d="M53.1621 83.7322C53.1621 83.7322 60.0724 74.7348 77.5711 77.0611C101.896 80.2965 110.59 62.4484 131.339 61.45C169.362 59.6201 183.6 83.7322 183.6 83.7322H53.1621Z" fill="#B59B00"/>
<path d="M3.88017 83.7321L-1 78.7696L4.51947 82.5944L4.34009 78.9642L6.92679 82.121L6.47055 70.8236L8.39788 80.9042L10.2425 79.153L10.0717 82.1849L12.1547 81.3244L10.5169 83.728L3.88017 83.7321Z" fill="#B59B00"/>
<path d="M12.0418 80.0901C11.6806 80.4226 11.4197 80.3997 11.1113 80.3219C11.0593 80.0081 11.0663 79.755 11.4275 79.4209C11.7887 79.0867 12.539 78.8291 12.709 78.8475C12.7151 79.0183 12.403 79.7575 12.0418 80.0901Z" fill="#B59B00"/>
<path d="M45.8516 55.5056H48.6922C50.2043 55.5052 51.6685 56.0362 52.8288 57.0058C53.9891 57.9754 54.7719 59.322 55.0402 60.8101L61.0269 91.06C61.081 91.3588 61.2383 91.629 61.4713 91.8236C61.7043 92.0182 61.9983 92.1248 62.3018 92.1249V92.1249C62.5789 92.1248 62.8487 92.0359 63.0715 91.8713C63.2944 91.7066 63.4585 91.4748 63.5399 91.2099L66.7438 80.4233" stroke="#423C52" stroke-width="0.5" stroke-miterlimit="10" stroke-linecap="round"/>
<path d="M44.1367 67.468H62.1691C62.4819 67.4682 62.792 67.5252 63.0844 67.6363L84.1925 75.6635H66.7966C65.9192 75.6634 65.0494 75.5021 64.2303 75.1876L44.1367 67.468Z" fill="#423C52"/>
<path d="M71.0175 66.5037L70.8594 66.407C70.8704 66.3857 71.3467 65.4991 71.8271 65.0555C72.4705 64.4625 73.1946 64.2651 73.9207 64.4863L73.8683 64.6804C72.2535 64.1918 71.0273 66.4853 71.0175 66.5037Z" fill="#423C52"/>
<path d="M71.7687 65.1991C71.7687 65.1991 72.4514 65.1201 72.3085 65.4993C72.218 65.7385 71.3633 65.6222 71.3633 65.6222C71.3633 65.6222 71.3772 64.5868 71.7532 64.5786C72.0513 64.5733 71.7687 65.1991 71.7687 65.1991Z" fill="#423C52"/>
<path d="M72.2778 64.777C72.2778 64.777 72.9036 64.8253 72.6804 65.0559C72.567 65.1734 71.8613 65.1132 71.8613 65.1132C71.8613 65.1132 72.1669 64.1791 72.4695 64.1369C72.7722 64.0947 72.2778 64.777 72.2778 64.777Z" fill="#423C52"/>
<path d="M73.0871 64.4984C73.0871 64.4984 73.5786 64.6622 73.4103 64.8453C73.3283 64.935 72.6641 64.6208 72.6641 64.6208C72.6641 64.6208 72.954 64.0139 73.2456 64.0966C73.4369 64.1507 73.0871 64.4984 73.0871 64.4984Z" fill="#423C52"/>
<path d="M73.3047 64.4826C73.3047 64.4826 74.3732 64.114 74.3236 64.6087C74.2864 64.9826 73.3047 64.4826 73.3047 64.4826Z" fill="#423C52"/>
<path d="M71.0564 67.0431L70.8745 67.0333C70.8879 66.6462 70.8416 66.2595 70.7373 65.8865C70.5113 65.1055 70.0518 64.6219 69.3711 64.4486L69.4161 64.2524C70.1533 64.44 70.671 64.9843 70.913 65.8272C71.0243 66.2224 71.0727 66.6328 71.0564 67.0431V67.0431Z" fill="#423C52"/>
<path d="M70.6752 65.3507C70.6752 65.3507 70.1154 65.0681 70.1858 65.381C70.2219 65.5399 70.8579 65.8544 70.8579 65.8544C70.8579 65.8544 71.0827 64.8977 70.8456 64.7048C70.6085 64.5119 70.6752 65.3507 70.6752 65.3507Z" fill="#423C52"/>
<path d="M70.1296 64.695C70.1296 64.695 69.6267 64.5795 69.6729 64.824C69.695 64.9423 70.4277 65.0181 70.4277 65.0181C70.4277 65.0181 70.4957 64.3493 70.2033 64.2695C70.0096 64.2166 70.1296 64.695 70.1296 64.695Z" fill="#423C52"/>
<path d="M69.9515 64.5681C69.9515 64.5681 69.2303 63.6995 69.0145 64.1488C68.8519 64.4879 69.9515 64.5681 69.9515 64.5681Z" fill="#423C52"/>
<path d="M70.9329 66.013L70.769 65.9249C70.9342 65.5405 71.0445 65.1347 71.0967 64.7196C71.1999 63.8444 70.98 63.1674 70.4414 62.7075L70.5557 62.5474C71.1389 63.047 71.3875 63.8071 71.2752 64.7462C71.2222 65.1827 71.1069 65.6092 70.9329 66.013V66.013Z" fill="#423C52"/>
<path d="M71.1858 64.0688C71.1858 64.0688 70.8516 63.6089 70.7869 63.9267C70.7541 64.088 71.1936 64.6581 71.1936 64.6581C71.1936 64.6581 71.7731 63.9951 71.5622 63.5757C71.4246 63.2951 71.1858 64.0688 71.1858 64.0688Z" fill="#423C52"/>
<path d="M71.0168 63.271C71.0168 63.271 70.6142 62.9434 70.5556 63.1866C70.527 63.305 71.1507 63.6994 71.1507 63.6994C71.1507 63.6994 71.4849 63.117 71.256 62.9139C71.1049 62.7795 71.0168 63.271 71.0168 63.271Z" fill="#423C52"/>
<path d="M70.9083 63.0757C70.9083 63.0757 70.6188 61.9601 70.2424 62.2763C69.9586 62.5146 70.9083 63.0757 70.9083 63.0757Z" fill="#423C52"/>
<path d="M67.9234 76.5452C67.8314 76.5237 67.7512 76.4677 67.6993 76.3888C67.6474 76.3098 67.6278 76.2139 67.6445 76.1209L69.4985 67.0912C69.6136 66.5547 70.1858 66.2222 70.7444 66.3668L71.0266 66.4401C71.5852 66.5846 71.8964 67.1461 71.7039 67.6622L68.3936 76.3143C68.3568 76.4035 68.2888 76.4762 68.2022 76.5187C68.1156 76.5612 68.0165 76.5707 67.9234 76.5452V76.5452Z" fill="#FFDB00"/>
<path d="M75.8958 68.1954C75.8282 68.4259 75.4522 68.231 75.1885 68.059C75.1746 68.0561 75.1606 68.0532 75.1475 68.0512C75.2376 68.1331 75.3056 68.2392 75.2053 68.3158C75.1377 68.3674 74.8203 68.161 74.6417 68.0364C74.5332 68.0497 74.4261 68.0723 74.3215 68.104C74.4656 68.1708 74.6082 68.2736 74.4554 68.3813C74.3661 68.4444 74.0286 68.3747 73.8177 68.3231C73.7882 68.3395 73.7579 68.3571 73.7276 68.376C73.9115 68.4206 74.1441 68.523 74.009 68.7446C73.9168 68.8977 73.4897 68.8052 73.2423 68.7368C73.0987 68.8622 72.9656 68.9992 72.8442 69.1463L72.707 69.0169C72.8201 68.8788 72.9433 68.7493 73.0756 68.6295C73.124 68.421 73.3214 67.6724 73.6375 67.7285C73.8403 67.7641 73.7141 68.045 73.6183 68.2142H73.6216C73.6515 68.1958 73.6813 68.1773 73.7117 68.1605C73.8529 67.9255 74.1851 67.4189 74.4181 67.4328C74.645 67.4463 74.3616 67.7731 74.2047 67.9361C74.3345 67.8925 74.468 67.8612 74.6036 67.8427C74.7351 67.6928 74.9907 67.4463 75.1827 67.545C75.3015 67.6068 75.1594 67.7498 75.0517 67.837C75.0881 67.8407 75.1238 67.8452 75.1594 67.8513C75.4764 67.8366 75.9953 67.8587 75.8958 68.1954Z" fill="#423C52"/>
<path d="M72.5009 69.7894L72.3256 69.739C72.4108 69.3583 72.4374 68.9667 72.4047 68.578C72.3285 67.7638 71.9701 67.197 71.3398 66.8931L71.416 66.7084C72.1024 67.0385 72.5075 67.6782 72.5877 68.5587C72.6232 68.971 72.5939 69.3862 72.5009 69.7894V69.7894Z" fill="#423C52"/>
<path d="M72.4424 68.0415C72.4424 68.0415 71.9481 67.6528 71.9592 67.9756C71.9649 68.1394 72.5272 68.5747 72.5272 68.5747C72.5272 68.5747 72.9241 67.6737 72.7283 67.4374C72.5325 67.2011 72.4424 68.0415 72.4424 68.0415Z" fill="#423C52"/>
<path d="M72.0303 67.2868C72.0303 67.2868 71.561 67.0747 71.5605 67.3249C71.5605 67.4477 72.2613 67.6644 72.2613 67.6644C72.2613 67.6644 72.4517 67.0173 72.1794 66.8809C72.002 66.7908 72.0303 67.2868 72.0303 67.2868Z" fill="#423C52"/>
<path d="M71.8808 67.1265C71.8808 67.1265 71.3377 66.1276 71.0441 66.5289C70.8229 66.832 71.8808 67.1265 71.8808 67.1265Z" fill="#423C52"/>
<path d="M72.5703 68.7472L72.4277 68.6244C72.6606 68.2762 72.8432 67.8969 72.97 67.4977C73.2325 66.6541 73.1436 65.9414 72.705 65.3845L72.8442 65.2501C73.3214 65.8587 73.4237 66.6586 73.1403 67.5641C73.008 67.9837 72.816 68.3822 72.5703 68.7472V68.7472Z" fill="#423C52"/>
<path d="M73.1775 66.873C73.1775 66.873 72.9362 66.3537 72.8146 66.6547C72.7523 66.8078 73.0759 67.457 73.0759 67.457C73.0759 67.457 73.7643 66.9156 73.6374 66.4601C73.5534 66.1575 73.1775 66.873 73.1775 66.873Z" fill="#423C52"/>
<path d="M73.1604 66.0548C73.1604 66.0548 72.8287 65.6514 72.7259 65.8812C72.6763 65.9926 73.212 66.5041 73.212 66.5041C73.212 66.5041 73.6457 65.9942 73.4602 65.7489C73.3378 65.5867 73.1604 66.0548 73.1604 66.0548Z" fill="#423C52"/>
<path d="M73.092 65.841C73.092 65.841 73.0158 64.6824 72.5903 64.9207C72.2684 65.1005 73.092 65.841 73.092 65.841Z" fill="#423C52"/>
<path d="M67.7525 78.0135C67.6692 77.9773 67.6035 77.9097 67.5697 77.8253C67.5359 77.741 67.5367 77.6467 67.5719 77.563L71.1084 69.3106C71.3234 68.8216 71.9307 68.6041 72.4312 68.8372L72.6843 68.9551C73.1848 69.1882 73.3691 69.7742 73.0849 70.2309L68.2432 77.8755C68.1916 77.9535 68.1136 78.0104 68.0235 78.0358C67.9335 78.0611 67.8373 78.0532 67.7525 78.0135V78.0135Z" fill="#FFDB00"/>
<path d="M69.4607 67.7761C69.3038 67.7636 69.146 67.7709 68.991 67.7978C69.0765 67.8306 69.14 67.8797 69.0897 67.9571C69.0532 68.0128 68.7501 67.9702 68.5572 67.9371C68.4706 67.9783 68.3876 68.0268 68.3091 68.0821C68.4434 68.0878 68.574 68.123 68.4893 68.2389C68.4381 68.3102 68.1518 68.3646 67.9568 68.3937C67.9372 68.4154 67.9159 68.4375 67.8987 68.4605C68.0646 68.4384 68.2755 68.4466 68.2398 68.6423C68.2149 68.7795 67.8414 68.8471 67.6116 68.8749C67.5328 69.0113 67.4666 69.1545 67.4138 69.3029L67.2422 69.2398C67.291 69.1018 67.3512 68.9681 67.4224 68.8401C67.3904 68.6603 67.3093 68.0816 67.5862 68.0243C67.7603 67.9883 67.7578 68.2127 67.7365 68.3659C67.7558 68.3421 67.7754 68.3192 67.7959 68.2958C67.8368 68.0751 67.9409 67.6262 68.1346 67.5648C68.3193 67.5062 68.2132 67.7995 68.1379 67.9719C68.2319 67.899 68.3322 67.8348 68.4377 67.7798C68.4995 67.6287 68.6252 67.3961 68.8087 67.4071C68.9181 67.4137 68.8685 67.5382 68.8136 67.6336C68.9405 67.5999 69.0704 67.5793 69.2015 67.5722C69.4615 67.4706 69.8191 67.3784 69.8481 67.625C69.8657 67.7626 69.6733 67.788 69.4607 67.7761Z" fill="#423C52"/>
<path d="M67.251 69.8718C67.2399 69.8034 66.9709 68.189 65.4707 68.1361L65.4809 67.9351C67.1281 67.9928 67.4279 69.8149 67.4308 69.8333L67.251 69.8718L67.3407 69.8526L67.251 69.8718Z" fill="#423C52"/>
<path d="M66.7811 68.5984C66.7811 68.5984 66.2381 68.4723 66.3568 68.702C66.417 68.8187 67.0318 68.9572 67.0318 68.9572C67.0318 68.9572 67.0572 68.1823 66.8143 68.0726C66.5714 67.9628 66.7811 68.5984 66.7811 68.5984Z" fill="#423C52"/>
<path d="M66.1832 68.1819C66.1832 68.1819 65.7208 68.1754 65.8052 68.3564C65.8462 68.444 66.5014 68.3826 66.5014 68.3826C66.5014 68.3826 66.4404 67.8555 66.1689 67.8416C65.992 67.8326 66.1832 68.1819 66.1832 68.1819Z" fill="#423C52"/>
<path d="M66.0045 68.1135C66.0045 68.1135 65.2145 67.5615 65.1064 67.9436C65.0249 68.2315 66.0045 68.1135 66.0045 68.1135Z" fill="#423C52"/>
<path d="M67.1362 69.0728L66.9613 69.02C67.0353 68.7014 67.0583 68.3731 67.0293 68.0473C66.9625 67.3646 66.6496 66.8838 66.0996 66.6192L66.1762 66.4341C67.637 67.1377 67.1411 69.0535 67.1362 69.0728Z" fill="#423C52"/>
<path d="M66.9986 67.5246C66.9986 67.5246 66.6222 67.2244 66.623 67.4799C66.623 67.6102 67.112 67.9779 67.112 67.9779C67.112 67.9779 67.5011 67.3714 67.2415 67.0822C67.0678 66.8902 66.9986 67.5246 66.9986 67.5246Z" fill="#423C52"/>
<path d="M66.7073 66.9386C66.7073 66.9386 66.2949 66.7506 66.2871 66.9488C66.2834 67.0451 66.9014 67.247 66.9014 67.247C66.9014 67.247 67.0898 66.7428 66.8523 66.6237C66.6963 66.545 66.7073 66.9386 66.7073 66.9386Z" fill="#423C52"/>
<path d="M66.5764 66.8054C66.5764 66.8054 66.1214 65.992 65.8478 66.2975C65.6426 66.5281 66.5764 66.8054 66.5764 66.8054Z" fill="#423C52"/>
<path d="M66.9586 77.8232C66.7681 77.8232 66.6108 77.7003 66.5973 77.5406L65.9666 69.9427C65.9335 69.4922 66.3668 69.108 66.9086 69.1105H67.183C67.726 69.1129 68.1512 69.4983 68.109 69.9505L67.3255 77.5431C67.3091 77.7024 67.149 77.824 66.9586 77.8232Z" fill="#FFDB00"/>
<path d="M74.752 70.4039C74.9289 69.9272 76.1096 69.5291 76.7313 69.69L77.3223 69.9333C76.708 69.9915 76.0261 70.2114 75.9175 70.8867L74.752 70.4039Z" fill="#423C52"/>
<path d="M78.9986 77.9015C80.1156 75.4161 79.7388 72.825 78.1571 72.1141C76.5753 71.4032 74.3875 72.8418 73.2705 75.3272C72.1535 77.8126 72.5303 80.4037 74.1121 81.1146C75.6939 81.8254 77.8817 80.3869 78.9986 77.9015Z" fill="#FF7500"/>
<path d="M73.0319 75.2203C74.1488 72.7349 73.772 70.1438 72.1903 69.4329C70.6085 68.7221 68.4207 70.1606 67.3037 72.646C66.1867 75.1314 66.5635 77.7225 68.1453 78.4334C69.7271 79.1443 71.9149 77.7057 73.0319 75.2203Z" fill="#FF7500"/>
<path d="M75.9447 76.5024C77.1449 73.832 76.8651 71.1042 75.3199 70.4097C73.7746 69.7152 71.549 71.3171 70.3489 73.9876C69.1487 76.658 69.4285 79.3859 70.9737 80.0803C72.519 80.7748 74.7446 79.1729 75.9447 76.5024Z" fill="#FF7500"/>
<path d="M69.5124 77.657C69.4183 76.5696 69.6513 75.2529 70.2369 73.9502C70.9688 72.321 72.0799 71.0899 73.1898 70.5345" stroke="white" stroke-width="0.5" stroke-miterlimit="10" stroke-linecap="round"/>
<path d="M76.6409 72.1006C76.9546 73.2961 76.7347 74.9265 76.0065 76.5483C75.2833 78.1582 74.1869 79.3803 73.0918 79.9442" stroke="white" stroke-width="0.5" stroke-miterlimit="10" stroke-linecap="round"/>
<path d="M51.637 77.1475C52.3326 76.9059 52.616 75.9029 52.2701 74.9071C51.9242 73.9114 51.08 73.3 50.3844 73.5416C49.6889 73.7833 49.4054 74.7863 49.7513 75.7821C50.0972 76.7778 50.9414 77.3892 51.637 77.1475Z" fill="#FFDB00"/>
<path d="M53.3744 79.4059C54.0666 79.1674 54.4132 78.351 54.1484 77.5824C53.8836 76.8138 53.1077 76.3841 52.4155 76.6226C51.7233 76.8611 51.3768 77.6775 51.6416 78.4461C51.9064 79.2147 52.6822 79.6444 53.3744 79.4059Z" fill="#FFDB00"/>
<path d="M53.8896 71.1379C53.9077 70.2293 52.937 69.4731 51.7214 69.4489C50.5059 69.4247 49.5059 70.1417 49.4878 71.0503C49.4697 71.959 50.4404 72.7152 51.656 72.7394C52.8715 72.7635 53.8715 72.0466 53.8896 71.1379Z" fill="#FFDB00"/>
<path d="M59.5341 78.558C59.5522 77.6493 58.5815 76.8931 57.366 76.8689C56.1505 76.8447 55.1504 77.5617 55.1323 78.4704C55.1143 79.379 56.085 80.1352 57.3005 80.1594C58.516 80.1836 59.516 79.4666 59.5341 78.558Z" fill="#FFDB00"/>
<path d="M55.8934 68.3319C56.2166 67.463 55.8539 66.5262 55.0832 66.2396C54.3126 65.953 53.4259 66.4251 53.1027 67.2941C52.7796 68.1631 53.1423 69.0999 53.9129 69.3865C54.6835 69.6731 55.5702 69.2009 55.8934 68.3319Z" fill="#FFDB00"/>
<path d="M63.0171 69.1783C63.3339 68.3264 62.8329 67.3541 61.8982 67.0065C60.9635 66.6589 59.949 67.0676 59.6322 67.9194C59.3154 68.7713 59.8163 69.7436 60.751 70.0912C61.6857 70.4388 62.7003 70.0301 63.0171 69.1783Z" fill="#FFDB00"/>
<path d="M57.7085 72.089C58.7947 71.3377 59.2652 70.1359 58.7595 69.4046C58.2537 68.6733 56.9631 68.6896 55.8769 69.4408C54.7907 70.1921 54.3202 71.394 54.826 72.1252C55.3318 72.8565 56.6223 72.8403 57.7085 72.089Z" fill="#FFDB00"/>
<path d="M58.5409 68.2083C59.3816 67.9186 59.7143 66.6716 59.2841 65.4229C58.8539 64.1743 57.8237 63.3968 56.9831 63.6864C56.1424 63.976 55.8097 65.2231 56.2399 66.4717C56.6701 67.7204 57.7003 68.4979 58.5409 68.2083Z" fill="#FFDB00"/>
<path d="M63.3524 75.9335C64.2203 75.74 64.6908 74.5382 64.4034 73.2491C64.1159 71.9601 63.1794 71.072 62.3116 71.2655C61.4438 71.459 60.9732 72.6608 61.2607 73.9499C61.5481 75.2389 62.4846 76.127 63.3524 75.9335Z" fill="#FFDB00"/>
<path d="M53.8189 76.2885C54.7081 76.2885 55.4288 75.5677 55.4288 74.6785C55.4288 73.7894 54.7081 73.0686 53.8189 73.0686C52.9298 73.0686 52.209 73.7894 52.209 74.6785C52.209 75.5677 52.9298 76.2885 53.8189 76.2885Z" fill="#FFDB00"/>
<path d="M60.05 72.4703C60.6288 72.4703 61.098 72.0011 61.098 71.4223C61.098 70.8435 60.6288 70.3743 60.05 70.3743C59.4712 70.3743 59.002 70.8435 59.002 71.4223C59.002 72.0011 59.4712 72.4703 60.05 72.4703Z" fill="#FFDB00"/>
<path d="M51.2975 68.8944C51.8049 68.8944 52.2161 68.4831 52.2161 67.9757C52.2161 67.4684 51.8049 67.0571 51.2975 67.0571C50.7902 67.0571 50.3789 67.4684 50.3789 67.9757C50.3789 68.4831 50.7902 68.8944 51.2975 68.8944Z" fill="#FFDB00"/>
<path d="M54.3753 65.7799C55.1146 65.4684 55.5597 64.8499 55.3695 64.3984C55.1792 63.9469 54.4256 63.8335 53.6863 64.145C52.947 64.4566 52.5019 65.0751 52.6921 65.5266C52.8824 65.978 53.6359 66.0915 54.3753 65.7799Z" fill="#FFDB00"/>
<path d="M58.5514 76.3223C59.5829 76.1365 60.2972 75.3086 60.1467 74.4732C59.9962 73.6378 59.038 73.1111 58.0065 73.2969C56.9749 73.4827 56.2607 74.3106 56.4111 75.146C56.5616 75.9814 57.5198 76.5081 58.5514 76.3223Z" fill="#FFDB00"/>
<path d="M61.4295 78.9397C62.0826 78.8221 62.4846 78.0193 62.3275 77.1467C62.1703 76.2741 61.5134 75.662 60.8603 75.7797C60.2072 75.8973 59.8051 76.7001 59.9623 77.5727C60.1195 78.4453 60.7763 79.0573 61.4295 78.9397Z" fill="#FFDB00"/>
<path d="M65.2727 73.6058C65.1547 79.5488 61.321 81.0145 56.6312 80.9216C51.9415 80.8286 48.1679 79.2109 48.2859 73.2684C48.4038 67.3258 53.0239 62.598 56.992 62.6762C60.6321 62.7496 65.3906 67.6633 65.2727 73.6058Z" stroke="white" stroke-width="0.3" stroke-miterlimit="10" stroke-linecap="round"/>
<path d="M57.6319 62.7717L57.2715 80.8934" stroke="white" stroke-width="0.3" stroke-miterlimit="10" stroke-linecap="round"/>
<path d="M58.9272 63.1251L58.5762 80.7963" stroke="white" stroke-width="0.3" stroke-miterlimit="10" stroke-linecap="round"/>
<path d="M60.2142 63.847L59.8809 80.6172" stroke="white" stroke-width="0.3" stroke-miterlimit="10" stroke-linecap="round"/>
<path d="M61.4961 64.8969L61.1914 80.234" stroke="white" stroke-width="0.3" stroke-miterlimit="10" stroke-linecap="round"/>
<path d="M62.7728 66.2737L62.5078 79.6045" stroke="white" stroke-width="0.3" stroke-miterlimit="10" stroke-linecap="round"/>
<path d="M64.0359 68.265L63.834 78.4206" stroke="white" stroke-width="0.3" stroke-miterlimit="10" stroke-linecap="round"/>
<path d="M49.714 67.8574L49.5117 78.0355" stroke="white" stroke-width="0.3" stroke-miterlimit="10" stroke-linecap="round"/>
<path d="M51.0557 65.9177L50.7891 79.3308" stroke="white" stroke-width="0.3" stroke-miterlimit="10" stroke-linecap="round"/>
<path d="M52.3846 64.5516L52.0762 80.0526" stroke="white" stroke-width="0.3" stroke-miterlimit="10" stroke-linecap="round"/>
<path d="M53.7061 63.6359L53.3711 80.4879" stroke="white" stroke-width="0.3" stroke-miterlimit="10" stroke-linecap="round"/>
<path d="M55.0198 63.0472L54.668 80.7598" stroke="white" stroke-width="0.3" stroke-miterlimit="10" stroke-linecap="round"/>
<path d="M56.3287 62.746L55.9688 80.8676" stroke="white" stroke-width="0.3" stroke-miterlimit="10" stroke-linecap="round"/>
<path d="M50.2422 66.9736L64.6095 77.0952" stroke="white" stroke-width="0.3" stroke-miterlimit="10" stroke-linecap="round"/>
<path d="M51.0137 65.9764L65.0149 75.8396" stroke="white" stroke-width="0.3" stroke-miterlimit="10" stroke-linecap="round"/>
<path d="M51.8809 65.0602L65.1752 74.4265" stroke="white" stroke-width="0.3" stroke-miterlimit="10" stroke-linecap="round"/>
<path d="M52.8398 64.1823L65.252 72.9261" stroke="white" stroke-width="0.3" stroke-miterlimit="10" stroke-linecap="round"/>
<path d="M54.0137 63.4679L65.0678 71.255" stroke="white" stroke-width="0.3" stroke-miterlimit="10" stroke-linecap="round"/>
<path d="M55.3848 62.8929L64.4853 69.3187" stroke="white" stroke-width="0.3" stroke-miterlimit="10" stroke-linecap="round"/>
<path d="M57.2871 62.6935L63.2554 66.8983" stroke="white" stroke-width="0.3" stroke-miterlimit="10" stroke-linecap="round"/>
<path d="M48.8262 76.7585L54.6323 80.7529" stroke="white" stroke-width="0.3" stroke-miterlimit="10" stroke-linecap="round"/>
<path d="M48.3594 74.8901L56.9292 80.9273" stroke="white" stroke-width="0.3" stroke-miterlimit="10" stroke-linecap="round"/>
<path d="M48.2715 73.2876L58.9586 80.8167" stroke="white" stroke-width="0.3" stroke-miterlimit="10" stroke-linecap="round"/>
<path d="M48.4004 71.8387L60.6565 80.4728" stroke="white" stroke-width="0.3" stroke-miterlimit="10" stroke-linecap="round"/>
<path d="M48.6758 70.4908L62.0459 79.91" stroke="white" stroke-width="0.3" stroke-miterlimit="10" stroke-linecap="round"/>
<path d="M49.082 69.2369L63.1492 79.1472" stroke="white" stroke-width="0.3" stroke-miterlimit="10" stroke-linecap="round"/>
<path d="M49.6074 68.0663L63.996 78.203" stroke="white" stroke-width="0.3" stroke-miterlimit="10" stroke-linecap="round"/>
<path d="M55.0396 62.9281L53.806 61.0827C53.7712 61.0307 53.7537 60.9691 53.7561 60.9066C53.7584 60.8441 53.7804 60.7839 53.8189 60.7346C53.8575 60.6854 53.9106 60.6495 53.9707 60.6322C54.0308 60.615 54.0949 60.6171 54.1537 60.6384L55.0789 60.9721C55.2451 61.0321 55.4247 61.0444 55.5975 61.0074C55.7703 60.9705 55.9293 60.8859 56.0565 60.7633L56.407 60.4254C56.4973 60.3383 56.6041 60.27 56.721 60.2246C56.838 60.1791 56.9628 60.1574 57.0882 60.1606C57.2137 60.1638 57.3372 60.192 57.4516 60.2434C57.5661 60.2949 57.6692 60.3686 57.7549 60.4602L57.9932 60.7149C58.1217 60.8523 58.2882 60.9482 58.4714 60.9905C58.6546 61.0328 58.8463 61.0196 59.022 60.9525L59.6855 60.699C59.7648 60.6686 59.8517 60.6643 59.9336 60.6866C60.0155 60.709 60.0882 60.7569 60.141 60.8234C60.1938 60.8899 60.2241 60.9715 60.2274 61.0563C60.2307 61.1412 60.2068 61.2249 60.1593 61.2953L58.9266 63.1251" stroke="white" stroke-width="0.3" stroke-miterlimit="10" stroke-linecap="round"/>
<path d="M75.8027 77.8651L75.5742 77.6988C77.6965 74.6739 82.4448 70.6222 82.4923 70.5817L82.6733 70.7995C82.6258 70.8397 77.9045 74.8688 75.8027 77.8651Z" fill="#907B00"/>
<path d="M76.0875 78.2834L75.8418 78.1458C76.4483 77.0138 77.7495 75.1852 80.502 72.9008C81.4782 72.0881 82.5 71.3316 83.5622 70.6351L83.7121 70.8759C82.6584 71.5665 81.6452 72.3168 80.6773 73.1231C79.1784 74.3677 77.165 76.2738 76.0875 78.2834Z" fill="#907B00"/>
<path d="M75.6217 77.7604L75.4316 77.5508C75.4419 77.5409 76.4858 76.5637 77.7095 74.9297C78.837 73.4225 80.3523 71.032 81.169 68.202L81.4372 68.2839C80.6079 71.1573 79.0717 73.5802 77.9286 75.107C76.6902 76.7599 75.6319 77.7506 75.6217 77.7604Z" fill="#907B00"/>
<path d="M76.0848 77.8758L75.8652 77.6981L82.8447 68.7834L83.0643 68.9608L76.0848 77.8758Z" fill="#907B00"/>
<path d="M76.8436 79.9558L76.6016 79.8121C79.2272 76.5484 84.8769 71.9811 84.9338 71.9357L85.1181 72.1363C85.062 72.1818 79.4438 76.7241 76.8436 79.9558Z" fill="#907B00"/>
<path d="M77.127 80.3481L76.8633 80.2347C77.6361 79.0327 79.2432 77.0574 82.515 74.4748C84.4657 72.9337 86.1117 71.8898 86.1281 71.8795L86.2759 72.1064C86.2599 72.1166 84.6291 73.1508 82.6932 74.6804C80.91 76.0876 78.499 78.2132 77.127 80.3481Z" fill="#907B00"/>
<path d="M76.6485 79.8691L76.4531 79.6774C76.4654 79.6668 77.7145 78.5758 79.2196 76.8028C80.6063 75.1695 82.5001 72.607 83.6485 69.6726L83.9413 69.7283C82.7757 72.7074 80.8558 75.3051 79.4502 76.9597C77.9275 78.7523 76.6608 79.8581 76.6485 79.8691Z" fill="#907B00"/>
<path d="M77.1587 79.9378L76.9277 79.7814L86.326 69.0516L86.5574 69.2077L77.1587 79.9378Z" fill="#907B00"/>
<path d="M77.1841 78.4721L76.9199 77.7411L86.2949 67.4799L86.5259 67.6363L77.1841 78.4721Z" fill="#907B00"/>
<path d="M77.5666 76.1671C77.5666 76.1671 76.8704 76.8518 76.3519 78.0395C76.3413 78.0805 76.3298 78.1247 76.3179 78.1685C76.1897 78.6334 75.7658 78.9495 75.294 78.8566C75.0672 78.8118 74.8673 78.6789 74.7383 78.4869C74.6093 78.295 74.5617 78.0597 74.606 77.8327C74.6687 77.5141 74.9926 77.2827 75.4186 77.1103C75.4186 77.1103 75.4186 77.1103 75.421 77.1103C75.4718 77.0869 76.2933 76.6983 77.0543 75.7657C77.0526 75.7629 77.4962 75.7379 77.5666 76.1671Z" fill="white"/>
<path d="M78.8886 76.503C78.8886 76.503 78.0736 77.4408 77.8238 78.3398C77.696 78.8046 77.2717 79.1212 76.7999 79.0278C76.573 78.9831 76.3731 78.8501 76.2441 78.6582C76.1151 78.4662 76.0676 78.231 76.1119 78.004C76.1602 77.7582 76.4022 77.5617 76.711 77.3896H76.7139C76.7286 77.3827 76.804 77.3466 76.9211 77.2815C77.2385 77.1054 77.8602 76.7188 78.3869 76.1426C78.3844 76.1393 78.846 76.0779 78.8886 76.503Z" fill="white"/>
<path d="M76.9182 77.2781C76.801 77.3432 76.7257 77.3792 76.7109 77.3862C76.7769 77.3489 76.8469 77.3133 76.9182 77.2781Z" fill="white"/>
<path d="M78.9566 78.0654C78.9566 78.0654 77.9139 79.3309 77.5408 80.5031C77.4131 80.9679 76.9589 81.2788 76.4859 81.1854C76.2589 81.1407 76.0589 81.0078 75.9298 80.8159C75.8008 80.6239 75.7531 80.3886 75.7974 80.1615C75.8883 79.7012 76.6574 79.3424 77.2062 78.9595C77.5654 78.6069 77.9999 78.167 78.4148 77.7124C78.4148 77.7108 78.9136 77.6407 78.9566 78.0654Z" fill="white"/>
<path d="M83.5685 75.6643L80.9617 80.9474C80.4302 82.0246 79.608 82.9316 78.5879 83.5658C77.5679 84.2001 76.3907 84.5362 75.1895 84.5363H56.8729C55.3049 84.5362 53.7734 84.0636 52.4779 83.1803C51.1824 82.2969 50.1832 81.0437 49.6104 79.5841L45.0137 67.8038L64.2309 75.1884C65.0499 75.5029 65.9197 75.6642 66.7971 75.6643H83.5685Z" fill="#C8D9D2"/>
<path d="M83.5683 75.6642L80.9615 80.9473C80.4301 82.0245 79.6078 82.9315 78.5877 83.5658C77.5677 84.2 76.3905 84.5361 75.1894 84.5362H74.2474C72.6795 84.5362 71.148 84.0637 69.8526 83.1805C68.5571 82.2973 67.5578 81.0443 66.9849 79.5848L65.3926 75.5245C65.8552 75.6176 66.3259 75.6643 66.7977 75.6642H83.5683Z" fill="#E5F1EF"/>
<path d="M45.5945 67.5499H43.7798C43.7315 67.5493 43.6846 67.5657 43.6472 67.5963C43.6099 67.627 43.5845 67.6698 43.5757 67.7173C43.5669 67.7648 43.5751 67.8139 43.599 67.8559C43.6229 67.8979 43.6608 67.9301 43.7061 67.9468L64.2711 75.849C65.1514 76.1872 66.0864 76.3606 67.0294 76.3605H84.8713C84.9081 76.3605 84.9437 76.3476 84.972 76.324C85.0002 76.3005 85.0193 76.2678 85.0259 76.2316C85.0325 76.1954 85.0263 76.1581 85.0082 76.126C84.9902 76.094 84.9614 76.0693 84.927 76.0562L82.8453 75.2552" stroke="#423C52" stroke-width="5" stroke-miterlimit="10"/>
<path d="M77.1405 92.6799C79.6645 92.6799 81.7106 90.0125 81.7106 86.7222C81.7106 83.4319 79.6645 80.7645 77.1405 80.7645C74.6164 80.7645 72.5703 83.4319 72.5703 86.7222C72.5703 90.0125 74.6164 92.6799 77.1405 92.6799Z" fill="#423C52"/>
<path d="M75.7603 92.1253C77.522 92.1253 78.9502 89.7062 78.9502 86.7221C78.9502 83.738 77.522 81.319 75.7603 81.319C73.9985 81.319 72.5703 83.738 72.5703 86.7221C72.5703 89.7062 73.9985 92.1253 75.7603 92.1253Z" fill="white" stroke="#423C52" stroke-width="0.5" stroke-miterlimit="10" stroke-linecap="round"/>
<path d="M75.6547 87.8407C76.0196 87.8407 76.3153 87.3399 76.3153 86.7222C76.3153 86.1045 76.0196 85.6038 75.6547 85.6038C75.2899 85.6038 74.9941 86.1045 74.9941 86.7222C74.9941 87.3399 75.2899 87.8407 75.6547 87.8407Z" fill="white" stroke="#423C52" stroke-width="0.5" stroke-miterlimit="10" stroke-linecap="round"/>
<path d="M31.6035 55.5056H34.4437C35.9558 55.5052 37.42 56.0362 38.5803 57.0058C39.7407 57.9754 40.5234 59.322 40.7917 60.8101L46.7785 91.06C46.8326 91.3588 46.9899 91.629 47.2229 91.8236C47.4559 92.0182 47.7498 92.1248 48.0534 92.1249V92.1249C48.3305 92.1247 48.6003 92.0358 48.8231 91.8711C49.046 91.7065 49.2103 91.4748 49.2919 91.2099L52.7861 78.514C52.8539 78.2675 52.9744 78.0388 53.1392 77.8434C53.3041 77.6481 53.5093 77.4908 53.7408 77.3825C53.9723 77.2742 54.2246 77.2174 54.4802 77.216C54.7358 77.2146 54.9886 77.2688 55.2213 77.3746L75.7605 86.7213" stroke="#423C52" stroke-width="0.4" stroke-miterlimit="10" stroke-linecap="round"/>
<path d="M42.0097 44.0161C41.7541 43.9899 40.31 43.9305 38.6174 45.6253C36.9862 47.2589 36.7335 48.5674 36.6982 48.8713C32.6232 42.1212 32.6409 32.6623 31.7988 29.981L33.2081 29.9838C35.0101 29.9875 36.7859 31.0699 37.2147 32.8183C38.3217 37.3327 40.2158 41.144 42.0097 44.0161Z" fill="#E5F1EF"/>
<path d="M42.0089 44.016C41.7533 43.9898 40.3093 43.9304 38.6166 45.6251C36.9854 47.2588 36.7327 48.5673 36.6975 48.8712C36.2239 48.0813 35.8018 47.2617 35.4336 46.4176C35.5446 45.9261 35.9451 44.7696 37.3683 43.3869C38.6186 42.173 39.9759 41.8855 40.6996 41.8307C40.8302 41.8209 40.9604 41.8535 41.071 41.9236C41.1817 41.9937 41.2668 42.0975 41.3139 42.2197L42.0089 44.016Z" fill="#C8D9D2"/>
<path d="M51.7337 56.5435L48.1297 56.6446C47.9727 56.6491 47.8182 56.6058 47.6865 56.5204C47.5548 56.4349 47.4523 56.3114 47.3925 56.1663L47.1467 55.5647L44.7873 55.5282C41.3881 54.0207 38.8899 52.1359 36.6914 48.9382C36.6914 48.9382 36.7504 47.4949 38.6163 45.6254C40.4822 43.7558 42.0061 44.0212 42.0061 44.0212C44.5043 48.1637 46.9207 50.5096 47.9822 51.4286L49.8194 51.4487C50.1958 51.4531 50.5619 51.5718 50.8692 51.7892C51.1764 52.0066 51.4102 52.3124 51.5395 52.6659L52.5265 55.3644C52.5741 55.4945 52.5903 55.6341 52.5736 55.7717C52.5569 55.9093 52.5079 56.041 52.4305 56.156C52.3532 56.271 52.2498 56.366 52.1286 56.4334C52.0075 56.5007 51.8722 56.5385 51.7337 56.5435V56.5435Z" fill="#8A562F"/>
<path d="M50.6621 56.5791C50.8008 56.5743 50.9363 56.5367 51.0576 56.4694C51.179 56.4021 51.2826 56.307 51.3601 56.192C51.4376 56.0769 51.4868 55.9451 51.5036 55.8074C51.5203 55.6697 51.5043 55.5299 51.4566 55.3996L50.9107 53.9072" stroke="#423C52" stroke-width="0.4" stroke-miterlimit="10" stroke-linecap="round"/>
<path d="M49.4707 56.6019C49.6094 56.597 49.7449 56.5593 49.8662 56.492C49.9875 56.4247 50.0912 56.3295 50.1687 56.2144C50.2461 56.0993 50.2952 55.9675 50.3119 55.8297C50.3287 55.692 50.3125 55.5523 50.2648 55.422L49.7193 53.9296" stroke="#423C52" stroke-width="0.4" stroke-miterlimit="10" stroke-linecap="round"/>
<path d="M48.3242 56.6387C48.4629 56.6338 48.5984 56.5962 48.7197 56.5288C48.8411 56.4615 48.9447 56.3664 49.0222 56.2513C49.0997 56.1362 49.1489 56.0044 49.1657 55.8666C49.1824 55.7289 49.1664 55.5892 49.1187 55.4588L48.5728 53.9664" stroke="#423C52" stroke-width="0.4" stroke-miterlimit="10" stroke-linecap="round"/>
<path d="M44.7871 55.5281H47.1461V55.1661C47.146 54.8694 47.0281 54.5849 46.8182 54.3752C46.6084 54.1654 46.3239 54.0476 46.0272 54.0476H45.811L44.9759 53.4652" stroke="#423C52" stroke-width="0.4" stroke-miterlimit="10" stroke-linecap="round"/>
<path d="M39.1473 89.0105C38.507 88.9332 37.8625 88.8948 37.2175 88.8954C33.9919 88.8954 31.2144 89.8296 29.9685 91.1721C29.964 91.1369 29.9608 91.1017 29.9595 91.0656L28.8316 62.7143L24.2402 88.9335C23.5761 88.8511 22.9075 88.81 22.2383 88.8107C18.9083 88.8107 16.0566 89.8063 14.8726 91.2184C14.8331 91.0577 14.8238 90.891 14.8452 90.7269L21.0294 48.8499L20.6948 34.6636C20.9708 31.995 21.9562 29.9669 24.6395 29.9669H33.5328C34.0873 29.967 34.621 30.1782 35.0252 30.5577C35.4295 30.9371 35.6741 31.4564 35.7092 32.0097L39.1473 89.0105Z" fill="#FE552F"/>
<path d="M30.8629 91.1728C30.858 91.1375 30.855 91.1019 30.8539 91.0663L30.8457 90.8251" stroke="#423C52" stroke-width="5" stroke-miterlimit="10" stroke-linecap="round"/>
<path d="M30.8226 90.1244L29.75 58.2489" stroke="#423C52" stroke-width="0.4" stroke-miterlimit="10" stroke-linecap="round" stroke-dasharray="17.12 17.12"/>
<path d="M29.7384 57.8988L29.7266 57.5507" stroke="#423C52" stroke-width="0.4" stroke-miterlimit="10" stroke-linecap="round"/>
<path d="M15.8691 90.7277L15.9195 90.3833" stroke="#423C52" stroke-width="5" stroke-miterlimit="10" stroke-linecap="round"/>
<path d="M16.0195 89.7014L21.9318 49.2603L21.3396 35.3566" stroke="#423C52" stroke-width="0.4" stroke-miterlimit="10" stroke-linecap="round" stroke-dasharray="16.83 16.83"/>
<path d="M21.3233 35.0124L21.3086 34.6643" stroke="#423C52" stroke-width="5" stroke-miterlimit="10" stroke-linecap="round"/>
<path d="M24.2383 88.9389L29.9904 55.838" stroke="#423C52" stroke-width="0.4" stroke-miterlimit="10" stroke-linecap="round"/>
<path d="M25.0836 51.788C25.0836 53.9004 23.2702 55.6127 21.0332 55.6127" stroke="#423C52" stroke-width="0.4" stroke-miterlimit="10" stroke-linecap="round"/>
<path d="M27.8722 54.1389C25.6176 52.4233 22.5137 49.8796 21.011 47.5017L20.8906 43.2203L27.8722 54.1389Z" fill="#423C52"/>
<path d="M32.9611 55.8146H29.5918" stroke="#423C52" stroke-width="0.4" stroke-miterlimit="10" stroke-linecap="round"/>
<path d="M33.7584 31.5511V37.5305H29.1117L28.1288 33.4191C27.6451 31.3963 26.2633 29.9698 24.1836 29.9698H32.1726C32.5925 29.9695 32.9954 30.1359 33.2927 30.4324C33.59 30.7288 33.7575 31.1312 33.7584 31.5511V31.5511Z" fill="#E5F1EF"/>
<path d="M40.8414 92.2393H31.1806C30.8837 92.2394 30.597 92.1314 30.3739 91.9354C30.1509 91.7394 30.0069 91.4689 29.9688 91.1745C31.2154 89.832 33.993 88.8978 37.2177 88.8978C37.8627 88.8972 38.5072 88.9356 39.1475 89.0129V89.0191L41.2284 91.2265C41.6269 91.5808 41.3751 92.2393 40.8414 92.2393Z" fill="#423C52"/>
<path d="M25.9677 92.2392H16.1762C15.8762 92.2393 15.5848 92.1388 15.3486 91.9538C15.1123 91.7688 14.9449 91.51 14.873 91.2187C16.057 89.8065 18.9087 88.8109 22.2388 88.8109C22.9079 88.8103 23.5765 88.8513 24.2406 88.9338V88.9383L26.394 91.2629C26.4708 91.3459 26.5216 91.4494 26.5405 91.5609C26.5593 91.6723 26.5452 91.7868 26.5 91.8904C26.4547 91.994 26.3803 92.0821 26.2858 92.1441C26.1912 92.2061 26.0807 92.2391 25.9677 92.2392V92.2392Z" fill="#423C52"/>
<path d="M28.6402 43.4758C28.6344 43.466 28.6279 43.4566 28.6213 43.4471C28.1798 42.8443 26.6043 43.26 25.1021 44.376C23.6826 45.4302 22.8361 46.7317 23.1186 47.3809C20.3374 44.0078 19.7002 40.0119 19.1403 36.2981C18.6488 33.0459 20.2776 30.8433 22.7316 30.6091C24.0139 30.4862 26.1247 31.2234 26.5302 34.0181C27.0843 37.8351 27.8395 40.9583 28.6402 43.4758Z" fill="#E5F1EF"/>
<path d="M28.622 43.4472C28.1809 42.8443 26.6053 43.26 25.1027 44.376C23.6001 45.492 22.74 46.8853 23.1811 47.4886L21.9643 45.7791C21.5356 45.1095 22.285 43.3444 23.9539 42.257C25.6228 41.1697 27.8282 40.7876 28.0945 41.6296L28.622 43.4472Z" fill="#C8D9D2"/>
<path d="M31.9505 55.9409C30.4748 55.9243 29.0602 55.349 27.9918 54.3309C25.9441 52.3725 24.3649 49.9598 23.1395 47.426C23.133 47.4116 23.1256 47.3977 23.1186 47.385C22.8361 46.7359 23.6826 45.4343 25.1021 44.3801C26.6256 43.2482 28.2249 42.8366 28.6393 43.4791V43.4812C28.6705 43.5795 28.6971 43.6778 28.7331 43.7728C30.0314 47.1974 32.2049 50.7593 32.9785 51.8085L35.2236 51.838C35.6 51.8423 35.9662 51.9611 36.2734 52.1785C36.5807 52.3959 36.8145 52.7017 36.9437 53.0552L37.9307 55.7537C37.9784 55.8839 37.9945 56.0236 37.9777 56.1613C37.961 56.299 37.9118 56.4307 37.8344 56.5457C37.7569 56.6608 37.6533 56.7558 37.532 56.8231C37.4107 56.8904 37.2752 56.9279 37.1366 56.9328L33.5326 57.0339C33.3757 57.0384 33.2211 56.9951 33.0895 56.9097C32.9578 56.8242 32.8552 56.7007 32.7954 56.5556L32.5497 55.9535L31.9505 55.9409Z" fill="#8A562F"/>
<path d="M36.0664 56.9631C36.2051 56.9582 36.3406 56.9205 36.4619 56.8532C36.5833 56.7858 36.6869 56.6907 36.7644 56.5756C36.8419 56.4605 36.8911 56.3287 36.9078 56.191C36.9246 56.0532 36.9085 55.9135 36.8609 55.7832L36.315 54.2908" stroke="#423C52" stroke-width="0.4" stroke-miterlimit="10" stroke-linecap="round"/>
<path d="M34.875 56.9859C35.0137 56.981 35.1492 56.9433 35.2705 56.876C35.3918 56.8087 35.4955 56.7135 35.573 56.5985C35.6505 56.4834 35.6997 56.3515 35.7164 56.2138C35.7332 56.0761 35.7171 55.9363 35.6695 55.806L35.1236 54.3136" stroke="#423C52" stroke-width="0.4" stroke-miterlimit="10" stroke-linecap="round"/>
<path d="M33.7285 57.0223C33.8672 57.0175 34.0027 56.9799 34.124 56.9126C34.2454 56.8453 34.349 56.7503 34.4265 56.6352C34.504 56.5201 34.5532 56.3883 34.57 56.2506C34.5867 56.1129 34.5707 55.9732 34.523 55.8429L33.9771 54.3505" stroke="#423C52" stroke-width="0.4" stroke-miterlimit="10" stroke-linecap="round"/>
<path d="M32.3633 55.2328L32.9063 56.708" stroke="#423C52" stroke-width="0.4" stroke-miterlimit="10" stroke-linecap="round"/>
<path d="M31.7988 51.809H32.9796" stroke="#423C52" stroke-width="0.4" stroke-miterlimit="10" stroke-linecap="round"/>
<path d="M30.6009 26.5679C33.5281 25.1761 35.6549 23.5302 35.3513 22.8916C35.0477 22.2531 32.4286 22.8637 29.5014 24.2555C26.5741 25.6473 24.4473 27.2933 24.7509 27.9318C25.0545 28.5704 27.6736 27.9597 30.6009 26.5679Z" fill="#423C52"/>
<path d="M24.4695 27.8896C24.7971 28.5661 27.5325 27.96 30.5816 26.4893C33.6307 25.0186 35.8373 23.24 35.5109 22.5634C35.1845 21.8868 32.4483 22.5306 29.3992 24.0013C26.3501 25.472 24.1431 27.213 24.4695 27.8896Z" stroke="#423C52" stroke-width="0.3" stroke-miterlimit="10"/>
<path d="M28.1731 24.621L28.155 24.0857C28.1341 23.4616 28.5593 22.8981 29.2002 22.6982L30.1909 22.3919C30.44 22.3138 30.7043 22.2974 30.9612 22.3441C31.218 22.3909 31.4596 22.4993 31.6653 22.6601L31.9716 22.9058" stroke="#423C52" stroke-width="0.3" stroke-miterlimit="10" stroke-linecap="round"/>
<path d="M31.4823 30.0424V27.9881L28.5618 26.4646L26.8262 30.0408C26.8262 30.0408 29.2179 31.905 31.4823 30.0424Z" fill="#8A562F"/>
<path d="M31.4813 30.0425V27.9898L28.5608 26.4663L28.25 27.1064L31.4813 30.0425Z" fill="#423C52"/>
<path d="M31.6643 23.6132C32.2593 23.3826 33.737 23.3674 33.1206 24.3282C32.4944 25.3038 30.8878 24.8897 30.049 24.6387L29.7685 24.5535C29.6181 24.6587 29.5143 24.8181 29.4789 24.9982L29.3704 25.5479H28.6332L28.623 25.4659C28.5742 25.0675 28.8384 24.7697 29.2152 24.6305L31.6643 23.6132Z" fill="black"/>
<path d="M31.2197 28.3013H30.6377C30.3743 28.3014 30.1164 28.2261 29.8943 28.0844C29.6723 27.9427 29.4954 27.7404 29.3845 27.5014L29.113 26.9178H28.6391C28.4525 26.9178 28.2736 26.8437 28.1416 26.7117C28.0097 26.5798 27.9355 26.4008 27.9355 26.2142C27.9355 26.0276 28.0097 25.8487 28.1416 25.7167C28.2736 25.5848 28.4525 25.5106 28.6391 25.5106H29.3788L29.4795 24.9983C29.5149 24.8179 29.6189 24.6584 29.7695 24.5531C30.261 24.6997 31.3835 25.0781 32.2481 24.8938C32.2207 25.6238 32.2437 26.3548 32.3169 27.0816C32.3335 27.2355 32.3174 27.3912 32.2698 27.5385C32.2222 27.6857 32.1441 27.8213 32.0406 27.9364C31.9371 28.0515 31.8105 28.1434 31.669 28.2063C31.5276 28.2692 31.3745 28.3015 31.2197 28.3013V28.3013Z" fill="#8A562F"/>
<path d="M32.2557 25.5044C32.2557 25.5044 31.7601 25.3758 31.5058 25.8025C31.3379 26.0843 31.4624 27.1323 31.4624 27.1323" stroke="#423C52" stroke-width="0.3" stroke-miterlimit="10" stroke-linecap="round"/>
<path d="M30.7812 25.5072C30.7812 25.5072 30.2709 25.4315 29.8359 25.712" stroke="#423C52" stroke-width="0.3" stroke-miterlimit="10" stroke-linecap="round"/>
<path d="M31.9658 26.353C32.0229 26.3492 32.0632 26.2573 32.0559 26.1479C32.0486 26.0384 31.9964 25.9528 31.9393 25.9566C31.8822 25.9604 31.8419 26.0522 31.8492 26.1617C31.8565 26.2711 31.9087 26.3568 31.9658 26.353Z" fill="#423C52"/>
<path d="M30.4936 26.3936C30.5543 26.3895 30.5972 26.2917 30.5894 26.175C30.5816 26.0583 30.5261 25.967 30.4654 25.9711C30.4047 25.9751 30.3618 26.073 30.3696 26.1897C30.3774 26.3063 30.4329 26.3976 30.4936 26.3936Z" fill="#423C52"/>
<path d="M29.0839 26.3628C29.0856 26.291 29.0729 26.2195 29.0466 26.1527C29.0202 26.0858 28.9808 26.0249 28.9306 25.9735C28.8804 25.9221 28.8204 25.8812 28.7541 25.8534C28.6879 25.8255 28.6168 25.8111 28.5449 25.8112" stroke="#423C52" stroke-width="0.3" stroke-miterlimit="10" stroke-linecap="round"/>
</g>
</g>
<defs>
<clipPath id="clip0_644_12144">
<rect width="165" height="89" fill="white"/>
</clipPath>
<clipPath id="clip1_644_12144">
<rect width="200" height="200" fill="white" transform="translate(-17 -11)"/>
</clipPath>
</defs>
</svg>
