<svg width="165" height="89" viewBox="0 0 165 89" fill="none" xmlns="http://www.w3.org/2000/svg">
<g clip-path="url(#clip0_646_18903)">
<rect width="165" height="89" fill="#F75B81"/>
<g clip-path="url(#clip1_646_18903)">
<g style="mix-blend-mode:multiply">
<path d="M139.934 46.6379C120.769 12.8942 59.6887 50.1562 37.6452 80.4357C9.77586 118.75 9.53951 155.521 38.1967 182.561C66.5895 209.355 113.343 193.558 124.76 158.367C130.389 141.016 128.248 122.181 133.607 104.63C139.969 83.7979 151.909 67.7049 139.934 46.6379Z" fill="#C5CAE9"/>
</g>
<path d="M47.8694 118.591H121.346L117.55 26.4094H44.0703L47.8694 118.591Z" fill="#DBDBDB"/>
<path d="M36.6214 16.8529H108.496C110.897 16.8529 113.199 17.8065 114.896 19.504C116.594 21.2014 117.547 23.5037 117.547 25.9043V26.4094H36.6214C35.4211 26.4094 34.27 25.9326 33.4212 25.0839C32.5725 24.2352 32.0957 23.084 32.0957 21.8837V21.3786C32.0957 20.1783 32.5725 19.0272 33.4212 18.1784C34.27 17.3297 35.4211 16.8529 36.6214 16.8529V16.8529Z" fill="#DBDBDB"/>
<path d="M109.842 26.4094V24.7659C109.842 24.0612 110.122 23.3853 110.62 22.8869C111.118 22.3886 111.794 22.1086 112.499 22.1086V22.1086C112.848 22.1086 113.193 22.1774 113.515 22.311C113.838 22.4446 114.13 22.6404 114.377 22.8872C114.623 23.1339 114.819 23.4269 114.952 23.7493C115.085 24.0717 115.153 24.4171 115.153 24.7659V26.4094H109.842Z" fill="#A6A6A6"/>
<path d="M44.8985 130.348H118.379L115.154 26.4094H41.6738L44.8985 130.348Z" fill="white"/>
<path d="M106.209 130.348H111.524L115.153 26.4094H109.839L106.209 130.348Z" fill="#C7C7C7"/>
<path d="M32.7285 130.348H106.209L109.838 26.4094H36.3581L32.7285 130.348Z" fill="#EBEBEB"/>
<path d="M106.098 42.2285L97.7769 42.1524L89.4487 42.1074L72.7992 42.0693L56.1428 42.1074L47.8145 42.1524L39.4863 42.2285L47.8076 42.3081L56.1324 42.3531L72.7854 42.3877L89.4418 42.3531L97.77 42.3081L106.098 42.2285Z" fill="#DBDBDB"/>
<path d="M105.912 47.332L97.5875 47.2524L89.2627 47.2074L72.6098 47.1729L55.9533 47.2074L47.6286 47.2524L39.2969 47.332L47.6216 47.4081L55.9464 47.4531L72.5994 47.4912L89.2524 47.4531L97.5806 47.4081L105.912 47.332Z" fill="#DBDBDB"/>
<path d="M105.721 52.4321L97.3995 52.356L89.0713 52.311L72.4218 52.2729L55.7654 52.3076L47.4371 52.3525L39.1055 52.4321L47.4302 52.5117L55.755 52.5567L72.408 52.5913L89.0644 52.5532L97.3926 52.5117L105.721 52.4321Z" fill="#DBDBDB"/>
<path d="M105.533 57.5321L97.2086 57.456L88.8838 57.411L72.2309 57.3729L55.5779 57.411L47.2462 57.456L38.918 57.5321L47.2427 57.6117L55.5675 57.6566L72.2205 57.6912L88.8735 57.6566L97.2017 57.6117L105.533 57.5321Z" fill="#DBDBDB"/>
<path d="M105.344 62.6356L97.0191 62.556L88.6944 62.511L72.0449 62.4764L55.3884 62.511L47.0602 62.556L38.7285 62.6356L47.0533 62.7117L55.378 62.7567L72.031 62.7948L88.6875 62.7567L97.0157 62.7117L105.344 62.6356Z" fill="#DBDBDB"/>
<path d="M105.156 67.7357L96.8316 67.6596L88.5069 67.6146L71.8539 67.5765L55.2009 67.6146L46.8692 67.6596L38.541 67.7357L46.8658 67.8153L55.1905 67.8603L71.8435 67.8949L88.4965 67.8568L96.8247 67.8153L105.156 67.7357Z" fill="#DBDBDB"/>
<path d="M104.967 72.8391L96.6422 72.7596L88.3174 72.7146L71.6679 72.6765L55.0115 72.7146L46.6832 72.7596L38.3516 72.8391L46.6763 72.9153L55.0011 72.9602L71.6541 72.9983L88.3105 72.9602L96.6387 72.9153L104.967 72.8391Z" fill="#DBDBDB"/>
<path d="M104.779 77.9392L96.4547 77.8631L88.1299 77.8181L71.4769 77.78L54.8205 77.8181L46.4923 77.8596L38.1641 77.9392L46.4888 78.0188L54.8136 78.0638L71.4666 78.0984L88.1195 78.0603L96.4478 78.0153L104.779 77.9392Z" fill="#DBDBDB"/>
<path d="M104.59 83.0393L96.2652 82.9632L87.9405 82.9182L71.2875 82.8801L54.6345 82.9182L46.3063 82.9632L37.9746 83.0393L46.2994 83.1189L54.6241 83.1639L71.2771 83.2019L87.9336 83.1639L96.2618 83.1189L104.59 83.0393Z" fill="#DBDBDB"/>
<path d="M104.402 88.1428L96.0777 88.0632L87.753 88.0182L71.1 87.9836L54.4435 88.0182L46.1153 88.0632L37.7871 88.1428L46.1119 88.2189L54.4366 88.2639L71.0896 88.302L87.7426 88.2639L96.0708 88.2189L104.402 88.1428Z" fill="#DBDBDB"/>
<path d="M48.6452 26.4094L48.2749 39.4052L47.8528 52.3975L47.0051 78.3856L46.0398 104.367L45.5554 117.359L45.0156 130.348L45.3858 117.352L45.808 104.36L46.6591 78.3717L47.6245 52.3906L48.1089 39.3983L48.6452 26.4094Z" fill="white"/>
<path d="M111.147 26.4094L110.881 35.7687L110.58 45.128L109.967 63.8432L109.272 82.5583L108.922 91.9142L108.531 101.27L108.794 91.9107L109.099 82.5514L109.708 63.8328L110.407 45.1211L110.756 35.7653L111.147 26.4094Z" fill="#A6A6A6"/>
<path d="M112.122 26.4094L111.759 38.5713L111.358 50.7332L110.551 75.0536L109.659 99.3739L109.212 111.532L108.725 123.691L109.084 111.529L109.489 99.367L110.295 75.0466L111.185 50.7263L111.634 38.5679L112.122 26.4094Z" fill="#A6A6A6"/>
<path d="M113.097 26.4094L112.785 37.1077L112.436 47.8061L111.734 69.1993L110.941 90.5924L110.547 101.287L110.107 111.982L110.419 101.284L110.768 90.5855L111.474 69.1923L112.263 47.7991L112.661 37.1043L113.097 26.4094Z" fill="#A6A6A6"/>
<path d="M114.073 26.4094L113.792 36.3189L113.467 46.2318L112.82 66.0541L112.083 85.873L111.716 95.7824L111.305 105.688L111.588 95.779L111.91 85.8661L112.561 66.0437L113.298 46.2248L113.664 36.3154L114.073 26.4094Z" fill="#A6A6A6"/>
<path d="M50.3984 49.4496C51.0384 49.7398 51.7077 49.9602 52.3949 50.107C52.7355 50.1813 53.0852 50.2058 53.4329 50.1797C53.7789 50.1451 54.1249 50.0793 54.4709 50.0136C55.8549 49.7506 57.2389 49.4323 58.6229 49.1659C59.3176 49.02 60.0199 48.9125 60.7265 48.8441C61.4454 48.7998 62.1669 48.8604 62.8683 49.024C63.5568 49.1933 64.2359 49.3989 64.9028 49.6399C65.0572 49.6949 65.2174 49.732 65.3802 49.7506C65.5496 49.761 65.7195 49.761 65.8889 49.7506C66.2349 49.7506 66.5809 49.7091 66.9269 49.6849L69.0305 49.5015C69.7438 49.4305 70.4624 49.4305 71.1757 49.5015C72.6013 49.7506 73.8884 50.3457 75.2551 50.6225C75.5963 50.6958 75.9441 50.7341 76.2931 50.7367C76.6412 50.7263 76.9882 50.6905 77.3311 50.6295L79.3932 50.3181C80.0852 50.2246 80.7772 50.1278 81.4692 50.0447C82.1676 49.9474 82.8713 49.8931 83.5764 49.8821C82.8806 49.9294 82.1876 50.0126 81.5004 50.1312C80.8084 50.2385 80.1164 50.3561 79.4244 50.4772L77.3484 50.8232C76.9979 50.8933 76.643 50.9384 76.2862 50.9582C75.9253 50.962 75.5649 50.9307 75.2101 50.8647C74.5079 50.7267 73.8146 50.5465 73.1341 50.325C72.4748 50.1036 71.8008 49.929 71.1169 49.8025C70.4258 49.743 69.7305 49.7511 69.0409 49.8267L66.9372 50.0274C66.5912 50.0586 66.2452 50.0828 65.8716 50.0932C65.6916 50.0932 65.5256 50.0932 65.3249 50.0932C65.1381 50.071 64.9546 50.0269 64.7782 49.9617C64.1217 49.7195 63.453 49.5116 62.7749 49.3389C62.1037 49.1769 61.4125 49.114 60.7231 49.152C60.0311 49.2039 59.3391 49.3216 58.6471 49.4358C57.2631 49.671 55.8791 49.9582 54.4951 50.19C54.1491 50.2419 53.8031 50.2973 53.4571 50.3181C53.0993 50.334 52.7411 50.2955 52.3949 50.2039C51.7015 50.0334 51.0313 49.7802 50.3984 49.4496Z" fill="#A6A6A6"/>
<path d="M86.9844 50.0966C88.1559 50.0956 89.3264 50.1661 90.4894 50.3076C91.0706 50.3526 91.6554 50.4218 92.2194 50.4114C92.794 50.3663 93.3657 50.2901 93.9321 50.1831C95.0874 49.9633 96.2581 49.8338 97.4336 49.7955C98.0261 49.7968 98.6171 49.8559 99.1982 49.972C99.7783 50.0761 100.336 50.2811 100.845 50.5775C100.315 50.3375 99.7494 50.1833 99.1705 50.1208C98.5975 50.0413 98.0185 50.0135 97.4405 50.0377C96.2883 50.1173 95.1396 50.3284 93.9805 50.5221C93.3974 50.6319 92.8081 50.7059 92.2159 50.7436C91.6238 50.7247 91.0334 50.6704 90.4478 50.581L88.7178 50.3215C88.1469 50.228 87.5691 50.1381 86.9844 50.0966Z" fill="#A6A6A6"/>
<path d="M50.3984 55.8713C51.3182 55.964 52.242 56.0102 53.1664 56.0097C54.0937 56.0305 55.021 56.0409 55.9344 56.0305C56.8479 56.0201 57.7821 56.0097 58.7024 55.9059C59.6228 55.8021 60.5501 55.7225 61.4704 55.6499C62.3908 55.5772 63.3319 55.5426 64.2661 55.5565C64.7369 55.56 65.2072 55.5912 65.6743 55.6499C66.1484 55.7156 66.5878 55.8194 67.0583 55.8852C67.9718 56.0236 68.8921 56.1204 69.8263 56.2069C70.7605 56.2934 71.674 56.373 72.5943 56.4491C70.7334 56.449 68.8738 56.3485 67.0237 56.1481C66.5601 56.0997 66.093 56.0063 65.6397 55.944C65.18 55.8951 64.718 55.8708 64.2557 55.8713C63.3354 55.8713 62.4116 55.9198 61.4877 55.9924C60.5639 56.0651 59.6401 56.1412 58.7197 56.2208C57.7902 56.3014 56.8566 56.3269 55.9241 56.2969C55.0014 56.2738 54.0787 56.2346 53.1561 56.1793C52.6924 56.1447 52.2288 56.1101 51.7721 56.0651C51.3101 56.0334 50.8511 55.9686 50.3984 55.8713V55.8713Z" fill="#A6A6A6"/>
<path d="M77.3184 56.4492C79.1868 56.2347 81.0586 56.0755 82.9409 55.9959C83.882 55.9544 84.8266 55.9475 85.7711 55.9959C86.2486 56.0167 86.7226 56.0894 87.1828 56.1378C87.643 56.1862 88.1136 56.2312 88.5668 56.2658C90.4318 56.4354 92.3071 56.5322 94.1824 56.6118C94.6495 56.6118 95.1166 56.6464 95.5837 56.6291L96.9885 56.553C97.9261 56.5149 98.8638 56.463 99.8049 56.4354C98.8707 56.5426 97.9331 56.6257 96.9989 56.7225L95.5906 56.8471C95.1201 56.8817 94.6461 56.8783 94.1755 56.8783C92.2932 56.8783 90.4145 56.7641 88.5357 56.6222C88.0686 56.5807 87.598 56.5322 87.1309 56.4769C86.6638 56.4215 86.2002 56.3454 85.7469 56.3177C84.8196 56.252 83.882 56.2658 82.9443 56.2693C82.0067 56.2727 81.069 56.3073 80.1313 56.3454L77.3184 56.4492Z" fill="#A6A6A6"/>
<path d="M50.3984 61.2447C51.3446 61.2234 52.2886 61.1448 53.2253 61.0094L56.0521 60.6634C56.5261 60.615 56.9967 60.5631 57.4811 60.5562C57.9655 60.5493 58.4395 60.5839 58.9135 60.6219C59.8615 60.698 60.8061 60.8018 61.7507 60.9091C62.6953 61.0164 63.6329 61.1513 64.5706 61.2863C65.5023 61.4263 66.4417 61.5095 67.3836 61.5354C69.2727 61.6184 71.1688 61.5838 73.0649 61.5354C71.177 61.7551 69.2772 61.8556 67.3767 61.8364C66.4226 61.8232 65.4703 61.7493 64.5256 61.615L61.7092 61.2689C60.7681 61.1513 59.8304 61.0406 58.8893 60.9575C58.4187 60.916 57.9447 60.878 57.4845 60.878C57.0243 60.878 56.5469 60.9195 56.0763 60.9541L53.2426 61.1859C52.7685 61.2171 52.2945 61.2516 51.8205 61.2689C51.3466 61.2972 50.8711 61.2891 50.3984 61.2447V61.2447Z" fill="#A6A6A6"/>
<path d="M50.6758 70.386C51.7484 70.5624 52.821 70.7078 53.9005 70.815C54.98 70.9223 56.0595 71.0157 57.1391 71.0607C59.2989 71.1733 61.4642 71.1213 63.6162 70.905L65.232 70.7112C65.7782 70.6596 66.3269 70.6388 66.8755 70.6489C67.9689 70.6651 69.0565 70.7228 70.1383 70.8219C71.2213 70.9119 72.3008 71.0192 73.3803 71.123C74.4598 71.2268 75.5393 71.3513 76.6223 71.424C74.4494 71.424 72.2835 71.1991 70.1175 71.078C69.038 71.0261 67.955 70.9603 66.8755 70.9569C66.3394 70.9543 65.8035 70.9797 65.2701 71.033L63.6542 71.2441C61.4835 71.4464 59.2999 71.4707 57.1252 71.3167C54.9546 71.1733 52.7984 70.8621 50.6758 70.386V70.386Z" fill="#A6A6A6"/>
<path d="M82.0312 71.7009C83.4153 71.476 84.8269 71.3099 86.2317 71.175C87.638 71.0221 89.0549 70.9897 90.4667 71.0781C91.8784 71.1923 93.2763 71.4241 94.6672 71.5625C95.3592 71.6109 96.0719 71.6005 96.7709 71.6248C97.4698 71.649 98.1825 71.6732 98.8849 71.7113C97.4732 71.7735 96.0754 71.8358 94.6499 71.8254C93.9371 71.7943 93.2382 71.694 92.5393 71.6213C91.8404 71.5486 91.1587 71.4587 90.4667 71.4241C89.0691 71.3261 87.666 71.3353 86.2698 71.4518L82.0312 71.7009Z" fill="#A6A6A6"/>
<path d="M62.5273 39.6093C64.6552 39.3083 66.797 39.1215 68.9422 38.9969C71.0912 38.858 73.2472 38.8661 75.3951 39.0212C77.5403 39.1976 79.6682 39.4952 81.8065 39.5574C83.9447 39.6197 86.0934 39.6093 88.2421 39.6093C86.0969 39.7408 83.9517 39.8204 81.7995 39.81C81.2632 39.81 80.7235 39.81 80.1837 39.765C79.644 39.7201 79.1111 39.6855 78.5748 39.6405C77.5057 39.5471 76.4365 39.4398 75.3709 39.3637C74.3052 39.2876 73.236 39.2184 72.1669 39.2149C71.0978 39.2114 70.0252 39.2426 68.9526 39.2703C67.88 39.2979 66.8108 39.3464 65.7382 39.4087C64.6656 39.4709 63.5965 39.5332 62.5273 39.6093Z" fill="#A6A6A6"/>
<path d="M50.3984 75.6799C53.7373 75.7733 57.0278 75.0605 60.3978 75.192C62.069 75.3373 63.7194 75.5865 65.3733 75.801L66.612 75.9636L67.2279 76.0328C67.4286 76.0328 67.6292 76.0501 67.8368 76.0328C68.6603 76.0155 69.4942 75.9498 70.3246 75.8909C71.9888 75.7837 73.6462 75.6349 75.3243 75.5726C76.1685 75.5449 77.0024 75.6003 77.8362 75.6453C78.6701 75.6903 79.504 75.7733 80.3344 75.8563C81.1648 75.9394 81.9952 76.0293 82.8221 76.0812C83.2338 76.1124 83.6421 76.0812 84.0642 76.0812H85.3168C86.9879 76.1089 88.6557 76.1366 90.3234 76.192L85.3202 76.2508L84.0677 76.275C83.8601 76.275 83.6594 76.275 83.4449 76.2992C83.2304 76.3235 83.0228 76.2992 82.8117 76.2992C81.9744 76.2646 81.144 76.185 80.3101 76.1228C78.6528 76.0017 76.9851 75.846 75.3347 75.8875C73.6842 75.929 72.0131 76.1193 70.3488 76.2335C69.5149 76.2888 68.6811 76.3442 67.8403 76.3581C67.6292 76.3581 67.4113 76.358 67.1967 76.3407L66.5705 76.2646L65.3283 76.0951C63.6779 75.8633 62.0275 75.6245 60.3736 75.4411C59.5494 75.3685 58.7204 75.3685 57.8963 75.4411L55.3981 75.5865C54.5643 75.6314 53.7339 75.6799 52.8966 75.711C52.0644 75.7682 51.2289 75.7577 50.3984 75.6799V75.6799Z" fill="#A6A6A6"/>
<path d="M70.5293 86.0944C71.5844 86.1124 72.6395 86.0627 73.6883 85.9457L76.8472 85.6377C78.9652 85.4666 81.0958 85.5421 83.1963 85.8626C83.7124 85.9314 84.2328 85.9627 84.7533 85.956C85.2758 85.9387 85.7913 85.9111 86.3346 85.8834C87.3899 85.8349 88.4452 85.7692 89.5039 85.7484C90.0333 85.7484 90.5627 85.7484 91.0921 85.7484C91.6254 85.7428 92.1584 85.7751 92.6871 85.8453C93.7251 86.0045 94.7804 86.0979 95.8357 86.1913C94.777 86.1752 93.7205 86.1152 92.6664 86.0114C92.1446 85.9572 91.6196 85.941 91.0955 85.963C90.5661 85.963 90.0575 85.9976 89.5143 86.0252L86.3519 86.2086C85.8225 86.2398 85.2966 86.2744 84.7637 86.2986C84.2273 86.311 83.6906 86.2832 83.1583 86.2155C82.1203 86.0806 81.0823 85.9353 80.0166 85.8695C78.9663 85.8182 77.9138 85.8274 76.8646 85.8972C74.7643 86.0149 72.6434 86.302 70.5293 86.0944Z" fill="#A6A6A6"/>
</g>
</g>
<defs>
<clipPath id="clip0_646_18903">
<rect width="165" height="89" fill="white"/>
</clipPath>
<clipPath id="clip1_646_18903">
<rect width="200" height="200" fill="white" transform="translate(-17 -11)"/>
</clipPath>
</defs>
</svg>
