<svg width="41" height="41" viewBox="0 0 41 41" fill="none" xmlns="http://www.w3.org/2000/svg">
<g opacity="0.8">
<rect x="0.5" y="0.5" width="40" height="40" rx="10" fill="white"/>
<path d="M27.3727 26.6177L27.3725 26.6175L25.4521 24.701C26.4587 23.5229 27.0677 21.9941 27.0677 20.326C27.0677 16.6079 24.0437 13.584 20.3257 13.584C16.6076 13.584 13.583 16.6079 13.583 20.326C13.583 24.0441 16.6076 27.0687 20.3257 27.0687C21.8355 27.0687 23.2313 26.5696 24.3561 25.7282L26.3127 27.6795L26.3131 27.6798C26.4596 27.8254 26.6517 27.8985 26.8426 27.8985C27.0335 27.8985 27.2271 27.8258 27.374 27.6773C27.6668 27.3838 27.665 26.91 27.3727 26.6177ZM15.083 20.326C15.083 17.4354 17.435 15.084 20.3257 15.084C23.2156 15.084 25.5677 17.4354 25.5677 20.326C25.5677 23.2166 23.2156 25.5687 20.3257 25.5687C17.4351 25.5687 15.083 23.2166 15.083 20.326Z" fill="black" stroke="black" stroke-width="0.5"/>
<rect x="0.5" y="0.5" width="40" height="40" rx="10" stroke="#CFD8DC"/>
</g>
</svg>
