<svg width="390" height="844" viewBox="0 0 390 844" fill="none" xmlns="http://www.w3.org/2000/svg">
<g opacity="0.25" clip-path="url(#clip0_261_3878)">
<path d="M116.104 863.168C126.151 863.168 145.431 858 137.425 832.924C132.982 819.049 120.004 808.377 120.004 808.377C120.004 808.377 104.03 816.93 98.3611 833.841C95.9721 840.96 95.3005 863.245 116.104 863.168Z" stroke="#E0F2ED" stroke-width="3.5" stroke-linecap="round" stroke-linejoin="round"/>
<path d="M131.175 820.754C131.175 820.754 151.565 800.626 118.261 774.245C118.261 774.245 84.802 795.045 105.645 820.754" stroke="#E0F2ED" stroke-width="3.5" stroke-linecap="round" stroke-linejoin="round"/>
<path d="M156.149 826.4C156.149 826.4 163.756 819.565 159.287 806.543C155.646 795.923 154.948 787.642 157.428 780.511C157.428 780.511 139.788 782.978 132.35 789.192" stroke="#E0F2ED" stroke-width="3.5" stroke-linecap="round" stroke-linejoin="round"/>
<path d="M78.0481 826.4C78.0481 826.4 70.442 819.565 74.9101 806.543C78.5518 795.923 79.2491 787.642 76.7697 780.511C76.7697 780.511 94.4096 782.978 101.848 789.192" stroke="#E0F2ED" stroke-width="3.5" stroke-linecap="round" stroke-linejoin="round"/>
<path d="M143.727 783.663C143.727 783.663 142.177 771.377 134.08 763.6C125.983 755.822 121.244 750.758 118.08 747.696C118.08 747.696 112.915 753.432 98.8004 764.491C89.7609 771.61 90.4711 783.637 90.4711 783.637" stroke="#E0F2ED" stroke-width="3.5" stroke-linecap="round" stroke-linejoin="round"/>
<path d="M32.1533 353.223V338.288" stroke="#E0F2ED" stroke-width="3.5" stroke-linecap="round" stroke-linejoin="round"/>
<path d="M32.1533 378.066V361.698" stroke="#E0F2ED" stroke-width="3.5" stroke-linecap="round" stroke-linejoin="round"/>
<path d="M32.1533 409.163V387.071" stroke="#E0F2ED" stroke-width="3.5" stroke-linecap="round" stroke-linejoin="round"/>
<path d="M32.1533 417.935C32.1533 417.935 47.3009 425.557 32.1533 444.768C32.1533 444.703 18.0903 428.748 32.1533 417.935Z" stroke="#E0F2ED" stroke-width="3.5" stroke-linecap="round" stroke-linejoin="round"/>
<path d="M32.3987 401.14C50.3873 411.565 41.9289 430.35 41.9289 430.35L38.8813 428.98" stroke="#E0F2ED" stroke-width="3.5" stroke-linecap="round" stroke-linejoin="round"/>
<path d="M32.0242 401.14C12.1501 411.565 22.6877 430.35 22.6877 430.35L25.9031 429.058" stroke="#E0F2ED" stroke-width="3.5" stroke-linecap="round" stroke-linejoin="round"/>
<path d="M32.0242 378.066C59.4784 383.389 50.3873 415.997 50.3873 415.997C48.1339 414.786 45.7894 413.754 43.3752 412.909" stroke="#E0F2ED" stroke-width="3.5" stroke-linecap="round" stroke-linejoin="round"/>
<path d="M32.0242 353.223C67.1878 353.223 58.3162 392.846 58.3162 392.846C58.3162 392.846 51.8594 388.686 47.301 387.368" stroke="#E0F2ED" stroke-width="3.5" stroke-linecap="round" stroke-linejoin="round"/>
<path d="M32.2564 353.223C-2.89433 353.223 5.97729 392.846 5.97729 392.846C5.97729 392.846 12.4341 388.686 16.9926 387.368" stroke="#E0F2ED" stroke-width="3.5" stroke-linecap="round" stroke-linejoin="round"/>
<path d="M32.3083 378.066C4.84102 383.389 13.8806 415.997 13.8806 415.997C16.1339 414.786 18.4784 413.754 20.8927 412.909" stroke="#E0F2ED" stroke-width="3.5" stroke-linecap="round" stroke-linejoin="round"/>
<path d="M38.4163 346.556C38.4163 346.556 55.8754 343.507 63.3524 363.287C68.7373 377.498 65.9351 396.657 65.9351 443.631" stroke="#E0F2ED" stroke-width="3.5" stroke-linecap="round" stroke-linejoin="round"/>
<path d="M25.2702 346.582C25.2702 346.582 8.48253 343.507 1.05721 363.287C-4.34067 377.498 -1.52551 396.657 -1.52551 443.631" stroke="#E0F2ED" stroke-width="3.5" stroke-linecap="round" stroke-linejoin="round"/>
<path d="M85.8997 666.215V697.286" stroke="#E0F2ED" stroke-width="3.5" stroke-linecap="round" stroke-linejoin="round"/>
<path d="M85.8997 614.5V648.567" stroke="#E0F2ED" stroke-width="3.5" stroke-linecap="round" stroke-linejoin="round"/>
<path d="M85.8997 549.839V595.78" stroke="#E0F2ED" stroke-width="3.5" stroke-linecap="round" stroke-linejoin="round"/>
<path d="M85.8995 531.714C85.8995 531.714 54.3905 515.836 85.8995 475.877C85.8995 475.877 115.149 509.079 85.8995 531.714Z" stroke="#E0F2ED" stroke-width="3.5" stroke-linecap="round" stroke-linejoin="round"/>
<path d="M85.396 566.505C47.9466 544.814 65.5479 505.785 65.5479 505.785L71.9013 508.653" stroke="#E0F2ED" stroke-width="3.5" stroke-linecap="round" stroke-linejoin="round"/>
<path d="M86.1965 566.505C127.52 544.814 105.567 505.785 105.567 505.785L98.8906 508.369" stroke="#E0F2ED" stroke-width="3.5" stroke-linecap="round" stroke-linejoin="round"/>
<path d="M86.1967 614.5C29.0799 603.428 47.9983 535.602 47.9983 535.602C52.6797 538.138 57.5548 540.298 62.5777 542.062" stroke="#E0F2ED" stroke-width="3.5" stroke-linecap="round" stroke-linejoin="round"/>
<path d="M86.1966 666.202C13.0541 666.267 31.5205 583.778 31.5205 583.778C31.5205 583.778 44.9894 592.421 54.4292 595.16" stroke="#E0F2ED" stroke-width="3.5" stroke-linecap="round" stroke-linejoin="round"/>
<path d="M85.667 666.202C158.81 666.267 140.343 583.778 140.343 583.778C140.343 583.778 126.861 592.421 117.422 595.16" stroke="#E0F2ED" stroke-width="3.5" stroke-linecap="round" stroke-linejoin="round"/>
<path d="M85.5896 614.5C142.706 603.428 123.788 535.602 123.788 535.602C119.107 538.138 114.231 540.298 109.209 542.062" stroke="#E0F2ED" stroke-width="3.5" stroke-linecap="round" stroke-linejoin="round"/>
<path d="M72.8181 680.064C72.8181 680.064 36.4922 686.395 20.9442 645.26C9.73522 615.546 15.5205 575.833 15.6626 478.112" stroke="#E0F2ED" stroke-width="3.5" stroke-linecap="round" stroke-linejoin="round"/>
<path d="M100.221 680.013C100.221 680.013 135.087 686.395 150.584 645.26C161.806 615.546 156.007 575.833 155.865 478.112" stroke="#E0F2ED" stroke-width="3.5" stroke-linecap="round" stroke-linejoin="round"/>
<path d="M445.427 379.901C372.284 379.836 390.763 462.325 390.763 462.325C390.763 462.325 404.232 453.682 413.672 450.943" stroke="#E0F2ED" stroke-width="3.5" stroke-linecap="round" stroke-linejoin="round"/>
<path d="M430.873 366.09C430.873 366.09 396.006 359.708 380.51 400.843C369.288 430.557 375.086 470.27 375.228 568.004" stroke="#E0F2ED" stroke-width="3.5" stroke-linecap="round" stroke-linejoin="round"/>
<path d="M5.2801 273.705C5.2801 273.705 29.816 250.179 4.89271 226.667C4.84105 226.731 -19.6948 245.619 5.2801 273.705Z" stroke="#E0F2ED" stroke-width="3.5" stroke-linecap="round" stroke-linejoin="round"/>
<path d="M15.1719 209.6C20.1307 200.854 21.0863 185.816 6.13235 165.921C6.13235 165.921 -16.6601 188.038 -4.10812 208.903" stroke="#E0F2ED" stroke-width="3.5" stroke-linecap="round" stroke-linejoin="round"/>
<path d="M14.8362 241.808C23.5529 228.062 18.4779 210.802 5.2802 193.245C5.2802 193.245 -15.0974 216.499 -4.66322 239.211" stroke="#E0F2ED" stroke-width="3.5" stroke-linecap="round" stroke-linejoin="round"/>
<path d="M5.28003 291.611V299.699" stroke="#E0F2ED" stroke-width="3.5" stroke-linecap="round" stroke-linejoin="round"/>
<path d="M15.6755 254.146C24.715 246.058 39.1395 241.808 39.1395 241.808C38.8166 280.901 5.28003 273.705 5.28003 273.705V279.7" stroke="#E0F2ED" stroke-width="3.5" stroke-linecap="round" stroke-linejoin="round"/>
<path d="M3.2139 273.705C3.2139 273.705 -30.3614 280.901 -30.6455 241.808C-30.6455 241.808 -16.2727 246.058 -7.18152 254.146" stroke="#E0F2ED" stroke-width="3.5" stroke-linecap="round" stroke-linejoin="round"/>
<path d="M17.1348 214.858C17.1348 214.858 22.8684 207.843 34.581 205.557C34.581 205.557 40.4696 230.349 27.9176 246.291" stroke="#E0F2ED" stroke-width="3.5" stroke-linecap="round" stroke-linejoin="round"/>
<path d="M30.3583 206.655C33.5996 199.278 30.3583 175.92 30.3583 175.92C21.5512 178.853 17.1348 187.302 17.1348 187.302" stroke="#E0F2ED" stroke-width="3.5" stroke-linecap="round" stroke-linejoin="round"/>
<path d="M6.10645 150.547V121.44" stroke="#E0F2ED" stroke-width="3.5" stroke-linecap="round" stroke-linejoin="round"/>
<path d="M18.4004 139.424V165.921" stroke="#E0F2ED" stroke-width="3.5" stroke-linecap="round" stroke-linejoin="round"/>
<path d="M29.9839 175.933V156.968" stroke="#E0F2ED" stroke-width="3.5" stroke-linecap="round" stroke-linejoin="round"/>
<path d="M316.549 406.85C316.549 406.85 341.085 383.324 316.149 359.812C316.149 359.799 291.613 378.764 316.549 406.85Z" stroke="#E0F2ED" stroke-width="3.5" stroke-linecap="round" stroke-linejoin="round"/>
<path d="M326.389 342.745C331.361 333.999 332.304 318.961 317.35 299.065C317.35 299.065 294.557 321.183 307.109 342.047" stroke="#E0F2ED" stroke-width="3.5" stroke-linecap="round" stroke-linejoin="round"/>
<path d="M326.092 374.965C334.822 361.207 329.747 343.959 316.549 326.402C316.549 326.402 296.171 349.657 306.606 372.356" stroke="#E0F2ED" stroke-width="3.5" stroke-linecap="round" stroke-linejoin="round"/>
<path d="M316.549 424.769V432.844" stroke="#E0F2ED" stroke-width="3.5" stroke-linecap="round" stroke-linejoin="round"/>
<path d="M326.944 387.29C335.984 379.203 350.396 374.966 350.396 374.966C350.073 414.046 316.549 406.85 316.549 406.85V412.767" stroke="#E0F2ED" stroke-width="3.5" stroke-linecap="round" stroke-linejoin="round"/>
<path d="M314.47 406.85C314.47 406.85 280.895 414.046 280.611 374.966C280.611 374.966 294.996 379.203 304.075 387.29" stroke="#E0F2ED" stroke-width="3.5" stroke-linecap="round" stroke-linejoin="round"/>
<path d="M328.391 347.99C328.391 347.99 334.125 340.988 345.85 338.701C345.85 338.701 351.726 363.493 339.187 379.436" stroke="#E0F2ED" stroke-width="3.5" stroke-linecap="round" stroke-linejoin="round"/>
<path d="M303.597 347.99C303.597 347.99 297.863 340.988 286.15 338.701C286.15 338.701 280.262 363.493 292.801 379.436" stroke="#E0F2ED" stroke-width="3.5" stroke-linecap="round" stroke-linejoin="round"/>
<path d="M341.614 339.8C344.869 332.423 341.614 309.078 341.614 309.078C332.82 311.998 328.391 320.447 328.391 320.447" stroke="#E0F2ED" stroke-width="3.5" stroke-linecap="round" stroke-linejoin="round"/>
<path d="M305.353 299.066L305.301 272.568" stroke="#E0F2ED" stroke-width="3.5" stroke-linecap="round" stroke-linejoin="round"/>
<path d="M304.565 320.447C304.565 320.447 300.136 311.998 291.355 309.078C291.355 309.078 288.088 332.423 291.355 339.8" stroke="#E0F2ED" stroke-width="3.5" stroke-linecap="round" stroke-linejoin="round"/>
<path d="M317.375 283.692V254.585" stroke="#E0F2ED" stroke-width="3.5" stroke-linecap="round" stroke-linejoin="round"/>
<path d="M329.656 272.568V299.066" stroke="#E0F2ED" stroke-width="3.5" stroke-linecap="round" stroke-linejoin="round"/>
<path d="M291.355 309.078V290.113" stroke="#E0F2ED" stroke-width="3.5" stroke-linecap="round" stroke-linejoin="round"/>
<path d="M341.24 309.078V290.113" stroke="#E0F2ED" stroke-width="3.5" stroke-linecap="round" stroke-linejoin="round"/>
<path d="M229.537 594.927C229.537 594.927 229.176 627.91 218.432 646.423" stroke="#E0F2ED" stroke-width="3.5" stroke-linecap="round" stroke-linejoin="round"/>
<path d="M200.534 674.315C200.534 674.315 216.598 693.797 203.839 707.556C203.839 707.556 188.124 698.048 200.534 674.315Z" stroke="#E0F2ED" stroke-width="3.5" stroke-linecap="round" stroke-linejoin="round"/>
<path d="M216.753 656.461C216.753 656.461 232.818 675.943 220.059 689.689C220.059 689.689 204.343 680.194 216.753 656.461Z" stroke="#E0F2ED" stroke-width="3.5" stroke-linecap="round" stroke-linejoin="round"/>
<path d="M186.238 693.694C186.238 693.694 199.152 716.626 182.79 726.909C182.79 726.909 169.747 712.491 186.238 693.694Z" stroke="#E0F2ED" stroke-width="3.5" stroke-linecap="round" stroke-linejoin="round"/>
<path d="M194.154 670.866C194.154 670.866 171.426 659.807 161.095 675.452C161.095 675.452 174.009 688.501 194.154 670.866Z" stroke="#E0F2ED" stroke-width="3.5" stroke-linecap="round" stroke-linejoin="round"/>
<path d="M210.89 651.242C210.89 651.242 188.214 640.144 177.883 655.815C177.883 655.815 190.797 668.863 210.89 651.242Z" stroke="#E0F2ED" stroke-width="3.5" stroke-linecap="round" stroke-linejoin="round"/>
<path d="M179.82 689.65C179.82 689.65 154.458 682.61 148.414 700.968C148.414 700.968 165.602 710.153 179.82 689.65Z" stroke="#E0F2ED" stroke-width="3.5" stroke-linecap="round" stroke-linejoin="round"/>
<path d="M168.843 710.489C168.843 710.489 175.468 724.597 150.222 738.201C150.209 738.201 149.886 710.734 168.843 710.489Z" stroke="#E0F2ED" stroke-width="3.5" stroke-linecap="round" stroke-linejoin="round"/>
<path d="M150.209 738.201C150.209 738.201 149.886 710.734 168.831 710.489" stroke="#E0F2ED" stroke-width="3.5" stroke-linecap="round" stroke-linejoin="round"/>
<path d="M177.392 732.942C177.392 732.942 170.174 740.048 164.375 745.345" stroke="#E0F2ED" stroke-width="3.5" stroke-linecap="round" stroke-linejoin="round"/>
<path d="M229.537 594.927C229.537 594.927 228.543 627.91 239.287 646.423" stroke="#E0F2ED" stroke-width="3.5" stroke-linecap="round" stroke-linejoin="round"/>
<path d="M257.289 674.315C257.289 674.315 241.211 693.797 253.983 707.556C253.983 707.556 269.686 698.048 257.289 674.315Z" stroke="#E0F2ED" stroke-width="3.5" stroke-linecap="round" stroke-linejoin="round"/>
<path d="M241.056 656.461C241.056 656.461 224.992 675.943 237.763 689.689C237.763 689.689 253.466 680.194 241.056 656.461Z" stroke="#E0F2ED" stroke-width="3.5" stroke-linecap="round" stroke-linejoin="round"/>
<path d="M271.584 693.694C271.584 693.694 258.67 716.626 275.019 726.909C275.019 726.909 288.075 712.491 271.584 693.694Z" stroke="#E0F2ED" stroke-width="3.5" stroke-linecap="round" stroke-linejoin="round"/>
<path d="M263.668 670.866C263.668 670.866 286.357 659.807 296.688 675.452C296.688 675.452 283.774 688.501 263.668 670.866Z" stroke="#E0F2ED" stroke-width="3.5" stroke-linecap="round" stroke-linejoin="round"/>
<path d="M246.919 651.242C246.919 651.242 269.569 640.144 279.991 655.815C279.991 655.815 267.077 668.863 246.919 651.242Z" stroke="#E0F2ED" stroke-width="3.5" stroke-linecap="round" stroke-linejoin="round"/>
<path d="M277.989 689.65C277.989 689.65 303.352 682.61 309.408 700.968C309.408 700.968 292.207 710.153 277.989 689.65Z" stroke="#E0F2ED" stroke-width="3.5" stroke-linecap="round" stroke-linejoin="round"/>
<path d="M288.94 710.489C288.94 710.489 282.315 724.597 307.561 738.201C307.613 738.201 307.936 710.734 288.94 710.489Z" stroke="#E0F2ED" stroke-width="3.5" stroke-linecap="round" stroke-linejoin="round"/>
<path d="M307.613 738.201C307.613 738.201 307.936 710.734 288.992 710.489" stroke="#E0F2ED" stroke-width="3.5" stroke-linecap="round" stroke-linejoin="round"/>
<path d="M280.417 732.942C280.417 732.942 287.649 740.048 293.447 745.345" stroke="#E0F2ED" stroke-width="3.5" stroke-linecap="round" stroke-linejoin="round"/>
<path d="M154.639 680.09C152.379 682.139 150.281 684.359 148.363 686.731" stroke="#E0F2ED" stroke-width="3.5" stroke-linecap="round" stroke-linejoin="round"/>
<path d="M304.204 680.09C306.463 682.139 308.561 684.359 310.48 686.731" stroke="#E0F2ED" stroke-width="3.5" stroke-linecap="round" stroke-linejoin="round"/>
<path d="M59.7755 784.206C59.7755 784.206 50.4131 750.5 33.7158 735.113" stroke="#E0F2ED" stroke-width="3.5" stroke-linecap="round" stroke-linejoin="round"/>
<path d="M6.7523 712.491C6.7523 712.491 16.8894 687.725 -0.363083 677.803C-0.324342 677.829 -13.2379 692.402 6.7523 712.491Z" stroke="#E0F2ED" stroke-width="3.5" stroke-linecap="round" stroke-linejoin="round"/>
<path d="M28.7828 725.488C28.7828 725.488 38.9199 700.709 21.6803 690.8C21.6287 690.8 8.7151 705.373 28.7828 725.488Z" stroke="#E0F2ED" stroke-width="3.5" stroke-linecap="round" stroke-linejoin="round"/>
<path d="M1.38006 718.021C1.38006 718.021 -18.1194 736.353 -33.4866 723.796C-33.5382 723.796 -24.5762 706.523 1.38006 718.021Z" stroke="#E0F2ED" stroke-width="3.5" stroke-linecap="round" stroke-linejoin="round"/>
<path d="M24.4955 732.62C24.4955 732.62 5.00895 750.952 -10.3711 738.394C-10.4228 738.394 -1.44783 721.122 24.4955 732.62Z" stroke="#E0F2ED" stroke-width="3.5" stroke-linecap="round" stroke-linejoin="round"/>
<path d="M92.2144 447.184C92.2144 447.184 115.201 423.451 135.979 418.258" stroke="#E0F2ED" stroke-width="3.5" stroke-linecap="round" stroke-linejoin="round"/>
<path d="M168.572 411.669C168.572 411.669 171.336 386.528 190.125 386.102C190.125 386.102 194.257 404.021 168.572 411.669Z" stroke="#E0F2ED" stroke-width="3.5" stroke-linecap="round" stroke-linejoin="round"/>
<path d="M144.424 412.457C144.424 412.457 147.2 387.329 165.99 386.903C165.99 386.929 170.135 404.822 144.424 412.457Z" stroke="#E0F2ED" stroke-width="3.5" stroke-linecap="round" stroke-linejoin="round"/>
<path d="M192.45 408.426C192.45 408.426 199.901 383.131 218.703 387.756C218.703 387.717 217.412 407.199 192.45 408.426Z" stroke="#E0F2ED" stroke-width="3.5" stroke-linecap="round" stroke-linejoin="round"/>
<path d="M170.535 418.658C170.535 418.658 178.438 442.675 196.905 439.226C196.905 439.226 197.253 420.842 170.535 418.658Z" stroke="#E0F2ED" stroke-width="3.5" stroke-linecap="round" stroke-linejoin="round"/>
<path d="M144.772 420.325C144.772 420.325 152.663 444.341 171.129 440.892C171.129 440.892 171.426 422.495 144.772 420.325Z" stroke="#E0F2ED" stroke-width="3.5" stroke-linecap="round" stroke-linejoin="round"/>
<path d="M194.025 415.855C194.025 415.855 206.667 438.993 224.062 430.531C224.062 430.531 218.664 411.759 194.025 415.855Z" stroke="#E0F2ED" stroke-width="3.5" stroke-linecap="round" stroke-linejoin="round"/>
<path d="M216.624 409.214C216.624 409.214 222.125 394.603 249.515 403.259C249.553 403.259 230.054 422.663 216.624 409.214Z" stroke="#E0F2ED" stroke-width="3.5" stroke-linecap="round" stroke-linejoin="round"/>
<path d="M249.553 403.259C249.553 403.259 230.054 422.637 216.663 409.214" stroke="#E0F2ED" stroke-width="3.5" stroke-linecap="round" stroke-linejoin="round"/>
<path d="M226.812 387.381C226.812 387.381 236.95 387.626 244.788 388.091" stroke="#E0F2ED" stroke-width="3.5" stroke-linecap="round" stroke-linejoin="round"/>
<path d="M205.454 441.344C208.499 441.55 211.557 441.511 214.596 441.228" stroke="#E0F2ED" stroke-width="3.5" stroke-linecap="round" stroke-linejoin="round"/>
<path d="M259.355 262.052C259.355 262.052 267.31 258.693 269.686 255.45C275.071 247.893 269.389 242.363 269.234 233.372C269.234 233.372 270.267 238.242 262.919 246.123C255.571 254.003 259.355 262.052 259.355 262.052Z" stroke="#E0F2ED" stroke-width="3.5" stroke-linecap="round" stroke-linejoin="round"/>
<path d="M251.077 256.445C251.077 256.445 244.84 262.427 240.953 263.266C231.914 265.217 228.182 259.83 219.981 256.135C219.981 256.135 224.927 256.975 235.065 253.357C245.202 249.74 251.077 256.445 251.077 256.445Z" stroke="#E0F2ED" stroke-width="3.5" stroke-linecap="round" stroke-linejoin="round"/>
<path d="M242.102 239.56C242.102 239.56 235.865 245.554 231.978 246.381C222.939 248.345 219.194 242.945 210.994 239.25C210.994 239.25 215.952 240.102 226.09 236.472C236.227 232.842 242.102 239.56 242.102 239.56Z" stroke="#E0F2ED" stroke-width="3.5" stroke-linecap="round" stroke-linejoin="round"/>
<path d="M229.447 224.858C229.447 224.858 223.21 230.84 219.336 231.679C210.296 233.63 206.551 228.243 198.351 224.548C198.351 224.548 203.297 225.401 213.434 221.77C223.571 218.14 229.447 224.858 229.447 224.858Z" stroke="#E0F2ED" stroke-width="3.5" stroke-linecap="round" stroke-linejoin="round"/>
<path d="M214.881 209.497C214.881 209.497 208.643 215.479 204.756 216.318C195.717 218.269 191.985 212.882 183.785 209.187C183.785 209.187 188.731 210.04 198.868 206.409C209.005 202.779 214.881 209.497 214.881 209.497Z" stroke="#E0F2ED" stroke-width="3.5" stroke-linecap="round" stroke-linejoin="round"/>
<path d="M198.351 195.312C198.351 195.312 192.088 201.293 188.214 202.185C179.174 204.136 175.442 198.748 167.229 195.041C167.229 195.041 172.188 195.906 182.325 192.276C192.462 188.646 198.351 195.312 198.351 195.312Z" stroke="#E0F2ED" stroke-width="3.5" stroke-linecap="round" stroke-linejoin="round"/>
<path d="M250.651 246.239C250.651 246.239 257.767 241.33 259.368 237.7C263.113 229.199 256.424 224.935 254.448 216.163C254.448 216.163 256.449 220.724 250.858 229.922C245.266 239.121 250.651 246.239 250.651 246.239Z" stroke="#E0F2ED" stroke-width="3.5" stroke-linecap="round" stroke-linejoin="round"/>
<path d="M239.468 228.824C239.468 228.824 245.576 222.726 246.506 218.863C248.662 209.82 241.34 206.836 237.815 198.554C237.815 198.554 240.591 202.689 236.743 212.766C232.895 222.842 239.468 228.824 239.468 228.824Z" stroke="#E0F2ED" stroke-width="3.5" stroke-linecap="round" stroke-linejoin="round"/>
<path d="M226.077 215.569C226.077 215.569 231.487 208.838 231.991 204.885C233.14 195.686 225.534 193.503 221.118 185.648C221.118 185.648 224.333 189.524 221.608 199.859C218.884 210.195 226.077 215.569 226.077 215.569Z" stroke="#E0F2ED" stroke-width="3.5" stroke-linecap="round" stroke-linejoin="round"/>
<path d="M210.593 197.456C210.593 197.456 213.757 189.421 213.06 185.506C211.42 176.372 203.491 176.566 196.957 170.391C196.957 170.391 201.153 173.065 201.657 183.814C202.161 194.562 210.593 197.456 210.593 197.456Z" stroke="#E0F2ED" stroke-width="3.5" stroke-linecap="round" stroke-linejoin="round"/>
<path d="M198.351 195.312C191.313 190.002 170.587 176.075 167.242 174.215" stroke="#E0F2ED" stroke-width="3.5" stroke-linecap="round" stroke-linejoin="round"/>
<path d="M273.108 286.457C273.108 286.457 269.918 275.462 259.355 262.052" stroke="#E0F2ED" stroke-width="3.5" stroke-linecap="round" stroke-linejoin="round"/>
<path d="M116.104 117.732C126.151 117.732 145.431 112.565 137.425 87.4885C132.982 73.6134 120.004 62.9421 120.004 62.9421C120.004 62.9421 104.03 71.4817 98.3611 88.38C95.9721 95.5242 95.3005 117.81 116.104 117.732Z" stroke="#E0F2ED" stroke-width="3.5" stroke-linecap="round" stroke-linejoin="round"/>
<path d="M131.175 75.3188C131.175 75.3188 151.565 55.1907 118.261 28.8098C118.261 28.8098 84.802 49.6097 105.645 75.3188" stroke="#E0F2ED" stroke-width="3.5" stroke-linecap="round" stroke-linejoin="round"/>
<path d="M120.624 117.732C120.624 117.732 135.798 133.235 153.373 119.114C168.689 106.803 153.631 92.4752 163.704 82.9408C163.704 82.9408 146.813 76.3262 136.482 85.0983" stroke="#E0F2ED" stroke-width="3.5" stroke-linecap="round" stroke-linejoin="round"/>
<path d="M114.322 117.732C114.322 117.732 99.1489 133.235 81.5735 119.114C66.258 106.803 81.3153 92.4752 71.2427 82.9408C71.2427 82.9408 88.1336 76.3262 98.4645 85.0983" stroke="#E0F2ED" stroke-width="3.5" stroke-linecap="round" stroke-linejoin="round"/>
<path d="M156.149 80.9643C156.149 80.9643 163.756 74.13 159.287 61.1075C155.646 50.488 154.948 42.2068 157.428 35.0754C157.428 35.0754 139.788 37.543 132.35 43.7571" stroke="#E0F2ED" stroke-width="3.5" stroke-linecap="round" stroke-linejoin="round"/>
<path d="M78.0481 80.9643C78.0481 80.9643 70.442 74.13 74.9101 61.1075C78.5518 50.488 79.2491 42.2068 76.7697 35.0754C76.7697 35.0754 94.4096 37.543 101.848 43.7571" stroke="#E0F2ED" stroke-width="3.5" stroke-linecap="round" stroke-linejoin="round"/>
<path d="M143.727 38.2277C143.727 38.2277 142.177 25.9416 134.08 18.1642C125.983 10.3869 121.244 5.32258 118.08 2.26074C118.08 2.26074 112.915 7.99685 98.8004 19.0556C89.7609 26.1741 90.4711 38.2018 90.4711 38.2018" stroke="#E0F2ED" stroke-width="3.5" stroke-linecap="round" stroke-linejoin="round"/>
<path d="M116.104 117.732V154.474" stroke="#E0F2ED" stroke-width="3.5" stroke-linecap="round" stroke-linejoin="round"/>
<path d="M125.131 140.935C125.131 140.935 135.268 159.552 155.556 158.673C175.843 157.795 172.782 126.931 172.782 126.931C172.782 126.931 167.436 139.527 155.556 139.527C143.675 139.527 138.807 128.791 125.131 140.935Z" stroke="#E0F2ED" stroke-width="3.5" stroke-linecap="round" stroke-linejoin="round"/>
<path d="M107.814 140.935C107.814 140.935 97.7154 159.552 77.4023 158.673C57.0893 157.795 60.1627 126.931 60.1627 126.931C60.1627 126.931 65.5347 139.527 77.4023 139.527C89.2699 139.527 94.1383 128.791 107.814 140.935Z" stroke="#E0F2ED" stroke-width="3.5" stroke-linecap="round" stroke-linejoin="round"/>
<path d="M390.957 710.786C400.991 710.786 420.284 705.618 412.265 680.555C407.835 666.68 394.857 656.009 394.857 656.009C394.857 656.009 378.818 664.535 373.149 681.485C370.747 688.578 370.089 710.864 390.957 710.786Z" stroke="#E0F2ED" stroke-width="3.5" stroke-linecap="round" stroke-linejoin="round"/>
<path d="M405.963 668.372C405.963 668.372 426.34 648.244 393.049 621.864C393.049 621.864 359.603 642.663 380.433 668.372" stroke="#E0F2ED" stroke-width="3.5" stroke-linecap="round" stroke-linejoin="round"/>
<path d="M389.111 710.786C389.111 710.786 373.937 726.289 356.362 712.168C341.046 699.856 356.09 685.542 346.031 675.995C346.031 675.995 362.922 669.393 373.24 678.152" stroke="#E0F2ED" stroke-width="3.5" stroke-linecap="round" stroke-linejoin="round"/>
<path d="M352.823 674.018C352.823 674.018 345.23 667.184 349.685 654.174C353.34 643.542 354.024 635.261 351.545 628.142C351.545 628.142 369.198 630.597 376.636 636.811" stroke="#E0F2ED" stroke-width="3.5" stroke-linecap="round" stroke-linejoin="round"/>
<path d="M418.502 631.295C418.502 631.295 416.952 618.996 408.868 611.218C400.784 603.441 396.032 598.377 392.856 595.315C392.856 595.315 387.69 601.051 373.588 612.11C364.549 619.215 365.259 631.256 365.259 631.256" stroke="#E0F2ED" stroke-width="3.5" stroke-linecap="round" stroke-linejoin="round"/>
<path d="M390.893 710.799V747.528" stroke="#E0F2ED" stroke-width="3.5" stroke-linecap="round" stroke-linejoin="round"/>
<path d="M382.602 733.989C382.602 733.989 372.504 752.67 352.216 751.727C331.929 750.784 334.99 719.985 334.99 719.985C334.99 719.985 340.336 732.594 352.216 732.594C364.097 732.594 368.927 721.845 382.602 733.989Z" stroke="#E0F2ED" stroke-width="3.5" stroke-linecap="round" stroke-linejoin="round"/>
<path d="M133.59 329.826C133.59 329.826 128.837 341.453 109.428 339.27" stroke="#E0F2ED" stroke-width="3.5" stroke-linecap="round" stroke-linejoin="round"/>
<path d="M116.092 252.815C116.092 252.815 133.073 268.563 133.577 284.286C134.08 300.009 118.597 301.081 117.59 301.081C116.582 301.081 101.616 302.089 100.621 286.599C100.001 277.013 104.366 264.558 116.092 252.815Z" stroke="#E0F2ED" stroke-width="3.5" stroke-linecap="round" stroke-linejoin="round"/>
<path d="M124.305 299.453C124.305 299.453 143.92 308.807 149.68 288.278C150.816 284.209 153.179 273.77 155.672 270.282C155.672 270.282 152.03 270.023 143.907 273.718" stroke="#E0F2ED" stroke-width="3.5" stroke-linecap="round" stroke-linejoin="round"/>
<path d="M106.006 299.453C106.006 299.453 86.3903 308.807 80.6308 288.278C79.4815 284.209 77.1312 273.77 74.6389 270.282C74.6389 270.282 95.8947 271.948 100.557 279.558" stroke="#E0F2ED" stroke-width="3.5" stroke-linecap="round" stroke-linejoin="round"/>
<path d="M143.907 273.718C143.907 273.718 154.109 270.398 150.765 254.843C149.15 247.363 151.785 239.34 153.425 238.255C153.425 238.255 133.59 236.64 124.305 262.194" stroke="#E0F2ED" stroke-width="3.5" stroke-linecap="round" stroke-linejoin="round"/>
<path d="M99.1102 252.815C99.1102 252.815 92.0981 240.477 73.283 242.803C73.283 242.803 76.2014 243.384 77.312 252.815C79.4815 271.457 86.0674 272.116 86.0674 272.116" stroke="#E0F2ED" stroke-width="3.5" stroke-linecap="round" stroke-linejoin="round"/>
<path d="M130.916 249.895C130.916 249.895 138.432 233.953 114.025 220.814C105.454 227.485 99.38 236.852 96.7856 247.402" stroke="#E0F2ED" stroke-width="3.5" stroke-linecap="round" stroke-linejoin="round"/>
<path d="M143.959 239.973C143.959 239.973 148.828 228.036 145.418 211.771C139.618 213.555 134.044 216.009 128.812 219.083" stroke="#E0F2ED" stroke-width="3.5" stroke-linecap="round" stroke-linejoin="round"/>
<path d="M85.0731 242.815C82.498 238.809 80.747 234.329 79.9221 229.637C79.0973 224.946 79.2153 220.137 80.2693 215.491C80.2693 215.491 100.557 215.491 104.805 230.374" stroke="#E0F2ED" stroke-width="3.5" stroke-linecap="round" stroke-linejoin="round"/>
<path d="M130.103 216.46C130.103 216.46 126.138 200.647 111.249 195.506C111.249 195.506 97.1086 205.285 95.0295 219.083" stroke="#E0F2ED" stroke-width="3.5" stroke-linecap="round" stroke-linejoin="round"/>
<path d="M115.898 301.029C115.898 301.029 115.201 329.839 151.294 335.911C178.903 340.562 212.724 309.84 220.162 357.874" stroke="#E0F2ED" stroke-width="3.5" stroke-linecap="round" stroke-linejoin="round"/>
<path d="M100.557 336.544C104.611 333.043 112.837 311.998 68.1563 311.403C68.1176 311.403 81.4961 352.99 100.557 336.544Z" stroke="#E0F2ED" stroke-width="3.5" stroke-linecap="round" stroke-linejoin="round"/>
<path d="M165.267 324.129C165.267 324.129 203.116 329.671 204.666 285.927C204.666 285.927 145.096 276.883 165.267 324.129Z" stroke="#E0F2ED" stroke-width="3.5" stroke-linecap="round" stroke-linejoin="round"/>
<path d="M165.267 324.129L180.337 306.752" stroke="#E0F2ED" stroke-width="3.5" stroke-linecap="round" stroke-linejoin="round"/>
<path d="M100.557 336.544L88.1079 325.899" stroke="#E0F2ED" stroke-width="3.5" stroke-linecap="round" stroke-linejoin="round"/>
<path d="M239.739 794.761C239.739 794.761 258.141 802.28 263.293 814.785C268.446 827.291 256.294 832.769 255.545 833.066C254.796 833.363 243.006 838.699 237.466 826.606C234.109 819.075 233.85 807.744 239.739 794.761Z" stroke="#E0F2ED" stroke-width="3.5" stroke-linecap="round" stroke-linejoin="round"/>
<path d="M260.414 829.772C260.414 829.772 279.009 831.361 277.447 813.119C277.137 809.501 275.871 800.406 276.827 796.841C276.827 796.841 273.818 797.732 268.407 803.158" stroke="#E0F2ED" stroke-width="3.5" stroke-linecap="round" stroke-linejoin="round"/>
<path d="M245.705 835.301C245.705 835.301 232.792 848.75 221.931 834.009C219.775 831.077 214.738 823.403 211.678 821.348C211.678 821.348 229.266 816.271 235.31 820.974" stroke="#E0F2ED" stroke-width="3.5" stroke-linecap="round" stroke-linejoin="round"/>
<path d="M268.407 803.158C268.407 803.158 275.6 797.409 268.226 785.911C264.675 780.395 264.352 773.121 265.347 771.7C265.347 771.7 248.921 776.402 249.166 799.76" stroke="#E0F2ED" stroke-width="3.5" stroke-linecap="round" stroke-linejoin="round"/>
<path d="M226.064 799.89C226.064 799.89 216.714 792.138 202.29 799.644C202.29 799.644 204.872 799.231 208.54 806.478C215.926 820.806 221.453 819.397 221.453 819.397" stroke="#E0F2ED" stroke-width="3.5" stroke-linecap="round" stroke-linejoin="round"/>
<path d="M250.767 787.926C250.767 787.926 251.994 772.85 228.414 769.646C223.543 777.589 221.478 786.938 222.551 796.195" stroke="#E0F2ED" stroke-width="3.5" stroke-linecap="round" stroke-linejoin="round"/>
<path d="M258.27 776.015C257.978 767.778 255.432 759.779 250.909 752.89C246.785 756.081 243.046 759.74 239.765 763.793" stroke="#E0F2ED" stroke-width="3.5" stroke-linecap="round" stroke-linejoin="round"/>
<path d="M211.768 796.091C208.491 793.645 205.733 790.572 203.653 787.05C201.574 783.528 200.215 779.628 199.655 775.576C199.655 775.576 215.978 769.439 223.842 780.136" stroke="#E0F2ED" stroke-width="3.5" stroke-linecap="round" stroke-linejoin="round"/>
<path d="M240.049 761.287C240.049 761.287 232.094 749.763 218.574 750.125C218.574 750.125 210.154 762.269 212.646 773.987" stroke="#E0F2ED" stroke-width="3.5" stroke-linecap="round" stroke-linejoin="round"/>
<path d="M254.138 833.57C254.138 833.57 262.286 856.953 293.137 850.946C316.743 846.347 334.654 811.414 355.122 847.845" stroke="#E0F2ED" stroke-width="3.5" stroke-linecap="round" stroke-linejoin="round"/>
<path d="M300.794 837.239C300.794 837.239 332.898 830.262 320.953 794.605C320.953 794.605 270.331 805.367 300.794 837.239" stroke="#E0F2ED" stroke-width="3.5" stroke-linecap="round" stroke-linejoin="round"/>
<path d="M300.794 837.239L307.664 818.713" stroke="#E0F2ED" stroke-width="3.5" stroke-linecap="round" stroke-linejoin="round"/>
<path d="M292.814 497.723C279.048 481.6 266.573 492.556 266.573 492.556" stroke="#E0F2ED" stroke-width="3.5" stroke-linecap="round" stroke-linejoin="round"/>
<path d="M292.814 497.723C292.814 497.723 325.627 482.75 320.823 547.876C320.836 547.876 262.389 520.849 292.814 497.723Z" stroke="#E0F2ED" stroke-width="3.5" stroke-linecap="round" stroke-linejoin="round"/>
<path d="M310.118 542.088C310.118 542.088 312.572 567.215 340.594 574.166C340.594 574.166 337.288 538.742 321.573 534.491" stroke="#E0F2ED" stroke-width="3.5" stroke-linecap="round" stroke-linejoin="round"/>
<path d="M284.046 511.883C284.046 511.883 266.535 522.412 283.942 545.356C288.567 541.181 291.912 535.778 293.589 529.776" stroke="#E0F2ED" stroke-width="3.5" stroke-linecap="round" stroke-linejoin="round"/>
<path d="M305.134 496.909C305.134 496.909 321.857 491.16 331.051 507.245C331.051 507.245 328.649 512.8 318.551 512.8" stroke="#E0F2ED" stroke-width="3.5" stroke-linecap="round" stroke-linejoin="round"/>
<path d="M293.589 531.016C293.589 531.016 284.046 553.883 302.151 563.986C302.151 563.986 312.094 557.733 310.118 542.088" stroke="#E0F2ED" stroke-width="3.5" stroke-linecap="round" stroke-linejoin="round"/>
<path d="M326.389 511.276C326.389 511.276 337.03 516.443 341.317 526.301C341.317 526.301 340.568 535.861 326.919 536.752" stroke="#E0F2ED" stroke-width="3.5" stroke-linecap="round" stroke-linejoin="round"/>
<path d="M305.134 561.247C305.134 561.247 310.299 571.582 322.167 573.623L340.594 574.166" stroke="#E0F2ED" stroke-width="3.5" stroke-linecap="round" stroke-linejoin="round"/>
<path d="M340.594 574.166L346.586 557.733C346.92 553.185 346.332 548.616 344.859 544.301C343.385 539.985 341.056 536.012 338.011 532.618" stroke="#E0F2ED" stroke-width="3.5" stroke-linecap="round" stroke-linejoin="round"/>
<path d="M239.365 497.723C253.156 481.6 265.605 492.556 265.605 492.556" stroke="#E0F2ED" stroke-width="3.5" stroke-linecap="round" stroke-linejoin="round"/>
<path d="M239.365 497.723C239.365 497.723 206.564 482.75 211.368 547.876C211.368 547.876 269.815 520.849 239.365 497.723Z" stroke="#E0F2ED" stroke-width="3.5" stroke-linecap="round" stroke-linejoin="round"/>
<path d="M222.073 542.088C222.073 542.088 219.62 567.215 191.61 574.166C191.61 574.166 194.916 538.742 210.632 534.491" stroke="#E0F2ED" stroke-width="3.5" stroke-linecap="round" stroke-linejoin="round"/>
<path d="M248.146 511.883C248.146 511.883 265.67 522.412 248.249 545.356C243.615 541.184 240.26 535.781 238.577 529.776" stroke="#E0F2ED" stroke-width="3.5" stroke-linecap="round" stroke-linejoin="round"/>
<path d="M227.058 496.909C227.058 496.909 210.348 491.16 201.153 507.245C201.153 507.245 203.555 512.8 213.654 512.8" stroke="#E0F2ED" stroke-width="3.5" stroke-linecap="round" stroke-linejoin="round"/>
<path d="M238.577 531.016C238.577 531.016 248.12 553.883 230.028 563.986C230.028 563.986 220.085 557.733 222.048 542.088" stroke="#E0F2ED" stroke-width="3.5" stroke-linecap="round" stroke-linejoin="round"/>
<path d="M205.802 511.276C205.802 511.276 195.148 516.443 190.861 526.301C190.861 526.301 191.623 535.861 205.273 536.752" stroke="#E0F2ED" stroke-width="3.5" stroke-linecap="round" stroke-linejoin="round"/>
<path d="M227.058 561.247C227.058 561.247 221.892 571.582 210.025 573.623L191.61 574.166" stroke="#E0F2ED" stroke-width="3.5" stroke-linecap="round" stroke-linejoin="round"/>
<path d="M191.61 574.166L185.631 557.733C185.306 553.18 185.904 548.609 187.389 544.294C188.873 539.978 191.214 536.007 194.27 532.618" stroke="#E0F2ED" stroke-width="3.5" stroke-linecap="round" stroke-linejoin="round"/>
<path d="M266.638 492.53V460.142" stroke="#E0F2ED" stroke-width="3.5" stroke-linecap="round" stroke-linejoin="round"/>
<path d="M275.845 480.14C275.845 480.14 283.968 446.912 315.723 458.359C315.723 458.359 307.639 486.613 275.845 480.14Z" stroke="#E0F2ED" stroke-width="3.5" stroke-linecap="round" stroke-linejoin="round"/>
<path d="M256.553 480.14C256.553 480.14 248.43 446.912 216.676 458.359C216.624 458.359 224.759 486.613 256.553 480.14Z" stroke="#E0F2ED" stroke-width="3.5" stroke-linecap="round" stroke-linejoin="round"/>
<path d="M275.845 480.141L292.827 470.477" stroke="#E0F2ED" stroke-width="3.5" stroke-linecap="round" stroke-linejoin="round"/>
<path d="M256.553 480.141L241.121 470.477" stroke="#E0F2ED" stroke-width="3.5" stroke-linecap="round" stroke-linejoin="round"/>
<path d="M273.444 598.867C273.444 598.867 307.548 596.413 306.386 630.171C306.36 630.171 276.995 631.101 273.444 598.867Z" stroke="#E0F2ED" stroke-width="3.5" stroke-linecap="round" stroke-linejoin="round"/>
<path d="M273.431 598.88L287.816 612.084" stroke="#E0F2ED" stroke-width="3.5" stroke-linecap="round" stroke-linejoin="round"/>
<path d="M281.812 179.68C281.812 179.68 315.916 177.225 314.754 210.983C314.767 210.983 285.389 211.939 281.812 179.68Z" stroke="#E0F2ED" stroke-width="3.5" stroke-linecap="round" stroke-linejoin="round"/>
<path d="M281.824 179.68L296.21 192.896" stroke="#E0F2ED" stroke-width="3.5" stroke-linecap="round" stroke-linejoin="round"/>
<path d="M-22.1096 791.066C-22.1096 791.066 38.1968 786.725 36.1435 846.424C36.1435 846.424 -15.8207 848.143 -22.1096 791.066Z" stroke="#E0F2ED" stroke-width="3.5" stroke-linecap="round" stroke-linejoin="round"/>
<path d="M-22.1096 791.066L3.35596 814.436" stroke="#E0F2ED" stroke-width="3.5" stroke-linecap="round" stroke-linejoin="round"/>
<path d="M277.047 105.963C277.047 105.963 276.737 116.737 260.53 120.794" stroke="#E0F2ED" stroke-width="3.5" stroke-linecap="round" stroke-linejoin="round"/>
<path d="M239.739 49.3254C239.739 49.3254 258.141 56.8444 263.293 69.3501C268.446 81.8559 256.294 87.3336 255.545 87.6307C254.796 87.9279 243.006 93.2635 237.466 81.1712C234.109 73.6393 233.85 62.3092 239.739 49.3254Z" stroke="#E0F2ED" stroke-width="3.5" stroke-linecap="round" stroke-linejoin="round"/>
<path d="M260.414 84.3362C260.414 84.3362 279.009 85.9123 277.447 67.6834C277.137 64.066 275.871 54.971 276.827 51.4053C276.827 51.4053 273.818 52.2967 268.407 57.7227" stroke="#E0F2ED" stroke-width="3.5" stroke-linecap="round" stroke-linejoin="round"/>
<path d="M245.705 89.8657C245.705 89.8657 232.792 103.315 221.931 88.5738C219.775 85.6412 214.738 77.9672 211.678 75.913C211.678 75.913 229.266 70.8358 235.31 75.5384" stroke="#E0F2ED" stroke-width="3.5" stroke-linecap="round" stroke-linejoin="round"/>
<path d="M226.064 54.4543C226.064 54.4543 216.714 46.7028 202.29 54.2088C202.29 54.2088 204.872 53.7954 208.54 61.0431C215.926 75.3704 221.453 73.9622 221.453 73.9622" stroke="#E0F2ED" stroke-width="3.5" stroke-linecap="round" stroke-linejoin="round"/>
<path d="M254.138 88.1345C254.138 88.1345 262.286 111.518 293.137 105.498C316.743 100.912 334.654 65.9782 355.122 102.41" stroke="#E0F2ED" stroke-width="3.5" stroke-linecap="round" stroke-linejoin="round"/>
<path d="M252.511 121.337C254.719 117.306 254.99 97.9143 218.871 110.911C218.871 110.911 242.167 140.315 252.511 121.337Z" stroke="#E0F2ED" stroke-width="3.5" stroke-linecap="round" stroke-linejoin="round"/>
<path d="M300.794 91.8036C300.794 91.8036 332.898 84.8273 320.953 49.1704C320.953 49.1704 270.331 59.9321 300.794 91.8036" stroke="#E0F2ED" stroke-width="3.5" stroke-linecap="round" stroke-linejoin="round"/>
<path d="M300.794 91.8034L307.664 73.2773" stroke="#E0F2ED" stroke-width="3.5" stroke-linecap="round" stroke-linejoin="round"/>
<path d="M252.524 121.337L239.3 116.544" stroke="#E0F2ED" stroke-width="3.5" stroke-linecap="round" stroke-linejoin="round"/>
<path d="M397.168 166.425C397.168 166.425 382.124 199.213 343.177 146.774C343.177 146.774 405.162 129.024 397.168 166.425Z" stroke="#E0F2ED" stroke-width="3.5" stroke-linecap="round" stroke-linejoin="round"/>
<path d="M355.109 144.165C355.109 144.165 336.823 126.75 311.087 139.811C311.087 139.811 336.733 164.461 351.403 157.394" stroke="#E0F2ED" stroke-width="3.5" stroke-linecap="round" stroke-linejoin="round"/>
<path d="M394.573 149.965C394.573 149.965 400.952 130.587 372.775 124.566C372.004 130.746 373.003 137.018 375.655 142.653" stroke="#E0F2ED" stroke-width="3.5" stroke-linecap="round" stroke-linejoin="round"/>
<path d="M388.374 175.054C388.374 175.054 379.49 190.338 362.031 184.188C362.031 184.188 360.21 178.401 367.855 171.799" stroke="#E0F2ED" stroke-width="3.5" stroke-linecap="round" stroke-linejoin="round"/>
<path d="M374.854 141.723C374.854 141.723 367.106 118.185 346.818 122.344C346.818 122.344 343.383 133.571 355.109 144.139" stroke="#E0F2ED" stroke-width="3.5" stroke-linecap="round" stroke-linejoin="round"/>
<path d="M362.909 178.116C362.909 178.116 351.48 181.178 341.808 176.527C341.808 176.527 336.126 168.776 345.863 159.19" stroke="#E0F2ED" stroke-width="3.5" stroke-linecap="round" stroke-linejoin="round"/>
<path d="M346.354 126.401C346.354 126.401 335.674 121.957 325.382 128.171L311.087 139.798" stroke="#E0F2ED" stroke-width="3.5" stroke-linecap="round" stroke-linejoin="round"/>
<path d="M311.087 139.811L317.35 156.154C320.075 159.816 323.513 162.889 327.457 165.187C331.401 167.485 335.768 168.961 340.297 169.525" stroke="#E0F2ED" stroke-width="3.5" stroke-linecap="round" stroke-linejoin="round"/>
<path d="M-22.1096 45.6305C-22.1096 45.6305 38.1968 41.2897 36.1435 100.989C36.1435 100.989 -15.8207 102.707 -22.1096 45.6305Z" stroke="#E0F2ED" stroke-width="3.5" stroke-linecap="round" stroke-linejoin="round"/>
<path d="M-22.1096 45.6304L3.35596 69.0011" stroke="#E0F2ED" stroke-width="3.5" stroke-linecap="round" stroke-linejoin="round"/>
</g>
<defs>
<clipPath id="clip0_261_3878">
<rect width="390" height="844" fill="white"/>
</clipPath>
</defs>
</svg>
