<svg width="40" height="40" viewBox="0 0 40 40" fill="none" xmlns="http://www.w3.org/2000/svg">
<rect width="40" height="40" rx="10" fill="#ECEFF1"/>
<rect x="21.4526" y="4.5" width="1.96479" height="7.42254" rx="0.982395" fill="url(#paint0_linear_628_10016)"/>
<rect x="21.4526" y="28.0781" width="1.96479" height="7.42254" rx="0.982395" fill="url(#paint1_linear_628_10016)"/>
<rect x="26.8135" y="5.09863" width="1.96479" height="7.42254" rx="0.982395" transform="rotate(20 26.8135 5.09863)" fill="url(#paint2_linear_628_10016)"/>
<rect x="18.7495" y="27.2539" width="1.96479" height="7.42254" rx="0.982395" transform="rotate(20 18.7495 27.2539)" fill="url(#paint3_linear_628_10016)"/>
<rect x="16.4907" y="25.5566" width="1.96479" height="7.42254" rx="0.982395" transform="rotate(40 16.4907 25.5566)" fill="#D3B171"/>
<rect x="14.9487" y="23.1875" width="1.96479" height="7.42254" rx="0.982395" transform="rotate(60 14.9487 23.1875)" fill="url(#paint4_linear_628_10016)"/>
<rect x="14.3101" y="20.4355" width="1.96479" height="7.42254" rx="0.982395" transform="rotate(80 14.3101 20.4355)" fill="url(#paint5_linear_628_10016)"/>
<rect x="14.6509" y="17.6299" width="1.96479" height="7.42254" rx="0.982395" transform="rotate(100 14.6509 17.6299)" fill="#D3B171"/>
<rect x="17.9956" y="13.1816" width="1.96479" height="7.42254" rx="0.982395" transform="rotate(140 17.9956 13.1816)" fill="url(#paint6_linear_628_10016)"/>
<rect x="28.6597" y="34.2285" width="1.96479" height="7.42254" rx="0.982395" transform="rotate(160 28.6597 34.2285)" fill="#D3B171"/>
<rect x="20.5957" y="12.0732" width="1.96479" height="7.42254" rx="0.982395" transform="rotate(160 20.5957 12.0732)" fill="#D3B171"/>
<rect x="15.9312" y="15.1104" width="1.96479" height="7.42254" rx="0.982395" transform="rotate(120 15.9312 15.1104)" fill="url(#paint7_linear_628_10016)"/>
<path d="M24.5802 16.0059C24.1889 16.0059 23.8491 16.0268 23.5607 16.0478C23.2724 16.0687 23.0355 16.1001 22.8399 16.142C22.6339 16.1839 22.4691 16.2363 22.3455 16.2991C22.2117 16.3619 22.0984 16.4248 22.016 16.4876C21.6968 16.7809 21.5423 17.3045 21.5423 18.0481C21.5423 18.467 21.5629 18.8127 21.6144 19.0954C21.6556 19.3887 21.6865 19.64 21.6865 19.86C21.6865 19.9438 21.6762 20.0485 21.6659 20.1846C21.6453 20.3208 21.635 20.4674 21.6144 20.635C21.5938 20.8025 21.5835 20.9806 21.5732 21.1586C21.5526 21.3472 21.5526 21.5147 21.5526 21.6718C21.5526 21.787 21.6041 21.8394 21.7277 21.8394C22.016 21.8394 22.3455 21.8394 22.7369 21.8289C23.1179 21.8289 23.4886 21.8184 23.8594 21.8184C24.1065 21.8184 24.3022 21.8289 24.4669 21.8289C24.6317 21.8289 24.7553 21.8394 24.8583 21.8394C24.9612 21.8394 25.0333 21.8499 25.0745 21.8499C25.1157 21.8603 25.1466 21.8708 25.1672 21.8708C25.2496 21.9022 25.3011 22.007 25.3011 22.1745C25.3011 22.384 25.2496 22.5201 25.1466 22.583C25.0951 22.6353 24.9509 22.6772 24.7141 22.7087C24.4772 22.7401 24.1271 22.7505 23.674 22.7505C23.2621 22.7505 22.881 22.7401 22.5309 22.7087C22.1808 22.6877 21.8924 22.6563 21.6556 22.6249C21.5938 22.6249 21.5526 22.6458 21.5217 22.6668C21.4805 22.6877 21.4702 22.7296 21.4702 22.782C21.4805 22.981 21.5217 23.1799 21.5938 23.3789C21.6556 23.5884 21.7586 23.735 21.9027 23.8293C22.0366 23.9445 22.2838 24.0283 22.6442 24.0806C23.0046 24.133 23.468 24.1539 24.0447 24.1539C24.6935 24.1539 25.2187 24.1121 25.61 24.0178C26.0013 23.9235 26.3 23.7979 26.5059 23.6303C26.6501 23.5046 26.784 23.2952 26.8973 23.0019C27.0003 22.7087 27.062 22.3316 27.062 21.8918C27.062 21.5566 27.0208 21.2948 26.9591 21.1063C26.887 20.9178 26.8046 20.7921 26.7119 20.7083C26.5986 20.6455 26.3927 20.5826 26.094 20.5407C25.7851 20.4988 25.332 20.4779 24.7244 20.4779C24.4154 20.4779 24.1271 20.4884 23.88 20.4884C23.6225 20.4884 23.4474 20.4884 23.3445 20.4884C23.2415 20.4988 23.2003 20.4465 23.2003 20.3417C23.2003 20.2579 23.2003 20.1742 23.2106 20.0904C23.2209 20.0066 23.2415 19.9542 23.2827 19.9333C23.3239 19.9123 23.3959 19.9019 23.5092 19.8914C23.6225 19.8809 23.8285 19.8704 24.1168 19.86C24.4463 19.86 24.7244 19.839 24.9509 19.8076C25.1775 19.7867 25.3835 19.7552 25.5482 19.7133C25.713 19.6715 25.8469 19.6296 25.9499 19.5667C26.0528 19.5144 26.1455 19.4515 26.2279 19.3782C26.4751 19.1583 26.6501 18.7708 26.7634 18.2262C26.8767 17.6816 26.9385 17.0427 26.9385 16.3096C26.9385 16.2048 26.8767 16.142 26.7531 16.1211C26.5265 16.1001 26.2279 16.0792 25.8572 16.0478C25.4761 16.0268 25.0539 16.0059 24.5802 16.0059ZM23.2312 17.9853C23.2312 17.7444 23.2827 17.5768 23.3856 17.4721C23.4886 17.3674 23.7873 17.315 24.2919 17.315C24.4669 17.315 24.6008 17.3255 24.7038 17.3255C24.8068 17.3359 24.8995 17.3464 25.0024 17.3569C25.0642 17.3778 25.1054 17.3988 25.126 17.4302C25.1466 17.4721 25.1569 17.514 25.1569 17.5664C25.1569 17.7758 25.126 17.9643 25.0745 18.111C25.023 18.2576 24.9509 18.3623 24.8686 18.4147C24.8171 18.4566 24.7141 18.4985 24.5699 18.5404C24.4257 18.5822 24.1889 18.6032 23.8594 18.6032C23.7358 18.6032 23.6328 18.6032 23.5298 18.6032C23.4268 18.6032 23.3651 18.5822 23.3445 18.5508C23.3033 18.5404 23.2827 18.4775 23.2621 18.3623C23.2415 18.2576 23.2312 18.1319 23.2312 17.9853Z" fill="url(#paint8_linear_628_10016)"/>
<defs>
<linearGradient id="paint0_linear_628_10016" x1="22.5413" y1="3.2555" x2="23.8057" y2="3.46064" gradientUnits="userSpaceOnUse">
<stop stop-color="#21675A"/>
<stop offset="1" stop-color="#29766F"/>
</linearGradient>
<linearGradient id="paint1_linear_628_10016" x1="22.5413" y1="26.8336" x2="23.8057" y2="27.0388" gradientUnits="userSpaceOnUse">
<stop stop-color="#21675A"/>
<stop offset="1" stop-color="#29766F"/>
</linearGradient>
<linearGradient id="paint2_linear_628_10016" x1="27.9022" y1="3.85414" x2="29.1666" y2="4.05928" gradientUnits="userSpaceOnUse">
<stop stop-color="#21675A"/>
<stop offset="1" stop-color="#29766F"/>
</linearGradient>
<linearGradient id="paint3_linear_628_10016" x1="19.8382" y1="26.0094" x2="21.1026" y2="26.2145" gradientUnits="userSpaceOnUse">
<stop stop-color="#21675A"/>
<stop offset="1" stop-color="#29766F"/>
</linearGradient>
<linearGradient id="paint4_linear_628_10016" x1="16.0374" y1="21.943" x2="17.3018" y2="22.1481" gradientUnits="userSpaceOnUse">
<stop stop-color="#21675A"/>
<stop offset="1" stop-color="#29766F"/>
</linearGradient>
<linearGradient id="paint5_linear_628_10016" x1="15.3987" y1="19.191" x2="16.6631" y2="19.3962" gradientUnits="userSpaceOnUse">
<stop stop-color="#21675A"/>
<stop offset="1" stop-color="#29766F"/>
</linearGradient>
<linearGradient id="paint6_linear_628_10016" x1="19.0843" y1="11.9371" x2="20.3487" y2="12.1423" gradientUnits="userSpaceOnUse">
<stop stop-color="#21675A"/>
<stop offset="1" stop-color="#29766F"/>
</linearGradient>
<linearGradient id="paint7_linear_628_10016" x1="17.0198" y1="13.8659" x2="18.2842" y2="14.071" gradientUnits="userSpaceOnUse">
<stop stop-color="#21675A"/>
<stop offset="1" stop-color="#29766F"/>
</linearGradient>
<linearGradient id="paint8_linear_628_10016" x1="24.5686" y1="14.6397" x2="27.7066" y2="15.9597" gradientUnits="userSpaceOnUse">
<stop stop-color="#21675A"/>
<stop offset="1" stop-color="#29766F"/>
</linearGradient>
</defs>
</svg>
