<svg width="40" height="47" viewBox="0 0 40 47" fill="none" xmlns="http://www.w3.org/2000/svg">
<rect y="3.5" width="40" height="40" rx="10" fill="#E0F2ED"/>
<path fill-rule="evenodd" clip-rule="evenodd" d="M14.75 19C14.75 16.6528 16.6528 14.75 19 14.75C21.3472 14.75 23.25 16.6528 23.25 19C23.25 21.3472 21.3472 23.25 19 23.25C16.6528 23.25 14.75 21.3472 14.75 19ZM19 16.25C17.4812 16.25 16.25 17.4812 16.25 19C16.25 20.5188 17.4812 21.75 19 21.75C20.5188 21.75 21.75 20.5188 21.75 19C21.75 17.4812 20.5188 16.25 19 16.25Z" fill="black"/>
<path fill-rule="evenodd" clip-rule="evenodd" d="M11.25 28.5C11.25 26.4289 12.9289 24.75 15 24.75H15.3409C15.5254 24.75 15.7087 24.7792 15.8841 24.8364L16.7496 25.1191C18.2119 25.5965 19.7881 25.5965 21.2504 25.1191L22.1159 24.8364C22.2913 24.7792 22.4746 24.75 22.6591 24.75H23C25.0711 24.75 26.75 26.4289 26.75 28.5V29.6883C26.75 30.4415 26.2041 31.0837 25.4607 31.2051C21.1819 31.9037 16.8181 31.9037 12.5393 31.2051C11.7959 31.0837 11.25 30.4415 11.25 29.6883V28.5ZM15 26.25C13.7574 26.25 12.75 27.2574 12.75 28.5V29.6883C12.75 29.7064 12.7631 29.7218 12.781 29.7247C16.8997 30.3972 21.1003 30.3972 25.219 29.7247C25.2369 29.7218 25.25 29.7064 25.25 29.6883V28.5C25.25 27.2574 24.2426 26.25 23 26.25H22.6591C22.6328 26.25 22.6066 26.2542 22.5815 26.2623L21.716 26.545C19.9512 27.1212 18.0488 27.1212 16.284 26.545L15.4185 26.2623C15.3934 26.2542 15.3672 26.25 15.3409 26.25H15Z" fill="black"/>
<path d="M27.5 17.75C27.9142 17.75 28.25 18.0858 28.25 18.5V20.25H30C30.4142 20.25 30.75 20.5858 30.75 21C30.75 21.4142 30.4142 21.75 30 21.75H28.25V23.5C28.25 23.9142 27.9142 24.25 27.5 24.25C27.0858 24.25 26.75 23.9142 26.75 23.5V21.75H25C24.5858 21.75 24.25 21.4142 24.25 21C24.25 20.5858 24.5858 20.25 25 20.25H26.75V18.5C26.75 18.0858 27.0858 17.75 27.5 17.75Z" fill="black"/>
<path fill-rule="evenodd" clip-rule="evenodd" d="M14.75 19C14.75 16.6528 16.6528 14.75 19 14.75C21.3472 14.75 23.25 16.6528 23.25 19C23.25 21.3472 21.3472 23.25 19 23.25C16.6528 23.25 14.75 21.3472 14.75 19ZM19 16.25C17.4812 16.25 16.25 17.4812 16.25 19C16.25 20.5188 17.4812 21.75 19 21.75C20.5188 21.75 21.75 20.5188 21.75 19C21.75 17.4812 20.5188 16.25 19 16.25Z" stroke="#0A7B54" stroke-linecap="round"/>
<path fill-rule="evenodd" clip-rule="evenodd" d="M11.25 28.5C11.25 26.4289 12.9289 24.75 15 24.75H15.3409C15.5254 24.75 15.7087 24.7792 15.8841 24.8364L16.7496 25.1191C18.2119 25.5965 19.7881 25.5965 21.2504 25.1191L22.1159 24.8364C22.2913 24.7792 22.4746 24.75 22.6591 24.75H23C25.0711 24.75 26.75 26.4289 26.75 28.5V29.6883C26.75 30.4415 26.2041 31.0837 25.4607 31.2051C21.1819 31.9037 16.8181 31.9037 12.5393 31.2051C11.7959 31.0837 11.25 30.4415 11.25 29.6883V28.5ZM15 26.25C13.7574 26.25 12.75 27.2574 12.75 28.5V29.6883C12.75 29.7064 12.7631 29.7218 12.781 29.7247C16.8997 30.3972 21.1003 30.3972 25.219 29.7247C25.2369 29.7218 25.25 29.7064 25.25 29.6883V28.5C25.25 27.2574 24.2426 26.25 23 26.25H22.6591C22.6328 26.25 22.6066 26.2542 22.5815 26.2623L21.716 26.545C19.9512 27.1212 18.0488 27.1212 16.284 26.545L15.4185 26.2623C15.3934 26.2542 15.3672 26.25 15.3409 26.25H15Z" stroke="#0A7B54" stroke-linecap="round"/>
<path d="M27.5 17.75C27.9142 17.75 28.25 18.0858 28.25 18.5V20.25H30C30.4142 20.25 30.75 20.5858 30.75 21C30.75 21.4142 30.4142 21.75 30 21.75H28.25V23.5C28.25 23.9142 27.9142 24.25 27.5 24.25C27.0858 24.25 26.75 23.9142 26.75 23.5V21.75H25C24.5858 21.75 24.25 21.4142 24.25 21C24.25 20.5858 24.5858 20.25 25 20.25H26.75V18.5C26.75 18.0858 27.0858 17.75 27.5 17.75Z" stroke="#0A7B54" stroke-linecap="round"/>
</svg>
