<svg width="40" height="47" viewBox="0 0 40 47" fill="none" xmlns="http://www.w3.org/2000/svg">
<rect y="3.5" width="40" height="40" rx="10" fill="#E0F2ED"/>
<path fill-rule="evenodd" clip-rule="evenodd" d="M19 13.75C17.4812 13.75 16.25 14.9812 16.25 16.5V18.5C16.25 18.9142 16.5858 19.25 17 19.25H23C23.4142 19.25 23.75 18.9142 23.75 18.5V16.5C23.75 14.9812 22.5188 13.75 21 13.75H19ZM17.75 16.5C17.75 15.8096 18.3096 15.25 19 15.25H21C21.6904 15.25 22.25 15.8096 22.25 16.5V17.75H17.75V16.5Z" fill="#0A7B54"/>
<path d="M14.7535 16.6048C14.7537 16.4646 14.6134 16.3682 14.4869 16.4288C13.3016 16.997 12.5 18.207 12.5 19.5855V30.0749C12.5 31.7857 13.7743 33.2285 15.472 33.4399C18.479 33.8144 21.521 33.8144 24.528 33.4399C26.2257 33.2285 27.5 31.7857 27.5 30.0749V19.5855C27.5 18.2068 26.7016 16.9967 25.5165 16.4285C25.3903 16.368 25.25 16.4642 25.25 16.6043V18.5C25.25 19.7426 24.2426 20.75 23 20.75H17C15.7574 20.75 14.75 19.7426 14.75 18.5L14.7535 16.6048Z" fill="#0A7B54"/>
</svg>
