<svg width="165" height="89" viewBox="0 0 165 89" fill="none" xmlns="http://www.w3.org/2000/svg">
<g clip-path="url(#clip0_644_11757)">
<rect width="165" height="89" fill="#F3D48A"/>
<g clip-path="url(#clip1_644_11757)">
<path d="M168.892 15.2594C170.25 15.2594 170.992 13.6622 170.107 12.6321C169.354 11.7553 168.198 11.2094 166.929 10.9325C164.712 10.4488 162.014 11.976 161.361 12.3602C161.192 9.33897 158.559 6.94025 155.335 6.94025C155.204 6.94025 155.073 6.94435 154.944 6.95254C154.119 2.62526 150 -0.665039 145.044 -0.665039C139.493 -0.665039 134.994 3.46074 134.994 8.54977C134.993 8.94492 135.021 9.33959 135.076 9.73091C134.831 9.70111 134.585 9.68607 134.338 9.68586C132.135 9.68586 129.604 11.0497 129.306 13.2407C129.306 13.2407 117.395 10.011 117.327 15.3261L168.892 15.2594Z" fill="#E5F1EF"/>
<path d="M15.7626 6.03645H55.0296C54.9538 5.65967 54.1695 1.6244 44.5018 5.29927C44.5018 5.29927 44.9793 3.29249 42.0789 4.18325C39.1785 5.07402 40.2114 1.09158 37.6636 0.453916C36.1446 0.0738557 35.2816 0.699644 34.6739 1.39587C34.381 -2.58411 30.8774 -5.72656 26.598 -5.72656C22.127 -5.72656 18.5029 -2.29619 18.5029 1.93607C18.5028 2.19599 18.5165 2.45573 18.5438 2.71421C18.0847 2.14576 17.074 1.6371 15.693 1.66986C15.6615 1.66986 15.6299 1.67191 15.5988 1.67396C12.8016 1.83696 12.9589 6.03645 15.7626 6.03645Z" fill="#E5F1EF"/>
<path d="M46.9849 70.9952L48.3917 23.2776C48.3917 23.2167 48.4159 23.1582 48.459 23.1151C48.502 23.0721 48.5605 23.0479 48.6214 23.0479C48.6823 23.0479 48.7408 23.0721 48.7839 23.1151C48.827 23.1582 48.8512 23.2167 48.8512 23.2776L50.2195 70.9948L46.9849 70.9952Z" fill="#E5F1EF"/>
<path d="M50.428 14.3059C50.1823 17.8583 49.5376 20.9815 48.9626 22.8691C48.9465 22.9215 48.9132 22.9668 48.868 22.9978C48.8229 23.0288 48.7686 23.0437 48.7139 23.0399C48.6593 23.0362 48.6075 23.0141 48.567 22.9772C48.5265 22.9403 48.4997 22.8908 48.4908 22.8368C48.1804 20.8971 47.9683 17.7379 48.2132 14.1867C48.4998 9.99991 49.3468 6.40818 49.9742 4.73682C50.3711 6.47862 50.7167 10.1191 50.428 14.3059Z" fill="#C8D9D2"/>
<path d="M40.2456 26.9453C43.144 25.2514 45.9346 24.0617 47.8222 23.4388C48.1458 23.3319 48.3821 23.7443 48.127 23.9712C46.8811 25.0716 44.5315 26.8749 41.2654 28.7838C37.6421 30.9011 34.3338 32.2792 32.5981 32.699C33.8165 31.3913 36.6224 29.0639 40.2456 26.9453Z" fill="#C8D9D2"/>
<path d="M56.5029 26.1069C59.8612 27.8549 62.6052 29.9694 63.7367 31.1378C62.1297 30.8806 59.063 29.6843 55.7022 27.9364C52.982 26.5214 50.6685 25.0565 49.2842 23.9302C49.0385 23.732 49.2355 23.3417 49.5406 23.4154C51.2582 23.8299 53.7835 24.6924 56.5029 26.1069Z" fill="#C8D9D2"/>
<path d="M48.6776 24.2249C49.218 24.2249 49.656 23.7868 49.656 23.2465C49.656 22.7061 49.218 22.2681 48.6776 22.2681C48.1373 22.2681 47.6992 22.7061 47.6992 23.2465C47.6992 23.7868 48.1373 24.2249 48.6776 24.2249Z" fill="#E5F1EF"/>
<path d="M70.0469 74.2878L71.2755 32.6676C71.2755 32.6144 71.2966 32.5635 71.3342 32.5259C71.3717 32.4884 71.4227 32.4673 71.4758 32.4673C71.5289 32.4673 71.5798 32.4884 71.6174 32.5259C71.655 32.5635 71.6761 32.6144 71.6761 32.6676L72.8699 74.2878H70.0469Z" fill="#E5F1EF"/>
<path d="M74.0592 26.5246C73.358 29.0552 72.4321 31.2172 71.7358 32.4946C71.7166 32.5302 71.6858 32.5582 71.6485 32.5741C71.6113 32.59 71.5697 32.5927 71.5307 32.5819C71.4917 32.5711 71.4574 32.5474 71.4336 32.5147C71.4098 32.4819 71.3978 32.442 71.3996 32.4016C71.4614 30.9547 71.7747 28.6411 72.4763 26.1118C73.3027 23.1303 74.4421 20.6603 75.1449 19.5459C75.1736 20.8622 74.8861 23.5435 74.0592 26.5246Z" fill="#C8D9D2"/>
<path d="M64.8372 34.1526C67.1811 33.3568 69.3726 32.9092 70.8289 32.738C70.8817 32.7316 70.935 32.7437 70.9799 32.7722C71.0247 32.8007 71.0583 32.8438 71.075 32.8942C71.0917 32.9447 71.0904 32.9993 71.0714 33.0489C71.0524 33.0985 71.0168 33.14 70.9706 33.1664C69.9083 33.7774 67.9449 34.7333 65.3033 35.6298C62.3734 36.6246 59.7802 37.1316 58.4639 37.1787C59.5369 36.4149 61.9065 35.1474 64.8372 34.1526Z" fill="#C8D9D2"/>
<path d="M76.705 35.947C78.8756 37.7056 80.5416 39.6378 81.1879 40.649C80.0649 40.2259 78.0262 38.9093 75.8568 37.1507C74.1003 35.7267 72.6455 34.3248 71.8117 33.3091C71.7805 33.2709 71.7632 33.2232 71.7627 33.1739C71.7622 33.1245 71.7785 33.0765 71.8088 33.0376C71.8392 32.9988 71.8819 32.9714 71.9299 32.96C71.9779 32.9486 72.0284 32.9539 72.073 32.9749C73.2509 33.5282 74.9497 34.5238 76.705 35.947Z" fill="#C8D9D2"/>
<path d="M71.5571 33.5166C72.0285 33.5166 72.4106 33.1344 72.4106 32.6631C72.4106 32.1917 72.0285 31.8096 71.5571 31.8096C71.0857 31.8096 70.7036 32.1917 70.7036 32.6631C70.7036 33.1344 71.0857 33.5166 71.5571 33.5166Z" fill="#E5F1EF"/>
<path d="M5.05371 83.7322H140.876C140.876 83.7322 127.75 66.6766 104.442 70.3858C73.8314 75.257 62.4657 64.7128 47.767 60.9708C33.7605 57.4044 23.0656 62.1277 15.8535 68.006C9.97688 72.7952 5.05371 78.2446 5.05371 83.7326V83.7322Z" fill="#907B00"/>
<path d="M53.1621 83.7324C53.1621 83.7324 60.0724 74.7351 77.5711 77.0613C101.896 80.2967 110.59 62.4487 131.339 61.4502C169.362 59.6203 183.6 83.7324 183.6 83.7324H53.1621Z" fill="#B59B00"/>
<path d="M3.88017 83.7322L-1 78.7698L4.51947 82.5945L4.34009 78.9643L6.92679 82.1211L6.47055 70.8237L8.39788 80.9043L10.2425 79.1531L10.0717 82.185L12.1547 81.3245L10.5169 83.7282L3.88017 83.7322Z" fill="#B59B00"/>
<path d="M12.0413 80.0902C11.6801 80.4227 11.4192 80.3998 11.1108 80.322C11.0588 80.0083 11.0658 79.7552 11.427 79.421C11.7882 79.0868 12.5385 78.8292 12.7085 78.8476C12.7146 79.0184 12.4025 79.7576 12.0413 80.0902Z" fill="#B59B00"/>
<path d="M45.8521 55.5059H48.6927C50.2048 55.5055 51.6689 56.0365 52.8293 57.0061C53.9896 57.9757 54.7723 59.3222 55.0407 60.8103L61.0274 91.0603C61.0815 91.359 61.2388 91.6292 61.4718 91.8239C61.7048 92.0185 61.9988 92.1251 62.3023 92.1251V92.1251C62.5794 92.1251 62.8492 92.0362 63.072 91.8715C63.2949 91.7068 63.459 91.475 63.5404 91.2102L66.7443 80.4235" stroke="#423C52" stroke-width="0.5" stroke-miterlimit="10" stroke-linecap="round"/>
<path d="M44.1367 67.4683H62.1691C62.4819 67.4684 62.792 67.5255 63.0844 67.6366L84.1925 75.6637H66.7966C65.9192 75.6637 65.0494 75.5024 64.2303 75.1878L44.1367 67.4683Z" fill="#423C52"/>
<path d="M71.0179 66.5039L70.8599 66.4073C70.8709 66.386 71.3472 65.4993 71.8276 65.0558C72.471 64.4628 73.1951 64.2653 73.9212 64.4865L73.8688 64.6806C72.254 64.192 71.0278 66.4855 71.0179 66.5039Z" fill="#423C52"/>
<path d="M71.7682 65.1996C71.7682 65.1996 72.451 65.1206 72.308 65.4998C72.2175 65.739 71.3628 65.6227 71.3628 65.6227C71.3628 65.6227 71.3767 64.5873 71.7527 64.5791C72.0508 64.5738 71.7682 65.1996 71.7682 65.1996Z" fill="#423C52"/>
<path d="M72.2778 64.7773C72.2778 64.7773 72.9036 64.8256 72.6804 65.0562C72.567 65.1737 71.8613 65.1135 71.8613 65.1135C71.8613 65.1135 72.1669 64.1793 72.4695 64.1371C72.7722 64.0949 72.2778 64.7773 72.2778 64.7773Z" fill="#423C52"/>
<path d="M73.0871 64.4989C73.0871 64.4989 73.5786 64.6627 73.4103 64.8458C73.3283 64.9354 72.6641 64.6213 72.6641 64.6213C72.6641 64.6213 72.954 64.0144 73.2456 64.0971C73.4369 64.1512 73.0871 64.4989 73.0871 64.4989Z" fill="#423C52"/>
<path d="M73.3037 64.4831C73.3037 64.4831 74.3722 64.1145 74.3227 64.6092C74.2854 64.9831 73.3037 64.4831 73.3037 64.4831Z" fill="#423C52"/>
<path d="M71.0564 67.0436L70.8745 67.0338C70.8879 66.6467 70.8416 66.26 70.7373 65.887C70.5113 65.106 70.0518 64.6223 69.3711 64.4491L69.4161 64.2529C70.1533 64.4405 70.671 64.9848 70.913 65.8276C71.0243 66.2229 71.0727 66.6333 71.0564 67.0436V67.0436Z" fill="#423C52"/>
<path d="M70.6747 65.3509C70.6747 65.3509 70.1149 65.0684 70.1853 65.3812C70.2214 65.5402 70.8574 65.8547 70.8574 65.8547C70.8574 65.8547 71.0822 64.898 70.8451 64.7051C70.608 64.5122 70.6747 65.3509 70.6747 65.3509Z" fill="#423C52"/>
<path d="M70.1296 64.6952C70.1296 64.6952 69.6267 64.5797 69.6729 64.8242C69.695 64.9426 70.4277 65.0184 70.4277 65.0184C70.4277 65.0184 70.4957 64.3496 70.2033 64.2697C70.0096 64.2169 70.1296 64.6952 70.1296 64.6952Z" fill="#423C52"/>
<path d="M69.9515 64.5684C69.9515 64.5684 69.2303 63.6997 69.0145 64.149C68.8519 64.4881 69.9515 64.5684 69.9515 64.5684Z" fill="#423C52"/>
<path d="M70.9324 66.0134L70.7686 65.9254C70.9337 65.541 71.044 65.1352 71.0962 64.7201C71.1994 63.8449 70.9795 63.1679 70.4409 62.708L70.5552 62.5479C71.1384 63.0475 71.387 63.8076 71.2748 64.7467C71.2217 65.1831 71.1064 65.6097 70.9324 66.0134V66.0134Z" fill="#423C52"/>
<path d="M71.1853 64.069C71.1853 64.069 70.8511 63.6091 70.7864 63.9269C70.7536 64.0883 71.1931 64.6584 71.1931 64.6584C71.1931 64.6584 71.7726 63.9953 71.5617 63.5759C71.4241 63.2954 71.1853 64.069 71.1853 64.069Z" fill="#423C52"/>
<path d="M71.0168 63.2715C71.0168 63.2715 70.6142 62.9439 70.5556 63.1871C70.527 63.3055 71.1507 63.6999 71.1507 63.6999C71.1507 63.6999 71.4849 63.1175 71.256 62.9144C71.1049 62.78 71.0168 63.2715 71.0168 63.2715Z" fill="#423C52"/>
<path d="M70.9093 63.0761C70.9093 63.0761 70.6197 61.9605 70.2434 62.2766C69.9596 62.515 70.9093 63.0761 70.9093 63.0761Z" fill="#423C52"/>
<path d="M67.9239 76.5458C67.8319 76.5243 67.7516 76.4683 67.6997 76.3894C67.6478 76.3104 67.6282 76.2145 67.645 76.1216L69.499 67.0919C69.6141 66.5554 70.1862 66.2228 70.7449 66.3674L71.027 66.4407C71.5857 66.5852 71.8969 67.1467 71.7044 67.6628L68.3941 76.3149C68.3573 76.4041 68.2893 76.4768 68.2027 76.5193C68.1161 76.5619 68.017 76.5713 67.9239 76.5458V76.5458Z" fill="#FFDB00"/>
<path d="M75.8953 68.196C75.8277 68.4265 75.4517 68.2316 75.188 68.0596C75.1741 68.0567 75.1601 68.0538 75.147 68.0518C75.2371 68.1337 75.3051 68.2398 75.2048 68.3164C75.1372 68.368 74.8198 68.1616 74.6412 68.0371C74.5327 68.0503 74.4256 68.0729 74.321 68.1046C74.4651 68.1714 74.6077 68.2742 74.4549 68.3819C74.3656 68.445 74.0282 68.3753 73.8172 68.3237C73.7877 68.3401 73.7574 68.3577 73.7271 68.3766C73.911 68.4212 74.1436 68.5236 74.0085 68.7452C73.9163 68.8983 73.4892 68.8058 73.2418 68.7374C73.0982 68.8628 72.9651 68.9998 72.8437 69.1469L72.7065 69.0175C72.8196 68.8794 72.9428 68.7499 73.0751 68.6301C73.1235 68.4216 73.3209 67.673 73.637 67.7291C73.8398 67.7647 73.7136 68.0457 73.6178 68.2148H73.6211C73.651 68.1964 73.6809 68.1779 73.7112 68.1612C73.8525 67.9261 74.1846 67.4195 74.4176 67.4334C74.6445 67.4469 74.3611 67.7737 74.2043 67.9367C74.334 67.8931 74.4675 67.8618 74.6032 67.8433C74.7346 67.6934 74.9902 67.4469 75.1823 67.5456C75.301 67.6074 75.1589 67.7504 75.0512 67.8376C75.0877 67.8413 75.1233 67.8458 75.1589 67.8519C75.4759 67.8372 75.9948 67.8593 75.8953 68.196Z" fill="#423C52"/>
<path d="M72.5009 69.7895L72.3256 69.7391C72.4108 69.3584 72.4374 68.9669 72.4047 68.5781C72.3285 67.7639 71.9701 67.1971 71.3398 66.8932L71.416 66.7085C72.1024 67.0386 72.5075 67.6783 72.5877 68.5588C72.6232 68.9711 72.5939 69.3863 72.5009 69.7895V69.7895Z" fill="#423C52"/>
<path d="M72.4419 68.042C72.4419 68.042 71.9476 67.6533 71.9587 67.976C71.9644 68.1399 72.5267 68.5752 72.5267 68.5752C72.5267 68.5752 72.9236 67.6742 72.7278 67.4379C72.532 67.2016 72.4419 68.042 72.4419 68.042Z" fill="#423C52"/>
<path d="M72.0308 67.2869C72.0308 67.2869 71.5614 67.0748 71.561 67.325C71.561 67.4479 72.2618 67.6645 72.2618 67.6645C72.2618 67.6645 72.4522 67.0174 72.1799 66.8811C72.0025 66.791 72.0308 67.2869 72.0308 67.2869Z" fill="#423C52"/>
<path d="M71.8803 67.1267C71.8803 67.1267 71.3372 66.1278 71.0436 66.5292C70.8224 66.8322 71.8803 67.1267 71.8803 67.1267Z" fill="#423C52"/>
<path d="M72.5712 68.7476L72.4287 68.6247C72.6616 68.2766 72.8441 67.8973 72.971 67.4981C73.2335 66.6544 73.1446 65.9418 72.706 65.3848L72.8452 65.2505C73.3223 65.8591 73.4247 66.6589 73.1413 67.5644C73.009 67.9841 72.817 68.3826 72.5712 68.7476V68.7476Z" fill="#423C52"/>
<path d="M73.1779 66.8732C73.1779 66.8732 72.9367 66.3539 72.8151 66.6549C72.7528 66.8081 73.0764 67.4572 73.0764 67.4572C73.0764 67.4572 73.7648 66.9158 73.6379 66.4604C73.5539 66.1577 73.1779 66.8732 73.1779 66.8732Z" fill="#423C52"/>
<path d="M73.1604 66.0549C73.1604 66.0549 72.8287 65.6515 72.7259 65.8813C72.6763 65.9927 73.212 66.5042 73.212 66.5042C73.212 66.5042 73.6457 65.9943 73.4602 65.749C73.3378 65.5868 73.1604 66.0549 73.1604 66.0549Z" fill="#423C52"/>
<path d="M73.0915 65.8412C73.0915 65.8412 73.0153 64.6826 72.5898 64.921C72.2679 65.1008 73.0915 65.8412 73.0915 65.8412Z" fill="#423C52"/>
<path d="M67.7521 78.0137C67.6687 77.9775 67.603 77.9099 67.5692 77.8256C67.5354 77.7412 67.5362 77.647 67.5714 77.5632L71.1079 69.3109C71.3229 68.8219 71.9303 68.6044 72.4307 68.8374L72.6838 68.9554C73.1843 69.1884 73.3686 69.7745 73.0844 70.2311L68.2427 77.8757C68.1911 77.9538 68.1131 78.0107 68.0231 78.036C67.933 78.0613 67.8368 78.0534 67.7521 78.0137V78.0137Z" fill="#FFDB00"/>
<path d="M69.4617 67.7766C69.3048 67.7641 69.147 67.7714 68.9919 67.7983C69.0775 67.8311 69.141 67.8802 69.0906 67.9576C69.0542 68.0133 68.7511 67.9707 68.5582 67.9376C68.4716 67.9788 68.3885 68.0273 68.31 68.0825C68.4444 68.0883 68.575 68.1235 68.4902 68.2394C68.439 68.3107 68.1528 68.3651 67.9578 68.3942C67.9382 68.4159 67.9169 68.438 67.8997 68.461C68.0655 68.4388 68.2765 68.447 68.2408 68.6428C68.2158 68.78 67.8423 68.8476 67.6126 68.8754C67.5337 69.0118 67.4675 69.155 67.4148 69.3034L67.2432 69.2403C67.2919 69.1023 67.3522 68.9686 67.4234 68.8406C67.3914 68.6608 67.3103 68.0821 67.5872 68.0248C67.7612 67.9888 67.7588 68.2132 67.7375 68.3664C67.7567 68.3426 67.7764 68.3197 67.7969 68.2963C67.8378 68.0756 67.9418 67.6267 68.1356 67.5653C68.3203 67.5067 68.2142 67.8 68.1388 67.9724C68.2328 67.8995 68.3332 67.8352 68.4386 67.7803C68.5005 67.6292 68.6262 67.3965 68.8097 67.4076C68.919 67.4142 68.8695 67.5387 68.8146 67.6341C68.9414 67.6004 69.0714 67.5798 69.2024 67.5727C69.4625 67.4711 69.82 67.3789 69.8491 67.6255C69.8667 67.7631 69.6742 67.7885 69.4617 67.7766Z" fill="#423C52"/>
<path d="M67.2505 69.8723C67.2395 69.8039 66.9704 68.1895 65.4702 68.1366L65.4805 67.9355C67.1277 67.9933 67.4274 69.8154 67.4303 69.8338L67.2505 69.8723L67.3402 69.853L67.2505 69.8723Z" fill="#423C52"/>
<path d="M66.7801 68.5987C66.7801 68.5987 66.2371 68.4725 66.3559 68.7023C66.4161 68.819 67.0308 68.9574 67.0308 68.9574C67.0308 68.9574 67.0562 68.1826 66.8133 68.0728C66.5705 67.963 66.7801 68.5987 66.7801 68.5987Z" fill="#423C52"/>
<path d="M66.1837 68.1823C66.1837 68.1823 65.7213 68.1757 65.8057 68.3568C65.8467 68.4444 66.5019 68.383 66.5019 68.383C66.5019 68.383 66.4409 67.8559 66.1694 67.842C65.9924 67.833 66.1837 68.1823 66.1837 68.1823Z" fill="#423C52"/>
<path d="M66.0045 68.1138C66.0045 68.1138 65.2145 67.5617 65.1064 67.9438C65.0249 68.2317 66.0045 68.1138 66.0045 68.1138Z" fill="#423C52"/>
<path d="M67.1352 69.0733L66.9603 69.0205C67.0344 68.7019 67.0573 68.3736 67.0283 68.0478C66.9616 67.3651 66.6487 66.8843 66.0986 66.6197L66.1752 66.4346C67.6361 67.1382 67.1401 69.054 67.1352 69.0733Z" fill="#423C52"/>
<path d="M66.9976 67.5249C66.9976 67.5249 66.6213 67.2247 66.6221 67.4803C66.6221 67.6105 67.1111 67.9783 67.1111 67.9783C67.1111 67.9783 67.5001 67.3717 67.2405 67.0826C67.0668 66.8905 66.9976 67.5249 66.9976 67.5249Z" fill="#423C52"/>
<path d="M66.7063 66.9391C66.7063 66.9391 66.2939 66.7511 66.2861 66.9493C66.2825 67.0456 66.9005 67.2475 66.9005 67.2475C66.9005 67.2475 67.0889 66.7433 66.8513 66.6242C66.6953 66.5455 66.7063 66.9391 66.7063 66.9391Z" fill="#423C52"/>
<path d="M66.5754 66.8055C66.5754 66.8055 66.1204 65.9921 65.8468 66.2976C65.6417 66.5282 66.5754 66.8055 66.5754 66.8055Z" fill="#423C52"/>
<path d="M66.9581 77.8236C66.7676 77.8236 66.6104 77.7007 66.5968 77.541L65.9661 69.9431C65.933 69.4926 66.3663 69.1084 66.9081 69.1109H67.1825C67.7256 69.1133 68.1507 69.4987 68.1085 69.9508L67.325 77.5434C67.3086 77.7027 67.1485 77.8244 66.9581 77.8236Z" fill="#FFDB00"/>
<path d="M74.75 70.404C74.9269 69.9273 76.1076 69.5292 76.7293 69.6901L77.3203 69.9334C76.706 69.9916 76.0241 70.2115 75.9156 70.8868L74.75 70.404Z" fill="#423C52"/>
<path d="M78.9982 77.9017C80.1151 75.4163 79.7384 72.8252 78.1566 72.1143C76.5748 71.4034 74.387 72.842 73.27 75.3274C72.1531 77.8128 72.5298 80.4039 74.1116 81.1148C75.6934 81.8257 77.8812 80.3871 78.9982 77.9017Z" fill="#FF7500"/>
<path d="M73.0309 75.2206C74.1479 72.7352 73.7711 70.1441 72.1893 69.4332C70.6075 68.7223 68.4197 70.1608 67.3028 72.6463C66.1858 75.1317 66.5626 77.7228 68.1443 78.4336C69.7261 79.1445 71.9139 77.706 73.0309 75.2206Z" fill="#FF7500"/>
<path d="M75.9447 76.5028C77.1449 73.8323 76.8651 71.1045 75.3199 70.4101C73.7746 69.7156 71.549 71.3175 70.3489 73.9879C69.1487 76.6584 69.4285 79.3862 70.9737 80.0807C72.519 80.7751 74.7446 79.1733 75.9447 76.5028Z" fill="#FF7500"/>
<path d="M69.512 77.6571C69.4178 76.5698 69.6508 75.2531 70.2365 73.9503C70.9683 72.3211 72.0794 71.09 73.1893 70.5347" stroke="white" stroke-width="0.5" stroke-miterlimit="10" stroke-linecap="round"/>
<path d="M76.64 72.1011C76.9537 73.2965 76.7337 74.9269 76.0056 76.5488C75.2823 78.1587 74.1859 79.3808 73.0908 79.9447" stroke="white" stroke-width="0.5" stroke-miterlimit="10" stroke-linecap="round"/>
<path d="M51.6365 77.1479C52.3321 76.9063 52.6155 75.9032 52.2696 74.9075C51.9237 73.9117 51.0795 73.3004 50.3839 73.542C49.6884 73.7836 49.4049 74.7867 49.7508 75.7824C50.0967 76.7782 50.9409 77.3895 51.6365 77.1479Z" fill="#FFDB00"/>
<path d="M53.3729 79.4061C54.0652 79.1676 54.4117 78.3513 54.1469 77.5827C53.8821 76.8141 53.1063 76.3844 52.414 76.6229C51.7218 76.8614 51.3753 77.6777 51.6401 78.4463C51.9049 79.2149 52.6807 79.6446 53.3729 79.4061Z" fill="#FFDB00"/>
<path d="M53.8886 71.1382C53.9067 70.2295 52.936 69.4733 51.7205 69.4491C50.5049 69.4249 49.5049 70.1419 49.4868 71.0506C49.4688 71.9592 50.4395 72.7154 51.655 72.7396C52.8705 72.7638 53.8705 72.0468 53.8886 71.1382Z" fill="#FFDB00"/>
<path d="M59.5336 78.5586C59.5517 77.6499 58.581 76.8937 57.3655 76.8695C56.15 76.8453 55.1499 77.5623 55.1319 78.471C55.1138 79.3796 56.0845 80.1358 57.3 80.16C58.5155 80.1842 59.5155 79.4672 59.5336 78.5586Z" fill="#FFDB00"/>
<path d="M55.8915 68.3326C56.2146 67.4636 55.8519 66.5268 55.0813 66.2402C54.3107 65.9536 53.424 66.4257 53.1008 67.2947C52.7776 68.1637 53.1403 69.1005 53.911 69.3871C54.6816 69.6737 55.5683 69.2016 55.8915 68.3326Z" fill="#FFDB00"/>
<path d="M63.0166 69.1784C63.3334 68.3266 62.8325 67.3542 61.8977 67.0066C60.963 66.659 59.9485 67.0677 59.6317 67.9196C59.3149 68.7714 59.8158 69.7437 60.7505 70.0913C61.6853 70.4389 62.6998 70.0302 63.0166 69.1784Z" fill="#FFDB00"/>
<path d="M57.7075 72.0891C58.7937 71.3378 59.2643 70.136 58.7585 69.4047C58.2527 68.6734 56.9621 68.6897 55.8759 69.441C54.7897 70.1922 54.3192 71.3941 54.825 72.1253C55.3308 72.8566 56.6213 72.8404 57.7075 72.0891Z" fill="#FFDB00"/>
<path d="M58.5395 68.2084C59.3801 67.9188 59.7129 66.6717 59.2827 65.423C58.8525 64.1744 57.8223 63.3969 56.9816 63.6865C56.141 63.9762 55.8082 65.2232 56.2384 66.4719C56.6686 67.7205 57.6988 68.498 58.5395 68.2084Z" fill="#FFDB00"/>
<path d="M63.3515 75.9339C64.2193 75.7404 64.6898 74.5385 64.4024 73.2495C64.1149 71.9604 63.1784 71.0723 62.3106 71.2658C61.4428 71.4593 60.9723 72.6612 61.2597 73.9502C61.5471 75.2393 62.4836 76.1274 63.3515 75.9339Z" fill="#FFDB00"/>
<path d="M53.8174 76.2887C54.7066 76.2887 55.4274 75.5679 55.4274 74.6788C55.4274 73.7896 54.7066 73.0688 53.8174 73.0688C52.9283 73.0688 52.2075 73.7896 52.2075 74.6788C52.2075 75.5679 52.9283 76.2887 53.8174 76.2887Z" fill="#FFDB00"/>
<path d="M60.049 72.4706C60.6278 72.4706 61.097 72.0014 61.097 71.4225C61.097 70.8437 60.6278 70.3745 60.049 70.3745C59.4702 70.3745 59.001 70.8437 59.001 71.4225C59.001 72.0014 59.4702 72.4706 60.049 72.4706Z" fill="#FFDB00"/>
<path d="M51.2956 68.8948C51.8029 68.8948 52.2142 68.4836 52.2142 67.9762C52.2142 67.4689 51.8029 67.0576 51.2956 67.0576C50.7882 67.0576 50.377 67.4689 50.377 67.9762C50.377 68.4836 50.7882 68.8948 51.2956 68.8948Z" fill="#FFDB00"/>
<path d="M54.3748 65.7803C55.1141 65.4688 55.5592 64.8502 55.369 64.3987C55.1787 63.9473 54.4252 63.8338 53.6858 64.1454C52.9465 64.4569 52.5014 65.0755 52.6916 65.5269C52.8819 65.9784 53.6354 66.0918 54.3748 65.7803Z" fill="#FFDB00"/>
<path d="M58.5504 76.3228C59.5819 76.137 60.2962 75.3091 60.1457 74.4737C59.9953 73.6382 59.037 73.1116 58.0055 73.2974C56.9739 73.4832 56.2597 74.3111 56.4101 75.1465C56.5606 75.9819 57.5188 76.5086 58.5504 76.3228Z" fill="#FFDB00"/>
<path d="M61.429 78.9402C62.0821 78.8225 62.4842 78.0198 62.327 77.1472C62.1698 76.2746 61.513 75.6625 60.8598 75.7802C60.2067 75.8978 59.8047 76.7006 59.9618 77.5732C60.119 78.4458 60.7759 79.0578 61.429 78.9402Z" fill="#FFDB00"/>
<path d="M65.2727 73.6063C65.1547 79.5493 61.321 81.015 56.6312 80.9221C51.9415 80.8291 48.1679 79.2114 48.2859 73.2689C48.4038 67.3263 53.0239 62.5985 56.992 62.6767C60.6321 62.75 65.3906 67.6638 65.2727 73.6063Z" stroke="white" stroke-width="0.3" stroke-miterlimit="10" stroke-linecap="round"/>
<path d="M57.6304 62.772L57.27 80.8936" stroke="white" stroke-width="0.3" stroke-miterlimit="10" stroke-linecap="round"/>
<path d="M58.9257 63.1255L58.5747 80.7966" stroke="white" stroke-width="0.3" stroke-miterlimit="10" stroke-linecap="round"/>
<path d="M60.2142 63.8477L59.8809 80.6178" stroke="white" stroke-width="0.3" stroke-miterlimit="10" stroke-linecap="round"/>
<path d="M61.4961 64.8975L61.1914 80.2346" stroke="white" stroke-width="0.3" stroke-miterlimit="10" stroke-linecap="round"/>
<path d="M62.7713 66.2739L62.5063 79.6047" stroke="white" stroke-width="0.3" stroke-miterlimit="10" stroke-linecap="round"/>
<path d="M64.0349 68.2656L63.833 78.4212" stroke="white" stroke-width="0.3" stroke-miterlimit="10" stroke-linecap="round"/>
<path d="M49.7126 67.8579L49.5103 78.036" stroke="white" stroke-width="0.3" stroke-miterlimit="10" stroke-linecap="round"/>
<path d="M51.0537 65.918L50.7871 79.331" stroke="white" stroke-width="0.3" stroke-miterlimit="10" stroke-linecap="round"/>
<path d="M52.3841 64.5518L52.0757 80.0527" stroke="white" stroke-width="0.3" stroke-miterlimit="10" stroke-linecap="round"/>
<path d="M53.7046 63.6362L53.3696 80.4883" stroke="white" stroke-width="0.3" stroke-miterlimit="10" stroke-linecap="round"/>
<path d="M55.0188 63.0479L54.667 80.7604" stroke="white" stroke-width="0.3" stroke-miterlimit="10" stroke-linecap="round"/>
<path d="M56.3283 62.7466L55.9683 80.8682" stroke="white" stroke-width="0.3" stroke-miterlimit="10" stroke-linecap="round"/>
<path d="M50.2422 66.9741L64.6095 77.0957" stroke="white" stroke-width="0.3" stroke-miterlimit="10" stroke-linecap="round"/>
<path d="M51.0127 65.9766L65.0139 75.8397" stroke="white" stroke-width="0.3" stroke-miterlimit="10" stroke-linecap="round"/>
<path d="M51.8799 65.0605L65.1742 74.4269" stroke="white" stroke-width="0.3" stroke-miterlimit="10" stroke-linecap="round"/>
<path d="M52.8394 64.1826L65.2515 72.9265" stroke="white" stroke-width="0.3" stroke-miterlimit="10" stroke-linecap="round"/>
<path d="M54.0122 63.4683L65.0663 71.2554" stroke="white" stroke-width="0.3" stroke-miterlimit="10" stroke-linecap="round"/>
<path d="M55.3833 62.8936L64.4838 69.3193" stroke="white" stroke-width="0.3" stroke-miterlimit="10" stroke-linecap="round"/>
<path d="M57.2871 62.6938L63.2554 66.8987" stroke="white" stroke-width="0.3" stroke-miterlimit="10" stroke-linecap="round"/>
<path d="M48.8242 76.7588L54.6304 80.7531" stroke="white" stroke-width="0.3" stroke-miterlimit="10" stroke-linecap="round"/>
<path d="M48.3589 74.8906L56.9287 80.9278" stroke="white" stroke-width="0.3" stroke-miterlimit="10" stroke-linecap="round"/>
<path d="M48.2705 73.2881L58.9576 80.8172" stroke="white" stroke-width="0.3" stroke-miterlimit="10" stroke-linecap="round"/>
<path d="M48.4004 71.8394L60.6565 80.4734" stroke="white" stroke-width="0.3" stroke-miterlimit="10" stroke-linecap="round"/>
<path d="M48.6743 70.4912L62.0444 79.9104" stroke="white" stroke-width="0.3" stroke-miterlimit="10" stroke-linecap="round"/>
<path d="M49.0811 69.2373L63.1482 79.1475" stroke="white" stroke-width="0.3" stroke-miterlimit="10" stroke-linecap="round"/>
<path d="M49.606 68.0669L63.9946 78.2036" stroke="white" stroke-width="0.3" stroke-miterlimit="10" stroke-linecap="round"/>
<path d="M55.0386 62.9285L53.805 61.0831C53.7702 61.0311 53.7528 60.9695 53.7551 60.9069C53.7574 60.8444 53.7794 60.7843 53.818 60.735C53.8565 60.6857 53.9096 60.6499 53.9698 60.6326C54.0299 60.6153 54.0939 60.6175 54.1527 60.6387L55.0779 60.9725C55.2441 61.0325 55.4238 61.0447 55.5966 61.0078C55.7693 60.9709 55.9283 60.8863 56.0555 60.7636L56.4061 60.4258C56.4964 60.3387 56.6031 60.2704 56.7201 60.2249C56.837 60.1795 56.9618 60.1577 57.0873 60.161C57.2127 60.1642 57.3362 60.1924 57.4507 60.2438C57.5651 60.2952 57.6682 60.3689 57.7539 60.4606L57.9922 60.7153C58.1207 60.8526 58.2872 60.9486 58.4704 60.9909C58.6537 61.0332 58.8453 61.0199 59.021 60.9529L59.6845 60.6993C59.7638 60.6689 59.8507 60.6646 59.9326 60.687C60.0145 60.7094 60.0872 60.7573 60.14 60.8238C60.1928 60.8903 60.2231 60.9719 60.2264 61.0567C60.2297 61.1416 60.2059 61.2253 60.1583 61.2956L58.9256 63.1255" stroke="white" stroke-width="0.3" stroke-miterlimit="10" stroke-linecap="round"/>
<path d="M75.8042 77.8654L75.5757 77.6991C77.698 74.6742 82.4462 70.6226 82.4938 70.582L82.6748 70.7999C82.6273 70.84 77.906 74.8692 75.8042 77.8654Z" fill="#907B00"/>
<path d="M76.089 78.2836L75.8433 78.1459C76.4498 77.014 77.7509 75.1853 80.5035 72.9009C81.4797 72.0882 82.5014 71.3318 83.5636 70.6353L83.7135 70.8761C82.6599 71.5666 81.6467 72.3169 80.6788 73.1233C79.1798 74.3679 77.1665 76.2739 76.089 78.2836Z" fill="#907B00"/>
<path d="M75.6226 77.7606L75.4326 77.5509C75.4429 77.541 76.4868 76.5639 77.7105 74.9298C78.838 73.4226 80.3533 71.0321 81.17 68.2021L81.4382 68.2841C80.6089 71.1574 79.0727 73.5803 77.9296 75.1071C76.6912 76.76 75.6329 77.7507 75.6226 77.7606Z" fill="#907B00"/>
<path d="M76.0857 77.8761L75.8662 77.6983L82.8457 68.7837L83.0652 68.961L76.0857 77.8761Z" fill="#907B00"/>
<path d="M76.8446 79.9562L76.6025 79.8124C79.2281 76.5488 84.8779 71.9815 84.9348 71.936L85.1191 72.1367C85.063 72.1822 79.4448 76.7245 76.8446 79.9562Z" fill="#907B00"/>
<path d="M77.129 80.3485L76.8652 80.2351C77.6381 79.033 79.2451 77.0578 82.517 74.4752C84.4677 72.9341 86.1136 71.8901 86.13 71.8799L86.2779 72.1068C86.2619 72.117 84.6311 73.1511 82.6951 74.6808C80.912 76.088 78.501 78.2135 77.129 80.3485Z" fill="#907B00"/>
<path d="M76.6499 79.8694L76.4546 79.6777C76.4669 79.667 77.716 78.576 79.2211 76.8031C80.6078 75.1698 82.5016 72.6073 83.6499 69.6729L83.9428 69.7286C82.7772 72.7076 80.8572 75.3054 79.4517 76.9599C77.929 78.7525 76.6622 79.8583 76.6499 79.8694Z" fill="#907B00"/>
<path d="M77.1587 79.9379L76.9277 79.7815L86.326 69.0518L86.5574 69.2078L77.1587 79.9379Z" fill="#907B00"/>
<path d="M77.1841 78.4722L76.9199 77.7412L86.2949 67.48L86.5259 67.6364L77.1841 78.4722Z" fill="#907B00"/>
<path d="M77.5666 76.1672C77.5666 76.1672 76.8704 76.852 76.3519 78.0397C76.3413 78.0806 76.3298 78.1248 76.3179 78.1687C76.1897 78.6335 75.7658 78.9497 75.294 78.8567C75.0672 78.8119 74.8673 78.679 74.7383 78.4871C74.6093 78.2951 74.5617 78.0598 74.606 77.8328C74.6687 77.5142 74.9926 77.2828 75.4186 77.1104C75.4186 77.1104 75.4186 77.1104 75.421 77.1104C75.4718 77.087 76.2933 76.6984 77.0543 75.7658C77.0526 75.763 77.4962 75.738 77.5666 76.1672Z" fill="white"/>
<path d="M78.8881 76.503C78.8881 76.503 78.0731 77.4408 77.8233 78.3398C77.6955 78.8046 77.2712 79.1212 76.7994 79.0278C76.5725 78.9831 76.3726 78.8501 76.2437 78.6582C76.1147 78.4662 76.0671 78.231 76.1114 78.004C76.1597 77.7582 76.4017 77.5617 76.7105 77.3896H76.7134C76.7282 77.3827 76.8035 77.3466 76.9206 77.2815C77.238 77.1054 77.8597 76.7188 78.3864 76.1426C78.384 76.1393 78.8455 76.0779 78.8881 76.503Z" fill="white"/>
<path d="M76.9187 77.2783C76.8015 77.3434 76.7262 77.3795 76.7114 77.3864C76.7774 77.3492 76.8474 77.3135 76.9187 77.2783Z" fill="white"/>
<path d="M78.9576 78.0653C78.9576 78.0653 77.9149 79.3308 77.5418 80.5029C77.414 80.9678 76.9599 81.2786 76.4868 81.1853C76.2599 81.1406 76.0599 81.0077 75.9308 80.8157C75.8017 80.6238 75.7541 80.3884 75.7984 80.1614C75.8893 79.7011 76.6584 79.3423 77.2072 78.9594C77.5664 78.6067 78.0009 78.1669 78.4158 77.7123C78.4158 77.7107 78.9146 77.6406 78.9576 78.0653Z" fill="white"/>
<path d="M83.5685 75.6646L80.9617 80.9478C80.4302 82.025 79.608 82.932 78.5879 83.5662C77.5679 84.2004 76.3907 84.5366 75.1895 84.5367H56.8729C55.3049 84.5365 53.7734 84.064 52.4779 83.1806C51.1824 82.2973 50.1832 81.0441 49.6104 79.5844L45.0137 67.8042L64.2309 75.1887C65.0499 75.5033 65.9197 75.6646 66.7971 75.6646H83.5685Z" fill="#C8D9D2"/>
<path d="M83.5683 75.6646L80.9615 80.9477C80.4301 82.0249 79.6078 82.9319 78.5877 83.5661C77.5677 84.2004 76.3905 84.5365 75.1894 84.5366H74.2474C72.6795 84.5365 71.148 84.0641 69.8526 83.1809C68.5571 82.2977 67.5578 81.0446 66.9849 79.5852L65.3926 75.5249C65.8552 75.6179 66.3259 75.6647 66.7977 75.6646H83.5683Z" fill="#E5F1EF"/>
<path d="M45.5931 67.5503H43.7784C43.7301 67.5497 43.6831 67.5661 43.6457 67.5967C43.6084 67.6273 43.5831 67.6702 43.5742 67.7177C43.5654 67.7652 43.5737 67.8142 43.5975 67.8562C43.6214 67.8982 43.6593 67.9304 43.7046 67.9472L64.2697 75.8494C65.1499 76.1876 66.0849 76.361 67.028 76.3609H84.8699C84.9067 76.3609 84.9423 76.348 84.9705 76.3244C84.9987 76.3008 85.0178 76.2681 85.0245 76.232C85.0311 76.1958 85.0248 76.1584 85.0068 76.1264C84.9887 76.0944 84.96 76.0697 84.9256 76.0566L82.8438 75.2555" stroke="#423C52" stroke-width="5" stroke-miterlimit="10"/>
<path d="M77.139 92.68C79.663 92.68 81.7091 90.0127 81.7091 86.7223C81.7091 83.432 79.663 80.7646 77.139 80.7646C74.615 80.7646 72.5688 83.432 72.5688 86.7223C72.5688 90.0127 74.615 92.68 77.139 92.68Z" fill="#423C52"/>
<path d="M75.7588 92.1257C77.5206 92.1257 78.9488 89.7066 78.9488 86.7225C78.9488 83.7384 77.5206 81.3193 75.7588 81.3193C73.997 81.3193 72.5688 83.7384 72.5688 86.7225C72.5688 89.7066 73.997 92.1257 75.7588 92.1257Z" fill="white" stroke="#423C52" stroke-width="0.5" stroke-miterlimit="10" stroke-linecap="round"/>
<path d="M75.6538 87.8409C76.0186 87.8409 76.3144 87.3402 76.3144 86.7225C76.3144 86.1048 76.0186 85.604 75.6538 85.604C75.2889 85.604 74.9932 86.1048 74.9932 86.7225C74.9932 87.3402 75.2889 87.8409 75.6538 87.8409Z" fill="white" stroke="#423C52" stroke-width="0.5" stroke-miterlimit="10" stroke-linecap="round"/>
<path d="M31.603 55.5059H34.4432C35.9554 55.5055 37.4195 56.0365 38.5799 57.0061C39.7402 57.9757 40.5229 59.3222 40.7912 60.8103L46.778 91.0603C46.8321 91.359 46.9894 91.6292 47.2224 91.8239C47.4554 92.0185 47.7493 92.1251 48.0529 92.1251V92.1251C48.33 92.125 48.5998 92.036 48.8227 91.8714C49.0455 91.7067 49.2098 91.475 49.2914 91.2102L52.7856 78.5142C52.8535 78.2678 52.9739 78.039 53.1388 77.8436C53.3036 77.6483 53.5088 77.491 53.7403 77.3827C53.9719 77.2744 54.2241 77.2176 54.4797 77.2162C54.7353 77.2149 54.9882 77.269 55.2208 77.3749L75.76 86.7216" stroke="#423C52" stroke-width="0.4" stroke-miterlimit="10" stroke-linecap="round"/>
<path d="M42.0101 44.0161C41.7546 43.9899 40.3105 43.9305 38.6179 45.6253C36.9866 47.2589 36.734 48.5674 36.6987 48.8713C32.6237 42.1212 32.6413 32.6623 31.7993 29.981L33.2086 29.9838C35.0106 29.9875 36.7864 31.0699 37.2152 32.8183C38.3222 37.3327 40.2163 41.144 42.0101 44.0161Z" fill="#E5F1EF"/>
<path d="M42.0103 44.0161C41.7548 43.9899 40.3107 43.9305 38.6181 45.6252C36.9868 47.2589 36.7341 48.5674 36.6989 48.8713C36.2254 48.0814 35.8032 47.2619 35.4351 46.4177C35.546 45.9263 35.9466 44.7697 37.3698 43.3871C38.6201 42.1732 39.9773 41.8857 40.701 41.8308C40.8316 41.8211 40.9619 41.8537 41.0725 41.9237C41.1832 41.9938 41.2683 42.0976 41.3153 42.2199L42.0103 44.0161Z" fill="#C8D9D2"/>
<path d="M51.7342 56.5436L48.1301 56.6448C47.9732 56.6493 47.8187 56.6059 47.687 56.5205C47.5553 56.435 47.4528 56.3115 47.393 56.1664L47.1472 55.5648L44.7878 55.5283C41.3886 54.0208 38.8903 52.136 36.6919 48.9383C36.6919 48.9383 36.7509 47.4951 38.6168 45.6255C40.4827 43.7559 42.0066 44.0213 42.0066 44.0213C44.5048 48.1638 46.9212 50.5097 47.9827 51.4288L49.8199 51.4488C50.1963 51.4532 50.5624 51.572 50.8697 51.7894C51.1769 52.0068 51.4107 52.3125 51.54 52.666L52.527 55.3645C52.5746 55.4947 52.5908 55.6342 52.5741 55.7718C52.5574 55.9094 52.5084 56.0411 52.431 56.1561C52.3537 56.2711 52.2502 56.3662 52.1291 56.4335C52.008 56.5009 51.8727 56.5386 51.7342 56.5436V56.5436Z" fill="#8A562F"/>
<path d="M50.6621 56.5791C50.8008 56.5743 50.9363 56.5367 51.0576 56.4694C51.179 56.4021 51.2826 56.307 51.3601 56.192C51.4376 56.0769 51.4868 55.9451 51.5036 55.8074C51.5203 55.6697 51.5043 55.5299 51.4566 55.3996L50.9107 53.9072" stroke="#423C52" stroke-width="0.4" stroke-miterlimit="10" stroke-linecap="round"/>
<path d="M49.4712 56.602C49.6099 56.5971 49.7454 56.5595 49.8667 56.4921C49.988 56.4248 50.0917 56.3297 50.1691 56.2145C50.2466 56.0994 50.2957 55.9676 50.3124 55.8299C50.3292 55.6921 50.313 55.5524 50.2653 55.4221L49.7198 53.9297" stroke="#423C52" stroke-width="0.4" stroke-miterlimit="10" stroke-linecap="round"/>
<path d="M48.3247 56.6386C48.4634 56.6337 48.5989 56.596 48.7202 56.5287C48.8416 56.4614 48.9452 56.3663 49.0227 56.2512C49.1002 56.1361 49.1494 56.0043 49.1661 55.8665C49.1829 55.7288 49.1668 55.589 49.1192 55.4587L48.5733 53.9663" stroke="#423C52" stroke-width="0.4" stroke-miterlimit="10" stroke-linecap="round"/>
<path d="M44.7871 55.5282H47.1461V55.1662C47.146 54.8695 47.0281 54.585 46.8182 54.3753C46.6084 54.1655 46.3239 54.0477 46.0272 54.0477H45.811L44.9759 53.4653" stroke="#423C52" stroke-width="0.4" stroke-miterlimit="10" stroke-linecap="round"/>
<path d="M39.1473 89.0104C38.507 88.9331 37.8625 88.8947 37.2175 88.8953C33.9919 88.8953 31.2144 89.8295 29.9685 91.172C29.964 91.1368 29.9608 91.1016 29.9595 91.0655L28.8316 62.7142L24.2402 88.9334C23.5761 88.8509 22.9075 88.8099 22.2383 88.8106C18.9083 88.8106 16.0566 89.8062 14.8726 91.2183C14.8331 91.0576 14.8238 90.8909 14.8452 90.7268L21.0294 48.8498L20.6948 34.6635C20.9708 31.9949 21.9562 29.9668 24.6395 29.9668H33.5328C34.0873 29.9668 34.621 30.1781 35.0252 30.5575C35.4295 30.937 35.6741 31.4562 35.7092 32.0096L39.1473 89.0104Z" fill="#FE552F"/>
<path d="M30.8624 91.1729C30.8575 91.1376 30.8545 91.102 30.8534 91.0664L30.8452 90.8252" stroke="#423C52" stroke-width="5" stroke-miterlimit="10" stroke-linecap="round"/>
<path d="M30.8231 90.1245L29.7505 58.249" stroke="#423C52" stroke-width="0.4" stroke-miterlimit="10" stroke-linecap="round" stroke-dasharray="17.12 17.12"/>
<path d="M29.7389 57.8989L29.7271 57.5508" stroke="#423C52" stroke-width="0.4" stroke-miterlimit="10" stroke-linecap="round"/>
<path d="M15.8687 90.7277L15.919 90.3833" stroke="#423C52" stroke-width="5" stroke-miterlimit="10" stroke-linecap="round"/>
<path d="M16.019 89.7013L21.9313 49.2602L21.3391 35.3564" stroke="#423C52" stroke-width="0.4" stroke-miterlimit="10" stroke-linecap="round" stroke-dasharray="16.83 16.83"/>
<path d="M21.3243 35.0122L21.3096 34.6641" stroke="#423C52" stroke-width="5" stroke-miterlimit="10" stroke-linecap="round"/>
<path d="M24.2383 88.9387L29.9904 55.8379" stroke="#423C52" stroke-width="0.4" stroke-miterlimit="10" stroke-linecap="round"/>
<path d="M25.0831 51.7876C25.0831 53.9 23.2697 55.6124 21.0327 55.6124" stroke="#423C52" stroke-width="0.4" stroke-miterlimit="10" stroke-linecap="round"/>
<path d="M27.8727 54.1387C25.6181 52.4232 22.5141 49.8795 21.0115 47.5016L20.8911 43.2202L27.8727 54.1387Z" fill="#423C52"/>
<path d="M32.9616 55.8145H29.5923" stroke="#423C52" stroke-width="0.4" stroke-miterlimit="10" stroke-linecap="round"/>
<path d="M33.7589 31.551V37.5304H29.1122L28.1293 33.4189C27.6456 31.3962 26.2638 29.9697 24.1841 29.9697H32.1731C32.593 29.9694 32.9959 30.1357 33.2932 30.4322C33.5905 30.7287 33.758 31.1311 33.7589 31.551V31.551Z" fill="#E5F1EF"/>
<path d="M28.6411 43.4757C28.6354 43.4659 28.6289 43.4564 28.6223 43.447C28.1808 42.8442 26.6053 43.2599 25.1031 44.3759C23.6836 45.4301 22.837 46.7316 23.1196 47.3807C20.3384 44.0077 19.7011 40.0117 19.1413 36.298C18.6498 33.0458 20.2786 30.8432 22.7326 30.6089C24.0149 30.4861 26.1257 31.2233 26.5311 34.018C27.0853 37.835 27.8405 40.9582 28.6411 43.4757Z" fill="#E5F1EF"/>
<path d="M28.622 43.4472C28.1809 42.8443 26.6053 43.26 25.1027 44.376C23.6001 45.492 22.74 46.8853 23.1811 47.4886L21.9643 45.7791C21.5356 45.1095 22.285 43.3444 23.9539 42.257C25.6228 41.1697 27.8282 40.7876 28.0945 41.6296L28.622 43.4472Z" fill="#C8D9D2"/>
<path d="M31.9525 55.9405C30.4768 55.9239 29.0622 55.3486 27.9938 54.3306C25.9461 52.3721 24.3668 49.9595 23.1415 47.4256C23.1349 47.4113 23.1276 47.3973 23.1206 47.3846C22.838 46.7355 23.6845 45.434 25.104 44.3798C26.6275 43.2478 28.2268 42.8362 28.6413 43.4788V43.4808C28.6724 43.5791 28.699 43.6774 28.7351 43.7724C30.0333 47.1971 32.2068 50.7589 32.9804 51.8082L35.2256 51.8376C35.602 51.8419 35.9681 51.9607 36.2754 52.1781C36.5826 52.3955 36.8164 52.7013 36.9457 53.0548L37.9327 55.7533C37.9803 55.8836 37.9964 56.0233 37.9797 56.1609C37.9629 56.2986 37.9138 56.4303 37.8363 56.5454C37.7588 56.6604 37.6552 56.7554 37.5339 56.8227C37.4127 56.89 37.2772 56.9276 37.1386 56.9324L33.5346 57.0336C33.3777 57.0381 33.2231 56.9947 33.0914 56.9093C32.9597 56.8239 32.8572 56.7004 32.7974 56.5552L32.5516 55.9532L31.9525 55.9405Z" fill="#8A562F"/>
<path d="M36.0664 56.9628C36.2051 56.9579 36.3406 56.9203 36.4619 56.8529C36.5833 56.7856 36.6869 56.6905 36.7644 56.5754C36.8419 56.4603 36.8911 56.3285 36.9078 56.1907C36.9246 56.053 36.9085 55.9133 36.8609 55.7829L36.315 54.2905" stroke="#423C52" stroke-width="0.4" stroke-miterlimit="10" stroke-linecap="round"/>
<path d="M34.8765 56.9858C35.0151 56.9809 35.1507 56.9432 35.272 56.8759C35.3933 56.8085 35.497 56.7134 35.5745 56.5983C35.652 56.4832 35.7011 56.3514 35.7179 56.2137C35.7347 56.0759 35.7186 55.9362 35.671 55.8059L35.1251 54.3135" stroke="#423C52" stroke-width="0.4" stroke-miterlimit="10" stroke-linecap="round"/>
<path d="M33.73 57.0225C33.8686 57.0176 34.0042 56.98 34.1255 56.9128C34.2468 56.8455 34.3505 56.7504 34.428 56.6353C34.5055 56.5202 34.5547 56.3885 34.5714 56.2507C34.5882 56.113 34.5721 55.9733 34.5245 55.843L33.9786 54.3506" stroke="#423C52" stroke-width="0.4" stroke-miterlimit="10" stroke-linecap="round"/>
<path d="M32.3652 55.2324L32.9083 56.7076" stroke="#423C52" stroke-width="0.4" stroke-miterlimit="10" stroke-linecap="round"/>
<path d="M31.7998 51.8086H32.9805" stroke="#423C52" stroke-width="0.4" stroke-miterlimit="10" stroke-linecap="round"/>
<path d="M30.5999 26.5677C33.5271 25.1759 35.6539 23.5299 35.3503 22.8914C35.0467 22.2528 32.4276 22.8635 29.5004 24.2553C26.5732 25.6471 24.4463 27.293 24.7499 27.9316C25.0536 28.5701 27.6727 27.9595 30.5999 26.5677Z" fill="#423C52"/>
<path d="M24.4685 27.8896C24.7962 28.5661 27.5315 27.96 30.5806 26.4893C33.6297 25.0186 35.8363 23.24 35.5099 22.5634C35.1835 21.8868 32.4473 22.5306 29.3983 24.0013C26.3492 25.472 24.1421 27.213 24.4685 27.8896Z" stroke="#423C52" stroke-width="0.3" stroke-miterlimit="10"/>
<path d="M28.1726 24.6208L28.1545 24.0855C28.1337 23.4614 28.5588 22.8978 29.1997 22.698L30.1904 22.3916C30.4395 22.3135 30.7038 22.2972 30.9607 22.3439C31.2175 22.3906 31.4591 22.4991 31.6648 22.6599L31.9711 22.9056" stroke="#423C52" stroke-width="0.3" stroke-miterlimit="10" stroke-linecap="round"/>
<path d="M31.4813 30.0422V27.9879L28.5609 26.4644L26.8252 30.0405C26.8252 30.0405 29.217 31.9048 31.4813 30.0422Z" fill="#8A562F"/>
<path d="M31.4813 30.042V27.9893L28.5608 26.4658L28.25 27.1059L31.4813 30.042Z" fill="#423C52"/>
<path d="M31.6638 23.613C32.2589 23.3825 33.7365 23.3673 33.1201 24.3281C32.4939 25.3036 30.8873 24.8896 30.0485 24.6385L29.768 24.5534C29.6176 24.6586 29.5138 24.818 29.4784 24.9981L29.3699 25.5477H28.6327L28.6225 25.4658C28.5738 25.0673 28.8379 24.7696 29.2147 24.6303L31.6638 23.613Z" fill="black"/>
<path d="M31.2187 28.3014H30.6368C30.3733 28.3015 30.1154 28.2262 29.8933 28.0845C29.6713 27.9428 29.4944 27.7405 29.3835 27.5016L29.112 26.9179H28.6382C28.4516 26.9179 28.2726 26.8438 28.1407 26.7119C28.0087 26.5799 27.9346 26.401 27.9346 26.2143C27.9346 26.0277 28.0087 25.8488 28.1407 25.7168C28.2726 25.5849 28.4516 25.5107 28.6382 25.5107H29.3778L29.4786 24.9984C29.5139 24.8181 29.6179 24.6585 29.7685 24.5532C30.26 24.6998 31.3825 25.0783 32.2471 24.894C32.2197 25.6239 32.2427 26.3549 32.3159 27.0818C32.3325 27.2357 32.3164 27.3913 32.2688 27.5386C32.2212 27.6859 32.1431 27.8215 32.0396 27.9365C31.9361 28.0516 31.8095 28.1436 31.668 28.2064C31.5266 28.2693 31.3735 28.3017 31.2187 28.3014V28.3014Z" fill="#8A562F"/>
<path d="M32.2552 25.5045C32.2552 25.5045 31.7596 25.3759 31.5053 25.8027C31.3374 26.0844 31.4619 27.1325 31.4619 27.1325" stroke="#423C52" stroke-width="0.3" stroke-miterlimit="10" stroke-linecap="round"/>
<path d="M30.7807 25.5074C30.7807 25.5074 30.2704 25.4316 29.8354 25.7121" stroke="#423C52" stroke-width="0.3" stroke-miterlimit="10" stroke-linecap="round"/>
<path d="M31.9648 26.3533C32.0219 26.3495 32.0623 26.2577 32.055 26.1482C32.0477 26.0388 31.9954 25.9532 31.9383 25.957C31.8812 25.9608 31.8409 26.0526 31.8482 26.1621C31.8555 26.2715 31.9077 26.3572 31.9648 26.3533Z" fill="#423C52"/>
<path d="M30.4941 26.3937C30.5548 26.3897 30.5977 26.2918 30.5899 26.1751C30.5821 26.0584 30.5266 25.9671 30.4659 25.9712C30.4052 25.9752 30.3623 26.0731 30.3701 26.1898C30.3779 26.3065 30.4334 26.3978 30.4941 26.3937Z" fill="#423C52"/>
<path d="M29.0829 26.3627C29.0846 26.2909 29.0719 26.2194 29.0456 26.1525C29.0193 26.0857 28.9798 26.0248 28.9296 25.9734C28.8794 25.922 28.8194 25.8811 28.7532 25.8532C28.6869 25.8254 28.6158 25.811 28.5439 25.811" stroke="#423C52" stroke-width="0.3" stroke-miterlimit="10" stroke-linecap="round"/>
</g>
</g>
<defs>
<clipPath id="clip0_644_11757">
<rect width="165" height="89" fill="white"/>
</clipPath>
<clipPath id="clip1_644_11757">
<rect width="163" height="89" fill="white" transform="translate(0.5 -0.263184)"/>
</clipPath>
</defs>
</svg>
