<svg width="342" height="114" viewBox="0 0 342 114" fill="none" xmlns="http://www.w3.org/2000/svg">
<circle opacity="0.5" cx="171" cy="57" r="57" fill="#E5CFA8"/>
<g style="mix-blend-mode:multiply">
<circle cx="171" cy="57" r="51.1034" fill="#E5CFA8"/>
</g>
<path d="M169.188 67.3182C169.188 66.3177 170 65.4912 171.001 65.4912C172.001 65.4912 172.813 66.2911 172.813 67.2916V67.3182C172.813 68.3187 172.001 69.1307 171.001 69.1307C170 69.1307 169.188 68.3187 169.188 67.3182Z" fill="#263238"/>
<path d="M153.589 77.3433H188.588C191.36 77.1983 193.491 74.8372 193.348 72.0653C193.317 71.5046 193.196 70.9512 192.984 70.434L175.397 39.6553C174.054 37.2266 170.997 36.3469 168.568 37.693C167.741 38.1473 167.06 38.8288 166.603 39.6553L149.017 70.434C147.973 73.0053 149.21 75.9343 151.779 76.9808C152.301 77.191 152.852 77.3118 153.413 77.3433" stroke="#263238" stroke-width="3" stroke-linecap="round" stroke-linejoin="round"/>
<path d="M170.975 60.3739V52.8822" stroke="#263238" stroke-width="3" stroke-linecap="round" stroke-linejoin="round"/>
</svg>
