<svg width="41" height="41" viewBox="0 0 41 41" fill="none" xmlns="http://www.w3.org/2000/svg">
<g opacity="0.8">
<rect x="0.253086" y="0.253086" width="40.4938" height="40.4938" rx="10" fill="white"/>
<path d="M27.4586 26.6926L27.4584 26.6924L25.5142 24.7523C26.5333 23.5596 27.1497 22.0119 27.1497 20.3232C27.1497 16.5592 24.0885 13.498 20.3245 13.498C16.5606 13.498 13.4986 16.5592 13.4986 20.3232C13.4986 24.0872 16.5605 27.1491 20.3245 27.1491C21.853 27.1491 23.266 26.6439 24.4046 25.7922L26.3855 27.7675L26.3859 27.7679C26.5342 27.9152 26.7286 27.9892 26.9219 27.9892C27.1151 27.9892 27.3112 27.9156 27.4598 27.7653C27.7562 27.4682 27.7545 26.9885 27.4586 26.6926ZM15.0171 20.3232C15.0171 17.397 17.3982 15.0165 20.3245 15.0165C23.2501 15.0165 25.6312 17.397 25.6312 20.3232C25.6312 23.2495 23.2501 25.6306 20.3245 25.6306C17.3982 25.6306 15.0171 23.2495 15.0171 20.3232Z" fill="black" stroke="black" stroke-width="0.5"/>
<rect x="0.253086" y="0.253086" width="40.4938" height="40.4938" rx="10" stroke="#CFD8DC" stroke-width="0.5"/>
</g>
</svg>
