<svg width="17" height="17" viewBox="0 0 17 17" fill="none" xmlns="http://www.w3.org/2000/svg">
<circle cx="8.5" cy="8.5" r="8.5" fill="#FFB300"/>
<path d="M5.46834 11.3561C5.74034 11.1401 5.86434 11.0401 5.84034 11.0561C6.62434 10.4081 7.24034 9.8761 7.68834 9.4601C8.14434 9.0441 8.52834 8.6081 8.84034 8.1521C9.15234 7.6961 9.30834 7.2521 9.30834 6.8201C9.30834 6.4921 9.23234 6.2361 9.08034 6.0521C8.92834 5.8681 8.70034 5.7761 8.39634 5.7761C8.09234 5.7761 7.85234 5.8921 7.67634 6.1241C7.50834 6.3481 7.42434 6.6681 7.42434 7.0841H5.44434C5.46034 6.4041 5.60434 5.8361 5.87634 5.3801C6.15634 4.9241 6.52034 4.5881 6.96834 4.3721C7.42434 4.1561 7.92834 4.0481 8.48034 4.0481C9.43234 4.0481 10.1483 4.2921 10.6283 4.7801C11.1163 5.2681 11.3603 5.9041 11.3603 6.6881C11.3603 7.5441 11.0683 8.3401 10.4843 9.0761C9.90034 9.8041 9.15634 10.5161 8.25234 11.2121H11.4923V12.8801H5.46834V11.3561Z" fill="white"/>
</svg>
