<svg width="41" height="41" viewBox="0 0 41 41" fill="none" xmlns="http://www.w3.org/2000/svg">
<g opacity="0.8">
<rect x="0.5" y="0.5" width="40" height="40" rx="10" fill="white"/>
<path d="M27.3727 26.6172L27.3725 26.617L25.4521 24.7005C26.4587 23.5224 27.0677 21.9936 27.0677 20.3255C27.0677 16.6074 24.0437 13.5835 20.3257 13.5835C16.6076 13.5835 13.583 16.6074 13.583 20.3255C13.583 24.0436 16.6076 27.0682 20.3257 27.0682C21.8355 27.0682 23.2313 26.5691 24.3561 25.7278L26.3127 27.679L26.3131 27.6793C26.4596 27.8249 26.6517 27.898 26.8426 27.898C27.0335 27.898 27.2271 27.8253 27.374 27.6768C27.6668 27.3834 27.665 26.9095 27.3727 26.6172ZM15.083 20.3255C15.083 17.4349 17.435 15.0835 20.3257 15.0835C23.2156 15.0835 25.5677 17.4349 25.5677 20.3255C25.5677 23.2161 23.2156 25.5682 20.3257 25.5682C17.4351 25.5682 15.083 23.2161 15.083 20.3255Z" fill="black" stroke="black" stroke-width="0.5"/>
<rect x="0.5" y="0.5" width="40" height="40" rx="10" stroke="#CFD8DC"/>
</g>
</svg>
