<svg width="20" height="20" viewBox="0 0 20 20" fill="none" xmlns="http://www.w3.org/2000/svg">
<path d="M10.509 1.90582C10.368 1.78329 10.1874 1.71582 10.0006 1.71582C9.81382 1.71582 9.6333 1.78329 9.4923 1.90582C8.85887 2.45432 8.34724 3.1293 7.99031 3.88737C7.63338 4.64544 7.43904 5.46981 7.4198 6.30749C7.41935 6.38532 7.44085 6.46171 7.48182 6.52789C7.5228 6.59407 7.58159 6.64736 7.65146 6.68166C8.15829 6.94538 8.63355 7.26576 9.06813 7.63666C9.28313 7.81916 9.47813 8.00999 9.6548 8.20416C9.83813 8.40582 10.1631 8.40582 10.3465 8.20416C10.524 8.00999 10.719 7.81916 10.9331 7.63749C11.3676 7.26644 11.8429 6.94605 12.3498 6.68249C12.4198 6.64831 12.4788 6.59507 12.5199 6.52888C12.561 6.46269 12.5827 6.38625 12.5823 6.30832C12.5632 5.47051 12.3689 4.64597 12.0119 3.88775C11.655 3.12953 11.1433 2.45441 10.5098 1.90582H10.509ZM10.0006 15.0358C10.6696 13.8581 11.675 12.9069 12.8879 12.3041C14.1009 11.7013 15.4662 11.4744 16.809 11.6525C17.2156 11.7058 17.5198 12.0692 17.4881 12.4892C17.3657 14.0794 16.6475 15.5648 15.4772 16.6483C14.3068 17.7318 12.7706 18.3336 11.1756 18.3333H8.82563C7.23085 18.3334 5.69481 17.7315 4.52463 16.648C3.35444 15.5645 2.63636 14.0792 2.51396 12.4892C2.49882 12.2893 2.56076 12.0913 2.68706 11.9357C2.81337 11.7801 2.99445 11.6788 3.19313 11.6525C4.53587 11.4743 5.90123 11.7012 7.11422 12.3039C8.32721 12.9067 9.33258 13.858 10.0015 15.0358H10.0006ZM16.3723 10.775C14.8331 10.69 13.3273 11.0917 12.1006 11.7458C11.3656 12.1375 10.6923 12.6417 10.1656 13.2217C10.1447 13.2446 10.1192 13.2629 10.0908 13.2755C10.0624 13.288 10.0317 13.2945 10.0006 13.2945C9.96957 13.2945 9.93886 13.288 9.91045 13.2755C9.88204 13.2629 9.85656 13.2446 9.83563 13.2217C9.31063 12.6408 8.63646 12.1375 7.90146 11.7458C6.6773 11.0933 5.17646 10.6925 3.64146 10.775C3.03313 9.81666 2.61646 8.71666 2.51646 7.60832C2.50709 7.50354 2.51852 7.39794 2.55009 7.29758C2.58167 7.19723 2.63276 7.10411 2.70045 7.02357C2.76813 6.94303 2.85107 6.87666 2.94449 6.82828C3.0379 6.7799 3.13996 6.75046 3.2448 6.74166C5.29063 6.57082 6.99813 6.97499 8.5298 8.27249C9.22146 8.85832 9.6848 9.56166 10.0015 10.1617C10.3173 9.56166 10.7815 8.85832 11.4723 8.27249C13.0056 6.97416 14.7248 6.57082 16.769 6.74166C16.8739 6.75036 16.976 6.77972 17.0695 6.82806C17.163 6.87639 17.2461 6.94274 17.3138 7.02329C17.3816 7.10384 17.4328 7.197 17.4644 7.2974C17.496 7.39781 17.5075 7.50347 17.4981 7.60832C17.3973 8.71666 16.9806 9.81749 16.3731 10.775H16.3723Z" fill="#28766F"/>
</svg>
