<svg width="20" height="20" viewBox="0 0 20 20" fill="none" xmlns="http://www.w3.org/2000/svg">
<path fill-rule="evenodd" clip-rule="evenodd" d="M14.9881 4.51959C11.673 4.14907 8.32686 4.14907 5.01172 4.51959C4.78742 4.54466 4.6794 4.8077 4.82135 4.98318L7.7522 8.60613C8.80211 9.90398 9.37491 11.5228 9.37491 13.1921V15.5998L10.6249 16.5165V13.1921C10.6249 11.5228 11.1977 9.90398 12.2476 8.60613L15.1785 4.98318C15.3204 4.8077 15.2124 4.54466 14.9881 4.51959ZM4.87288 3.27732C8.2803 2.89649 11.7195 2.89649 15.1269 3.27732C16.3327 3.41208 16.9134 4.82607 16.1503 5.76935L13.2194 9.3923C12.3495 10.4677 11.8749 11.809 11.8749 13.1921V17.7499C11.8749 17.9854 11.7425 18.2009 11.5324 18.3074C11.3223 18.4138 11.0702 18.3931 10.8803 18.2539L8.38031 16.4205C8.21976 16.3028 8.12491 16.1156 8.12491 15.9165V13.1921C8.12491 11.809 7.65031 10.4677 6.78038 9.3923L3.84953 5.76935C3.08646 4.82608 3.66711 3.41208 4.87288 3.27732Z" fill="black"/>
</svg>
