<svg width="159" height="122" viewBox="0 0 159 122" fill="none" xmlns="http://www.w3.org/2000/svg">
<g clip-path="url(#clip0_705_8842)">
<path d="M42.7461 44.931L49.391 55.3523C52.0513 59.5252 50.8169 65.0612 46.6404 67.7164H46.6367C46.5144 67.7942 46.3932 67.8663 46.2703 67.9358C46.2502 67.9494 46.229 67.9613 46.2069 67.9714C46.1372 68.0111 46.0706 68.0487 46.0004 68.0832C45.8683 68.1538 45.7326 68.2171 45.6 68.2789C43.6942 69.1653 41.5367 69.3541 39.5055 68.8124C37.4742 68.2706 35.6986 67.0328 34.4896 65.3157C34.4091 65.2039 34.3301 65.087 34.2543 64.9679L27.6099 54.5466C27.4592 54.3111 27.3566 54.0482 27.3079 53.7731C27.2592 53.4979 27.2653 53.2159 27.3259 52.9431C27.3866 52.6704 27.5005 52.4122 27.6613 52.1835C27.822 51.9547 28.0264 51.7599 28.2627 51.6101L39.8004 44.2793C40.0879 44.0959 40.4154 43.9843 40.7552 43.954C41.0951 43.9237 41.4372 43.9755 41.7527 44.1051C41.8023 44.1245 41.8508 44.1463 41.8982 44.1706C41.9385 44.1901 41.9803 44.2133 42.0221 44.2365C42.1366 44.3023 42.2446 44.3789 42.3446 44.4652C42.3861 44.4994 42.4249 44.5366 42.4607 44.5765C42.5694 44.6831 42.6652 44.8021 42.7461 44.931V44.931Z" fill="#B4B4B4"/>
<g opacity="0.3">
<path opacity="0.3" d="M47.6363 66.9749C47.322 67.2436 46.9892 67.49 46.6403 67.7121H46.6367C42.4606 70.3657 36.9165 69.1365 34.2562 64.9637L27.6119 54.5423C27.4612 54.3069 27.3586 54.044 27.3098 53.7689C27.2611 53.4937 27.2672 53.2117 27.3279 52.9389C27.3885 52.6661 27.5025 52.408 27.6632 52.1792C27.824 51.9505 28.0284 51.7556 28.2647 51.6059L30.3578 50.2762C30.1216 50.4261 29.9173 50.6209 29.7566 50.8496C29.5958 51.0784 29.4819 51.3365 29.4212 51.6092C29.3605 51.882 29.3543 52.164 29.4029 52.4391C29.4515 52.7143 29.554 52.9771 29.7045 53.2127L36.3494 63.634C37.5105 65.4564 39.2924 66.7984 41.3667 67.4123C43.441 68.0263 45.6677 67.8709 47.6363 66.9749Z" fill="#4F114D"/>
</g>
<g opacity="0.55">
<path opacity="0.55" d="M42.746 44.9309L49.3908 55.3523C52.0512 59.5251 50.8167 65.0611 46.6402 67.7163H46.6366C46.5143 67.7941 46.393 67.8662 46.2702 67.9358C46.2501 67.9493 46.2288 67.9612 46.2067 67.9713C46.1371 68.011 46.0705 68.0486 46.0003 68.0831C45.8682 68.1537 45.7325 68.2171 45.5998 68.2789C47.2673 66.8842 48.3696 64.9316 48.7012 62.7854C49.0327 60.6392 48.5709 58.4458 47.4019 56.6144L45.4362 53.5316L40.1543 68.9563C38.774 68.6991 37.4743 68.1196 36.3612 67.265L42.5917 49.0698L40.9403 46.479L34.4895 65.3156C34.409 65.2038 34.33 65.0869 34.2542 64.9679L32.3359 61.9593L37.9905 45.444L37.9972 45.426L39.8003 44.2802C40.0878 44.0968 40.4153 43.9853 40.7551 43.9549C41.0949 43.9246 41.4371 43.9765 41.7526 44.1061C41.8021 44.1255 41.8507 44.1473 41.8981 44.1715C41.9384 44.1911 41.9802 44.2143 42.022 44.2375C42.1365 44.3033 42.2445 44.3799 42.3445 44.4662C42.3859 44.5003 42.4248 44.5375 42.4606 44.5775C42.5692 44.6838 42.665 44.8024 42.746 44.9309V44.9309Z" fill="white"/>
</g>
<g opacity="0.55">
<path opacity="0.55" d="M37.9994 45.424L37.9927 45.442C37.933 45.4707 37.8751 45.503 37.8193 45.5388L37.9994 45.424Z" fill="white"/>
</g>
<path d="M41.8382 70.2895C40.1284 70.2925 38.4454 69.8644 36.9456 69.0449C35.4457 68.2253 34.1775 67.0409 33.2586 65.6015L26.6148 55.1812C26.3812 54.8149 26.2222 54.4063 26.1468 53.9787C26.0714 53.5511 26.0812 53.1128 26.1755 52.689C26.2698 52.2651 26.4468 51.864 26.6964 51.5084C26.9461 51.1529 27.2634 50.8499 27.6304 50.6168L39.1691 43.2824C39.9103 42.8125 40.808 42.6553 41.6652 42.8453C42.5223 43.0353 43.269 43.5569 43.7415 44.2957L50.3853 54.7191C53.3903 59.4329 51.9939 65.7081 47.2724 68.7084C45.6491 69.742 43.7636 70.2906 41.8382 70.2895V70.2895ZM40.9459 45.1241C40.7656 45.124 40.589 45.1755 40.4371 45.2725L28.8994 52.6038C28.7941 52.6707 28.703 52.7577 28.6313 52.8597C28.5597 52.9618 28.5089 53.0769 28.4818 53.1986C28.4547 53.3202 28.4519 53.446 28.4735 53.5687C28.4952 53.6915 28.5408 53.8087 28.6078 53.9139L35.2516 64.3341C37.5579 67.9511 42.3816 69.0222 46.0054 66.7189C49.6287 64.4166 50.7016 59.6008 48.3943 55.9838L41.7494 45.563C41.6634 45.4282 41.5447 45.3172 41.4042 45.2404C41.2637 45.1637 41.1061 45.1237 40.9459 45.1241V45.1241Z" fill="#4F114D"/>
<path d="M22.3087 22.8096L31.2367 36.8149C31.6727 37.5 31.8182 38.3299 31.6413 39.1221C31.4644 39.9144 30.9795 40.604 30.2933 41.0393L29.3499 41.639C29.0105 41.8551 28.6316 42.0023 28.2351 42.0721C27.8385 42.1419 27.4321 42.1329 27.0391 42.0457C26.646 41.9585 26.274 41.7948 25.9444 41.564C25.6148 41.3331 25.334 41.0396 25.1182 40.7003L16.1902 26.695C15.9739 26.356 15.8265 25.9779 15.7566 25.5821C15.6866 25.1863 15.6955 24.7807 15.7826 24.3883C15.8697 23.9959 16.0334 23.6245 16.2643 23.2953C16.4953 22.9661 16.7889 22.6855 17.1284 22.4696L18.0718 21.8699C18.7585 21.4337 19.5906 21.2876 20.3852 21.4638C21.1798 21.64 21.8717 22.1241 22.3087 22.8096V22.8096Z" fill="#FF8A30"/>
<path d="M30.4398 35.5615L31.2392 36.8149C31.6752 37.5 31.8208 38.3299 31.6439 39.1222C31.4669 39.9144 30.982 40.604 30.2958 41.0393L29.3524 41.639C29.013 41.8551 28.6341 42.0023 28.2376 42.0721C27.8411 42.1419 27.4346 42.1329 27.0416 42.0457C26.6485 41.9586 26.2765 41.7949 25.9469 41.564C25.6173 41.3331 25.3365 41.0397 25.1207 40.7003L24.3213 39.4469L30.4398 35.5615Z" fill="#3AB4FF"/>
<g opacity="0.3">
<path opacity="0.3" d="M30.8562 40.5859C30.6876 40.7587 30.4995 40.9116 30.2958 41.0413L29.3524 41.641C29.0129 41.8571 28.6341 42.0043 28.2376 42.0741C27.841 42.1439 27.4346 42.1349 27.0416 42.0478C26.6485 41.9606 26.2765 41.7969 25.9469 41.566C25.6173 41.3352 25.3365 41.0417 25.1207 40.7024L16.1927 26.697C15.976 26.3581 15.8282 25.9799 15.7579 25.584C15.6877 25.1881 15.6963 24.7822 15.7832 24.3896C15.8701 23.997 16.0337 23.6254 16.2646 23.2959C16.4955 22.9664 16.7892 22.6856 17.1289 22.4695L18.0722 21.8699C18.2765 21.7409 18.4948 21.6356 18.723 21.5562C18.246 22.0519 17.9496 22.6931 17.8811 23.377C17.8126 24.0609 17.976 24.748 18.3452 25.3282L27.2732 39.3336C27.6432 39.9132 28.1977 40.3517 28.8476 40.5789C29.4974 40.806 30.2048 40.8085 30.8562 40.5859V40.5859Z" fill="#4F114D"/>
</g>
<g opacity="0.55">
<path opacity="0.55" d="M22.3092 22.8096L31.2372 36.8149C31.6732 37.5 31.8187 38.3299 31.6418 39.1222C31.4649 39.9144 30.98 40.604 30.2938 41.0393L29.3504 41.639C29.2056 41.7304 29.0538 41.8102 28.8963 41.8775C29.433 41.392 29.7804 40.7327 29.877 40.0162C29.9736 39.2996 29.8132 38.5721 29.4242 37.9622L20.4962 23.9636C20.1078 23.3535 19.5159 22.9 18.8251 22.6832C18.1343 22.4664 17.389 22.5002 16.7207 22.7787C16.8482 22.6646 16.9849 22.5612 17.1294 22.4696L18.0728 21.8699C18.7594 21.4338 19.5915 21.2878 20.3859 21.4641C21.1804 21.6403 21.8722 22.1243 22.3092 22.8096Z" fill="white"/>
</g>
<path d="M27.7126 43.2988C26.9969 43.3 26.2925 43.1208 25.6648 42.7776C25.037 42.4345 24.5063 41.9386 24.1218 41.336L15.1924 27.3291C14.5876 26.3803 14.3851 25.2307 14.6294 24.1329C14.8737 23.0352 15.5447 22.0792 16.4949 21.4752L17.4383 20.8761C18.3889 20.2734 19.5403 20.0718 20.6397 20.3156C21.7391 20.5594 22.6967 21.2286 23.3023 22.1764L32.2334 36.1833C32.8381 37.132 33.0406 38.2817 32.7963 39.3794C32.552 40.4772 31.881 41.4332 30.9308 42.0371V42.0371L29.9869 42.6368C29.3076 43.0694 28.5185 43.2991 27.7126 43.2988V43.2988ZM19.7162 22.5726C19.3584 22.5723 19.008 22.6742 18.7062 22.8662L17.7629 23.4638C17.5539 23.5966 17.3732 23.7691 17.231 23.9716C17.0888 24.1741 16.988 24.4026 16.9344 24.644C16.8807 24.8854 16.8752 25.135 16.9182 25.3786C16.9612 25.6221 17.0518 25.8548 17.1849 26.0633L26.1128 40.0702C26.3818 40.4911 26.807 40.7883 27.2952 40.8966C27.7833 41.005 28.2946 40.9157 28.7169 40.6482L29.6608 40.0486C30.0827 39.7804 30.3807 39.3559 30.4892 38.8684C30.5976 38.3809 30.5078 37.8704 30.2393 37.4491L21.3103 23.4422C21.1395 23.1749 20.9038 22.9551 20.6251 22.803C20.3464 22.651 20.0338 22.5717 19.7162 22.5726V22.5726Z" fill="#4F114D"/>
<path d="M24.321 40.4411C24.106 40.4413 23.8968 40.3718 23.7247 40.2432C23.5527 40.1145 23.4271 39.9336 23.3669 39.7275C23.3067 39.5215 23.3151 39.3016 23.3908 39.1008C23.4665 38.8999 23.6055 38.729 23.7868 38.6138L29.9053 34.7263C30.0153 34.6545 30.1385 34.6052 30.2677 34.5813C30.3969 34.5574 30.5296 34.5593 30.658 34.587C30.7865 34.6146 30.9082 34.6675 31.016 34.7424C31.1239 34.8174 31.2157 34.913 31.2863 35.0237C31.3569 35.1343 31.4047 35.2579 31.4271 35.3872C31.4495 35.5165 31.4459 35.6489 31.4166 35.7768C31.3873 35.9047 31.3329 36.0255 31.2565 36.1322C31.1801 36.2389 31.0832 36.3295 30.9715 36.3985L24.8535 40.286C24.6945 40.3874 24.5097 40.4412 24.321 40.4411V40.4411Z" fill="#4F114D"/>
<path d="M36.3389 52.7356C36.14 52.7358 35.9443 52.6859 35.7699 52.5904C35.5955 52.4949 35.4481 52.3571 35.3414 52.1895L28.8292 41.9753C28.661 41.7115 28.6047 41.3919 28.6727 41.0867C28.7406 40.7815 28.9272 40.5157 29.1914 40.3479C29.4557 40.18 29.7759 40.1238 30.0816 40.1916C30.3873 40.2595 30.6535 40.4458 30.8217 40.7095L37.3339 50.9243C37.4474 51.1024 37.5109 51.3076 37.5178 51.5186C37.5246 51.7296 37.4746 51.9385 37.3729 52.1236C37.2713 52.3087 37.1217 52.4632 36.9398 52.5708C36.7579 52.6785 36.5504 52.7354 36.3389 52.7356V52.7356Z" fill="#4F114D"/>
<path d="M148.507 115.067C145.561 115.663 142.614 115.821 139.668 115.884C136.722 115.967 133.776 115.923 130.83 115.878C127.883 115.833 124.937 115.841 121.99 115.84H24.7635H20.3439C18.8711 115.84 17.3977 115.891 15.9248 115.916C14.452 115.942 12.9786 115.903 11.5053 115.806C10.0324 115.691 8.55903 115.5 7.08618 115.066C7.00265 115.041 6.92933 114.99 6.87719 114.921C6.82505 114.851 6.79688 114.766 6.79688 114.679C6.79688 114.592 6.82505 114.508 6.87719 114.438C6.92933 114.369 7.00265 114.318 7.08618 114.293C8.55903 113.859 10.0324 113.668 11.5053 113.553C12.9784 113.456 14.4516 113.419 15.9248 113.442C17.3977 113.467 18.8711 113.52 20.3439 113.519H24.7635H121.99C124.937 113.519 127.883 113.529 130.83 113.481C133.776 113.432 136.722 113.391 139.668 113.474C142.614 113.538 145.561 113.696 148.507 114.292C148.596 114.31 148.677 114.358 148.735 114.429C148.792 114.499 148.824 114.587 148.824 114.678C148.824 114.769 148.792 114.858 148.735 114.928C148.677 114.998 148.596 115.047 148.507 115.065V115.067Z" fill="#4F114D"/>
<path d="M150.517 90.6427L128.509 112.046C128.114 112.436 127.637 112.733 127.113 112.918C126.589 113.102 126.031 113.169 125.478 113.113C124.926 113.057 124.392 112.88 123.916 112.594C123.44 112.308 123.033 111.921 122.724 111.46L119.755 107.025L147.539 86.1958L150.517 90.6427Z" fill="#3AB4FF"/>
<g opacity="0.3">
<path opacity="0.3" d="M150.517 90.6418L128.511 112.047C128.115 112.436 127.638 112.734 127.114 112.918C126.59 113.102 126.032 113.168 125.479 113.112C124.926 113.056 124.392 112.879 123.916 112.593C123.44 112.308 123.032 111.92 122.723 111.459L119.754 107.029L125.121 103.008L125.236 103.217C125.506 103.701 125.88 104.121 126.331 104.444C126.782 104.768 127.299 104.989 127.845 105.09C128.391 105.191 128.953 105.171 129.49 105.03C130.028 104.889 130.527 104.632 130.954 104.276L149.447 89.0458L150.517 90.6418Z" fill="#4F114D"/>
</g>
<path d="M156.29 89.2476L150.517 90.6427L147.539 86.1953L151.037 81.4043C151.227 81.1445 151.477 80.9343 151.765 80.7915C152.054 80.6487 152.373 80.5776 152.695 80.5842C153.017 80.5907 153.332 80.6748 153.615 80.8293C153.897 80.9837 154.138 81.2039 154.317 81.4712L157.482 86.1979C157.661 86.4651 157.772 86.7714 157.807 87.0909C157.842 87.4104 157.799 87.7335 157.682 88.0329C157.565 88.3323 157.378 88.599 157.135 88.8105C156.893 89.022 156.603 89.172 156.29 89.2476V89.2476Z" fill="#3AB4FF"/>
<g opacity="0.3">
<path opacity="0.3" d="M156.289 89.2488L150.517 90.6397L148.298 87.3303L149.526 88.629L154.986 86.2948C155.376 86.1286 155.702 85.8431 155.919 85.4794C156.135 85.1158 156.23 84.6928 156.19 84.2717L157.48 86.1949C157.66 86.4621 157.772 86.7687 157.808 87.0887C157.843 87.4086 157.8 87.7323 157.683 88.0323C157.566 88.3322 157.379 88.5995 157.136 88.8113C156.893 89.0231 156.603 89.1732 156.289 89.2488V89.2488Z" fill="#4F114D"/>
</g>
<g opacity="0.55">
<path opacity="0.55" d="M155.106 82.5897C154.689 82.4114 154.224 82.3797 153.787 82.4995C153.349 82.6194 152.965 82.8838 152.698 83.2496L149.201 88.0432L151.042 90.7952L150.711 90.874L147.732 86.4292L151.233 81.6356C151.423 81.376 151.672 81.166 151.961 81.0233C152.249 80.8807 152.568 80.8096 152.89 80.8162C153.212 80.8228 153.527 80.9068 153.81 81.0611C154.092 81.2154 154.333 81.4354 154.512 81.7025L155.106 82.5897Z" fill="white"/>
</g>
<path d="M125.865 114.311C125.696 114.311 125.527 114.302 125.359 114.285C124.633 114.213 123.932 113.981 123.307 113.605C122.681 113.23 122.147 112.721 121.742 112.114L118.773 107.678C118.606 107.428 118.54 107.123 118.591 106.826C118.642 106.529 118.804 106.262 119.046 106.081L146.83 85.2515C146.958 85.1553 147.105 85.0862 147.261 85.0485C147.417 85.0108 147.579 85.0052 147.737 85.0321C147.895 85.059 148.046 85.1178 148.181 85.205C148.315 85.2921 148.431 85.4058 148.52 85.539L151.498 89.9864C151.652 90.2151 151.72 90.4901 151.692 90.7639C151.664 91.0377 151.54 91.293 151.343 91.4856L129.336 112.888C128.412 113.801 127.164 114.313 125.865 114.311V114.311ZM121.357 107.298L123.705 110.804C123.917 111.121 124.197 111.387 124.524 111.583C124.851 111.78 125.218 111.901 125.597 111.94C125.977 111.978 126.36 111.933 126.72 111.806C127.08 111.679 127.408 111.475 127.679 111.207L148.988 90.483L147.248 87.8856L121.357 107.298Z" fill="#4F114D"/>
<path d="M150.517 91.8215C150.323 91.8213 150.132 91.7734 149.961 91.6821C149.79 91.5908 149.644 91.459 149.536 91.2981L146.558 86.8506C146.424 86.6499 146.355 86.4128 146.36 86.1715C146.365 85.9301 146.443 85.696 146.586 85.5009L150.085 80.7098C150.386 80.2965 150.783 79.962 151.242 79.7346C151.7 79.5073 152.207 79.3938 152.719 79.4039C153.231 79.4141 153.733 79.5474 154.182 79.7927C154.632 80.038 155.015 80.388 155.3 80.8128L158.465 85.54C158.749 85.965 158.927 86.4523 158.982 86.9605C159.038 87.4686 158.969 87.9827 158.783 88.4589C158.597 88.9351 158.299 89.3594 157.913 89.6957C157.527 90.0321 157.066 90.2706 156.569 90.3909V90.3909L150.794 91.7886C150.703 91.8104 150.61 91.8215 150.517 91.8215V91.8215ZM148.978 86.2247L151.043 89.3039L156.012 88.102C156.14 88.071 156.259 88.0095 156.358 87.9228C156.458 87.8361 156.535 87.7267 156.583 87.604C156.631 87.4812 156.648 87.3488 156.634 87.2178C156.62 87.0868 156.574 86.9612 156.5 86.8517L153.335 82.126C153.262 82.017 153.163 81.9272 153.048 81.8642C152.932 81.8013 152.803 81.767 152.672 81.7643C152.54 81.7617 152.41 81.7906 152.292 81.8488C152.174 81.907 152.072 81.9927 151.994 82.0987L148.978 86.2247Z" fill="#4F114D"/>
<path d="M104.209 82.7937H126.656C127.541 82.7937 128.389 83.1446 129.015 83.7692C129.64 84.3938 129.992 85.2409 129.992 86.1243V107.312C129.992 109.266 129.215 111.14 127.831 112.521C126.447 113.903 124.569 114.679 122.612 114.679H108.254C106.297 114.679 104.419 113.903 103.035 112.521C101.652 111.14 100.874 109.266 100.874 107.312V86.1243C100.874 85.2409 101.226 84.3938 101.851 83.7692C102.477 83.1446 103.326 82.7937 104.21 82.7937H104.209Z" fill="#3AB4FF"/>
<g opacity="0.3">
<path opacity="0.3" d="M114.454 114.681H108.894C106.936 114.681 105.059 113.905 103.674 112.524C102.29 111.142 101.512 109.268 101.511 107.314V86.1243C101.511 85.2411 101.863 84.3942 102.489 83.7697C103.114 83.1451 103.962 82.7939 104.847 82.7932H110.41C109.972 82.7932 109.538 82.8794 109.133 83.0468C108.729 83.2142 108.361 83.4596 108.051 83.7689C107.741 84.0782 107.495 84.4454 107.328 84.8496C107.16 85.2537 107.074 85.6869 107.074 86.1243V107.314C107.074 108.281 107.265 109.239 107.636 110.133C108.006 111.027 108.55 111.839 109.235 112.523C109.921 113.207 110.734 113.75 111.63 114.12C112.525 114.491 113.485 114.681 114.454 114.681V114.681Z" fill="#4F114D"/>
</g>
<g opacity="0.55">
<path opacity="0.55" d="M129.358 86.1243V107.314C129.358 109.268 128.58 111.141 127.196 112.523C125.812 113.905 123.935 114.681 121.978 114.681H119.755C121.712 114.681 123.589 113.905 124.973 112.523C126.357 111.141 127.135 109.268 127.135 107.314V86.1243C127.135 85.2409 126.783 84.3937 126.157 83.7691C125.532 83.1444 124.683 82.7933 123.798 82.7932H126.023C126.908 82.7936 127.756 83.1448 128.381 83.7694C129.007 84.3941 129.358 85.2412 129.358 86.1243Z" fill="white"/>
</g>
<path d="M122.611 115.859H108.254C103.533 115.859 99.6924 112.025 99.6924 107.313V86.1248C99.6936 84.9292 100.17 83.783 101.017 82.9376C101.864 82.0922 103.012 81.6167 104.21 81.6155H126.656C127.853 81.6168 129.002 82.0924 129.848 82.9377C130.695 83.7831 131.172 84.9292 131.173 86.1248V107.313C131.173 112.025 127.332 115.859 122.611 115.859ZM104.21 83.9703C103.638 83.9709 103.09 84.1978 102.686 84.6013C102.281 85.0049 102.054 85.552 102.053 86.1227V107.313C102.056 108.953 102.71 110.526 103.872 111.686C105.035 112.846 106.61 113.498 108.254 113.5H122.611C124.255 113.498 125.83 112.845 126.992 111.685C128.154 110.525 128.808 108.953 128.81 107.313V86.1248C128.81 85.5541 128.582 85.0071 128.178 84.6036C127.774 84.2 127.226 83.9731 126.654 83.9724L104.21 83.9703Z" fill="#4F114D"/>
<path d="M115.802 67.0537H115.063C113.341 67.0537 111.944 68.4475 111.944 70.1669V86.3328C111.944 88.0522 113.341 89.446 115.063 89.446H115.802C117.525 89.446 118.921 88.0522 118.921 86.3328V70.1669C118.921 68.4475 117.525 67.0537 115.802 67.0537Z" fill="#3AB4FF"/>
<g opacity="0.3">
<path opacity="0.3" d="M118.92 82.4995V86.3329C118.92 86.7417 118.84 87.1466 118.683 87.5243C118.526 87.902 118.297 88.2453 118.007 88.5343C117.717 88.8234 117.373 89.0527 116.995 89.209C116.617 89.3654 116.211 89.4457 115.801 89.4455H115.065C114.655 89.4457 114.249 89.3654 113.871 89.2091C113.492 89.0527 113.148 88.8235 112.858 88.5345C112.568 88.2455 112.338 87.9023 112.181 87.5245C112.024 87.1468 111.944 86.7418 111.943 86.3329V82.4995C111.944 82.9085 112.024 83.3134 112.181 83.6911C112.338 84.0689 112.568 84.4121 112.858 84.7011C113.148 84.9902 113.492 85.2194 113.871 85.3757C114.249 85.532 114.655 85.6124 115.065 85.6122H115.801C116.211 85.6124 116.617 85.532 116.995 85.3756C117.373 85.2193 117.717 84.99 118.007 84.701C118.297 84.4119 118.526 84.0687 118.683 83.691C118.84 83.3132 118.92 82.9084 118.92 82.4995V82.4995Z" fill="#4F114D"/>
</g>
<g opacity="0.55">
<path opacity="0.55" d="M118.92 70.8202V73.1667C118.92 72.7579 118.84 72.3531 118.683 71.9754C118.526 71.5977 118.296 71.2545 118.007 70.9654C117.717 70.6764 117.373 70.4471 116.995 70.2908C116.617 70.1344 116.211 70.054 115.801 70.0541H115.065C114.237 70.0538 113.444 70.3816 112.858 70.9653C112.273 71.549 111.944 72.3409 111.943 73.1667V70.8202C111.944 69.9943 112.273 69.2024 112.858 68.6187C113.444 68.035 114.237 67.7072 115.065 67.7075H115.801C116.211 67.7074 116.617 67.7878 116.995 67.9442C117.373 68.1005 117.717 68.3298 118.007 68.6188C118.296 68.9079 118.526 69.2511 118.683 69.6288C118.84 70.0065 118.92 70.4113 118.92 70.8202V70.8202Z" fill="white"/>
</g>
<path d="M115.803 90.6263H115.063C113.923 90.6249 112.831 90.1724 112.025 89.3679C111.219 88.5634 110.765 87.4727 110.764 86.3349V70.169C110.765 69.0311 111.218 67.9401 112.024 67.1355C112.83 66.3308 113.923 65.8781 115.063 65.8766H115.803C116.942 65.8781 118.035 66.3308 118.841 67.1355C119.647 67.9402 120.1 69.0311 120.101 70.169V86.3349C120.1 87.4726 119.647 88.5634 118.841 89.3679C118.035 90.1724 116.942 90.6249 115.803 90.6263ZM115.063 68.234C114.549 68.2347 114.057 68.4388 113.693 68.8015C113.33 69.1643 113.126 69.656 113.125 70.169V86.3349C113.126 86.8478 113.33 87.3394 113.694 87.702C114.057 88.0647 114.549 88.2687 115.063 88.2694H115.803C116.316 88.2687 116.809 88.0647 117.172 87.702C117.535 87.3394 117.74 86.8478 117.74 86.3349V70.169C117.74 69.656 117.535 69.1643 117.172 68.8015C116.809 68.4388 116.316 68.2347 115.803 68.234H115.063Z" fill="#4F114D"/>
<path d="M115.433 87.0072C115.062 87.0071 114.707 86.8602 114.445 86.5987C114.183 86.3373 114.036 85.9828 114.036 85.6132V85.6132C114.036 85.2434 114.183 84.8889 114.445 84.6274C114.707 84.366 115.062 84.2191 115.433 84.2191C115.616 84.219 115.798 84.2551 115.967 84.3251C116.137 84.3951 116.291 84.4978 116.42 84.6273C116.55 84.7567 116.653 84.9104 116.723 85.0796C116.793 85.2487 116.83 85.4301 116.83 85.6132V85.6132C116.829 85.9829 116.682 86.3375 116.42 86.5989C116.158 86.8604 115.803 87.0072 115.433 87.0072V87.0072Z" fill="#4F114D"/>
<g opacity="0.3">
<path opacity="0.3" d="M121.277 107.041H123.278C124.226 107.041 124.995 106.273 124.995 105.326V96.8479C124.995 95.901 124.226 95.1335 123.278 95.1335H121.277C120.328 95.1335 119.559 95.901 119.559 96.8479V105.326C119.559 106.273 120.328 107.041 121.277 107.041Z" fill="white"/>
</g>
<path d="M64.0434 91.8303V109.542C64.0437 110.209 63.9123 110.87 63.6567 111.487C63.4011 112.103 63.0263 112.664 62.5537 113.136C62.0811 113.608 61.5201 113.982 60.9025 114.238C60.2849 114.493 59.623 114.625 58.9545 114.625H50.1298C48.7793 114.624 47.4843 114.088 46.5291 113.135C45.574 112.182 45.0367 110.89 45.0352 109.542V91.8303C45.0361 85.6894 46.7417 79.6689 49.9626 74.4371L51.2011 72.4238L52.5537 70.2276C52.762 69.8882 53.0541 69.6079 53.4019 69.4134C53.7498 69.2189 54.1419 69.1167 54.5406 69.1167C54.9393 69.1167 55.3314 69.2189 55.6792 69.4134C56.0271 69.6079 56.3191 69.8882 56.5274 70.2276L59.1217 74.4371C62.3435 79.6682 64.0474 85.6895 64.0434 91.8303V91.8303Z" fill="#FF8A30"/>
<path d="M54.5387 69.1144C54.1396 69.1128 53.7468 69.2143 53.3986 69.409C53.0503 69.6037 52.7585 69.885 52.5513 70.2256L49.9617 74.4371C46.7399 79.6683 45.0344 85.6889 45.0348 91.8297V109.54C45.0356 110.888 45.5724 112.18 46.5273 113.133C47.4822 114.087 48.777 114.622 50.1274 114.623H28.1043C26.7539 114.622 25.4591 114.087 24.5042 113.133C23.5493 112.18 23.0125 110.888 23.0117 109.54V91.8302C23.0137 88.8091 23.4267 85.8022 24.2394 82.8921L24.2436 82.8884C25.0755 79.9143 26.3192 77.0706 27.9386 74.4397L30.5282 70.2282C30.7353 69.8875 31.0271 69.6061 31.3754 69.4113C31.7236 69.2165 32.1164 69.1149 32.5156 69.1165L54.5387 69.1144Z" fill="#FF8A30"/>
<path d="M33.2626 64.7288H52.3292C52.9155 64.7288 53.4779 64.9613 53.8925 65.3752C54.3071 65.7891 54.54 66.3504 54.54 66.9357V69.1139H31.0518V66.9357C31.0518 66.3504 31.2847 65.7891 31.6993 65.3752C32.1139 64.9613 32.6762 64.7288 33.2626 64.7288Z" fill="#FF8A30"/>
<g opacity="0.3">
<path opacity="0.3" d="M37.5445 64.7303C37.2541 64.7303 36.9665 64.7873 36.6982 64.8982C36.4298 65.0092 36.186 65.1717 35.9807 65.3767C35.7753 65.5817 35.6124 65.8251 35.5013 66.093C35.3902 66.3608 35.3331 66.6479 35.3332 66.9378V69.1144H31.0498V66.9378C31.0497 66.6479 31.1069 66.3608 31.218 66.093C31.3291 65.8251 31.492 65.5817 31.6973 65.3767C31.9027 65.1717 32.1465 65.0092 32.4148 64.8982C32.6831 64.7873 32.9707 64.7303 33.2611 64.7303H37.5445Z" fill="#4F114D"/>
</g>
<g opacity="0.55">
<path opacity="0.55" d="M54.5383 66.9378V69.1144H52.1262V66.9378C52.1266 66.6481 52.0698 66.3611 51.959 66.0933C51.8482 65.8255 51.6856 65.5821 51.4805 65.3771C51.2754 65.1721 51.0319 65.0094 50.7637 64.8984C50.4956 64.7875 50.2082 64.7303 49.918 64.7303H52.329C52.9152 64.7308 53.4772 64.9635 53.8915 65.3775C54.3058 65.7914 54.5384 66.3527 54.5383 66.9378V66.9378Z" fill="white"/>
</g>
<path d="M58.9541 115.802H50.1268C48.4637 115.801 46.8691 115.14 45.6931 113.966C44.517 112.792 43.8554 111.201 43.8535 109.54V91.8301C43.8522 85.4712 45.6185 79.2367 48.9558 73.8204L51.5444 69.6099C51.8582 69.0978 52.2985 68.6748 52.8232 68.3814C53.3478 68.088 53.9392 67.9342 54.5406 67.9346C55.1419 67.935 55.7331 68.0896 56.2573 68.3837C56.7816 68.6778 57.2213 69.1015 57.5344 69.614L60.125 73.8204C62.6226 77.869 64.2478 82.3926 64.8971 87.1029C65.1135 88.6694 65.2225 90.2488 65.2232 91.8301V109.54C65.2232 112.993 62.4107 115.802 58.9541 115.802ZM54.5381 70.293C54.3409 70.2918 54.1468 70.3418 53.9749 70.4382C53.803 70.5346 53.6591 70.674 53.5576 70.8427L50.968 75.0542C47.8595 80.0996 46.2142 85.9069 46.215 91.8301V109.54C46.2164 110.576 46.629 111.568 47.3624 112.3C48.0959 113.032 49.0902 113.444 50.1273 113.445H58.9546C59.9912 113.444 60.9848 113.032 61.7174 112.3C62.45 111.568 62.8619 110.575 62.8628 109.54V91.8301C62.8619 90.3569 62.7604 88.8854 62.5588 87.4259C61.954 83.0385 60.4401 78.8251 58.1134 75.0542L55.5197 70.8438C55.4186 70.6743 55.2747 70.5343 55.1025 70.4377C54.9303 70.3411 54.7357 70.2912 54.5381 70.293Z" fill="#4F114D"/>
<path d="M45.3518 88.1658C45.1713 88.1659 44.9949 88.112 44.8454 88.011C44.6958 87.9101 44.5801 87.7667 44.513 87.5994C44.4459 87.4321 44.4305 87.2486 44.4689 87.0725C44.5073 86.8964 44.5977 86.7359 44.7284 86.6116L53.9144 77.8635C54.0824 77.7035 54.3056 77.6143 54.5378 77.6143C54.77 77.6143 54.9932 77.7035 55.1612 77.8635L64.3472 86.6116C64.5205 86.7766 64.6211 87.0037 64.6268 87.2427C64.6324 87.4818 64.5427 87.7133 64.3774 87.8864C64.2955 87.972 64.1975 88.0408 64.0891 88.0887C63.9806 88.1366 63.8637 88.1626 63.7451 88.1654C63.5056 88.1711 63.2737 88.0815 63.1004 87.9165L54.5337 79.7619L45.9669 87.9165C45.8011 88.0747 45.5812 88.1639 45.3518 88.1658V88.1658Z" fill="#4F114D"/>
<path d="M54.5387 115.802H50.1273C49.9702 115.806 49.814 115.778 49.6679 115.72C49.5218 115.662 49.3888 115.576 49.2765 115.466C49.1642 115.356 49.075 115.225 49.0141 115.081C48.9532 114.936 48.9219 114.781 48.9219 114.624C48.9219 114.467 48.9532 114.312 49.0141 114.167C49.075 114.023 49.1642 113.892 49.2765 113.782C49.3888 113.672 49.5218 113.586 49.6679 113.528C49.814 113.47 49.9702 113.442 50.1273 113.446H54.5387C54.6958 113.442 54.8519 113.47 54.998 113.528C55.1441 113.586 55.2772 113.672 55.3895 113.782C55.5018 113.892 55.5909 114.023 55.6518 114.167C55.7127 114.312 55.7441 114.467 55.7441 114.624C55.7441 114.781 55.7127 114.936 55.6518 115.081C55.5909 115.225 55.5018 115.356 55.3895 115.466C55.2772 115.576 55.1441 115.662 54.998 115.72C54.8519 115.778 54.6958 115.806 54.5387 115.802V115.802Z" fill="#4F114D"/>
<path d="M50.1275 115.803H28.1039C26.4407 115.801 24.846 115.141 23.6698 113.967C22.4936 112.793 21.832 111.201 21.8301 109.541V91.8302C21.8307 85.4718 23.5967 79.238 26.9319 73.821L29.5215 69.61C29.8337 69.0971 30.2733 68.6735 30.7977 68.3802C31.3221 68.0868 31.9136 67.9337 32.5147 67.9357H54.5378C54.851 67.9357 55.1513 68.0599 55.3728 68.2809C55.5942 68.502 55.7186 68.8018 55.7186 69.1144C55.7186 69.427 55.5942 69.7268 55.3728 69.9479C55.1513 70.1689 54.851 70.2931 54.5378 70.2931C54.3407 70.2918 54.1465 70.3419 53.9746 70.4382C53.8027 70.5346 53.6589 70.674 53.5573 70.8428L50.9677 75.0543C47.8592 80.0996 46.2139 85.907 46.2147 91.8302V109.541C46.2161 110.576 46.6287 111.569 47.3621 112.301C48.0956 113.033 49.0899 113.444 50.127 113.446C50.4358 113.452 50.7298 113.579 50.9459 113.799C51.1621 114.02 51.2831 114.316 51.2831 114.624C51.2831 114.932 51.1621 115.228 50.9459 115.449C50.7298 115.669 50.4358 115.796 50.127 115.803H50.1275ZM32.5157 70.2931C32.3186 70.2918 32.1244 70.3419 31.9525 70.4382C31.7806 70.5346 31.6368 70.674 31.5352 70.8428L28.9456 75.0543C25.8386 80.1003 24.1933 85.9072 24.1926 91.8302V109.541C24.1939 110.576 24.6064 111.568 25.3397 112.301C26.0731 113.033 27.0673 113.444 28.1044 113.446H45.227C44.3375 112.338 43.8534 110.96 43.8548 109.541V91.8302C43.8534 85.4713 45.6198 79.2368 48.9571 73.8204L51.1246 70.2931H32.5157Z" fill="#4F114D"/>
<path d="M54.5389 79.4173C54.2993 79.4173 54.0696 79.3223 53.9003 79.1532C53.7309 78.9842 53.6357 78.7548 53.6357 78.5157V69.1144C53.6357 68.8753 53.7309 68.646 53.9003 68.477C54.0696 68.3079 54.2993 68.2129 54.5389 68.2129C54.7784 68.2129 55.0081 68.3079 55.1774 68.477C55.3468 68.646 55.442 68.8753 55.442 69.1144V78.5157C55.442 78.7548 55.3468 78.9842 55.1774 79.1532C55.0081 79.3223 54.7784 79.4173 54.5389 79.4173V79.4173Z" fill="#4F114D"/>
<path d="M54.5385 70.2931H31.0513C30.8963 70.2931 30.7428 70.2626 30.5996 70.2033C30.4563 70.1441 30.3262 70.0573 30.2166 69.9478C30.107 69.8383 30.0201 69.7084 29.9608 69.5654C29.9015 69.4224 29.871 69.2691 29.8711 69.1144V66.9362C29.8721 66.0386 30.2297 65.178 30.8655 64.5432C31.5014 63.9085 32.3635 63.5515 33.2627 63.5505H52.3293C53.2285 63.5515 54.0906 63.9085 54.7264 64.5432C55.3623 65.178 55.7199 66.0386 55.7209 66.9362V69.1144C55.7209 69.2693 55.6903 69.4227 55.6308 69.5658C55.5714 69.7089 55.4843 69.8389 55.3745 69.9484C55.2647 70.0579 55.1343 70.1446 54.9909 70.2038C54.8474 70.2629 54.6937 70.2933 54.5385 70.2931ZM32.2321 67.9357H53.3583V66.9362C53.3583 66.663 53.2496 66.4009 53.056 66.2077C52.8624 66.0144 52.5999 65.9059 52.3262 65.9059H33.2627C32.9889 65.9059 32.7264 66.0144 32.5329 66.2077C32.3393 66.4009 32.2306 66.663 32.2306 66.9362L32.2321 67.9357Z" fill="#4F114D"/>
<g opacity="0.3">
<path opacity="0.3" d="M47.0769 114.624H28.1043C26.7536 114.624 25.4583 114.088 24.5033 113.135C23.5482 112.182 23.0117 110.888 23.0117 109.54V91.8302C23.0137 88.8091 23.4267 85.8022 24.2394 82.892L24.2436 82.8884C27.7415 93.5171 33.0631 99.0764 40.2086 99.5665C40.6881 99.596 41.1384 99.8064 41.4682 100.155C41.798 100.504 41.9825 100.965 41.9844 101.444V109.54C41.9853 110.888 42.5222 112.181 43.477 113.134C44.4318 114.087 45.7266 114.623 47.0769 114.624Z" fill="#4F114D"/>
</g>
<path d="M36.7885 90.6592H29.6172C28.5202 90.6592 27.6309 91.5469 27.6309 92.6421V105.787C27.6309 106.882 28.5202 107.769 29.6172 107.769H36.7885C37.8855 107.769 38.7748 106.882 38.7748 105.787V92.6421C38.7748 91.5469 37.8855 90.6592 36.7885 90.6592Z" fill="#4F114D"/>
<path d="M33.2522 103.481C33.1477 103.481 33.0476 103.44 32.9737 103.366C32.8999 103.293 32.8584 103.193 32.8584 103.088V95.8145C32.858 95.7714 32.8738 95.7297 32.9026 95.6977C32.9314 95.6656 32.9712 95.6455 33.0142 95.6412C33.0571 95.637 33.1001 95.6489 33.1347 95.6747C33.1693 95.7004 33.193 95.7382 33.2011 95.7805V95.7805C33.4967 97.2439 33.6455 98.7331 33.6454 100.226V103.088C33.6454 103.192 33.604 103.292 33.5303 103.366C33.4565 103.44 33.3565 103.481 33.2522 103.481V103.481Z" fill="#FF8A30"/>
<path d="M34.177 98.1993C34.564 96.5054 35.5886 95.9001 37.2507 96.3833C37.2507 98.0993 36.2335 98.9184 34.5671 98.749C34.5039 98.7415 34.4431 98.7209 34.3884 98.6884C34.3337 98.656 34.2865 98.6125 34.2497 98.5606C34.2129 98.5088 34.1875 98.4499 34.1749 98.3877C34.1624 98.3254 34.1631 98.2612 34.177 98.1993V98.1993Z" fill="#FF8A30"/>
<path d="M32.229 100.264C31.8419 98.5701 30.8174 97.9648 29.1553 98.448C29.1553 100.164 30.1725 100.983 31.8389 100.814C31.902 100.806 31.963 100.786 32.0177 100.753C32.0724 100.721 32.1197 100.677 32.1565 100.625C32.1933 100.574 32.2187 100.515 32.2312 100.452C32.2437 100.39 32.243 100.326 32.229 100.264V100.264Z" fill="#FF8A30"/>
<g opacity="0.25">
<path opacity="0.25" d="M39.3502 80.3744C35.7377 83.759 31.5813 83.3159 31.0931 79.8541C31.0214 79.3456 31.4337 78.8954 31.9482 78.8954H38.7567C39.5308 78.8944 39.9147 79.8443 39.3502 80.3744Z" fill="white"/>
</g>
<g opacity="0.3">
<path opacity="0.3" d="M64.044 91.8301V109.542C64.0443 110.408 63.8226 111.26 63.4001 112.017C62.9776 112.774 62.3682 113.41 61.6298 113.866C60.1324 113.18 58.8526 112.097 57.9305 110.734C57.0084 109.371 56.4795 107.781 56.4016 106.138L54.8379 73.1677H52.6064C52.3292 73.1677 52.0562 73.0999 51.8112 72.9703C51.5663 72.8407 51.3568 72.6533 51.2012 72.4243L52.5538 70.2281C52.7621 69.8887 53.0541 69.6084 53.402 69.4138C53.7499 69.2193 54.1419 69.1172 54.5406 69.1172C54.9394 69.1172 55.3314 69.2193 55.6793 69.4138C56.0272 69.6084 56.3192 69.8887 56.5275 70.2281L59.1218 74.4376C62.3437 79.6684 64.0477 85.6895 64.044 91.8301V91.8301Z" fill="#4F114D"/>
</g>
<path d="M70.5183 63.2786L80.3189 48.5175C83.1521 39.1259 84.723 25.8928 81.8238 13.7302C80.8577 9.66862 79.3879 5.72192 77.3051 2.08329C76.3302 0.37396 73.7221 1.27293 74.0023 3.21975C76.659 21.4655 68.7952 41.2392 68.4556 54.0545C68.3519 57.7946 68.8948 60.9351 70.5183 63.2786Z" fill="#23DB23"/>
<g opacity="0.55">
<path opacity="0.55" d="M69.7764 62.7897C69.9519 63.1297 70.1494 63.4579 70.3678 63.7721L80.1684 49.0105C83.9455 36.4827 85.4839 17.118 77.1546 2.57638C76.4352 1.3168 74.8286 1.47547 74.1495 2.42183C74.6393 2.49241 75.1115 2.77008 75.4159 3.3074C83.7426 17.8532 82.2068 37.2178 78.4339 49.7457L69.7764 62.7897Z" fill="white"/>
</g>
<path d="M91.7277 65.0652C102.51 57.6097 95.5192 40.3428 99.9332 29.0215C100.457 27.6779 98.9242 26.4554 97.7435 27.2844C93.6665 30.1482 90.6372 33.8836 90.4396 39.9714L81.5781 51.8341L83.3679 59.5421C83.3679 59.5421 80.9898 66.3418 91.7277 65.0652Z" fill="#23DB23"/>
<g opacity="0.55">
<path opacity="0.55" d="M87.9258 65.1152C88.879 65.177 90.0086 65.142 91.337 64.9833C102.123 57.5299 95.1317 40.262 99.5425 28.9406C100.063 27.5971 98.5321 26.3772 97.3492 27.205C97.3141 27.2318 97.2744 27.2565 97.2393 27.2844C97.4795 27.4779 97.6508 27.7435 97.7278 28.0418C97.8049 28.3401 97.7836 28.6553 97.6671 28.9406C93.2542 40.262 100.244 57.5324 89.4616 64.9833C88.9141 65.0493 88.4068 65.0936 87.9258 65.1152Z" fill="white"/>
</g>
<path d="M70.5201 64.4558C70.3293 64.4557 70.1413 64.4095 69.9723 64.3211C69.8032 64.2328 69.6581 64.1048 69.5494 63.9483C65.5498 58.1882 67.563 48.3531 69.8941 36.9648C72.0394 26.4842 74.4716 14.6065 72.8357 3.38613C72.7349 2.70519 72.8758 2.0105 73.2338 1.42225C73.5919 0.833989 74.1446 0.389166 74.7965 0.164723C75.4483 -0.0597195 76.1583 -0.0496653 76.8035 0.193151C77.4487 0.435968 77.9886 0.896271 78.3298 1.49443C86.7293 16.168 85.4515 35.5806 81.4494 48.8549C81.4159 48.9645 81.3665 49.0687 81.3028 49.164L71.5027 63.9256C71.3962 64.0861 71.2519 64.2181 71.0825 64.31C70.9131 64.402 70.7237 64.4511 70.5309 64.4532L70.5201 64.4558ZM75.7943 2.35528C75.7176 2.3562 75.6416 2.3696 75.5693 2.39495C75.3949 2.45522 75.1116 2.61956 75.174 3.0487C76.8672 14.675 74.3916 26.7691 72.2076 37.4388C70.2074 47.212 68.4522 55.785 70.6182 60.9974L79.2396 48.0121C83.0585 35.2112 84.2749 16.6306 76.281 2.66593C76.1411 2.42174 75.9553 2.35528 75.7943 2.35528Z" fill="#4F114D"/>
<path d="M67.7694 29.5665C69.3801 34.1613 71.4185 38.582 73.731 42.8702C75.2931 45.7773 76.9786 48.6143 78.7441 51.4029C78.6202 52.5744 78.5454 54.2178 78.4793 55.9926C78.3601 59.1207 78.2806 62.6578 78.0665 64.7195H88.2113C89.9659 57.7988 88.41 50.403 85.5463 43.8552C85.537 43.8284 85.5241 43.8037 85.5154 43.78C83.5543 39.3176 81.0256 35.1504 78.468 30.9966C77.2588 29.039 76.0456 27.0762 74.8849 25.0892C71.2622 18.8958 68.0729 12.2486 67.3504 5.11663C67.2621 4.24445 67.0676 3.17393 66.2336 2.90965C65.6144 2.71131 64.9435 3.11211 64.6055 3.66283C64.2674 4.21354 64.2086 4.87863 64.1642 5.52207C63.595 13.6602 65.0689 21.8622 67.7694 29.5665Z" fill="#23DB23"/>
<g opacity="0.55">
<path opacity="0.55" d="M63.708 4.5087C63.7529 4.51485 63.7972 4.5252 63.8401 4.53962C64.6746 4.8039 64.8686 5.87442 64.9569 6.7466C65.6763 13.8786 68.8666 20.5258 72.4915 26.7192C76.1163 32.9125 80.2402 38.8421 83.1225 45.41C85.8804 51.7007 87.4466 58.7797 86.0259 65.4707H87.363C89.128 58.5241 87.5483 51.0975 84.6671 44.5291C81.7859 37.9607 77.6594 32.0275 74.0361 25.8382C70.4128 19.649 67.224 12.9971 66.5015 5.86566C66.4132 4.99348 66.2187 3.92296 65.3847 3.65868C64.7654 3.46034 64.0945 3.86114 63.7565 4.41185C63.7379 4.44285 63.7217 4.47523 63.708 4.5087V4.5087Z" fill="white"/>
</g>
<g opacity="0.3">
<path opacity="0.3" d="M82.6164 37.9895C82.0735 41.8017 81.2664 45.3755 80.3179 48.5185L78.5787 51.1386L70.5188 63.2786C68.8932 60.9371 68.3513 57.7941 68.4546 54.054C68.7126 53.3075 69.0171 52.5729 69.3479 51.8578V46.9472L70.8749 39.0229L74.1411 43.8866C74.1648 43.8475 74.1927 43.8078 74.2159 43.7687C74.0508 43.4699 73.8892 43.1675 73.7277 42.8692C75.4478 40.1821 77.014 37.4357 77.8366 34.3689C78.1294 33.2598 78.3385 32.1303 78.4621 30.9899C78.7222 31.4103 78.9802 31.8307 79.2362 32.2511C79.9071 27.8592 79.4013 23.2871 80.0154 18.8567C80.1975 17.5386 80.4831 16.2369 80.8695 14.9636C81.0502 14.3706 81.3964 13.9657 81.8217 13.7272C83.7538 21.8272 83.7027 30.3954 82.6164 37.9895Z" fill="#4F114D"/>
</g>
<g opacity="0.3">
<path opacity="0.3" d="M85.5438 43.849C84.1665 46.9055 81.9546 49.6868 80.1794 52.5903C79.5125 53.6709 78.9436 54.8088 78.4795 55.9904C78.5466 54.2146 78.6214 52.5687 78.7432 51.3977C78.688 51.3117 78.6328 51.221 78.5781 51.1345L80.3172 48.5143C81.2657 45.3718 82.0718 41.8002 82.6157 37.9854C83.6623 39.8714 84.6423 41.7924 85.5123 43.7722C85.5201 43.8042 85.5356 43.8273 85.5438 43.849Z" fill="#4F114D"/>
</g>
<path d="M88.209 65.8984C88.0292 65.8983 87.8517 65.8573 87.6902 65.7784C87.5287 65.6995 87.3873 65.5848 87.2769 65.4431C87.1665 65.3013 87.09 65.1364 87.0531 64.9606C87.0163 64.7849 87.0202 64.6031 87.0644 64.4291C88.9516 57.0107 86.6742 49.3609 84.4325 44.2484C82.4105 39.6392 79.7007 35.2402 77.0796 30.9854C76.0139 29.2549 74.9121 27.4658 73.865 25.6792C70.6995 20.273 66.9642 13.0632 66.1756 5.22697C66.0874 4.345 65.9372 4.09927 65.881 4.0359C65.7715 4.082 65.6797 4.16178 65.6188 4.2636C65.4273 4.58146 65.3788 5.07603 65.3422 5.59738C64.8194 13.0519 66.0131 20.9839 68.8834 29.1741C71.2625 35.9557 74.715 42.8188 79.7435 50.772C79.8847 50.996 79.9466 51.2608 79.9195 51.5241C79.7543 53.0985 79.6681 55.6419 79.5851 58.1013C79.5004 60.5999 79.4132 63.1834 79.2398 64.8397C79.2249 64.9946 79.1795 65.1451 79.1061 65.2824C79.0326 65.4197 78.9327 65.5412 78.812 65.6397C78.6913 65.7383 78.5522 65.812 78.4028 65.8566C78.2534 65.9012 78.0967 65.9158 77.9416 65.8996C77.7865 65.8834 77.6362 65.8368 77.4993 65.7622C77.3624 65.6877 77.2416 65.5869 77.144 65.4656C77.0463 65.3442 76.9737 65.2048 76.9303 65.0553C76.8869 64.9057 76.8736 64.7491 76.8912 64.5945C77.0558 63.0211 77.142 60.4793 77.2251 58.0214C77.303 55.7191 77.3835 53.3447 77.5311 51.689C72.5201 43.7255 69.0599 36.8094 66.6551 29.953C63.6753 21.4589 62.4414 13.21 62.9869 5.43098C63.0416 4.64483 63.1339 3.81283 63.5953 3.04678C64.2466 1.96492 65.5047 1.43378 66.5885 1.77792C68.2538 2.30648 68.4499 4.25639 68.5237 4.99051C69.2653 12.3713 72.8556 19.2864 75.9035 24.486C76.9356 26.25 78.0317 28.0278 79.0907 29.7469C81.7536 34.0702 84.5094 38.5403 86.5953 43.2995C90.024 51.1156 90.9777 58.6216 89.3531 65.0061C89.2891 65.2607 89.1419 65.4868 88.9346 65.6484C88.7274 65.81 88.472 65.898 88.209 65.8984V65.8984Z" fill="#4F114D"/>
<path d="M81.7233 65.0631C80.0683 61.292 81.6087 56.4994 83.85 52.8345C86.3922 48.689 89.8116 44.7907 90.4386 39.9713C91.0254 35.443 89.0174 31.0378 88.0601 26.5713C87.3009 23.0295 87.2261 19.3909 87.7024 15.8043C88.0425 13.2625 84.3666 12.5073 83.6296 14.9672C83.244 16.2417 82.9587 17.5444 82.7766 18.8634C82.0541 24.0923 82.8865 29.5191 81.5096 34.6162C80.0182 40.1444 76.1173 44.6418 73.267 49.6106C70.5752 54.3069 68.8583 60.2931 71.193 65.0656" fill="#23DB23"/>
<g opacity="0.55">
<path opacity="0.55" d="M79.75 65.063H81.7229C80.0679 61.292 81.6078 56.4994 83.8496 52.8345C86.3912 48.6889 89.8111 44.7907 90.4376 39.9713C91.0249 35.4429 89.0169 31.0377 88.0591 26.5712C87.3005 23.0295 87.2251 19.3908 87.702 15.8042C87.9708 13.7863 85.7074 12.8925 84.3992 13.844C85.2863 14.1016 86.0057 14.9012 85.8441 16.0907C85.3673 19.6762 85.4427 23.3149 86.2018 26.8577C87.1591 31.3242 89.1671 35.7294 88.5798 40.2577C87.9533 45.0771 84.5334 48.9754 81.9917 53.1204C79.8078 56.6931 78.2874 61.3404 79.75 65.063Z" fill="white"/>
</g>
<path d="M81.7239 66.2418C81.494 66.2421 81.2691 66.1755 81.0766 66.0502C80.8841 65.9248 80.7325 65.7462 80.6401 65.5361C78.3994 60.4292 81.4328 54.5228 82.8411 52.22C83.4501 51.2273 84.1117 50.2423 84.7506 49.2903C86.8437 46.1761 88.8208 43.235 89.2646 39.8199C89.6506 36.8392 88.813 33.8821 87.9228 30.753C87.5616 29.4718 87.1843 28.1473 86.8994 26.8202C86.1393 23.2702 86.0134 19.5131 86.5263 15.6524C86.6244 14.9209 86.0763 14.722 85.8364 14.6705C85.6397 14.6282 84.9823 14.5499 84.7526 15.3083C84.385 16.524 84.1131 17.7666 83.9393 19.0247C83.6498 21.1152 83.6168 23.3083 83.5848 25.4298C83.5378 28.5573 83.4893 31.7916 82.6435 34.9238C81.5597 38.9421 79.271 42.4236 77.0581 45.7892C76.1148 47.2244 75.1389 48.7092 74.2848 50.1975C72.8156 52.7609 69.6753 59.2912 72.2469 64.5475C72.3797 64.8277 72.3965 65.1489 72.2938 65.4415C72.191 65.734 71.977 65.9744 71.6979 66.1105C71.4189 66.2466 71.0974 66.2675 70.803 66.1687C70.5087 66.0699 70.2652 65.8592 70.1253 65.5824C67.9656 61.168 68.735 55.1338 72.2355 49.0265C73.1252 47.4758 74.1212 45.9607 75.0842 44.493C77.2919 41.1352 79.3773 37.9633 80.3635 34.3082C81.1324 31.4593 81.1768 28.512 81.2238 25.3916C81.2568 23.1996 81.2909 20.9329 81.6 18.7006C81.7908 17.323 82.0886 15.9623 82.4907 14.6308C83.0615 12.7247 84.8538 12.0488 86.3297 12.3641C87.7866 12.6763 89.1252 14.0126 88.8646 15.961C88.3873 19.5527 88.5034 23.0399 89.2063 26.3246C89.4746 27.577 89.8395 28.8644 90.1925 30.1095C91.1054 33.3309 92.0503 36.6625 91.6013 40.1229C91.0852 44.0896 88.8589 47.4006 86.7059 50.6034C86.0794 51.5359 85.4312 52.4998 84.8481 53.4497C82.3194 57.587 81.5499 61.7522 82.7957 64.5902C82.8742 64.7698 82.9067 64.9661 82.8902 65.1613C82.8737 65.3566 82.8087 65.5446 82.7012 65.7085C82.5936 65.8724 82.4469 66.007 82.2742 66.1001C82.1015 66.1932 81.9083 66.2419 81.712 66.2418H81.7239Z" fill="#4F114D"/>
<path d="M74.6999 64.822C74.4847 62.411 74.2515 59.8615 74.7128 57.2722C74.8265 56.6223 74.9939 55.9828 75.2134 55.3604C75.4309 54.7331 75.7074 54.1276 76.0391 53.5522C76.361 52.9873 76.7269 52.4487 77.1337 51.9413C77.5256 51.4446 77.9435 50.969 78.3857 50.5163C80.1145 48.7132 82.0379 47.2563 83.4973 45.4311C84.2296 44.5213 84.8654 43.5312 85.2886 42.456C85.5012 41.9209 85.6505 41.3628 85.7335 40.7931C85.8073 40.2219 85.8051 39.6435 85.7267 39.0729V39.0647C85.7174 38.9955 85.7353 38.9254 85.7765 38.8691C85.8177 38.8128 85.8792 38.7745 85.948 38.7623C86.0168 38.7502 86.0877 38.765 86.1458 38.8038C86.2039 38.8426 86.2448 38.9022 86.2598 38.9704C86.3939 39.5903 86.444 40.2253 86.409 40.8585C86.3652 41.4913 86.2473 42.1169 86.0575 42.7224C85.6834 43.932 85.077 45.0488 84.369 46.0761C83.6609 47.1033 82.8285 48.0466 82.0038 48.9358C81.1792 49.825 80.3447 50.6956 79.5995 51.5982C79.2277 52.0399 78.8795 52.5009 78.5565 52.9793C78.2396 53.4408 77.9599 53.9265 77.72 54.4321C77.4833 54.9244 77.2944 55.4381 77.1559 55.9663C77.0125 56.497 76.914 57.0388 76.8612 57.586C76.6316 59.8012 76.9939 62.1091 77.3902 64.4758V64.4789C77.4495 64.8331 77.3655 65.1962 77.1566 65.4885C76.9477 65.7808 76.631 65.9783 76.2763 66.0376C75.9215 66.0968 75.5577 66.0129 75.2649 65.8044C74.9721 65.5958 74.7742 65.2797 74.7149 64.9256C74.7072 64.8921 74.7025 64.8555 74.6999 64.822Z" fill="#4F114D"/>
<path d="M77.0241 41.6364L73.5515 33.5606C73.5262 33.5064 73.5224 33.4447 73.5407 33.3878C73.5591 33.3309 73.5983 33.2831 73.6505 33.2538C73.7027 33.2246 73.7641 33.2161 73.8223 33.2301C73.8805 33.2441 73.9312 33.2795 73.9644 33.3293L79.0832 40.4793C79.2663 40.7351 79.3402 41.0531 79.2884 41.3633C79.2367 41.6735 79.0636 41.9504 78.8074 42.1332C78.5511 42.316 78.2325 42.3897 77.9218 42.3381C77.6111 42.2865 77.3337 42.1137 77.1505 41.8579C77.1011 41.7884 77.0587 41.7142 77.0241 41.6364V41.6364Z" fill="#4F114D"/>
<path d="M91.7291 66.2439C91.4773 66.2442 91.2321 66.1642 91.0292 66.0155C90.8262 65.8668 90.6762 65.6572 90.601 65.4174C90.5258 65.1775 90.5293 64.92 90.6111 64.6823C90.6929 64.4446 90.8486 64.2393 91.0556 64.0962C97.1126 59.9079 97.0878 52.2226 97.0615 44.0856C97.044 38.7474 97.0264 33.2274 98.8326 28.594C98.8598 28.5361 98.8652 28.4705 98.8481 28.409C98.831 28.3475 98.7924 28.2941 98.7392 28.2586C98.6968 28.2186 98.6411 28.1955 98.5828 28.1936C98.5244 28.1917 98.4674 28.2111 98.4224 28.2483C93.8779 31.4397 91.7796 35.067 91.6192 40.0096C91.6166 40.1659 91.583 40.3203 91.5201 40.4635C91.4572 40.6068 91.3664 40.7361 91.253 40.844C91.1396 40.9519 91.0058 41.0362 90.8594 41.0919C90.713 41.1476 90.557 41.1737 90.4004 41.1687C90.2438 41.1636 90.0898 41.1275 89.9473 41.0624C89.8048 40.9974 89.6767 40.9046 89.5705 40.7897C89.4643 40.6747 89.3821 40.5397 89.3286 40.3927C89.2752 40.2457 89.2516 40.0895 89.2592 39.9333C89.4434 34.2556 91.9236 29.9298 97.0636 26.3205C97.5289 25.9971 98.086 25.8316 98.6527 25.8486C99.2194 25.8656 99.7656 26.0641 100.211 26.4147C100.656 26.7654 100.976 27.2497 101.124 27.796C101.272 28.3424 101.24 28.9218 101.033 29.4486C99.389 33.6663 99.4065 38.9591 99.423 44.0794C99.4499 52.4679 99.4782 61.1417 92.4005 66.0353C92.2033 66.1717 91.969 66.2445 91.7291 66.2439Z" fill="#4F114D"/>
<path d="M94.0573 42.8074C94.0542 44.3472 93.7792 45.8881 93.373 47.3707C92.9669 48.8534 92.4441 50.2917 91.9673 51.711C91.4904 53.1303 91.0512 54.5367 90.7576 55.9503C90.4618 57.3444 90.3097 58.7651 90.3035 60.1901V60.1943C90.3024 60.5537 90.1584 60.8981 89.903 61.1516C89.6477 61.405 89.3019 61.5468 88.9418 61.5458C88.5817 61.5448 88.2368 61.401 87.9828 61.1461C87.7289 60.8912 87.5869 60.546 87.5879 60.1865C87.5884 60.1328 87.5919 60.0792 87.5982 60.0258C87.7946 58.4438 88.1527 56.8861 88.667 55.3769C89.1702 53.8829 89.8054 52.4704 90.4603 51.101C91.1152 49.7317 91.7887 48.3969 92.345 47.0271C92.9013 45.6573 93.3354 44.2452 93.516 42.7744C93.5233 42.7049 93.5572 42.641 93.6107 42.5959C93.6641 42.5508 93.7329 42.5281 93.8027 42.5324C93.8725 42.5367 93.938 42.5678 93.9854 42.6191C94.0329 42.6704 94.0586 42.738 94.0573 42.8079V42.8074Z" fill="#4F114D"/>
<path d="M104.807 61.119H58.7622C57.8203 61.119 57.0566 61.8813 57.0566 62.8216V71.4641C57.0566 72.4044 57.8203 73.1667 58.7622 73.1667H104.807C105.749 73.1667 106.513 72.4044 106.513 71.4641V62.8216C106.513 61.8813 105.749 61.119 104.807 61.119Z" fill="#F43F08"/>
<path d="M92.0424 114.68H71.5267C69.2179 114.68 66.9977 113.792 65.327 112.201C63.6563 110.611 62.6634 108.439 62.5544 106.136L60.9912 73.1656H102.576L101.014 106.136C100.905 108.439 99.9119 110.61 98.2414 112.201C96.5709 113.792 94.351 114.679 92.0424 114.68V114.68Z" fill="#F43F08"/>
<g opacity="0.3">
<path opacity="0.3" d="M68.798 73.1667H58.7626C58.3109 73.1667 57.8778 72.9876 57.5584 72.6688C57.239 72.3499 57.0596 71.9175 57.0596 71.4666V62.8226C57.0592 62.599 57.103 62.3776 57.1884 62.1709C57.2738 61.9642 57.3992 61.7763 57.5573 61.6179C57.7154 61.4596 57.9033 61.3339 58.1101 61.248C58.3169 61.1621 58.5386 61.1178 58.7626 61.1174H68.798C68.5741 61.1178 68.3523 61.1621 68.1455 61.248C67.9387 61.3339 67.7509 61.4596 67.5928 61.6179C67.4346 61.7763 67.3093 61.9642 67.2239 62.1709C67.1385 62.3776 67.0947 62.599 67.095 62.8226V71.4656C67.0949 71.689 67.1388 71.9101 67.2244 72.1165C67.3099 72.3229 67.4353 72.5104 67.5935 72.6684C67.7516 72.8264 67.9394 72.9517 68.1461 73.0372C68.3528 73.1227 68.5743 73.1667 68.798 73.1667V73.1667Z" fill="#4F114D"/>
</g>
<g opacity="0.55">
<path opacity="0.55" d="M106.513 62.8226V71.4656C106.513 71.9165 106.333 72.3489 106.014 72.6677C105.694 72.9866 105.261 73.1657 104.81 73.1657H100.874C101.326 73.1657 101.759 72.9866 102.078 72.6677C102.398 72.3489 102.577 71.9165 102.577 71.4656V62.8226C102.578 62.3711 102.399 61.9379 102.079 61.6181C101.76 61.2983 101.326 61.1183 100.874 61.1174H104.81C105.262 61.1183 105.695 61.2983 106.015 61.6181C106.334 61.9379 106.513 62.3711 106.513 62.8226V62.8226Z" fill="white"/>
</g>
<g opacity="0.55">
<path opacity="0.55" d="M102.577 73.1667L101.014 106.137C100.905 108.44 99.9117 110.612 98.2409 112.203C96.5702 113.794 94.35 114.682 92.041 114.682H88.1055C90.4145 114.682 92.6347 113.794 94.3054 112.203C95.9761 110.612 96.9691 108.44 97.0784 106.137L98.641 73.1667H102.577Z" fill="white"/>
</g>
<path d="M104.808 74.347H58.7628C57.9978 74.3459 57.2644 74.042 56.7234 73.502C56.1824 72.962 55.878 72.2299 55.877 71.4662V62.8216C55.8779 62.0578 56.1822 61.3256 56.7232 60.7855C57.2642 60.2453 57.9977 59.9414 58.7628 59.9403H104.808C105.573 59.9414 106.307 60.2453 106.848 60.7855C107.389 61.3256 107.693 62.0578 107.694 62.8216V71.4646C107.693 72.2286 107.389 72.9611 106.848 73.5014C106.307 74.0418 105.574 74.3459 104.808 74.347V74.347ZM58.7628 62.2993C58.6236 62.2994 58.4902 62.3546 58.3918 62.4529C58.2934 62.5511 58.2381 62.6843 58.238 62.8232V71.4662C58.2381 71.6051 58.2934 71.7382 58.3918 71.8365C58.4902 71.9347 58.6236 71.9899 58.7628 71.9901H104.808C104.947 71.9898 105.081 71.9345 105.179 71.8363C105.277 71.7381 105.333 71.605 105.333 71.4662V62.8216C105.333 62.6828 105.277 62.5497 105.179 62.4515C105.081 62.3533 104.947 62.298 104.808 62.2977L58.7628 62.2993Z" fill="#4F114D"/>
<path d="M92.0418 115.858H71.5267C68.9135 115.861 66.3997 114.858 64.5088 113.058C62.6178 111.257 61.4954 108.798 61.3752 106.192L59.812 73.2213C59.8041 73.0618 59.8287 72.9024 59.8844 72.7527C59.9401 72.6031 60.0257 72.4663 60.136 72.3507C60.2463 72.235 60.379 72.143 60.526 72.0801C60.673 72.0172 60.8313 71.9848 60.9912 71.9849H102.577C102.737 71.9848 102.895 72.0172 103.042 72.0801C103.189 72.143 103.322 72.235 103.432 72.3507C103.542 72.4663 103.628 72.6031 103.684 72.7527C103.739 72.9024 103.764 73.0618 103.756 73.2213L102.193 106.192C102.072 108.798 100.95 111.257 99.0591 113.057C97.1683 114.858 94.6549 115.861 92.0418 115.858V115.858ZM62.2303 74.3469L63.7341 106.081C63.8271 108.081 64.6889 109.968 66.1404 111.35C67.5918 112.732 69.521 113.502 71.5267 113.5H92.0408C94.0464 113.502 95.9757 112.732 97.4271 111.35C98.8785 109.968 99.7404 108.081 99.8334 106.081L101.338 74.3469H62.2303Z" fill="#4F114D"/>
<g opacity="0.3">
<path opacity="0.3" d="M98.3733 73.1666C98.374 73.9057 98.2287 74.6377 97.9457 75.3206C97.6627 76.0036 97.2476 76.6241 96.724 77.1467C96.2005 77.6693 95.5788 78.0837 94.8946 78.3662C94.2104 78.6486 93.4772 78.7936 92.7368 78.7928H75.4419C74.907 78.7927 74.3777 78.901 73.886 79.1112C73.3943 79.3213 72.9504 79.6288 72.5812 80.0152C72.212 80.4016 71.9252 80.8587 71.7382 81.3589C71.5511 81.8592 71.4677 82.3921 71.493 82.9255L72.5922 106.136C72.7007 108.439 73.6935 110.611 75.3643 112.202C77.0352 113.794 79.2558 114.681 81.565 114.681H71.5296C69.2203 114.681 66.9997 113.794 65.3287 112.202C63.6578 110.611 62.6649 108.439 62.5563 106.136L60.9941 73.165L98.3733 73.1666Z" fill="#4F114D"/>
</g>
<g opacity="0.2">
<path opacity="0.2" d="M156.368 117.103C156.368 119.807 121.364 122 78.184 122C35.0043 122 0 119.807 0 117.103C0 116.223 3.70587 115.396 10.1933 114.682H146.177C152.662 115.396 156.368 116.223 156.368 117.103Z" fill="#4F114D"/>
</g>
</g>
<defs>
<clipPath id="clip0_705_8842">
<rect width="159" height="122" fill="white"/>
</clipPath>
</defs>
</svg>
