<svg width="20" height="55" viewBox="0 0 20 55" fill="none" xmlns="http://www.w3.org/2000/svg">
<rect width="5.49832" height="20.7714" rx="2.72535" fill="#006B47"/>
<rect x="15.001" y="1.67564" width="5.49832" height="20.7714" rx="2.72535" transform="rotate(20 15.001 1.67564)" fill="#006B47"/>
<path d="M8.75163 32.1983C7.65654 32.1983 6.70554 32.2569 5.89862 32.3155C5.09171 32.3741 4.42889 32.4621 3.88135 32.5793C3.30498 32.6965 2.84389 32.8431 2.49807 33.0189C2.12343 33.1948 1.80643 33.3706 1.57588 33.5465C0.682518 34.3671 0.250244 35.8325 0.250244 37.9134C0.250244 39.0857 0.30788 40.0529 0.451972 40.8442C0.567245 41.6649 0.6537 42.3683 0.6537 42.9837C0.6537 43.2182 0.624881 43.5113 0.596063 43.8923C0.538427 44.2733 0.509608 44.6836 0.451972 45.1525C0.394335 45.6215 0.365517 46.1197 0.336699 46.618C0.279062 47.1455 0.279062 47.6144 0.279062 48.0541C0.279062 48.3765 0.423153 48.523 0.768973 48.523C1.57588 48.523 2.49807 48.523 3.59316 48.4937C4.65944 48.4937 5.6969 48.4644 6.73435 48.4644C7.42599 48.4644 7.97354 48.4937 8.43463 48.4937C8.89573 48.4937 9.24154 48.523 9.52973 48.523C9.81791 48.523 10.0196 48.5523 10.1349 48.5523C10.2502 48.5816 10.3366 48.6109 10.3943 48.6109C10.6248 48.6988 10.7689 48.9919 10.7689 49.4609C10.7689 50.047 10.6248 50.428 10.3366 50.6039C10.1925 50.7504 9.78909 50.8677 9.12627 50.9556C8.46345 51.0435 7.48363 51.0728 6.21563 51.0728C5.0629 51.0728 3.99662 51.0435 3.0168 50.9556C2.03698 50.897 1.23006 50.809 0.567245 50.7211C0.394335 50.7211 0.279062 50.7797 0.192607 50.8383C0.0773343 50.897 0.0485159 51.0142 0.0485159 51.1607C0.0773342 51.7176 0.192607 52.2744 0.394335 52.8313C0.567245 53.4175 0.855428 53.8278 1.25888 54.0916C1.63352 54.414 2.32516 54.6484 3.3338 54.795C4.34244 54.9415 5.63926 55.0001 7.25308 55.0001C9.06864 55.0001 10.5384 54.8829 11.6335 54.6191C12.7286 54.3553 13.5643 54.0036 14.1406 53.5347C14.5441 53.183 14.9187 52.5968 15.2357 51.7762C15.5239 50.9556 15.6968 49.9005 15.6968 48.6695C15.6968 47.7317 15.5816 46.999 15.4087 46.4714C15.2069 45.9439 14.9764 45.5922 14.717 45.3577C14.4 45.1818 13.8237 45.006 12.9879 44.8888C12.1234 44.7715 10.8554 44.7129 9.15509 44.7129C8.29054 44.7129 7.48363 44.7422 6.79199 44.7422C6.07153 44.7422 5.58162 44.7422 5.29344 44.7422C5.00526 44.7715 4.88999 44.625 4.88999 44.3319C4.88999 44.0974 4.88999 43.863 4.9188 43.6285C4.94762 43.394 5.00526 43.2475 5.12053 43.1889C5.23581 43.1303 5.43753 43.101 5.75453 43.0717C6.07153 43.0423 6.6479 43.013 7.45481 42.9837C8.377 42.9837 9.15509 42.9251 9.78909 42.8372C10.4231 42.7786 10.9995 42.6906 11.4606 42.5734C11.9216 42.4562 12.2963 42.3389 12.5845 42.1631C12.8726 42.0166 13.132 41.8407 13.3626 41.6355C14.0542 41.0201 14.5441 39.9357 14.8611 38.4116C15.1781 36.8876 15.351 35.0998 15.351 33.0482C15.351 32.7551 15.1781 32.5793 14.8323 32.5207C14.1983 32.4621 13.3626 32.4034 12.3251 32.3155C11.2588 32.2569 10.0773 32.1983 8.75163 32.1983ZM4.97644 37.7375C4.97644 37.0635 5.12053 36.5945 5.40871 36.3014C5.6969 36.0084 6.53263 35.8618 7.94472 35.8618C8.43463 35.8618 8.80927 35.8911 9.09745 35.8911C9.38564 35.9204 9.645 35.9497 9.93318 35.979C10.1061 36.0377 10.2214 36.0963 10.279 36.1842C10.3366 36.3014 10.3655 36.4187 10.3655 36.5652C10.3655 37.1514 10.279 37.6789 10.1349 38.0892C9.99082 38.4996 9.78909 38.7926 9.55855 38.9392C9.41445 39.0564 9.12627 39.1737 8.72282 39.2909C8.31936 39.4081 7.65654 39.4667 6.73435 39.4667C6.38854 39.4667 6.10035 39.4667 5.81217 39.4667C5.52399 39.4667 5.35108 39.4081 5.29344 39.3202C5.17817 39.2909 5.12053 39.115 5.0629 38.7926C5.00526 38.4996 4.97644 38.1479 4.97644 37.7375Z" fill="#006B47"/>
</svg>
