<svg width="165" height="89" viewBox="0 0 165 89" fill="none" xmlns="http://www.w3.org/2000/svg">
<g clip-path="url(#clip0_624_10857)">
<rect width="165" height="89" fill="#81C175"/>
<g style="mix-blend-mode:multiply" opacity="0.27">
<path d="M138 51.3143V51.8781C137.618 53.158 136.711 53.8008 135.433 54.1334C134.929 54.2688 134.555 54.8326 134.056 55.0666C133.118 55.5007 132.125 56.1491 131.17 56.121C130.363 56.0984 129.804 56.104 129.345 56.7271C128.458 57.928 127.879 59.3884 127.063 60.5245C125.127 63.183 124.166 66.0445 123.67 69.1822C123.604 69.4353 123.485 69.6717 123.32 69.8762C123.155 70.0807 122.949 70.2487 122.714 70.3691C121.194 71.04 120.741 72.0098 121.354 73.6393C122.064 75.5225 121.229 77.1774 119.301 77.7074C118.683 77.855 118.133 78.205 117.742 78.7004C117.35 79.1959 117.14 79.8077 117.145 80.4363C117.11 80.8075 117.036 81.174 116.925 81.5302C116.723 82.5761 116.412 83.6192 116.355 84.6764C116.224 86.8584 114.61 88.5753 112.362 88.6937C111.587 88.736 111.196 88.9221 111.128 89.8214C111.096 90.2583 110.329 90.6305 109.921 91.0534C109.653 91.3353 109.217 91.651 109.217 91.9527C109.217 94.5068 108.812 96.9088 107.112 98.9724C106.807 99.3417 106.508 100.001 106.639 100.382C107.021 101.51 106.314 102.093 105.689 102.77C104.931 103.59 104.195 104.428 103.536 105.161L104.982 107.306C103.824 108.112 102.769 108.749 101.845 109.541C101.445 109.933 101.216 110.465 101.209 111.022C101.232 112.076 101.209 112.972 100.023 113.446C99.7376 113.559 99.6007 114.01 99.3954 114.317C99.1901 114.624 99.0161 115.132 98.7737 115.163C97.8126 115.304 96.6349 115.631 95.9219 115.228C95.3772 114.923 95.3088 113.629 95.2004 112.755C95.1063 112.005 95.0949 111.295 94.111 111.309C93.1272 111.323 92.8135 110.864 92.6281 109.984C92.534 109.527 92.0577 109.068 91.6357 108.78C90.8457 108.239 89.9731 107.825 89.0691 107.314C88.8466 108.008 88.7839 109.121 88.2135 109.68C87.7145 110.153 86.5281 110.243 85.7667 110.035C85.0053 109.826 84.3665 109.079 83.6735 108.566L83.3741 107.988C83.1145 108.445 82.9292 108.966 82.5813 109.344C81.9795 110.001 81.3122 111.036 80.6107 111.084C78.9395 111.208 79.0707 112.403 78.7142 113.37C78.6002 113.672 78.5289 114.154 78.3207 114.216C76.8235 114.74 75.9566 115.961 74.8387 116.945C73.0962 118.478 71.0714 119.685 69.8937 121.785C69.7824 121.985 69.4345 122.067 69.1807 122.18C68.4934 122.462 67.4468 124.272 67.9003 124.717C68.8784 125.664 68.2453 126.527 68.0628 127.415C67.8033 128.67 67.5951 129.952 67.1132 131.134C66.5428 132.501 65.7386 133.772 64.9943 135.061C64.5665 135.796 64.0532 136.487 63.6368 137.113L60.5911 134.531L60.2575 134.877C60.5247 135.188 60.7571 135.526 60.9505 135.887C61.2185 136.524 61.7547 137.392 61.5208 137.818C61.0588 138.664 60.112 138.974 59.0512 138.48C58.7147 138.325 58.2327 138.424 57.8249 138.48C56.9009 138.607 55.9855 138.799 55.0587 138.923C54.1318 139.047 53.0624 138.85 52.321 139.264C51.0747 139.96 49.9597 140.13 49.05 139.65L47.8836 141.043L47.3817 140.786C46.8512 139.34 46.1383 139.397 45.2742 140.293C45.0655 140.475 44.8041 140.588 44.527 140.614C41.3444 141.003 38.1618 141.407 34.9707 141.72C34.2704 141.786 33.5652 141.661 32.9317 141.359C30.3308 140.034 27.9895 138.393 26.8745 135.54C26.0189 133.338 24.7328 131.249 24.9125 128.74C26.8887 128.83 26.8887 128.827 26.9401 127.638C24.9837 128.396 23.9685 128.018 22.8278 126.321C21.1966 123.9 20.0673 121.109 17.5577 119.318C16.1318 118.306 14.9112 116.632 13.3627 116.282C9.88069 115.498 6.28459 114.839 2.65142 115.591C2.00269 115.722 1.34283 115.791 0.680836 115.797C-2.21087 115.845 -5.10544 115.859 -8 115.887V115.606C-7.25854 113.965 -6.34311 112.524 -6.92488 110.421C-7.39542 108.73 -6.83647 106.736 -6.69388 104.881C-6.634 104.098 -6.4743 103.32 -6.37733 102.666C-6.71099 100.602 -7.33268 98.5777 -7.30131 96.5648C-7.24142 92.9309 -6.80225 89.3026 -6.49426 85.6715C-6.42011 84.7976 -6.2376 83.9321 -6.10356 83.0469C-5.84682 82.9857 -5.58339 82.9564 -5.31932 82.9595C-3.44285 83.2696 -2.08825 82.7255 -1.59204 80.769C-1.46086 80.2503 -1.17283 79.6131 -1.35534 79.2072C-1.73178 78.3614 -1.35534 77.9188 -0.876241 77.3634C-0.254552 76.6558 0.638057 75.9539 0.783498 75.1081C0.977419 74.0199 1.45937 73.628 2.39191 73.535C3.44422 73.4307 4.13435 72.8556 4.2199 71.8886C4.31971 70.7609 5.67431 69.5487 4.08016 68.4548C3.94328 68.3618 4.03739 67.8177 4.14005 67.5245C4.54786 66.3658 5.36917 66.16 6.48422 66.7915C6.97758 65.1761 7.893 63.713 6.34163 62.2809C6.2589 62.1949 6.19415 62.0936 6.15108 61.9828C6.10802 61.872 6.08749 61.7539 6.09067 61.6353C6.33592 59.0388 5.08114 57.0456 3.44136 55.2273C2.60864 54.2998 2.77975 53.3046 3.4271 52.535C4.49652 51.2663 5.25795 50.1499 4.96422 48.2667C4.69615 46.5358 5.47754 44.6666 5.34635 42.8906C5.20091 40.9171 6.16197 39.8712 7.62778 38.9212C9.35882 37.7935 10.5765 36.243 10.9359 34.1991C11.2039 32.6598 11.2752 31.098 11.4378 29.5079C11.8826 29.3162 12.6469 29.226 12.9378 28.8172C14.3951 26.7593 16.5596 26.2433 18.8467 25.9755C19.4028 25.9079 19.9874 26.1559 20.5578 26.1108C22.1662 25.9896 23.9229 26.1362 25.3317 25.5245C26.7404 24.9127 27.8469 24.4137 29.2985 24.9944C31.098 25.7162 32.9117 26.404 34.7312 27.0891C35.1161 27.2301 35.6238 27.4274 35.9403 27.2949C37.081 26.8044 37.9879 27.3767 38.6352 28.0645C40.0611 29.5841 41.7893 30.864 42.5222 32.9924C43.181 34.9038 44.6268 35.9667 46.1212 35.1745C47.7895 34.2893 49.6232 34.4105 51.2059 33.5929C52.0073 33.1831 52.7817 32.7236 53.5244 32.2172C55.5406 30.8273 57.5169 31.2051 59.5132 32.2397C61.0816 33.0488 62.211 34.6276 64.1787 34.777C64.4924 34.7995 64.7633 35.3408 65.0656 35.6397C65.3679 35.9385 65.5789 36.2965 65.8926 36.367C68.2881 36.8885 70.6922 37.3763 73.1076 37.802C73.6352 37.895 74.2826 37.52 74.7645 37.6723C76.6011 38.284 77.6762 37.5708 78.814 36.1302C80.5879 33.8889 82.7181 32.0029 85.8437 31.7013C87.1555 31.5744 88.436 31.1797 89.7364 30.9457C90.4302 30.7976 91.137 30.7173 91.8467 30.7061C93.9342 30.7371 96.0388 30.7061 98.1007 30.957C100.006 31.1995 102.093 31.4165 103.69 32.3299C105.743 33.4971 107.868 33.8269 110.072 34.2836C111.376 34.5515 111.721 33.8438 112.288 33.156C113.783 31.3263 115.474 29.7307 117.707 28.7919C117.997 28.6413 118.332 28.5945 118.653 28.6594C119.777 29.1104 120.336 28.4677 120.861 27.6755C121.069 27.3626 121.314 27.0722 121.716 26.5478C121.682 28.665 122.215 30.0943 123.713 31.3658C124.982 32.4512 125.965 33.8241 127.788 34.5007C127.853 35.7214 127.896 37.2127 128.027 38.6928C128.13 39.891 129.872 41.075 131.084 40.8551C131.806 40.7254 132.003 41.0327 132.157 41.7432C132.254 42.1971 132.978 42.8708 133.389 42.8483C135.1 42.7553 136.189 43.8181 137.381 44.692C137.483 44.7785 137.565 44.8852 137.623 45.0051C137.68 45.1251 137.712 45.2557 137.715 45.3884C137.584 47.125 137.401 48.8588 137.236 50.5926L136.811 50.68L138 51.3143Z" fill="#9575CD"/>
</g>
</g>
<defs>
<clipPath id="clip0_624_10857">
<rect width="165" height="89" fill="white"/>
</clipPath>
</defs>
</svg>
