<svg width="40" height="40" viewBox="0 0 40 40" fill="none" xmlns="http://www.w3.org/2000/svg">
<rect width="40" height="40" rx="10" fill="#FFFCE6"/>
<path d="M20.001 18.2686C20.701 18.2686 21.361 18.5416 21.8543 19.0344C22.3476 19.5338 22.621 20.1931 22.621 20.8857C22.6143 21.6115 22.321 22.2641 21.8476 22.737C21.3743 23.2098 20.721 23.5028 20.001 23.5028C19.301 23.5028 18.6476 23.2297 18.1476 22.737C17.6543 22.2375 17.381 21.5849 17.381 20.8857C17.3743 20.1931 17.6476 19.5405 18.141 19.0411C18.641 18.5416 19.301 18.2686 20.001 18.2686ZM20.001 19.2675C19.5676 19.2675 19.161 19.434 18.8476 19.7469C18.541 20.0533 18.3743 20.4595 18.381 20.879V20.8857C18.381 21.3185 18.5476 21.7247 18.8543 22.0311C19.161 22.3374 19.5676 22.5039 20.001 22.5039C20.8943 22.5039 21.6143 21.778 21.621 20.8857C21.621 20.4528 21.4543 20.0466 21.1476 19.7403C20.841 19.434 20.4343 19.2675 20.001 19.2675ZM23.741 18.1088C24.0743 18.1088 24.3476 18.3818 24.3476 18.7148C24.3476 19.0477 24.0743 19.3141 23.741 19.3141C23.4076 19.3141 23.141 19.0477 23.141 18.7148C23.141 18.3818 23.4076 18.1088 23.741 18.1088Z" fill="#28766F"/>
<path opacity="0.4" d="M23.6273 16.1576L23.5607 16.0111C23.3807 15.6315 23.174 15.192 23.0473 14.939C22.7407 14.3396 22.214 14.0067 21.5673 14H18.4273C17.7807 14.0067 17.2607 14.3396 16.954 14.939C16.8207 15.2053 16.594 15.6848 16.4073 16.0777L16.3673 16.1576C16.3473 16.2109 16.294 16.2375 16.2407 16.2375C14.634 16.2375 13.334 17.5427 13.334 19.141V23.0966C13.334 24.6948 14.634 26 16.2407 26H23.7607C25.3607 26 26.6673 24.6948 26.6673 23.0966V19.141C26.6673 17.5427 25.3607 16.2375 23.7607 16.2375C23.7007 16.2375 23.654 16.2042 23.6273 16.1576Z" fill="#28766F"/>
</svg>
