<svg width="84" height="34" viewBox="0 0 84 34" fill="none" xmlns="http://www.w3.org/2000/svg">
<rect width="83.4558" height="34" rx="8" fill="#B3E0D0"/>
<path d="M14.976 23L12.416 18.552H11.024V23H9.2V11.88H13.04C13.8933 11.88 14.6133 12.0293 15.2 12.328C15.7973 12.6267 16.24 13.0267 16.528 13.528C16.8267 14.0293 16.976 14.5893 16.976 15.208C16.976 15.9333 16.7627 16.5947 16.336 17.192C15.92 17.7787 15.2747 18.1787 14.4 18.392L17.152 23H14.976ZM11.024 17.096H13.04C13.7227 17.096 14.2347 16.9253 14.576 16.584C14.928 16.2427 15.104 15.784 15.104 15.208C15.104 14.632 14.9333 14.184 14.592 13.864C14.2507 13.5333 13.7333 13.368 13.04 13.368H11.024V17.096ZM21.0374 13.016C20.7067 13.016 20.4294 12.904 20.2054 12.68C19.9814 12.456 19.8694 12.1787 19.8694 11.848C19.8694 11.5173 19.9814 11.24 20.2054 11.016C20.4294 10.792 20.7067 10.68 21.0374 10.68C21.3574 10.68 21.6294 10.792 21.8534 11.016C22.0774 11.24 22.1894 11.5173 22.1894 11.848C22.1894 12.1787 22.0774 12.456 21.8534 12.68C21.6294 12.904 21.3574 13.016 21.0374 13.016ZM21.9334 14.184V23H20.1094V14.184H21.9334ZM24.5201 18.584C24.5201 17.6773 24.7015 16.8827 25.0641 16.2C25.4375 15.5067 25.9495 14.9733 26.6001 14.6C27.2508 14.2267 27.9975 14.04 28.8401 14.04C29.9068 14.04 30.7868 14.296 31.4801 14.808C32.1841 15.3093 32.6588 16.0293 32.9041 16.968H30.9361C30.7761 16.5307 30.5201 16.1893 30.1681 15.944C29.8161 15.6987 29.3735 15.576 28.8401 15.576C28.0935 15.576 27.4961 15.8427 27.0481 16.376C26.6108 16.8987 26.3921 17.6347 26.3921 18.584C26.3921 19.5333 26.6108 20.2747 27.0481 20.808C27.4961 21.3413 28.0935 21.608 28.8401 21.608C29.8961 21.608 30.5948 21.144 30.9361 20.216H32.9041C32.6481 21.112 32.1681 21.8267 31.4641 22.36C30.7601 22.8827 29.8855 23.144 28.8401 23.144C27.9975 23.144 27.2508 22.9573 26.6001 22.584C25.9495 22.2 25.4375 21.6667 25.0641 20.984C24.7015 20.2907 24.5201 19.4907 24.5201 18.584ZM43.6019 18.376C43.6019 18.7067 43.5805 19.0053 43.5379 19.272H36.8019C36.8552 19.976 37.1165 20.5413 37.5859 20.968C38.0552 21.3947 38.6312 21.608 39.3139 21.608C40.2952 21.608 40.9885 21.1973 41.3939 20.376H43.3619C43.0952 21.1867 42.6099 21.8533 41.9059 22.376C41.2125 22.888 40.3485 23.144 39.3139 23.144C38.4712 23.144 37.7139 22.9573 37.0419 22.584C36.3805 22.2 35.8579 21.6667 35.4739 20.984C35.1005 20.2907 34.9139 19.4907 34.9139 18.584C34.9139 17.6773 35.0952 16.8827 35.4579 16.2C35.8312 15.5067 36.3485 14.9733 37.0099 14.6C37.6819 14.2267 38.4499 14.04 39.3139 14.04C40.1459 14.04 40.8872 14.2213 41.5379 14.584C42.1885 14.9467 42.6952 15.4587 43.0579 16.12C43.4205 16.7707 43.6019 17.5227 43.6019 18.376ZM41.6979 17.8C41.6872 17.128 41.4472 16.5893 40.9779 16.184C40.5085 15.7787 39.9272 15.576 39.2339 15.576C38.6045 15.576 38.0659 15.7787 37.6179 16.184C37.1699 16.5787 36.9032 17.1173 36.8179 17.8H41.6979Z" fill="black"/>
<rect x="68.0317" y="9.5752" width="2" height="18" rx="1" transform="rotate(45 68.0317 9.5752)" fill="black"/>
<rect x="70.1528" y="22.3032" width="2" height="18" rx="1" transform="rotate(135 70.1528 22.3032)" fill="black"/>
</svg>
