<svg width="42" height="40" viewBox="0 0 42 40" fill="none" xmlns="http://www.w3.org/2000/svg">
<rect width="42" height="40" rx="12" fill="#F6F6F6"/>
<path fill-rule="evenodd" clip-rule="evenodd" d="M21.0002 11.6C21.3185 11.6 21.6237 11.7264 21.8487 11.9514L25.4487 15.5514C25.9174 16.0201 25.9174 16.7799 25.4487 17.2485C24.9801 17.7171 24.2203 17.7171 23.7517 17.2485L21.0002 14.497L18.2487 17.2485C17.7801 17.7171 17.0203 17.7171 16.5517 17.2485C16.083 16.7799 16.083 16.0201 16.5517 15.5514L20.1517 11.9514C20.3767 11.7264 20.6819 11.6 21.0002 11.6ZM16.5517 22.7514C17.0203 22.2828 17.7801 22.2828 18.2487 22.7514L21.0002 25.5029L23.7517 22.7514C24.2203 22.2828 24.9801 22.2828 25.4487 22.7514C25.9174 23.2201 25.9174 23.9799 25.4487 24.4485L21.8487 28.0485C21.3801 28.5171 20.6203 28.5171 20.1517 28.0485L16.5517 24.4485C16.083 23.9799 16.083 23.2201 16.5517 22.7514Z" fill="#111827"/>
</svg>
