<svg width="41" height="41" viewBox="0 0 41 41" fill="none" xmlns="http://www.w3.org/2000/svg">
<g opacity="0.8">
<rect x="0.5" y="0.5" width="40" height="40" rx="10" fill="white"/>
<path d="M21.0983 12.1667C21.7285 12.1667 22.2991 12.5167 22.6142 13.0334C22.7675 13.2834 22.8697 13.5917 22.8442 13.9167C22.8272 14.1667 22.9038 14.4167 23.0401 14.6501C23.4744 15.3584 24.4367 15.6251 25.1862 15.2251C26.0293 14.7417 27.0938 15.0334 27.5793 15.8584L28.1498 16.8417C28.6438 17.6667 28.3713 18.7251 27.5196 19.2001C26.7958 19.6251 26.5403 20.5667 26.9746 21.2834C27.1109 21.5084 27.2641 21.7001 27.5026 21.8167C27.8007 21.9751 28.0306 22.2251 28.1924 22.4751C28.5075 22.9917 28.482 23.6251 28.1754 24.1834L27.5793 25.1834C27.2641 25.7167 26.6765 26.0501 26.0719 26.0501C25.7738 26.0501 25.4417 25.9667 25.1691 25.8001C24.9477 25.6584 24.6922 25.6084 24.4197 25.6084C23.5766 25.6084 22.8697 26.3001 22.8442 27.1251C22.8442 28.0834 22.0607 28.8334 21.0813 28.8334H19.9231C18.9352 28.8334 18.1517 28.0834 18.1517 27.1251C18.1347 26.3001 17.4278 25.6084 16.5847 25.6084C16.3037 25.6084 16.0482 25.6584 15.8353 25.8001C15.5627 25.9667 15.2221 26.0501 14.9325 26.0501C14.3194 26.0501 13.7317 25.7167 13.4166 25.1834L12.829 24.1834C12.5139 23.6417 12.4969 22.9917 12.812 22.4751C12.9482 22.2251 13.2037 21.9751 13.4933 21.8167C13.7317 21.7001 13.885 21.5084 14.0298 21.2834C14.4556 20.5667 14.2001 19.6251 13.4762 19.2001C12.6331 18.7251 12.3606 17.6667 12.846 16.8417L13.4166 15.8584C13.9106 15.0334 14.9666 14.7417 15.8182 15.2251C16.5591 15.6251 17.5215 15.3584 17.9558 14.6501C18.0921 14.4167 18.1687 14.1667 18.1517 13.9167C18.1347 13.5917 18.2283 13.2834 18.3902 13.0334C18.7053 12.5167 19.2758 12.1834 19.8975 12.1667H21.0983ZM20.5107 18.1501C19.1737 18.1501 18.0921 19.2001 18.0921 20.5084C18.0921 21.8167 19.1737 22.8584 20.5107 22.8584C21.8478 22.8584 22.9038 21.8167 22.9038 20.5084C22.9038 19.2001 21.8478 18.1501 20.5107 18.1501Z" fill="black"/>
<rect x="0.5" y="0.5" width="40" height="40" rx="10" stroke="#CFD8DC"/>
</g>
</svg>
