<svg width="40" height="47" viewBox="0 0 40 47" fill="none" xmlns="http://www.w3.org/2000/svg">
<rect y="3.5" width="40" height="40" rx="10" fill="#EDE7F6"/>
<path d="M25 20.5V18.5C25 17.3954 24.1046 16.5 23 16.5H13C11.8954 16.5 11 17.3954 11 18.5V24.5C11 25.6046 11.8954 26.5 13 26.5H15M17 30.5H27C28.1046 30.5 29 29.6046 29 28.5V22.5C29 21.3954 28.1046 20.5 27 20.5H17C15.8954 20.5 15 21.3954 15 22.5V28.5C15 29.6046 15.8954 30.5 17 30.5ZM24 25.5C24 26.6046 23.1046 27.5 22 27.5C20.8954 27.5 20 26.6046 20 25.5C20 24.3954 20.8954 23.5 22 23.5C23.1046 23.5 24 24.3954 24 25.5Z" stroke="#512DA8" stroke-width="2" stroke-linecap="round" stroke-linejoin="round"/>
</svg>
