<svg width="24" height="25" viewBox="0 0 24 25" fill="none" xmlns="http://www.w3.org/2000/svg">
<path fill-rule="evenodd" clip-rule="evenodd" d="M19 22.3959H6C4.067 22.3959 2.5 20.7636 2.5 18.7501V5.14921C2.5 4.03717 3.55584 3.33218 4.4849 3.66817C4.61762 3.71617 4.74776 3.78541 4.87186 3.87775L5.0469 4.00799C5.91493 4.65384 7.08891 4.65098 7.95938 4.00332C9.17632 3.09785 10.8237 3.09785 12.0406 4.00332C12.9111 4.65098 14.0851 4.65384 14.9531 4.00799L15.1281 3.87775C16.1209 3.13906 17.5 3.87831 17.5 5.14921V13.0209H21C21.4142 13.0209 21.75 13.3707 21.75 13.8021V19.5313C21.75 21.1134 20.5188 22.3959 19 22.3959ZM17.75 14.5834V19.5313C17.75 20.2504 18.3096 20.8334 19 20.8334C19.6904 20.8334 20.25 20.2504 20.25 19.5313V14.5834H17.75ZM13.5 10.1563C13.5 9.72482 13.1642 9.37504 12.75 9.37504H6.75C6.33579 9.37504 6 9.72482 6 10.1563C6 10.5878 6.33579 10.9375 6.75 10.9375H12.75C13.1642 10.9375 13.5 10.5878 13.5 10.1563ZM12.5 13.2813C12.5 12.8498 12.1642 12.5 11.75 12.5H6.75C6.33579 12.5 6 12.8498 6 13.2813C6 13.7128 6.33579 14.0625 6.75 14.0625H11.75C12.1642 14.0625 12.5 13.7128 12.5 13.2813ZM12.75 15.625C13.1642 15.625 13.5 15.9748 13.5 16.4063C13.5 16.8378 13.1642 17.1875 12.75 17.1875H6.75C6.33579 17.1875 6 16.8378 6 16.4063C6 15.9748 6.33579 15.625 6.75 15.625H12.75Z" fill="#28766F"/>
</svg>
