<svg width="340" height="56" viewBox="0 0 340 56" fill="none" xmlns="http://www.w3.org/2000/svg">
<rect x="0.5" y="0.5" width="339" height="55" rx="15.5" fill="#F5F5F5"/>
<path fill-rule="evenodd" clip-rule="evenodd" d="M304.25 28C304.25 25.9289 305.929 24.25 308 24.25C310.071 24.25 311.75 25.9289 311.75 28C311.75 30.0711 310.071 31.75 308 31.75C305.929 31.75 304.25 30.0711 304.25 28ZM308 25.75C306.757 25.75 305.75 26.7574 305.75 28C305.75 29.2426 306.757 30.25 308 30.25C309.243 30.25 310.25 29.2426 310.25 28C310.25 26.7574 309.243 25.75 308 25.75Z" fill="black"/>
<path fill-rule="evenodd" clip-rule="evenodd" d="M300.323 26.6464C299.904 27.2503 299.75 27.7227 299.75 28C299.75 28.2773 299.904 28.7497 300.323 29.3536C300.729 29.9374 301.331 30.5703 302.093 31.155C303.62 32.3271 305.713 33.25 308 33.25C310.287 33.25 312.38 32.3271 313.907 31.155C314.669 30.5703 315.271 29.9374 315.677 29.3536C316.096 28.7497 316.25 28.2773 316.25 28C316.25 27.7227 316.096 27.2503 315.677 26.6464C315.271 26.0626 314.669 25.4297 313.907 24.845C312.38 23.6729 310.287 22.75 308 22.75C305.713 22.75 303.62 23.6729 302.093 24.845C301.331 25.4297 300.729 26.0626 300.323 26.6464ZM301.179 23.655C302.91 22.3271 305.316 21.25 308 21.25C310.684 21.25 313.09 22.3271 314.821 23.655C315.687 24.3203 316.403 25.0624 316.909 25.7911C317.401 26.4997 317.75 27.2773 317.75 28C317.75 28.7227 317.401 29.5003 316.909 30.2089C316.403 30.9376 315.687 31.6797 314.821 32.345C313.09 33.6729 310.684 34.75 308 34.75C305.316 34.75 302.91 33.6729 301.179 32.345C300.313 31.6797 299.597 30.9376 299.091 30.2089C298.599 29.5003 298.25 28.7227 298.25 28C298.25 27.2773 298.599 26.4997 299.091 25.7911C299.597 25.0624 300.313 24.3203 301.179 23.655Z" fill="black"/>
<path d="M270.47 24.4697C270.763 24.1768 271.237 24.1768 271.53 24.4697L274 26.9394L276.47 24.4697C276.763 24.1768 277.237 24.1768 277.53 24.4697C277.823 24.7626 277.823 25.2375 277.53 25.5304L275.061 28.0001L277.53 30.4697C277.823 30.7626 277.823 31.2375 277.53 31.5304C277.237 31.8233 276.763 31.8233 276.47 31.5304L274 29.0607L271.53 31.5304C271.237 31.8233 270.763 31.8233 270.47 31.5304C270.177 31.2375 270.177 30.7626 270.47 30.4697L272.939 28.0001L270.47 25.5304C270.177 25.2375 270.177 24.7626 270.47 24.4697Z" fill="black"/>
<path fill-rule="evenodd" clip-rule="evenodd" d="M269.317 19.7688C272.404 19.4237 275.596 19.4237 278.683 19.7688C280.51 19.9729 281.985 21.4116 282.199 23.2485C282.569 26.4055 282.569 29.5947 282.199 32.7516C281.985 34.5885 280.51 36.0272 278.683 36.2313C275.596 36.5764 272.404 36.5764 269.317 36.2313C267.49 36.0272 266.015 34.5885 265.801 32.7516C265.431 29.5947 265.431 26.4055 265.801 23.2485C266.015 21.4116 267.49 19.9729 269.317 19.7688ZM278.517 21.2595C275.54 20.9268 272.46 20.9268 269.483 21.2595C268.339 21.3874 267.423 22.2907 267.29 23.4228C266.935 26.4639 266.935 29.5362 267.29 32.5773C267.423 33.7094 268.339 34.6127 269.483 34.7406C272.46 35.0733 275.54 35.0733 278.517 34.7406C279.661 34.6127 280.577 33.7094 280.71 32.5773C281.065 29.5362 281.065 26.4639 280.71 23.4228C280.577 22.2907 279.661 21.3874 278.517 21.2595Z" fill="black"/>
<circle cx="21" cy="28" r="5" fill="black"/>
<circle cx="35" cy="28" r="5" fill="black"/>
<circle cx="49" cy="28" r="5" fill="black"/>
<circle cx="63" cy="28" r="5" fill="black"/>
<circle cx="77" cy="28" r="5" fill="black"/>
<circle cx="91" cy="28" r="5" fill="black"/>
<circle cx="105" cy="28" r="5" fill="black"/>
<circle cx="119" cy="28" r="5" fill="black"/>
<circle cx="133" cy="28" r="5" fill="black"/>
<circle cx="147" cy="28" r="5" fill="black"/>
<circle cx="161" cy="28" r="5" fill="black"/>
<circle cx="175" cy="28" r="5" fill="black"/>
<circle cx="189" cy="28" r="5" fill="black"/>
<circle cx="203" cy="28" r="5" fill="black"/>
<path fill-rule="evenodd" clip-rule="evenodd" d="M212 17C212 16.4477 212.448 16 213 16V16C213.552 16 214 16.4477 214 17V39C214 39.5523 213.552 40 213 40V40C212.448 40 212 39.5523 212 39V17Z" fill="black"/>
<rect x="0.5" y="0.5" width="339" height="55" rx="15.5" stroke="#AFAFAF"/>
</svg>
