<svg width="20" height="20" viewBox="0 0 20 20" fill="none" xmlns="http://www.w3.org/2000/svg">
<path fill-rule="evenodd" clip-rule="evenodd" d="M14.9881 4.52007C11.673 4.14956 8.32686 4.14956 5.01172 4.52007C4.78742 4.54514 4.6794 4.80819 4.82135 4.98366L7.7522 8.60662C8.80211 9.90447 9.37491 11.5233 9.37491 13.1926V15.6003L10.6249 16.517V13.1926C10.6249 11.5233 11.1977 9.90447 12.2476 8.60662L15.1785 4.98366C15.3204 4.80819 15.2124 4.54514 14.9881 4.52007ZM4.87288 3.27781C8.2803 2.89698 11.7195 2.89698 15.1269 3.27781C16.3327 3.41257 16.9134 4.82656 16.1503 5.76983L13.2194 9.39279C12.3495 10.4681 11.8749 11.8094 11.8749 13.1926V17.7503C11.8749 17.9859 11.7425 18.2014 11.5324 18.3079C11.3223 18.4143 11.0702 18.3936 10.8803 18.2543L8.38031 16.421C8.21976 16.3033 8.12491 16.1161 8.12491 15.917V13.1926C8.12491 11.8094 7.65031 10.4682 6.78038 9.39279L3.84953 5.76984C3.08646 4.82656 3.66711 3.41257 4.87288 3.27781Z" fill="black"/>
</svg>
