<svg width="165" height="89" viewBox="0 0 165 89" fill="none" xmlns="http://www.w3.org/2000/svg">
<g clip-path="url(#clip0_437_8723)">
<rect width="165" height="89" fill="#81C175"/>
<g style="mix-blend-mode:multiply">
<path d="M12.3175 26.7481C-22.8486 43.1574 9.41768 107.018 37.8405 131.409C73.8075 162.248 110.442 165.419 139.684 139.013C168.659 112.85 156.646 64.9843 122.479 50.7936C105.632 43.7972 86.6864 44.4278 69.6189 37.6845C49.3616 29.6801 34.2733 16.4928 12.3175 26.7481Z" fill="#C5CAE9"/>
</g>
<path d="M103.695 28.9112C102.94 28.4379 102.211 27.9252 101.511 27.3752C101.458 27.2317 101.384 27.0969 101.291 26.9752C101.735 27.1352 102.199 27.3192 102.655 27.5272C102.669 27.5313 102.684 27.5313 102.699 27.5272C102.72 27.5273 102.741 27.5213 102.76 27.51C102.778 27.4987 102.793 27.4825 102.803 27.4632C102.814 27.4355 102.815 27.4045 102.804 27.3763C102.794 27.3482 102.773 27.325 102.747 27.3112C102.163 27.0512 101.567 26.8192 101.019 26.6272C98.7307 23.9432 95.1347 21.0752 92.9907 21.3552C92.6787 21.1992 92.3587 21.0312 92.0427 20.8552C92.0302 20.8474 92.0163 20.8423 92.0017 20.8401C91.9872 20.8379 91.9723 20.8387 91.9581 20.8424C91.9438 20.8462 91.9305 20.8528 91.9189 20.8619C91.9074 20.8709 91.8978 20.8823 91.8907 20.8952C91.8759 20.9213 91.8718 20.9522 91.8792 20.9813C91.8867 21.0104 91.9051 21.0355 91.9307 21.0512C92.1667 21.1832 92.4027 21.3112 92.6387 21.4512C92.4722 21.5077 92.3114 21.5801 92.1587 21.6672L91.8907 21.6272C91.4907 21.3992 91.0907 21.1472 90.7227 20.8792C90.7106 20.8708 90.697 20.8649 90.6826 20.8617C90.6683 20.8586 90.6534 20.8583 90.6389 20.8609C90.6244 20.8635 90.6106 20.8689 90.5982 20.8769C90.5858 20.8848 90.5751 20.8951 90.5667 20.9072C90.5495 20.9322 90.5428 20.963 90.548 20.9929C90.5533 21.0229 90.57 21.0495 90.5947 21.0672C90.8387 21.2352 91.0827 21.3952 91.3307 21.5472L90.8707 21.4952C90.8414 21.4938 90.8126 21.5033 90.7897 21.5217C90.7669 21.5401 90.7516 21.5663 90.7467 21.5952C90.7445 21.6254 90.7541 21.6552 90.7735 21.6784C90.7929 21.7015 90.8206 21.7162 90.8507 21.7192C90.8507 21.7192 91.2507 21.7592 91.8147 21.8432H91.8507C90.3107 22.8952 88.3987 25.3792 87.4707 26.8432C89.4307 30.7552 99.3587 32.9032 99.3587 32.9032C99.3587 32.9032 99.5987 31.0272 101.295 28.7832C101.334 28.7245 101.369 28.663 101.399 28.5992C101.775 28.9072 102.019 29.0872 102.023 29.0952C102.045 29.101 102.068 29.101 102.091 29.0952C102.108 29.0951 102.126 29.0911 102.142 29.0835C102.158 29.0759 102.172 29.0649 102.183 29.0512C102.2 29.0267 102.208 28.9962 102.203 28.9664C102.199 28.9365 102.183 28.9095 102.159 28.8912C102.159 28.8912 101.895 28.6952 101.495 28.3672C101.578 28.1508 101.608 27.9177 101.583 27.6872C102.663 28.5152 103.583 29.0672 103.583 29.0752C103.602 29.0807 103.623 29.0807 103.643 29.0752C103.662 29.0759 103.681 29.0714 103.698 29.0622C103.715 29.0531 103.729 29.0396 103.739 29.0232C103.742 29.0023 103.74 28.9808 103.732 28.9611C103.725 28.9413 103.712 28.9241 103.695 28.9112V28.9112Z" fill="#FFC100"/>
<path d="M107.603 33.1513C108.003 33.2313 108.271 33.2713 108.279 33.2713C108.306 33.2716 108.332 33.262 108.353 33.2444C108.373 33.2267 108.387 33.2022 108.391 33.1753C108.393 33.1606 108.392 33.1455 108.389 33.1311C108.385 33.1166 108.379 33.1031 108.37 33.0911C108.361 33.0792 108.349 33.0692 108.337 33.0617C108.324 33.0541 108.31 33.0493 108.295 33.0473C108.295 33.0473 107.871 32.9793 107.243 32.8473C107.131 32.7553 107.015 32.6673 106.895 32.5753C107.343 32.5753 107.807 32.5513 108.275 32.5753C108.304 32.5753 108.333 32.5635 108.354 32.5425C108.375 32.5215 108.387 32.493 108.387 32.4633C108.387 32.4339 108.376 32.4055 108.356 32.384C108.336 32.3625 108.308 32.3493 108.279 32.3473C107.707 32.3473 107.135 32.3473 106.603 32.3753C106.411 32.2393 106.203 32.1113 106.003 31.9753C107.179 32.1513 108.055 32.2073 108.067 32.2073C108.095 32.2074 108.122 32.1967 108.143 32.1774C108.164 32.1581 108.177 32.1316 108.179 32.1033C108.18 32.0886 108.178 32.0738 108.173 32.0598C108.169 32.0458 108.161 32.0328 108.152 32.0217C108.142 32.0105 108.13 32.0014 108.117 31.9948C108.104 31.9882 108.089 31.9843 108.075 31.9833C107.187 31.9176 106.303 31.8068 105.427 31.6513C104.721 31.2787 103.971 30.9964 103.195 30.8113C97.4588 29.4993 91.9148 25.7353 88.0308 24.9313C86.6068 24.6393 84.6588 24.1993 82.7908 23.8393C81.8114 23.4318 80.86 22.9601 79.9428 22.4273C79.93 22.4194 79.9157 22.4142 79.9009 22.412C79.886 22.4097 79.8709 22.4105 79.8563 22.4142C79.8417 22.418 79.8281 22.4246 79.8161 22.4337C79.8042 22.4428 79.7942 22.4543 79.7868 22.4673C79.7722 22.4928 79.7682 22.5231 79.7756 22.5515C79.7831 22.5799 79.8015 22.6043 79.8268 22.6193C80.2268 22.8473 80.5988 23.0553 80.9748 23.2473C80.1748 23.0393 79.4068 22.8913 78.8348 22.7953C78.4548 22.5593 78.0628 22.3033 77.6788 22.0273C77.6549 22.0099 77.6251 22.0027 77.5958 22.0072C77.5666 22.0117 77.5403 22.0275 77.5228 22.0513C77.5061 22.0762 77.4993 22.1064 77.5038 22.136C77.5082 22.1656 77.5235 22.1924 77.5468 22.2113C77.7868 22.3833 78.0308 22.5473 78.2748 22.7073C77.9908 22.6633 77.8228 22.6433 77.8148 22.6433C77.8001 22.6417 77.7852 22.6431 77.771 22.6472C77.7568 22.6514 77.7436 22.6583 77.7321 22.6676C77.7205 22.6769 77.711 22.6884 77.7039 22.7014C77.6968 22.7143 77.6923 22.7286 77.6908 22.7433C77.6892 22.758 77.6905 22.7729 77.6947 22.7871C77.6989 22.8013 77.7058 22.8145 77.7151 22.826C77.7244 22.8375 77.7358 22.8471 77.7488 22.8542C77.7618 22.8613 77.7761 22.8657 77.7908 22.8673C77.7908 22.8673 78.1908 22.9153 78.7508 23.0113C78.8988 23.1033 79.0428 23.1913 79.1828 23.2713C77.6748 23.1273 76.6908 23.2273 76.8988 23.8153C77.3388 25.0753 80.0748 26.6393 83.4788 27.4393C82.9068 27.4153 82.2788 27.3713 81.6548 27.2913C81.6252 27.289 81.596 27.2981 81.5729 27.3167C81.5498 27.3353 81.5348 27.362 81.5308 27.3913C81.5274 27.4204 81.5355 27.4497 81.5534 27.4729C81.5714 27.4961 81.5977 27.5113 81.6268 27.5153C82.5956 27.6323 83.5709 27.6884 84.5468 27.6833H84.7028C85.1548 27.7593 85.6108 27.8273 86.0788 27.8753C90.6028 28.3233 99.0148 35.7833 104.335 37.2033C110.695 38.8953 110.367 35.6593 107.603 33.1513Z" fill="#FFC100"/>
<path opacity="0.3" d="M107.603 33.1513C108.003 33.2313 108.271 33.2713 108.279 33.2713C108.306 33.2716 108.332 33.262 108.353 33.2444C108.373 33.2267 108.387 33.2022 108.391 33.1753C108.393 33.1606 108.392 33.1455 108.389 33.1311C108.385 33.1166 108.379 33.1031 108.37 33.0911C108.361 33.0792 108.349 33.0692 108.337 33.0617C108.324 33.0541 108.31 33.0493 108.295 33.0473C108.295 33.0473 107.871 32.9793 107.243 32.8473C107.131 32.7553 107.015 32.6673 106.895 32.5753C107.343 32.5753 107.807 32.5513 108.275 32.5753C108.304 32.5753 108.333 32.5635 108.354 32.5425C108.375 32.5215 108.387 32.493 108.387 32.4633C108.387 32.4339 108.376 32.4055 108.356 32.384C108.336 32.3625 108.308 32.3493 108.279 32.3473C107.707 32.3473 107.135 32.3473 106.603 32.3753C106.411 32.2393 106.203 32.1113 106.003 31.9753C107.179 32.1513 108.055 32.2073 108.067 32.2073C108.095 32.2074 108.122 32.1967 108.143 32.1774C108.164 32.1581 108.177 32.1316 108.179 32.1033C108.18 32.0886 108.178 32.0738 108.173 32.0598C108.169 32.0458 108.161 32.0328 108.152 32.0217C108.142 32.0105 108.13 32.0014 108.117 31.9948C108.104 31.9882 108.089 31.9843 108.075 31.9833C107.187 31.9176 106.303 31.8068 105.427 31.6513C104.721 31.2787 103.971 30.9964 103.195 30.8113C97.4588 29.4993 91.9148 25.7353 88.0308 24.9313C86.6068 24.6393 84.6588 24.1993 82.7908 23.8393C81.8114 23.4318 80.86 22.9601 79.9428 22.4273C79.93 22.4194 79.9157 22.4142 79.9009 22.412C79.886 22.4097 79.8709 22.4105 79.8563 22.4142C79.8417 22.418 79.8281 22.4246 79.8161 22.4337C79.8042 22.4428 79.7942 22.4543 79.7868 22.4673C79.7722 22.4928 79.7682 22.5231 79.7756 22.5515C79.7831 22.5799 79.8015 22.6043 79.8268 22.6193C80.2268 22.8473 80.5988 23.0553 80.9748 23.2473C80.1748 23.0393 79.4068 22.8913 78.8348 22.7953C78.4548 22.5593 78.0628 22.3033 77.6788 22.0273C77.6549 22.0099 77.6251 22.0027 77.5958 22.0072C77.5666 22.0117 77.5403 22.0275 77.5228 22.0513C77.5061 22.0762 77.4993 22.1064 77.5038 22.136C77.5082 22.1656 77.5235 22.1924 77.5468 22.2113C77.7868 22.3833 78.0308 22.5473 78.2748 22.7073C77.9908 22.6633 77.8228 22.6433 77.8148 22.6433C77.8001 22.6417 77.7852 22.6431 77.771 22.6472C77.7568 22.6514 77.7436 22.6583 77.7321 22.6676C77.7205 22.6769 77.711 22.6884 77.7039 22.7014C77.6968 22.7143 77.6923 22.7286 77.6908 22.7433C77.6892 22.758 77.6905 22.7729 77.6947 22.7871C77.6989 22.8013 77.7058 22.8145 77.7151 22.826C77.7244 22.8375 77.7358 22.8471 77.7488 22.8542C77.7618 22.8613 77.7761 22.8657 77.7908 22.8673C77.7908 22.8673 78.1908 22.9153 78.7508 23.0113C78.8988 23.1033 79.0428 23.1913 79.1828 23.2713C77.6748 23.1273 76.6908 23.2273 76.8988 23.8153C77.3388 25.0753 80.0748 26.6393 83.4788 27.4393C82.9068 27.4153 82.2788 27.3713 81.6548 27.2913C81.6252 27.289 81.596 27.2981 81.5729 27.3167C81.5498 27.3353 81.5348 27.362 81.5308 27.3913C81.5274 27.4204 81.5355 27.4497 81.5534 27.4729C81.5714 27.4961 81.5977 27.5113 81.6268 27.5153C82.5956 27.6323 83.5709 27.6884 84.5468 27.6833H84.7028C85.1548 27.7593 85.6108 27.8273 86.0788 27.8753C90.6028 28.3233 99.0148 35.7833 104.335 37.2033C110.695 38.8953 110.367 35.6593 107.603 33.1513Z" fill="black"/>
<path d="M84.3505 59.4918L84.1345 59.8358L83.9425 60.1198L83.5705 60.6638C83.3225 61.0198 83.0625 61.3598 82.8065 61.6998C82.2905 62.3838 81.7425 63.0278 81.1785 63.6718C80.6145 64.3158 80.0185 64.9278 79.4025 65.5358C78.7865 66.1438 78.1425 66.7358 77.4545 67.2958C76.7665 67.8558 76.0665 68.4078 75.3145 68.9278C74.5414 69.4525 73.7402 69.9346 72.9145 70.3718C72.0512 70.8356 71.1555 71.2367 70.2345 71.5718C69.2562 71.9115 68.2514 72.1698 67.2305 72.3438L66.7505 72.4278C66.4672 72.4758 66.1778 72.4758 65.8945 72.4278C64.7479 72.2296 63.616 71.9543 62.5065 71.6038C61.4476 71.2655 60.4063 70.8744 59.3865 70.4318C58.8865 70.2078 58.3905 69.9798 57.9025 69.7398C57.4145 69.4998 56.9385 69.2358 56.4625 68.9758C55.9865 68.7158 55.5265 68.4278 55.0665 68.1358C54.6065 67.8438 54.1705 67.5438 53.6865 67.1878C53.2442 66.863 52.9174 66.4054 52.7538 65.8816C52.5901 65.3579 52.5983 64.7956 52.777 64.2768C52.9557 63.758 53.2957 63.31 53.7472 62.9982C54.1987 62.6864 54.7381 62.5272 55.2865 62.5438H55.5785C56.0305 62.5438 56.5425 62.6238 57.0265 62.6598L58.4865 62.8078L59.9305 62.9478C60.4065 62.9998 60.8825 63.0398 61.3505 63.0798C62.2905 63.1798 63.2185 63.2238 64.1145 63.2758C65.0105 63.3278 65.8825 63.3358 66.7065 63.3278L65.3985 63.3998C66.3529 63.0597 67.2592 62.5972 68.0945 62.0238C68.5749 61.6986 69.0382 61.3488 69.4825 60.9758C69.9505 60.6078 70.4105 60.1758 70.8665 59.7758C71.7665 58.9078 72.6665 57.9678 73.5185 56.9758C73.9465 56.4838 74.3585 55.9638 74.7705 55.4558L75.3705 54.6838L75.8905 53.9958L76.0785 53.7478C76.8605 52.6961 78.0208 51.9898 79.3142 51.7782C80.6075 51.5666 81.9324 51.8662 83.0088 52.6138C84.0852 53.3613 84.8287 54.4982 85.0821 55.784C85.3355 57.0698 85.0788 58.4037 84.3665 59.5038L84.3505 59.4918Z" fill="#D57B70"/>
<path d="M88.9995 51.3234C87.7755 62.1714 72.8395 71.3514 72.8395 71.3514C69.6715 71.0034 66.5515 65.7514 66.1035 62.3274C66.1035 62.3274 75.2715 49.4994 79.9195 46.9634C84.1995 44.5994 89.5355 46.3834 88.9995 51.3234Z" fill="#263238"/>
<path d="M67.0833 60.3398C66.1353 61.2518 65.4433 61.9398 65.4473 62.9758C65.7993 63.9518 68.0513 71.1038 69.5673 72.0958C71.0833 73.0878 73.3513 71.7718 75.2953 70.3718C75.4473 66.5318 69.6033 64.4958 67.0833 60.3398Z" fill="#263238"/>
<path opacity="0.2" d="M67.0833 60.3398C66.1353 61.2518 65.4433 61.9398 65.4473 62.9758C65.7993 63.9518 68.0513 71.1038 69.5673 72.0958C71.0833 73.0878 73.3513 71.7718 75.2953 70.3718C75.4473 66.5318 69.6033 64.4958 67.0833 60.3398Z" fill="white"/>
<path d="M55.8836 62.7881L56.0316 65.7001C55.0916 68.6201 51.5476 66.7601 51.5476 66.7601L49.4836 66.5561C49.1219 66.4956 48.7932 66.309 48.556 66.0293C48.3188 65.7496 48.1883 65.3949 48.1876 65.0281L48.0716 62.9921C48.018 62.5746 48.1312 62.1528 48.3865 61.8181C48.6418 61.4834 49.0188 61.2628 49.4356 61.2041L51.2436 61.0881C51.7681 61.0559 52.2926 61.152 52.7716 61.3681L55.8836 62.7881Z" fill="#D57B70"/>
<path d="M83.8843 45.0917C90.2945 44.4825 96.7525 44.5845 103.14 45.3957C106.832 45.9157 109.44 48.1957 108.992 55.7957C108.084 71.1397 107.548 83.3237 105.596 88.8397C105.596 88.8397 81.1603 96.5797 73.0643 88.7797C71.0923 70.3077 75.6883 55.1797 78.7123 48.7797C79.1836 47.7716 79.9075 46.9023 80.8136 46.2561C81.7198 45.61 82.7775 45.2089 83.8843 45.0917Z" fill="#263238"/>
<path opacity="0.2" d="M85.2274 69.5753C85.2002 69.5756 85.1739 69.566 85.1533 69.5484C85.1327 69.5307 85.1192 69.5062 85.1153 69.4793C84.9753 68.5633 85.3313 67.5513 85.6433 66.6553C85.8503 66.1413 85.9941 65.604 86.0713 65.0553C86.0953 64.6553 86.0713 64.2273 86.0713 63.8313C86.0158 63.1672 86.0685 62.4985 86.2273 61.8513L86.3433 61.4873C86.5753 60.7713 86.7433 60.2513 86.5713 59.7193C86.4553 59.3633 86.6873 58.5593 86.9353 57.7193C87.1553 56.9593 87.4033 56.0953 87.2953 55.8113C87.0393 55.1353 87.0193 54.5433 87.6113 53.1713C87.8459 52.577 87.9297 51.9339 87.8553 51.2993C87.784 50.8226 87.8506 50.3354 88.0473 49.8953C88.054 49.8821 88.0634 49.8703 88.0748 49.8608C88.0862 49.8514 88.0995 49.8443 88.1137 49.8402C88.128 49.8361 88.143 49.8349 88.1577 49.8368C88.1724 49.8388 88.1866 49.8437 88.1993 49.8513C88.2253 49.8657 88.2445 49.8897 88.2528 49.9182C88.261 49.9467 88.2576 49.9773 88.2433 50.0033C88.0678 50.4071 88.0122 50.8528 88.0833 51.2873C88.1591 51.9577 88.0684 52.6364 87.8193 53.2633C87.2553 54.5673 87.2673 55.0993 87.5073 55.7313C87.6433 56.0833 87.4033 56.9313 87.1513 57.7833C86.9353 58.5273 86.6913 59.3833 86.7873 59.6593C86.9833 60.2633 86.7873 60.8393 86.5593 61.5713C86.5193 61.6873 86.4833 61.8073 86.4433 61.9313C86.2917 62.5552 86.2431 63.1997 86.2993 63.8393C86.2993 64.2393 86.3193 64.6393 86.2993 65.0793C86.2209 65.6516 86.0718 66.2118 85.8554 66.7473C85.5514 67.6153 85.2074 68.6033 85.3394 69.4593C85.3416 69.4741 85.3409 69.4891 85.3373 69.5035C85.3337 69.518 85.3272 69.5316 85.3182 69.5435C85.3093 69.5554 85.2981 69.5654 85.2852 69.573C85.2724 69.5805 85.2581 69.5854 85.2433 69.5873L85.2274 69.5753Z" fill="white"/>
<path d="M86.0952 120.72C88.7872 110.344 95.8192 97.9757 91.3712 87.9877L72.0472 87.9277C72.0472 87.9277 71.5672 108.492 71.4352 118.196C71.2952 128.284 72.1632 140.836 72.1632 140.836L80.0712 141.436C80.0712 141.436 85.4632 132.364 86.0952 120.72Z" fill="#FFC100"/>
<path d="M106.347 117.364C107.283 106.872 110.747 92.7517 107.399 87.9277H84.2715C84.2715 87.9277 88.8755 108.84 90.7675 118.516C92.7315 128.58 98.3675 141.388 98.3675 141.388H105.859C105.859 141.388 108.727 129.332 106.347 117.364Z" fill="#FFC100"/>
<path d="M86.0144 46.7674C86.7504 46.0474 87.5224 46.4674 87.8784 45.3794C88.0371 44.5248 87.8958 43.6417 87.4784 42.8794L96.2384 38.1514C96.0664 41.3754 95.9384 43.9194 97.3664 45.2034C97.7664 47.6034 93.7104 49.6234 88.4544 49.3714C85.9824 49.2554 84.9544 47.7994 86.0144 46.7674Z" fill="#D57B70"/>
<path opacity="0.2" d="M87.6035 43.1518L94.5235 41.4238C92.7755 44.1718 89.6235 45.6798 87.9315 45.0238C87.9859 44.382 87.8729 43.737 87.6035 43.1518V43.1518Z" fill="black"/>
<path d="M87.2243 28.6396C86.2101 29.3805 85.2417 30.182 84.3242 31.0396C84.6579 31.1416 85.0145 31.1416 85.3482 31.0396C84.4842 32.5436 84.8202 34.6036 85.2562 35.2156C87.4003 33.2036 87.2243 28.6396 87.2243 28.6396Z" fill="#263238"/>
<path d="M90.4678 27.3757C93.8198 27.7077 98.5238 30.6837 98.1118 34.3077C97.6358 38.5197 96.5118 41.2517 93.6638 42.6637C87.9638 45.4637 85.1838 42.7637 84.7198 38.4277C84.2998 34.5277 85.7318 26.9117 90.4678 27.3757Z" fill="#D57B70"/>
<path d="M96.1994 30.0479C96.4194 31.8599 96.1594 33.6239 95.1914 34.1158C96.4954 34.1558 96.9634 33.8998 96.9634 33.8998C96.9634 33.8998 94.6474 35.6598 96.1994 36.7878C97.3621 36.0779 98.3745 35.147 99.1794 34.0479C99.1794 34.0479 98.8834 31.7119 96.1994 30.0479Z" fill="#263238"/>
<path opacity="0.2" d="M92.0762 34.0956C92.6038 33.921 93.1792 33.9627 93.6762 34.2116C93.1404 34.2782 92.5967 34.2388 92.0762 34.0956V34.0956Z" fill="black"/>
<path opacity="0.2" d="M92.0762 34.4795C92.3246 34.4516 92.576 34.4783 92.813 34.5578C93.05 34.6372 93.2668 34.7675 93.4482 34.9395C92.9627 34.8882 92.4944 34.7312 92.0762 34.4795Z" fill="black"/>
<path d="M89.3681 38.5995C89.1753 38.5999 88.9827 38.5851 88.7921 38.5555C88.7627 38.5506 88.7364 38.5345 88.7185 38.5107C88.7006 38.4869 88.6926 38.4571 88.6961 38.4275C88.698 38.4123 88.703 38.3977 88.7108 38.3845C88.7186 38.3714 88.729 38.3599 88.7414 38.3509C88.7537 38.342 88.7678 38.3356 88.7827 38.3322C88.7976 38.3289 88.8131 38.3286 88.8281 38.3315C89.306 38.4145 89.7967 38.3836 90.2603 38.2411C90.7239 38.0986 91.1474 37.8486 91.4961 37.5115C91.5178 37.4898 91.5473 37.4775 91.5781 37.4775C91.6089 37.4775 91.6383 37.4898 91.6601 37.5115C91.6806 37.5331 91.6921 37.5617 91.6921 37.5915C91.6921 37.6213 91.6806 37.6499 91.6601 37.6715C91.3587 37.9705 91.0009 38.2065 90.6074 38.3658C90.2139 38.5251 89.7926 38.6046 89.3681 38.5995V38.5995Z" fill="#263238"/>
<path d="M99.1555 38.0155C98.8622 38.412 98.4936 38.7468 98.0708 39.0008C97.648 39.2547 97.1793 39.4228 96.6915 39.4955C95.3795 39.6755 94.8875 38.4595 95.3915 37.3155C95.8435 36.2835 97.0675 34.9435 98.3195 35.2875C99.5715 35.6315 99.8675 37.0235 99.1555 38.0155Z" fill="#D57B70"/>
<path d="M84.7272 35.4316C84.0952 38.1116 83.2472 40.4196 84.0232 41.4316C84.1186 41.2466 84.2354 41.0734 84.3712 40.9156C84.4039 41.5713 84.5912 42.2099 84.918 42.7793C85.2448 43.3487 85.7016 43.8327 86.2512 44.1916C86.3257 43.9474 86.3687 43.6947 86.3792 43.4396C86.3792 43.4396 88.1592 44.4516 92.0752 43.6036C91.9699 43.7475 91.8965 43.9122 91.8599 44.0867C91.8233 44.2613 91.8245 44.4416 91.8632 44.6156C93.1057 44.2978 94.1857 43.5294 94.8932 42.4597C95.6007 41.39 95.8851 40.0954 95.6912 38.8276C95.5534 37.8077 95.7618 36.771 96.2832 35.8836C96.2832 35.8836 95.7112 35.3476 95.0352 36.2516C94.3592 37.1556 93.7352 41.4236 91.6952 40.8156C89.9472 40.2956 89.2272 40.0636 88.1752 40.8596C86.9272 39.7316 85.6672 39.1996 85.1952 39.5196C84.7472 38.9116 84.6792 36.7516 84.7272 35.4316Z" fill="#263238"/>
<path d="M92.2517 43.2959C91.6877 43.9159 89.7677 44.4559 88.9277 44.5439C89.2299 44.2798 89.4516 43.936 89.5677 43.5519L92.2517 43.2959Z" fill="#263238"/>
<path d="M91.3352 34.2C91.3112 34.568 91.0952 34.852 90.8512 34.836C90.6072 34.82 90.4512 34.504 90.4512 34.132C90.4512 33.76 90.6912 33.48 90.9352 33.5C91.1792 33.52 91.3592 33.828 91.3352 34.2Z" fill="#263238"/>
<path d="M87.0045 33.9321C87.0267 33.5638 86.8481 33.2534 86.6055 33.2388C86.363 33.2242 86.1483 33.5108 86.1261 33.8791C86.1039 34.2474 86.2826 34.5578 86.5251 34.5724C86.7677 34.587 86.9823 34.3003 87.0045 33.9321Z" fill="#263238"/>
<path d="M87.9511 34.2959L87.9711 37.4039C87.9711 37.4039 86.9711 37.6519 86.3711 37.1079C86.6464 36.05 87.1907 35.0812 87.9511 34.2959Z" fill="#ED847E"/>
<path d="M91.9958 33.2559C92.0327 33.2638 92.0709 33.2638 92.1078 33.2559C92.1346 33.2466 92.1592 33.2319 92.1802 33.2129C92.2013 33.1938 92.2183 33.1707 92.2302 33.145C92.2421 33.1193 92.2488 33.0914 92.2497 33.063C92.2507 33.0347 92.246 33.0064 92.2358 32.9799C92.1264 32.6515 91.9407 32.3537 91.6938 32.111C91.447 31.8683 91.1461 31.6877 90.8158 31.5839C90.788 31.5768 90.759 31.5753 90.7305 31.5795C90.7021 31.5837 90.6748 31.5935 90.6502 31.6084C90.6256 31.6233 90.6042 31.643 90.5873 31.6663C90.5705 31.6895 90.5584 31.7159 90.5518 31.7439C90.5397 31.8006 90.55 31.8598 90.5806 31.909C90.6112 31.9582 90.6597 31.9937 90.7158 32.0079C90.9764 32.0925 91.2131 32.2378 91.4064 32.4318C91.5997 32.6259 91.7442 32.8631 91.8278 33.1239C91.8432 33.1578 91.8665 33.1874 91.8957 33.2104C91.925 33.2334 91.9593 33.249 91.9958 33.2559V33.2559Z" fill="#263238"/>
<path d="M84.7831 32.3993C84.819 32.3986 84.8541 32.3891 84.8855 32.3717C84.9169 32.3543 84.9435 32.3294 84.9631 32.2993C85.1004 32.0639 85.2923 31.8649 85.5228 31.7194C85.7533 31.5739 86.0154 31.486 86.2871 31.4633C86.3447 31.4613 86.3992 31.4366 86.4389 31.3947C86.4785 31.3528 86.5001 31.297 86.4991 31.2393C86.496 31.182 86.471 31.1281 86.4294 31.0887C86.3877 31.0492 86.3325 31.0273 86.2751 31.0273C85.9324 31.0522 85.6007 31.1593 85.3082 31.3397C85.0158 31.52 84.7711 31.7683 84.5951 32.0633C84.565 32.1123 84.5552 32.1711 84.5679 32.2272C84.5807 32.2833 84.6148 32.3321 84.6631 32.3633C84.699 32.3861 84.7405 32.3986 84.7831 32.3993Z" fill="#263238"/>
<path d="M107.4 87.9276C107.887 85.7423 108.155 83.514 108.2 81.2756C108.214 80.8721 108.114 80.4728 107.911 80.1238C107.707 79.7749 107.41 79.4905 107.052 79.3036C105.423 78.4204 104.048 77.1339 103.058 75.5672C102.069 74.0005 101.498 72.2061 101.4 70.3556C101.372 69.8641 101.201 69.3915 100.908 68.9957C100.616 68.5999 100.214 68.2982 99.7519 68.1276C92.5719 65.5316 82.3799 66.0796 78.1518 66.9596C77.6135 67.0669 77.1255 67.3489 76.7639 67.7619C76.4022 68.1749 76.1871 68.6958 76.1518 69.2436C75.9398 72.6196 75.1718 77.7836 73.1078 78.8996C72.8055 79.0494 72.5408 79.2652 72.3331 79.5311C72.1254 79.7969 71.98 80.106 71.9078 80.4356C71.2198 84.0956 72.0678 87.9276 72.0678 87.9276C72.0678 87.9276 85.1638 90.1396 107.4 87.9276Z" fill="#FFC100"/>
<path opacity="0.2" d="M86.6267 74.7921H86.5987C86.4067 74.7481 81.9667 73.6881 80.5387 71.1441C80.53 71.1274 80.5254 71.1089 80.5254 71.0901C80.5254 71.0713 80.53 71.0527 80.5387 71.0361C80.548 71.0202 80.5607 71.0065 80.576 70.9961C80.5912 70.9858 80.6085 70.9789 80.6267 70.9761C83.7587 70.6241 92.5347 70.8561 95.3307 71.6881C95.3508 71.6952 95.3688 71.7074 95.3828 71.7236C95.3968 71.7397 95.4064 71.7591 95.4107 71.7801C95.413 71.8013 95.4098 71.8228 95.4014 71.8424C95.393 71.862 95.3797 71.8791 95.3627 71.8921C92.6867 73.7921 86.7067 74.7841 86.6467 74.7921H86.6267ZM80.8267 71.1921C82.2467 73.4561 86.2987 74.4921 86.6307 74.5761C87.0307 74.5081 92.3987 73.5761 95.0307 71.8481C92.0907 71.0761 83.9907 70.8641 80.8267 71.1801V71.1921Z" fill="black"/>
<path opacity="0.2" d="M86.787 81.6393H86.683C83.295 81.6393 81.407 81.1833 80.559 80.1593C79.711 79.1353 79.987 77.5433 80.367 75.5673C80.5848 74.5167 80.7464 73.4552 80.851 72.3873C80.855 72.3576 80.8699 72.3305 80.8928 72.3113C80.9158 72.292 80.9451 72.282 80.975 72.2833C80.9896 72.2843 81.0038 72.2882 81.0168 72.2949C81.0298 72.3015 81.0413 72.3107 81.0507 72.3219C81.06 72.3331 81.067 72.3461 81.0712 72.3601C81.0753 72.3741 81.0766 72.3888 81.075 72.4033C80.9715 73.4782 80.8086 74.5465 80.587 75.6033C80.219 77.5233 79.927 79.0353 80.735 80.0033C81.543 80.9713 83.367 81.3993 86.683 81.3993H86.787C90.575 81.3993 92.667 81.3993 93.719 80.2633C94.771 79.1273 94.791 76.8833 94.519 72.7953C94.5178 72.7658 94.5279 72.737 94.5472 72.7147C94.5666 72.6924 94.5936 72.6783 94.623 72.6753C94.6529 72.674 94.6822 72.684 94.7051 72.7033C94.7281 72.7225 94.743 72.7496 94.747 72.7793C95.039 77.0233 94.987 79.2473 93.895 80.4193C92.803 81.5913 90.639 81.6393 86.787 81.6393Z" fill="black"/>
<path d="M86.6825 73.6237C86.9321 73.6237 87.1345 73.4214 87.1345 73.1717C87.1345 72.9221 86.9321 72.7197 86.6825 72.7197C86.4328 72.7197 86.2305 72.9221 86.2305 73.1717C86.2305 73.4214 86.4328 73.6237 86.6825 73.6237Z" fill="white"/>
<path d="M81.1829 64.8556L78.3829 65.0716C78.1959 65.0849 78.0112 65.0238 77.8689 64.9018C77.7266 64.7797 77.6382 64.6064 77.6229 64.4196V64.4196C77.6096 64.233 77.6708 64.0488 77.7929 63.9071C77.9151 63.7655 78.0884 63.6779 78.2749 63.6636L81.0749 63.4516C81.1672 63.444 81.2601 63.4547 81.3482 63.4832C81.4363 63.5117 81.5179 63.5575 81.5882 63.6177C81.6585 63.678 81.7161 63.7516 81.7578 63.8343C81.7995 63.9171 81.8243 64.0072 81.8309 64.0996V64.0996C81.838 64.1918 81.8268 64.2845 81.7981 64.3724C81.7694 64.4603 81.7236 64.5416 81.6635 64.6118C81.6033 64.682 81.5299 64.7397 81.4474 64.7815C81.3649 64.8233 81.2751 64.8485 81.1829 64.8556V64.8556Z" fill="white"/>
<path d="M78.8195 66.9195L78.8995 63.7435C78.9083 63.5274 78.9936 63.3216 79.1401 63.1626C79.2866 63.0036 79.4849 62.9018 79.6995 62.8755V62.8755C79.7997 62.8656 79.9009 62.8774 79.9961 62.9102C80.0914 62.9429 80.1784 62.9959 80.2513 63.0654C80.3242 63.1349 80.3813 63.2193 80.4186 63.3128C80.4559 63.4064 80.4726 63.5069 80.4675 63.6075L80.3835 66.7835C80.3755 66.9998 80.2904 67.2061 80.1438 67.3652C79.9971 67.5244 79.7984 67.6259 79.5835 67.6515V67.6515C79.4834 67.6615 79.3824 67.6497 79.2873 67.6169C79.1923 67.5841 79.1055 67.531 79.0329 67.4615C78.9602 67.3919 78.9036 67.3074 78.8667 67.2139C78.8299 67.1203 78.8138 67.0199 78.8195 66.9195V66.9195Z" fill="white"/>
<path d="M83.1796 45.0552C82.2796 46.1392 78.7796 51.0872 78.5236 64.1992C78.5214 64.2478 78.5381 64.2954 78.5701 64.3319C78.6022 64.3685 78.6472 64.3912 78.6956 64.3952C79.328 64.4082 79.9605 64.3735 80.5876 64.2912C80.6329 64.2863 80.6747 64.2647 80.705 64.2308C80.7353 64.1968 80.7519 64.1528 80.7516 64.1072C80.7516 62.6592 80.9436 51.8632 85.1996 44.9872C85.2169 44.9582 85.226 44.9251 85.2261 44.8914C85.2261 44.8576 85.217 44.8245 85.1999 44.7954C85.1827 44.7664 85.158 44.7425 85.1284 44.7263C85.0988 44.71 85.0654 44.7021 85.0316 44.7032C84.4297 44.7187 83.8331 44.8198 83.2596 45.0032C83.2287 45.0129 83.201 45.0309 83.1796 45.0552V45.0552Z" fill="#FFC100"/>
<path d="M88.1758 49.3512C89.7558 49.1552 91.0638 47.6672 91.0638 47.6672C91.0638 47.6672 95.2278 46.6432 96.3678 44.6192C96.4833 44.4089 96.6746 44.2506 96.9027 44.1763C97.1308 44.102 97.3786 44.1173 97.5958 44.2192C98.0365 44.4012 98.4497 44.6435 98.8238 44.9392C98.8238 44.9392 96.0798 51.8832 88.1758 49.3512Z" fill="#263238"/>
<path d="M91.0625 47.6675C91.0625 47.6675 92.5905 49.4675 92.5305 51.6675C96.3305 50.1075 99.0985 46.2635 99.2105 44.6875C97.6105 43.5635 96.6385 43.7915 96.6385 43.7915C96.6385 43.7915 94.4425 46.6755 91.0625 47.6675Z" fill="#FFC100"/>
<path d="M88.1759 49.3521C87.6119 48.9001 87.6439 47.8601 87.9719 47.5841C87.8359 46.6721 87.9719 46.1921 87.9439 44.7841C86.5119 44.6921 85.2559 46.2801 84.8039 47.3721C84.3519 48.4641 87.2119 49.5801 88.1759 49.3521Z" fill="#263238"/>
<path d="M87.971 47.5836C86.955 48.0796 86.007 49.8596 86.219 50.9396C84.587 49.8476 84.463 46.1396 86.495 44.7956C86.983 44.5436 87.943 44.7956 87.943 44.7956C87.943 44.7956 88.167 46.7436 87.971 47.5836Z" fill="#FFC100"/>
<path d="M89.436 54.6758C89.368 55.0758 89.148 55.3918 88.944 55.3558C88.74 55.3198 88.632 54.9558 88.7 54.5558C88.768 54.1558 88.988 53.8398 89.192 53.8758C89.396 53.9118 89.504 54.2638 89.436 54.6758Z" fill="white"/>
<path d="M88.8121 59.112C88.7841 59.512 88.5921 59.8521 88.3841 59.8361C88.1761 59.8201 88.0401 59.472 88.0681 59.036C88.0961 58.6 88.2921 58.3 88.5001 58.316C88.7081 58.332 88.8441 58.7 88.8121 59.112Z" fill="white"/>
<path d="M88.143 63.8834C88.111 64.2833 87.919 64.6233 87.715 64.6073C87.511 64.5913 87.367 64.2433 87.399 63.8073C87.431 63.3714 87.623 63.0714 87.827 63.0834C88.031 63.0954 88.175 63.4714 88.143 63.8834Z" fill="white"/>
<path d="M111.651 52.1114L111.935 52.3994L112.171 52.6474L112.619 53.1314C112.911 53.4554 113.187 53.7834 113.459 54.1114C114.011 54.7634 114.519 55.4434 115.019 56.1354C115.519 56.8274 115.987 57.5474 116.443 58.2834C116.899 59.0194 117.327 59.7794 117.723 60.5714C118.119 61.3634 118.499 62.1714 118.835 63.0234C119.174 63.8924 119.467 64.779 119.711 65.6794C119.969 66.6232 120.159 67.5844 120.279 68.5554C120.401 69.5854 120.431 70.624 120.371 71.6594L120.339 72.1594C120.319 72.4424 120.254 72.7205 120.147 72.9834C119.667 74.1413 119.061 75.2427 118.339 76.2674C117.67 77.2233 116.913 78.1151 116.079 78.9314C115.28 79.7129 114.422 80.431 113.511 81.0794C113.063 81.3994 112.599 81.6914 112.127 81.9754C111.887 82.1154 111.647 82.2514 111.403 82.3754L110.603 82.7754C110.205 82.9754 109.758 83.059 109.315 83.0165C108.871 82.974 108.448 82.8072 108.095 82.5352C107.742 82.2631 107.473 81.897 107.319 81.4789C107.164 81.0607 107.131 80.6075 107.223 80.1714L107.499 78.8434C107.536 78.7538 107.582 78.6681 107.635 78.5874L107.803 78.3074L108.147 77.7354C108.383 77.3594 108.599 76.9714 108.819 76.5914C109.039 76.2114 109.243 75.8314 109.447 75.4554C109.651 75.0794 109.847 74.7074 110.015 74.3314C110.685 73.0095 111.17 71.6016 111.455 70.1474L111.231 71.4674C111.182 70.9928 111.099 70.5222 110.983 70.0594C110.851 69.5414 110.689 69.0312 110.499 68.5314C110.303 68.0114 110.055 67.4794 109.791 66.9314C109.527 66.3834 109.231 65.8514 108.915 65.3314C108.271 64.2594 107.555 63.1754 106.771 62.1314C106.371 61.5994 105.971 61.0834 105.571 60.5674L104.947 59.7994L104.395 59.1434L104.191 58.8994C103.358 57.8999 102.942 56.6175 103.031 55.3193C103.12 54.0211 103.707 52.8073 104.668 51.9307C105.63 51.0541 106.893 50.5824 108.194 50.6138C109.494 50.6452 110.733 51.1774 111.651 52.0994V52.1114Z" fill="#D57B70"/>
<path d="M104.719 45.7995C115.023 49.3995 120.643 66.0155 120.643 66.0155C119.599 68.9995 113.799 70.8835 110.347 70.5515C110.347 70.5515 99.8828 58.7595 98.4468 53.6595C97.1148 48.9395 100.027 44.1355 104.719 45.7995Z" fill="#263238"/>
<path d="M108.627 69.136C109.307 70.264 109.827 71.092 110.835 71.316C111.863 71.192 119.339 70.592 120.643 69.336C121.947 68.08 121.167 65.576 120.243 63.368C116.527 62.364 113.243 67.604 108.627 69.136Z" fill="#263238"/>
<path opacity="0.2" d="M108.627 69.136C109.307 70.264 109.827 71.092 110.835 71.316C111.863 71.192 119.339 70.592 120.643 69.336C121.947 68.08 121.167 65.576 120.243 63.368C116.527 62.364 113.243 67.604 108.627 69.136Z" fill="white"/>
<path d="M109.444 78.4321L110.644 81.0881C110.844 84.1481 106.864 83.7201 106.864 83.7201L104.864 84.2881C104.505 84.3649 104.132 84.3122 103.809 84.1394C103.486 83.9665 103.234 83.6847 103.1 83.3441L102.244 81.4921C102.04 81.1234 101.991 80.6895 102.105 80.2844C102.22 79.8794 102.489 79.5357 102.856 79.3281L104.496 78.5561C104.971 78.3324 105.495 78.2294 106.02 78.2561L109.444 78.4321Z" fill="#D57B70"/>
<path d="M98.5984 66.0556L95.8704 65.4476C95.6891 65.4056 95.5317 65.2939 95.4321 65.1367C95.3326 64.9795 95.2989 64.7894 95.3384 64.6076V64.6076C95.3795 64.4256 95.4908 64.2672 95.6481 64.1668C95.8054 64.0665 95.996 64.0322 96.1784 64.0716L98.9064 64.6796C99.0885 64.7216 99.2467 64.8339 99.3463 64.992C99.446 65.1501 99.4791 65.3412 99.4384 65.5236V65.5236C99.3973 65.7054 99.2859 65.8635 99.1284 65.9633C98.9709 66.063 98.7803 66.0962 98.5984 66.0556V66.0556Z" fill="white"/>
<path d="M96.4388 67.8555L96.5508 64.6555C96.5614 64.4467 96.6491 64.2494 96.7969 64.1016C96.9447 63.9538 97.142 63.8661 97.3508 63.8555V63.8555C97.4539 63.8553 97.5559 63.8762 97.6506 63.9169C97.7453 63.9576 97.8307 64.0173 97.9015 64.0922C97.9723 64.1671 98.0271 64.2558 98.0624 64.3526C98.0977 64.4495 98.1128 64.5525 98.1068 64.6555L97.9948 67.8555C97.9841 68.0642 97.8964 68.2616 97.7487 68.4093C97.6009 68.5571 97.4035 68.6448 97.1948 68.6555V68.6555C97.0917 68.6556 96.9896 68.6347 96.8949 68.594C96.8002 68.5533 96.7148 68.4936 96.644 68.4187C96.5732 68.3438 96.5185 68.2552 96.4832 68.1583C96.4479 68.0614 96.4328 67.9584 96.4388 67.8555V67.8555Z" fill="white"/>
<path d="M100.364 44.8519C99.4715 45.7799 96.5555 51.3199 96.2835 64.6839C96.2813 64.7218 96.2909 64.7595 96.311 64.7917C96.331 64.8239 96.3606 64.8491 96.3955 64.8639C96.9935 65.0814 97.6073 65.2526 98.2315 65.3759C98.2581 65.3819 98.2857 65.3818 98.3123 65.3758C98.3389 65.3697 98.3638 65.3579 98.3852 65.341C98.4067 65.3242 98.4241 65.3028 98.4363 65.2784C98.4484 65.254 98.455 65.2272 98.4555 65.1999C98.5395 63.3959 99.2235 50.8599 102.404 45.3639C102.417 45.3401 102.426 45.3134 102.428 45.2858C102.43 45.2583 102.426 45.2307 102.416 45.2049C102.406 45.1792 102.39 45.156 102.37 45.1372C102.35 45.1183 102.326 45.1042 102.3 45.0959C101.716 44.9053 101.106 44.8055 100.492 44.7999C100.468 44.799 100.444 44.8032 100.422 44.8122C100.4 44.8211 100.38 44.8347 100.364 44.8519Z" fill="#FFC100"/>
<path d="M71.8305 86.6434C71.8305 86.6434 71.4305 88.3074 72.0065 89.6394C80.9105 92.0394 100.187 91.2394 108.171 89.5354C108.266 88.5197 108.095 87.4967 107.675 86.5674C107.675 86.5674 97.2145 88.2274 87.1345 87.9754C77.0545 87.7234 71.8305 86.6434 71.8305 86.6434Z" fill="#263238"/>
<path d="M77.9914 86.504C77.4434 87.972 77.7074 90.832 77.9914 91.356C79.3274 91.828 79.7954 91.68 79.7954 91.68C79.7954 91.68 79.3634 88.12 79.7954 86.748C79.2164 86.5468 78.603 86.4638 77.9914 86.504V86.504Z" fill="#FFC100"/>
<path d="M97.8001 87.0479C98.3481 88.512 98.0841 91.376 97.8001 91.9C96.4641 92.368 95.9961 92.224 95.9961 92.224C95.9961 92.224 96.4281 88.664 95.9961 87.2919C96.575 87.0907 97.1885 87.0077 97.8001 87.0479Z" fill="#FFC100"/>
<path d="M96.1994 30.048C94.6314 29.98 90.4554 28.792 90.4554 28.792C90.8246 28.5431 91.2462 28.383 91.6874 28.324C89.5914 28.36 88.4874 29.396 85.5234 28.812C85.9594 28.012 88.3234 26.844 91.3874 27.356C93.2494 27.6842 94.9454 28.6331 96.1994 30.048V30.048Z" fill="#263238"/>
<path d="M50.2385 44.1319C48.5385 42.9759 48.3145 44.6839 48.3145 44.6839C48.3145 53.3999 54.2225 146.436 54.7625 154.884C54.7586 155.035 54.8116 155.181 54.9109 155.295C55.0102 155.408 55.1486 155.48 55.2985 155.496H56.1985C56.2772 155.486 56.3531 155.461 56.4216 155.421C56.4902 155.381 56.55 155.328 56.5975 155.264C56.6449 155.201 56.6791 155.128 56.6978 155.051C56.7165 154.974 56.7195 154.894 56.7065 154.816C56.1345 145.924 50.2185 52.8279 50.2385 44.1319Z" fill="#FFC100"/>
<path d="M49.6913 52.4196C49.324 52.4387 48.9562 52.3954 48.6033 52.2916C48.4972 52.2548 48.4054 52.1855 48.3408 52.0936C48.2762 52.0018 48.2421 51.8919 48.2433 51.7796C48.1473 50.0316 47.7713 43.3116 47.6593 42.3756C45.4153 42.6356 42.2233 43.7796 40.5433 36.5036C38.8633 29.2276 38.7353 20.5556 38.1953 17.7436C40.2273 19.6516 41.2633 27.7916 41.9833 31.9236C42.7033 36.0556 43.7153 37.9476 45.3273 37.8836C46.9393 37.8196 48.1273 36.4036 47.4833 31.2396C46.8393 26.0756 44.9993 15.8876 44.4073 13.9316C46.3873 14.7876 49.0113 24.0116 49.8193 31.7116C50.6273 39.4116 53.0193 37.7596 54.2513 36.4036C55.4833 35.0476 53.4193 20.2036 52.7033 17.0916C54.5473 20.1036 55.1033 23.3116 55.9633 29.5316C56.8233 35.7516 58.3633 42.1236 50.5113 42.0236C50.6673 43.8156 50.9673 49.9116 51.0513 51.6956C51.0683 51.8188 51.04 51.9439 50.9715 52.0477C50.9031 52.1515 50.7992 52.2268 50.6793 52.2596L49.6913 52.4196Z" fill="#FFC100"/>
<path opacity="0.6" d="M49.6913 52.4196C49.324 52.4387 48.9562 52.3954 48.6033 52.2916C48.4972 52.2548 48.4054 52.1855 48.3408 52.0936C48.2762 52.0018 48.2421 51.8919 48.2433 51.7796C48.1473 50.0316 47.7713 43.3116 47.6593 42.3756C45.4153 42.6356 42.2233 43.7796 40.5433 36.5036C38.8633 29.2276 38.7353 20.5556 38.1953 17.7436C40.2273 19.6516 41.2633 27.7916 41.9833 31.9236C42.7033 36.0556 43.7153 37.9476 45.3273 37.8836C46.9393 37.8196 48.1273 36.4036 47.4833 31.2396C46.8393 26.0756 44.9993 15.8876 44.4073 13.9316C46.3873 14.7876 49.0113 24.0116 49.8193 31.7116C50.6273 39.4116 53.0193 37.7596 54.2513 36.4036C55.4833 35.0476 53.4193 20.2036 52.7033 17.0916C54.5473 20.1036 55.1033 23.3116 55.9633 29.5316C56.8233 35.7516 58.3633 42.1236 50.5113 42.0236C50.6673 43.8156 50.9673 49.9116 51.0513 51.6956C51.0683 51.8188 51.04 51.9439 50.9715 52.0477C50.9031 52.1515 50.7992 52.2268 50.6793 52.2596L49.6913 52.4196Z" fill="white"/>
</g>
<defs>
<clipPath id="clip0_437_8723">
<rect width="165" height="89" fill="white"/>
</clipPath>
</defs>
</svg>
