<svg width="86" height="41" viewBox="0 0 86 41" fill="none" xmlns="http://www.w3.org/2000/svg">
<g opacity="0.8">
<rect x="0.252199" y="0.252199" width="40.3519" height="40.3519" rx="10" fill="white"/>
<path d="M27.3613 26.599L27.3611 26.5988L25.4238 24.6655C26.4393 23.477 27.0536 21.9347 27.0536 20.2519C27.0536 16.5011 24.0031 13.4506 20.2523 13.4506C16.5015 13.4506 13.4503 16.5011 13.4503 20.2519C13.4503 24.0027 16.5015 27.0539 20.2523 27.0539C21.7754 27.0539 23.1834 26.5505 24.3181 25.7017L26.292 27.6701L26.2924 27.6705C26.4402 27.8173 26.634 27.891 26.8266 27.891C27.0191 27.891 27.2145 27.8177 27.3626 27.6679C27.658 27.3719 27.6562 26.8939 27.3613 26.599ZM14.9635 20.2519C14.9635 17.3359 17.3362 14.9638 20.2523 14.9638C23.1677 14.9638 25.5404 17.3359 25.5404 20.2519C25.5404 23.168 23.1676 25.5407 20.2523 25.5407C17.3363 25.5407 14.9635 23.168 14.9635 20.2519Z" fill="black" stroke="black" stroke-width="0.5"/>
<rect x="0.252199" y="0.252199" width="40.3519" height="40.3519" rx="10" stroke="#CFD8DC" stroke-width="0.5"/>
</g>
<g opacity="0.8">
<rect x="45.6481" y="0.252199" width="40.3519" height="40.3519" rx="10" fill="#118B63"/>
<path fill-rule="evenodd" clip-rule="evenodd" d="M61.8312 16.435V16.3342C61.8312 14.5119 63.065 12.9207 64.8299 12.4669C65.4823 12.2991 66.1665 12.2991 66.8188 12.4669C68.5838 12.9207 69.8175 14.5119 69.8175 16.3342V16.435H71.0795C71.5597 16.435 71.9673 16.7872 72.037 17.2624L72.2208 18.5171C72.5827 20.9873 72.5827 23.4971 72.2208 25.9674C72.046 27.1603 71.084 28.0826 69.8848 28.207L69.3561 28.2618C67.0079 28.5053 64.6408 28.5053 62.2926 28.2618L61.764 28.207C60.5647 28.0826 59.6028 27.1603 59.428 25.9674C59.066 23.4971 59.066 20.9873 59.428 18.5171L59.6118 17.2624C59.6814 16.7872 60.089 16.435 60.5693 16.435H61.8312ZM65.144 13.6882C65.5903 13.5734 66.0585 13.5734 66.5048 13.6882C67.7124 13.9987 68.5565 15.0874 68.5565 16.3342V16.435H63.0922V16.3342C63.0922 15.0874 63.9364 13.9987 65.144 13.6882ZM61.8312 17.696V19.5875C61.8312 19.9357 62.1135 20.218 62.4617 20.218C62.8099 20.218 63.0922 19.9357 63.0922 19.5875V17.696H68.5565V19.5875C68.5565 19.9357 68.8388 20.218 69.187 20.218C69.5353 20.218 69.8175 19.9357 69.8175 19.5875V17.696H70.826L70.9731 18.6999C71.3173 21.0489 71.3173 23.4356 70.9731 25.7846C70.8819 26.4068 70.3802 26.8878 69.7547 26.9527L69.2261 27.0075C66.9643 27.2421 64.6844 27.2421 62.4227 27.0075L61.894 26.9527C61.2686 26.8878 60.7668 26.4068 60.6757 25.7846C60.3315 23.4356 60.3315 21.0489 60.6757 18.6999L60.8227 17.696H61.8312Z" fill="white" stroke="white" stroke-width="0.5" stroke-linecap="round"/>
</g>
</svg>
