<svg width="41" height="41" viewBox="0 0 41 41" fill="none" xmlns="http://www.w3.org/2000/svg">
<g opacity="0.8">
<rect x="0.5" y="0.5" width="40" height="40" rx="10" fill="white"/>
<path d="M21.0983 12.167C21.7285 12.167 22.2991 12.517 22.6142 13.0337C22.7675 13.2837 22.8697 13.592 22.8442 13.917C22.8272 14.167 22.9038 14.417 23.0401 14.6503C23.4744 15.3587 24.4367 15.6253 25.1862 15.2253C26.0293 14.742 27.0938 15.0337 27.5793 15.8587L28.1498 16.842C28.6438 17.667 28.3713 18.7253 27.5196 19.2003C26.7958 19.6253 26.5403 20.567 26.9746 21.2837C27.1109 21.5087 27.2641 21.7003 27.5026 21.817C27.8007 21.9753 28.0306 22.2253 28.1924 22.4753C28.5075 22.992 28.482 23.6253 28.1754 24.1837L27.5793 25.1837C27.2641 25.717 26.6765 26.0503 26.0719 26.0503C25.7738 26.0503 25.4417 25.967 25.1691 25.8003C24.9477 25.6587 24.6922 25.6087 24.4197 25.6087C23.5766 25.6087 22.8697 26.3003 22.8442 27.1253C22.8442 28.0837 22.0607 28.8337 21.0813 28.8337H19.9231C18.9352 28.8337 18.1517 28.0837 18.1517 27.1253C18.1347 26.3003 17.4278 25.6087 16.5847 25.6087C16.3037 25.6087 16.0482 25.6587 15.8353 25.8003C15.5627 25.967 15.2221 26.0503 14.9325 26.0503C14.3194 26.0503 13.7317 25.717 13.4166 25.1837L12.829 24.1837C12.5139 23.642 12.4969 22.992 12.812 22.4753C12.9482 22.2253 13.2037 21.9753 13.4933 21.817C13.7317 21.7003 13.885 21.5087 14.0298 21.2837C14.4556 20.567 14.2001 19.6253 13.4762 19.2003C12.6331 18.7253 12.3606 17.667 12.846 16.842L13.4166 15.8587C13.9106 15.0337 14.9666 14.742 15.8182 15.2253C16.5591 15.6253 17.5215 15.3587 17.9558 14.6503C18.0921 14.417 18.1687 14.167 18.1517 13.917C18.1347 13.592 18.2283 13.2837 18.3902 13.0337C18.7053 12.517 19.2758 12.1837 19.8975 12.167H21.0983ZM20.5107 18.1503C19.1737 18.1503 18.0921 19.2003 18.0921 20.5087C18.0921 21.817 19.1737 22.8587 20.5107 22.8587C21.8478 22.8587 22.9038 21.817 22.9038 20.5087C22.9038 19.2003 21.8478 18.1503 20.5107 18.1503Z" fill="black"/>
<rect x="0.5" y="0.5" width="40" height="40" rx="10" stroke="#CFD8DC"/>
</g>
</svg>
