<svg width="94" height="34" viewBox="0 0 94 34" fill="none" xmlns="http://www.w3.org/2000/svg">
<rect width="93.4558" height="34" rx="8" fill="#B3E0D0"/>
<path d="M20.912 11.88V23H19.088V15.384L15.696 23H14.432L11.024 15.384V23H9.2V11.88H11.168L15.072 20.6L18.96 11.88H20.912ZM25.0374 13.016C24.7067 13.016 24.4294 12.904 24.2054 12.68C23.9814 12.456 23.8694 12.1787 23.8694 11.848C23.8694 11.5173 23.9814 11.24 24.2054 11.016C24.4294 10.792 24.7067 10.68 25.0374 10.68C25.3574 10.68 25.6294 10.792 25.8534 11.016C26.0774 11.24 26.1894 11.5173 26.1894 11.848C26.1894 12.1787 26.0774 12.456 25.8534 12.68C25.6294 12.904 25.3574 13.016 25.0374 13.016ZM25.9334 14.184V23H24.1094V14.184H25.9334ZM30.9521 11.16V23H29.1281V11.16H30.9521ZM35.9709 11.16V23H34.1469V11.16H35.9709ZM47.2456 18.376C47.2456 18.7067 47.2243 19.0053 47.1816 19.272H40.4456C40.499 19.976 40.7603 20.5413 41.2296 20.968C41.699 21.3947 42.275 21.608 42.9576 21.608C43.939 21.608 44.6323 21.1973 45.0376 20.376H47.0056C46.739 21.1867 46.2536 21.8533 45.5496 22.376C44.8563 22.888 43.9923 23.144 42.9576 23.144C42.115 23.144 41.3576 22.9573 40.6856 22.584C40.0243 22.2 39.5016 21.6667 39.1176 20.984C38.7443 20.2907 38.5576 19.4907 38.5576 18.584C38.5576 17.6773 38.739 16.8827 39.1016 16.2C39.475 15.5067 39.9923 14.9733 40.6536 14.6C41.3256 14.2267 42.0936 14.04 42.9576 14.04C43.7896 14.04 44.531 14.2213 45.1816 14.584C45.8323 14.9467 46.339 15.4587 46.7016 16.12C47.0643 16.7707 47.2456 17.5227 47.2456 18.376ZM45.3416 17.8C45.331 17.128 45.091 16.5893 44.6216 16.184C44.1523 15.7787 43.571 15.576 42.8776 15.576C42.2483 15.576 41.7096 15.7787 41.2616 16.184C40.8136 16.5787 40.547 17.1173 40.4616 17.8H45.3416ZM51.9686 15.672V20.552C51.9686 20.8827 52.0433 21.1227 52.1926 21.272C52.3526 21.4107 52.6193 21.48 52.9926 21.48H54.1126V23H52.6726C51.8513 23 51.222 22.808 50.7846 22.424C50.3473 22.04 50.1286 21.416 50.1286 20.552V15.672H49.0886V14.184H50.1286V11.992H51.9686V14.184H54.1126V15.672H51.9686Z" fill="black"/>
<rect x="78.0312" y="9.57532" width="2" height="18" rx="1" transform="rotate(45 78.0312 9.57532)" fill="black"/>
<rect x="80.1523" y="22.3033" width="2" height="18" rx="1" transform="rotate(135 80.1523 22.3033)" fill="black"/>
</svg>
