<svg width="85" height="40" viewBox="0 0 85 40" fill="none" xmlns="http://www.w3.org/2000/svg">
<g opacity="0.8">
<rect width="40" height="40" rx="10" fill="#ECEFF1"/>
<path d="M26.8727 26.117L26.8725 26.1169L24.9521 24.2004C25.9587 23.0222 26.5677 21.4935 26.5677 19.8253C26.5677 16.1073 23.5437 13.0833 19.8257 13.0833C16.1076 13.0833 13.083 16.1072 13.083 19.8253C13.083 23.5434 16.1076 26.568 19.8257 26.568C21.3355 26.568 22.7313 26.069 23.8561 25.2276L25.8127 27.1788L25.8131 27.1792C25.9596 27.3247 26.1517 27.3978 26.3426 27.3978C26.5335 27.3978 26.7271 27.3252 26.874 27.1767C27.1668 26.8832 27.165 26.4094 26.8727 26.117ZM14.583 19.8253C14.583 16.9348 16.935 14.5833 19.8257 14.5833C22.7156 14.5833 25.0677 16.9348 25.0677 19.8253C25.0677 22.716 22.7156 25.068 19.8257 25.068C16.9351 25.068 14.583 22.7159 14.583 19.8253Z" fill="black" stroke="black" stroke-width="0.5"/>
</g>
<g opacity="0.8">
<rect x="45" width="40" height="40" rx="10" fill="#ECEFF1"/>
<path fill-rule="evenodd" clip-rule="evenodd" d="M61.042 16.0417V15.9418C61.042 14.1353 62.265 12.558 64.0146 12.1081C64.6612 11.9419 65.3395 11.9419 65.9861 12.1081C67.7357 12.558 68.9587 14.1353 68.9587 15.9418V16.0417H70.2096C70.6857 16.0417 71.0897 16.3908 71.1587 16.8618L71.341 18.1056C71.6997 20.5543 71.6997 23.0422 71.341 25.4909C71.1677 26.6734 70.2141 27.5877 69.0253 27.7109L68.5013 27.7653C66.1736 28.0067 63.8271 28.0067 61.4994 27.7653L60.9753 27.7109C59.7866 27.5877 58.833 26.6734 58.6597 25.4909C58.3009 23.0422 58.3009 20.5543 58.6597 18.1056L58.8419 16.8618C58.911 16.3908 59.315 16.0417 59.7911 16.0417H61.042ZM64.3259 13.3188C64.7683 13.205 65.2324 13.205 65.6748 13.3188C66.8719 13.6266 67.7087 14.7058 67.7087 15.9418V16.0417H62.292V15.9418C62.292 14.7058 63.1288 13.6266 64.3259 13.3188ZM61.042 17.2917V19.1667C61.042 19.5118 61.3218 19.7917 61.667 19.7917C62.0122 19.7917 62.292 19.5118 62.292 19.1667V17.2917H67.7087V19.1667C67.7087 19.5118 67.9885 19.7917 68.3337 19.7917C68.6788 19.7917 68.9587 19.5118 68.9587 19.1667V17.2917H69.9584L70.1042 18.2868C70.4453 20.6153 70.4453 22.9812 70.1042 25.3097C70.0138 25.9265 69.5164 26.4033 68.8964 26.4676L68.3723 26.5219C66.1303 26.7545 63.8703 26.7545 61.6283 26.5219L61.1043 26.4676C60.4842 26.4033 59.9869 25.9265 59.8965 25.3097C59.5553 22.9812 59.5553 20.6153 59.8965 18.2868L60.0423 17.2917H61.042Z" fill="black" stroke="black" stroke-width="0.5" stroke-linecap="round"/>
</g>
</svg>
