<svg width="40" height="40" viewBox="0 0 40 40" fill="none" xmlns="http://www.w3.org/2000/svg">
<rect width="40" height="40" rx="10" fill="#ECEFF1"/>
<rect x="21.4531" y="4.5" width="1.96479" height="7.42254" rx="0.982395" fill="url(#paint0_linear_579_8491)"/>
<rect x="21.4531" y="28.0781" width="1.96479" height="7.42254" rx="0.982395" fill="url(#paint1_linear_579_8491)"/>
<rect x="26.8125" y="5.09863" width="1.96479" height="7.42254" rx="0.982395" transform="rotate(20 26.8125 5.09863)" fill="url(#paint2_linear_579_8491)"/>
<rect x="18.75" y="27.2539" width="1.96479" height="7.42254" rx="0.982395" transform="rotate(20 18.75 27.2539)" fill="url(#paint3_linear_579_8491)"/>
<rect x="16.4902" y="25.5566" width="1.96479" height="7.42254" rx="0.982395" transform="rotate(40 16.4902 25.5566)" fill="#D3B171"/>
<rect x="14.9492" y="23.1875" width="1.96479" height="7.42254" rx="0.982395" transform="rotate(60 14.9492 23.1875)" fill="url(#paint4_linear_579_8491)"/>
<rect x="14.3105" y="20.4355" width="1.96479" height="7.42254" rx="0.982395" transform="rotate(80 14.3105 20.4355)" fill="url(#paint5_linear_579_8491)"/>
<rect x="14.6504" y="17.6299" width="1.96479" height="7.42254" rx="0.982395" transform="rotate(100 14.6504 17.6299)" fill="#D3B171"/>
<rect x="17.9961" y="13.1816" width="1.96479" height="7.42254" rx="0.982395" transform="rotate(140 17.9961 13.1816)" fill="url(#paint6_linear_579_8491)"/>
<rect x="28.6602" y="34.2285" width="1.96479" height="7.42254" rx="0.982395" transform="rotate(160 28.6602 34.2285)" fill="#D3B171"/>
<rect x="20.5957" y="12.0732" width="1.96479" height="7.42254" rx="0.982395" transform="rotate(160 20.5957 12.0732)" fill="#D3B171"/>
<rect x="15.9316" y="15.1104" width="1.96479" height="7.42254" rx="0.982395" transform="rotate(120 15.9316 15.1104)" fill="url(#paint7_linear_579_8491)"/>
<path d="M24.5807 16.0059C24.1894 16.0059 23.8495 16.0268 23.5612 16.0478C23.2729 16.0687 23.036 16.1001 22.8403 16.142C22.6344 16.1839 22.4696 16.2363 22.346 16.2991C22.2122 16.3619 22.0989 16.4248 22.0165 16.4876C21.6973 16.7809 21.5428 17.3045 21.5428 18.0481C21.5428 18.467 21.5634 18.8127 21.6149 19.0954C21.6561 19.3887 21.687 19.64 21.687 19.86C21.687 19.9438 21.6767 20.0485 21.6664 20.1846C21.6458 20.3208 21.6355 20.4674 21.6149 20.635C21.5943 20.8025 21.584 20.9806 21.5737 21.1586C21.5531 21.3472 21.5531 21.5147 21.5531 21.6718C21.5531 21.787 21.6046 21.8394 21.7282 21.8394C22.0165 21.8394 22.346 21.8394 22.7374 21.8289C23.1184 21.8289 23.4891 21.8184 23.8598 21.8184C24.107 21.8184 24.3027 21.8289 24.4674 21.8289C24.6322 21.8289 24.7558 21.8394 24.8588 21.8394C24.9617 21.8394 25.0338 21.8499 25.075 21.8499C25.1162 21.8603 25.1471 21.8708 25.1677 21.8708C25.2501 21.9022 25.3016 22.007 25.3016 22.1745C25.3016 22.384 25.2501 22.5201 25.1471 22.583C25.0956 22.6353 24.9514 22.6772 24.7146 22.7087C24.4777 22.7401 24.1276 22.7505 23.6745 22.7505C23.2626 22.7505 22.8815 22.7401 22.5314 22.7087C22.1813 22.6877 21.8929 22.6563 21.6561 22.6249C21.5943 22.6249 21.5531 22.6458 21.5222 22.6668C21.481 22.6877 21.4707 22.7296 21.4707 22.782C21.481 22.981 21.5222 23.1799 21.5943 23.3789C21.6561 23.5884 21.759 23.735 21.9032 23.8293C22.0371 23.9445 22.2842 24.0283 22.6447 24.0806C23.0051 24.133 23.4685 24.1539 24.0452 24.1539C24.694 24.1539 25.2192 24.1121 25.6105 24.0178C26.0018 23.9235 26.3005 23.7979 26.5064 23.6303C26.6506 23.5046 26.7845 23.2952 26.8978 23.0019C27.0007 22.7087 27.0625 22.3316 27.0625 21.8918C27.0625 21.5566 27.0213 21.2948 26.9595 21.1063C26.8875 20.9178 26.8051 20.7921 26.7124 20.7083C26.5991 20.6455 26.3932 20.5826 26.0945 20.5407C25.7856 20.4988 25.3325 20.4779 24.7249 20.4779C24.4159 20.4779 24.1276 20.4884 23.8804 20.4884C23.623 20.4884 23.4479 20.4884 23.3449 20.4884C23.242 20.4988 23.2008 20.4465 23.2008 20.3417C23.2008 20.2579 23.2008 20.1742 23.2111 20.0904C23.2214 20.0066 23.242 19.9542 23.2832 19.9333C23.3243 19.9123 23.3964 19.9019 23.5097 19.8914C23.623 19.8809 23.8289 19.8704 24.1173 19.86C24.4468 19.86 24.7249 19.839 24.9514 19.8076C25.178 19.7867 25.384 19.7552 25.5487 19.7133C25.7135 19.6715 25.8474 19.6296 25.9503 19.5667C26.0533 19.5144 26.146 19.4515 26.2284 19.3782C26.4755 19.1583 26.6506 18.7708 26.7639 18.2262C26.8772 17.6816 26.939 17.0427 26.939 16.3096C26.939 16.2048 26.8772 16.142 26.7536 16.1211C26.527 16.1001 26.2284 16.0792 25.8577 16.0478C25.4766 16.0268 25.0544 16.0059 24.5807 16.0059ZM23.2317 17.9853C23.2317 17.7444 23.2832 17.5768 23.3861 17.4721C23.4891 17.3674 23.7878 17.315 24.2924 17.315C24.4674 17.315 24.6013 17.3255 24.7043 17.3255C24.8073 17.3359 24.8999 17.3464 25.0029 17.3569C25.0647 17.3778 25.1059 17.3988 25.1265 17.4302C25.1471 17.4721 25.1574 17.514 25.1574 17.5664C25.1574 17.7758 25.1265 17.9643 25.075 18.111C25.0235 18.2576 24.9514 18.3623 24.8691 18.4147C24.8176 18.4566 24.7146 18.4985 24.5704 18.5404C24.4262 18.5822 24.1894 18.6032 23.8598 18.6032C23.7363 18.6032 23.6333 18.6032 23.5303 18.6032C23.4273 18.6032 23.3655 18.5822 23.3449 18.5508C23.3038 18.5404 23.2832 18.4775 23.2626 18.3623C23.242 18.2576 23.2317 18.1319 23.2317 17.9853Z" fill="url(#paint8_linear_579_8491)"/>
<defs>
<linearGradient id="paint0_linear_579_8491" x1="22.5418" y1="3.2555" x2="23.8062" y2="3.46064" gradientUnits="userSpaceOnUse">
<stop stop-color="#21675A"/>
<stop offset="1" stop-color="#29766F"/>
</linearGradient>
<linearGradient id="paint1_linear_579_8491" x1="22.5418" y1="26.8336" x2="23.8062" y2="27.0388" gradientUnits="userSpaceOnUse">
<stop stop-color="#21675A"/>
<stop offset="1" stop-color="#29766F"/>
</linearGradient>
<linearGradient id="paint2_linear_579_8491" x1="27.9012" y1="3.85414" x2="29.1656" y2="4.05928" gradientUnits="userSpaceOnUse">
<stop stop-color="#21675A"/>
<stop offset="1" stop-color="#29766F"/>
</linearGradient>
<linearGradient id="paint3_linear_579_8491" x1="19.8387" y1="26.0094" x2="21.1031" y2="26.2145" gradientUnits="userSpaceOnUse">
<stop stop-color="#21675A"/>
<stop offset="1" stop-color="#29766F"/>
</linearGradient>
<linearGradient id="paint4_linear_579_8491" x1="16.0379" y1="21.943" x2="17.3023" y2="22.1481" gradientUnits="userSpaceOnUse">
<stop stop-color="#21675A"/>
<stop offset="1" stop-color="#29766F"/>
</linearGradient>
<linearGradient id="paint5_linear_579_8491" x1="15.3992" y1="19.191" x2="16.6636" y2="19.3962" gradientUnits="userSpaceOnUse">
<stop stop-color="#21675A"/>
<stop offset="1" stop-color="#29766F"/>
</linearGradient>
<linearGradient id="paint6_linear_579_8491" x1="19.0848" y1="11.9371" x2="20.3492" y2="12.1423" gradientUnits="userSpaceOnUse">
<stop stop-color="#21675A"/>
<stop offset="1" stop-color="#29766F"/>
</linearGradient>
<linearGradient id="paint7_linear_579_8491" x1="17.0203" y1="13.8659" x2="18.2847" y2="14.071" gradientUnits="userSpaceOnUse">
<stop stop-color="#21675A"/>
<stop offset="1" stop-color="#29766F"/>
</linearGradient>
<linearGradient id="paint8_linear_579_8491" x1="24.5691" y1="14.6397" x2="27.7071" y2="15.9597" gradientUnits="userSpaceOnUse">
<stop stop-color="#21675A"/>
<stop offset="1" stop-color="#29766F"/>
</linearGradient>
</defs>
</svg>
