<svg width="41" height="41" viewBox="0 0 41 41" fill="none" xmlns="http://www.w3.org/2000/svg">
<g opacity="0.8">
<rect x="0.253086" y="0.253086" width="40.4938" height="40.4938" rx="10" fill="white"/>
<path d="M27.4586 26.6922L27.4584 26.692L25.5142 24.7519C26.5333 23.5592 27.1497 22.0116 27.1497 20.3228C27.1497 16.5589 24.0885 13.4976 20.3245 13.4976C16.5606 13.4976 13.4986 16.5588 13.4986 20.3228C13.4986 24.0868 16.5605 27.1488 20.3245 27.1488C21.853 27.1488 23.266 26.6436 24.4046 25.7918L26.3855 27.7671L26.3859 27.7675C26.5342 27.9148 26.7286 27.9888 26.9219 27.9888C27.1151 27.9888 27.3112 27.9153 27.4598 27.7649C27.7562 27.4678 27.7545 26.9882 27.4586 26.6922ZM15.0171 20.3228C15.0171 17.3966 17.3982 15.0161 20.3245 15.0161C23.2501 15.0161 25.6312 17.3966 25.6312 20.3228C25.6312 23.2492 23.2501 25.6302 20.3245 25.6302C17.3982 25.6302 15.0171 23.2491 15.0171 20.3228Z" fill="black" stroke="black" stroke-width="0.5"/>
<rect x="0.253086" y="0.253086" width="40.4938" height="40.4938" rx="10" stroke="#CFD8DC" stroke-width="0.5"/>
</g>
</svg>
