<svg width="16" height="16" viewBox="0 0 16 16" fill="none" xmlns="http://www.w3.org/2000/svg">
<path fill-rule="evenodd" clip-rule="evenodd" d="M2.16602 8.00002C2.16602 4.77836 4.77769 2.16669 7.99935 2.16669C11.221 2.16669 13.8327 4.77836 13.8327 8.00002C13.8327 11.2217 11.221 13.8334 7.99935 13.8334C4.77769 13.8334 2.16602 11.2217 2.16602 8.00002ZM8.66602 5.33335C8.66602 5.70154 8.36754 6.00002 7.99935 6.00002C7.63116 6.00002 7.33268 5.70154 7.33268 5.33335C7.33268 4.96516 7.63116 4.66669 7.99935 4.66669C8.36754 4.66669 8.66602 4.96516 8.66602 5.33335ZM7.99935 7.16669C8.27549 7.16669 8.49935 7.39054 8.49935 7.66669V11C8.49935 11.2762 8.27549 11.5 7.99935 11.5C7.72321 11.5 7.49935 11.2762 7.49935 11V7.66669C7.49935 7.39054 7.72321 7.16669 7.99935 7.16669Z" fill="#C39337"/>
</svg>
