<svg width="24" height="24" viewBox="0 0 24 24" fill="none" xmlns="http://www.w3.org/2000/svg">
<path fill-rule="evenodd" clip-rule="evenodd" d="M7.25002 7.24976V7.12988C7.25002 4.96214 8.71763 3.0694 10.8171 2.52954C11.5931 2.33 12.407 2.33 13.183 2.52954C15.2824 3.0694 16.75 4.96214 16.75 7.12988V7.24976H18.2511C18.8224 7.24976 19.3073 7.66874 19.3901 8.23398L19.6088 9.72644C20.0393 12.6649 20.0393 15.6504 19.6088 18.5889C19.4008 20.0079 18.2565 21.105 16.83 21.2529L16.2011 21.3181C13.4079 21.6078 10.5921 21.6078 7.79888 21.3181L7.17001 21.2529C5.74347 21.105 4.59918 20.0079 4.39127 18.5889C3.96072 15.6504 3.96072 12.6649 4.39127 9.72643L4.60994 8.23398C4.69276 7.66874 5.17761 7.24976 5.74889 7.24976H7.25002ZM11.1906 3.98228C11.7216 3.84575 12.2784 3.84575 12.8094 3.98228C14.2459 4.35166 15.25 5.64669 15.25 7.12988V7.24976H8.75002V7.12988C8.75002 5.64669 9.75417 4.35166 11.1906 3.98228ZM7.25002 8.74976V10.9998C7.25002 11.414 7.5858 11.7498 8.00002 11.7498C8.41423 11.7498 8.75002 11.414 8.75002 10.9998V8.74976H15.25V10.9998C15.25 11.414 15.5858 11.7498 16 11.7498C16.4142 11.7498 16.75 11.414 16.75 10.9998V8.74976H17.9496L18.1246 9.94389C18.534 12.7381 18.534 15.5772 18.1246 18.3714C18.0162 19.1115 17.4193 19.6837 16.6753 19.7609L16.0464 19.8261C13.356 20.1051 10.644 20.1051 7.95361 19.8261L7.32474 19.7609C6.5807 19.6837 5.98386 19.1115 5.87542 18.3714C5.46601 15.5772 5.46601 12.7381 5.87542 9.94389L6.05039 8.74976H7.25002Z" fill="#616161"/>
</svg>
