<svg width="30" height="30" viewBox="0 0 30 30" fill="none" xmlns="http://www.w3.org/2000/svg">
<rect width="30" height="30" rx="10" fill="white" fill-opacity="0.3"/>
<path d="M15.0002 9.5C13.6195 9.5 12.5002 10.6193 12.5002 12C12.5002 13.3807 13.6195 14.5 15.0002 14.5C16.3809 14.5 17.5002 13.3807 17.5002 12C17.5002 10.6193 16.3809 9.5 15.0002 9.5Z" fill="white"/>
<path d="M12.3335 15.8333C10.9528 15.8333 9.8335 16.9526 9.8335 18.3333V19.1255C9.8335 19.6277 10.1974 20.0558 10.693 20.1367C13.5456 20.6025 16.4548 20.6025 19.3073 20.1367C19.8029 20.0558 20.1668 19.6277 20.1668 19.1255V18.3333C20.1668 16.9526 19.0475 15.8333 17.6668 15.8333H17.4396C17.3166 15.8333 17.1944 15.8528 17.0774 15.891L16.5004 16.0794C15.5256 16.3977 14.4747 16.3977 13.4999 16.0794L12.9229 15.891C12.806 15.8528 12.6837 15.8333 12.5607 15.8333H12.3335Z" fill="white"/>
</svg>
