<svg width="30" height="30" viewBox="0 0 30 30" fill="none" xmlns="http://www.w3.org/2000/svg">
<rect width="30" height="30" rx="10" fill="white" fill-opacity="0.3"/>
<path d="M10.1996 10.2002C9.31595 10.2002 8.59961 10.9165 8.59961 11.8002V15.0002C8.59961 15.8839 9.31595 16.6002 10.1996 16.6002L10.1996 11.8002H18.1996C18.1996 10.9165 17.4833 10.2002 16.5996 10.2002H10.1996Z" fill="white"/>
<path fill-rule="evenodd" clip-rule="evenodd" d="M11.7996 15.0002C11.7996 14.1165 12.516 13.4002 13.3996 13.4002H19.7996C20.6833 13.4002 21.3996 14.1165 21.3996 15.0002V18.2002C21.3996 19.0839 20.6833 19.8002 19.7996 19.8002H13.3996C12.516 19.8002 11.7996 19.0839 11.7996 18.2002V15.0002ZM16.5996 18.2002C17.4833 18.2002 18.1996 17.4839 18.1996 16.6002C18.1996 15.7165 17.4833 15.0002 16.5996 15.0002C15.716 15.0002 14.9996 15.7165 14.9996 16.6002C14.9996 17.4839 15.716 18.2002 16.5996 18.2002Z" fill="white"/>
</svg>
