<svg width="16" height="16" viewBox="0 0 16 16" fill="none" xmlns="http://www.w3.org/2000/svg">
<path fill-rule="evenodd" clip-rule="evenodd" d="M2.16699 8.00002C2.16699 4.77836 4.77866 2.16669 8.00033 2.16669C11.222 2.16669 13.8337 4.77836 13.8337 8.00002C13.8337 11.2217 11.222 13.8334 8.00033 13.8334C4.77866 13.8334 2.16699 11.2217 2.16699 8.00002ZM8.66699 5.33335C8.66699 5.70154 8.36851 6.00002 8.00033 6.00002C7.63214 6.00002 7.33366 5.70154 7.33366 5.33335C7.33366 4.96516 7.63214 4.66669 8.00033 4.66669C8.36851 4.66669 8.66699 4.96516 8.66699 5.33335ZM8.00033 7.16669C8.27647 7.16669 8.50033 7.39054 8.50033 7.66669V11C8.50033 11.2762 8.27647 11.5 8.00033 11.5C7.72418 11.5 7.50033 11.2762 7.50033 11V7.66669C7.50033 7.39054 7.72418 7.16669 8.00033 7.16669Z" fill="#C39337"/>
</svg>
