<svg width="41" height="41" viewBox="0 0 41 41" fill="none" xmlns="http://www.w3.org/2000/svg">
<g opacity="0.8">
<rect x="0.5" y="0.5" width="40" height="40" rx="10" fill="white"/>
<path d="M27.3737 26.6167L27.3735 26.6165L25.453 24.7C26.4597 23.5219 27.0687 21.9931 27.0687 20.325C27.0687 16.6069 24.0447 13.583 20.3267 13.583C16.6086 13.583 13.584 16.6069 13.584 20.325C13.584 24.0431 16.6086 27.0677 20.3267 27.0677C21.8365 27.0677 23.2322 26.5686 24.357 25.7273L26.3137 27.6785L26.3141 27.6789C26.4606 27.8244 26.6527 27.8975 26.8436 27.8975C27.0344 27.8975 27.2281 27.8248 27.375 27.6763C27.6678 27.3829 27.666 26.909 27.3737 26.6167ZM15.084 20.325C15.084 17.4345 17.436 15.083 20.3267 15.083C23.2166 15.083 25.5687 17.4344 25.5687 20.325C25.5687 23.2156 23.2166 25.5677 20.3267 25.5677C17.4361 25.5677 15.084 23.2156 15.084 20.325Z" fill="black" stroke="black" stroke-width="0.5"/>
<rect x="0.5" y="0.5" width="40" height="40" rx="10" stroke="#CFD8DC"/>
</g>
</svg>
