<svg width="40" height="40" viewBox="0 0 40 40" fill="none" xmlns="http://www.w3.org/2000/svg">
<rect width="40" height="40" rx="10" fill="white" fill-opacity="0.15"/>
<path d="M21.8434 17.6554C22.2053 18.0725 22.8369 18.1173 23.254 17.7553C23.6712 17.3933 23.7159 16.7618 23.354 16.3446L21.8434 17.6554ZM18.1567 22.3446C17.7947 21.9275 17.1631 21.8827 16.746 22.2447C16.3288 22.6067 16.2841 23.2382 16.6461 23.6554L18.1567 22.3446ZM21 15C21 14.4477 20.5523 14 20 14C19.4477 14 19 14.4477 19 15H21ZM19 25C19 25.5523 19.4477 26 20 26C20.5523 26 21 25.5523 21 25L19 25ZM28 20C28 24.4183 24.4183 28 20 28V30C25.5228 30 30 25.5228 30 20H28ZM20 28C15.5817 28 12 24.4183 12 20H10C10 25.5228 14.4772 30 20 30V28ZM12 20C12 15.5817 15.5817 12 20 12V10C14.4772 10 10 14.4772 10 20H12ZM20 12C24.4183 12 28 15.5817 28 20H30C30 14.4772 25.5228 10 20 10V12ZM20 19C19.3415 19 18.7905 18.8202 18.4334 18.5822C18.0693 18.3394 18 18.1139 18 18H16C16 18.9907 16.6023 19.7651 17.324 20.2463C18.0526 20.732 19.0017 21 20 21V19ZM18 18C18 17.8861 18.0693 17.6606 18.4334 17.4178C18.7905 17.1798 19.3415 17 20 17V15C19.0017 15 18.0526 15.268 17.324 15.7537C16.6023 16.2349 16 17.0093 16 18H18ZM20 17C20.9038 17 21.563 17.3323 21.8434 17.6554L23.354 16.3446C22.5969 15.4721 21.3171 15 20 15V17ZM20 21C20.6585 21 21.2095 21.1798 21.5666 21.4178C21.9308 21.6606 22 21.8861 22 22H24C24 21.0093 23.3977 20.2348 22.676 19.7537C21.9474 19.268 20.9983 19 20 19V21ZM19 15V16H21V15H19ZM19 24L19 25L21 25L21 24L19 24ZM20 23C19.0962 23 18.437 22.6677 18.1567 22.3446L16.6461 23.6554C17.4032 24.5279 18.683 25 20 25L20 23ZM22 22C22 22.1139 21.9308 22.3394 21.5666 22.5822C21.2095 22.8202 20.6586 23 20 23V25C20.9983 25 21.9474 24.732 22.676 24.2463C23.3977 23.7651 24 22.9907 24 22H22ZM19 16L19 24L21 24L21 16L19 16Z" fill="white"/>
</svg>
