<svg width="41" height="41" viewBox="0 0 41 41" fill="none" xmlns="http://www.w3.org/2000/svg">
<g opacity="0.8">
<rect x="0.253086" y="0.253086" width="40.4938" height="40.4938" rx="10" fill="white"/>
<path d="M27.4566 26.6932L27.4564 26.693L25.5122 24.7529C26.5313 23.5602 27.1478 22.0125 27.1478 20.3238C27.1478 16.5599 24.0865 13.4986 20.3225 13.4986C16.5586 13.4986 13.4966 16.5598 13.4966 20.3238C13.4966 24.0878 16.5586 27.1497 20.3225 27.1497C21.851 27.1497 23.264 26.6446 24.4027 25.7928L26.3835 27.7681L26.3839 27.7685C26.5322 27.9158 26.7266 27.9898 26.9199 27.9898C27.1131 27.9898 27.3092 27.9162 27.4579 27.7659C27.7543 27.4688 27.7525 26.9891 27.4566 26.6932ZM15.0151 20.3238C15.0151 17.3976 17.3962 15.0171 20.3225 15.0171C23.2482 15.0171 25.6293 17.3976 25.6293 20.3238C25.6293 23.2501 23.2481 25.6312 20.3225 25.6312C17.3963 25.6312 15.0151 23.2501 15.0151 20.3238Z" fill="black" stroke="black" stroke-width="0.5"/>
<rect x="0.253086" y="0.253086" width="40.4938" height="40.4938" rx="10" stroke="#CFD8DC" stroke-width="0.5"/>
</g>
</svg>
