<svg width="28" height="78" viewBox="0 0 28 78" fill="none" xmlns="http://www.w3.org/2000/svg">
<rect width="7.7976" height="29.4576" rx="3.85526" fill="#006B47"/>
<rect x="21.2742" y="2.37639" width="7.7976" height="29.4576" rx="3.85526" transform="rotate(20 21.2742 2.37639)" fill="#006B47"/>
<path d="M12.4117 45.663C10.8587 45.663 9.50998 45.7462 8.36563 45.8293C7.22129 45.9124 6.28129 46.0371 5.50477 46.2034C4.68738 46.3696 4.03347 46.5775 3.54304 46.8268C3.01173 47.0762 2.56217 47.3256 2.23521 47.575C0.968259 48.7388 0.355218 50.817 0.355218 53.7681C0.355218 55.4307 0.436957 56.8023 0.641304 57.9245C0.804782 59.0883 0.92739 60.0859 0.92739 60.9587C0.92739 61.2912 0.886521 61.7069 0.845651 62.2472C0.763912 62.7876 0.723043 63.3695 0.641304 64.0345C0.559565 64.6995 0.518696 65.4061 0.477826 66.1127C0.396087 66.8609 0.396087 67.5259 0.396087 68.1494C0.396087 68.6066 0.600435 68.8144 1.09087 68.8144C2.23521 68.8144 3.54304 68.8144 5.09607 68.7728C6.60824 68.7728 8.07955 68.7313 9.55085 68.7313C10.5317 68.7313 11.3082 68.7728 11.9621 68.7728C12.6161 68.7728 13.1065 68.8144 13.5152 68.8144C13.9239 68.8144 14.21 68.856 14.3734 68.856C14.5369 68.8975 14.6595 68.9391 14.7413 68.9391C15.0682 69.0638 15.2726 69.4794 15.2726 70.1445C15.2726 70.9757 15.0682 71.5161 14.6595 71.7655C14.4552 71.9733 13.883 72.1395 12.943 72.2642C12.003 72.3889 10.6135 72.4305 8.8152 72.4305C7.18042 72.4305 5.66825 72.3889 4.27869 72.2642C2.88912 72.1811 1.74478 72.0564 0.804782 71.9317C0.559565 71.9317 0.396087 72.0148 0.273479 72.098C0.110001 72.1811 0.0691314 72.3474 0.0691314 72.5552C0.110001 73.3449 0.273479 74.1346 0.559565 74.9243C0.804782 75.7556 1.21348 76.3375 1.78565 76.7116C2.31695 77.1688 3.29782 77.5013 4.72825 77.7092C6.15868 77.917 7.99781 78.0001 10.2865 78.0001C12.8613 78.0001 14.9456 77.8339 16.4987 77.4598C18.0517 77.0857 19.2369 76.5869 20.0543 75.9219C20.6265 75.4231 21.1578 74.5918 21.6073 73.428C22.016 72.2642 22.2612 70.7679 22.2612 69.0222C22.2612 67.6922 22.0978 66.653 21.8526 65.9049C21.5665 65.1567 21.2395 64.658 20.8717 64.3254C20.4221 64.0761 19.6047 63.8267 18.4195 63.6604C17.1934 63.4941 15.3952 63.411 12.9839 63.411C11.7578 63.411 10.6135 63.4526 9.63258 63.4526C8.61085 63.4526 7.91607 63.4526 7.50737 63.4526C7.09868 63.4942 6.9352 63.2863 6.9352 62.8707C6.9352 62.5382 6.9352 62.2057 6.97607 61.8731C7.01694 61.5406 7.09868 61.3328 7.26216 61.2497C7.42563 61.1665 7.71172 61.125 8.16128 61.0834C8.61085 61.0419 9.42824 61.0003 10.5726 60.9587C11.8804 60.9587 12.9839 60.8756 13.883 60.7509C14.7821 60.6678 15.5995 60.5431 16.2534 60.3768C16.9073 60.2106 17.4387 60.0443 17.8473 59.7949C18.256 59.5871 18.6239 59.3377 18.9508 59.0468C19.9317 58.1739 20.6265 56.636 21.076 54.4747C21.5256 52.3133 21.7708 49.7779 21.7708 46.8684C21.7708 46.4528 21.5256 46.2034 21.0352 46.1202C20.136 46.0371 18.9508 45.954 17.4795 45.8293C15.9673 45.7462 14.2917 45.663 12.4117 45.663ZM7.05781 53.5187C7.05781 52.5627 7.26216 51.8977 7.67085 51.482C8.07955 51.0664 9.26476 50.8586 11.2674 50.8586C11.9621 50.8586 12.4934 50.9001 12.9021 50.9001C13.3108 50.9417 13.6787 50.9833 14.0874 51.0248C14.3326 51.108 14.496 51.1911 14.5778 51.3158C14.6595 51.482 14.7004 51.6483 14.7004 51.8561C14.7004 52.6874 14.5778 53.4356 14.3734 54.0175C14.1691 54.5994 13.883 55.015 13.5561 55.2228C13.3517 55.3891 12.943 55.5554 12.3708 55.7216C11.7987 55.8879 10.8587 55.971 9.55085 55.971C9.06041 55.971 8.65172 55.971 8.24302 55.971C7.83433 55.971 7.58911 55.8879 7.50737 55.7632C7.34389 55.7216 7.26216 55.4722 7.18042 55.015C7.09868 54.5994 7.05781 54.1006 7.05781 53.5187Z" fill="#006B47"/>
</svg>
