<svg width="20" height="20" viewBox="0 0 20 20" fill="none" xmlns="http://www.w3.org/2000/svg">
<path fill-rule="evenodd" clip-rule="evenodd" d="M14.9881 4.51971C11.673 4.14919 8.32686 4.14919 5.01172 4.51971C4.78742 4.54478 4.6794 4.80782 4.82135 4.9833L7.7522 8.60626C8.80211 9.9041 9.37491 11.5229 9.37491 13.1922V15.5999L10.6249 16.5166V13.1923C10.6249 11.5229 11.1977 9.9041 12.2476 8.60625L15.1785 4.9833C15.3204 4.80782 15.2124 4.54478 14.9881 4.51971ZM4.87288 3.27744C8.2803 2.89661 11.7195 2.89661 15.1269 3.27744C16.3327 3.41221 16.9134 4.8262 16.1503 5.76947L13.2194 9.39242C12.3495 10.4678 11.8749 11.8091 11.8749 13.1923V17.75C11.8749 17.9855 11.7425 18.201 11.5324 18.3075C11.3223 18.4139 11.0702 18.3933 10.8803 18.254L8.38031 16.4206C8.21976 16.3029 8.12491 16.1157 8.12491 15.9166V13.1922C8.12491 11.8091 7.65031 10.4678 6.78038 9.39243L3.84953 5.76947C3.08646 4.8262 3.66711 3.41221 4.87288 3.27744Z" fill="black"/>
</svg>
