<svg width="41" height="41" viewBox="0 0 41 41" fill="none" xmlns="http://www.w3.org/2000/svg">
<g opacity="0.8">
<rect x="0.253086" y="0.253086" width="40.4938" height="40.4938" rx="10" fill="white"/>
<path d="M27.4576 26.6927L27.4574 26.6925L25.5132 24.7524C26.5323 23.5597 27.1488 22.012 27.1488 20.3233C27.1488 16.5594 24.0875 13.4981 20.3235 13.4981C16.5596 13.4981 13.4976 16.5593 13.4976 20.3233C13.4976 24.0873 16.5595 27.1493 20.3235 27.1493C21.852 27.1493 23.265 26.6441 24.4037 25.7923L26.3845 27.7676L26.3849 27.768C26.5332 27.9153 26.7276 27.9893 26.9209 27.9893C27.1141 27.9893 27.3102 27.9158 27.4589 27.7654C27.7553 27.4683 27.7535 26.9886 27.4576 26.6927ZM15.0161 20.3233C15.0161 17.3971 17.3972 15.0166 20.3235 15.0166C23.2492 15.0166 25.6302 17.3971 25.6302 20.3233C25.6302 23.2496 23.2491 25.6307 20.3235 25.6307C17.3972 25.6307 15.0161 23.2496 15.0161 20.3233Z" fill="black" stroke="black" stroke-width="0.5"/>
<rect x="0.253086" y="0.253086" width="40.4938" height="40.4938" rx="10" stroke="#CFD8DC" stroke-width="0.5"/>
</g>
</svg>
