<svg width="86" height="41" viewBox="0 0 86 41" fill="none" xmlns="http://www.w3.org/2000/svg">
<g opacity="0.8">
<rect x="0.251462" y="0.251462" width="40.2339" height="40.2339" rx="10" fill="white"/>
<path d="M27.2813 26.5212L27.2811 26.521L25.3494 24.5933C26.362 23.4083 26.9745 21.8706 26.9745 20.1927C26.9745 16.4529 23.9329 13.4113 20.1931 13.4113C16.4533 13.4113 13.411 16.4529 13.411 20.1927C13.411 23.9325 16.4533 26.9748 20.1931 26.9748C21.7117 26.9748 23.1157 26.4729 24.247 25.6266L26.2152 27.5892L26.2155 27.5896C26.3629 27.7359 26.5561 27.8095 26.7481 27.8095C26.9401 27.8095 27.1349 27.7364 27.2826 27.587C27.5771 27.2919 27.5754 26.8152 27.2813 26.5212ZM14.9198 20.1927C14.9198 17.2853 17.2855 14.9201 20.1931 14.9201C23.0999 14.9201 25.4657 17.2852 25.4657 20.1927C25.4657 23.1002 23.0999 25.466 20.1931 25.466C17.2856 25.466 14.9198 23.1002 14.9198 20.1927Z" fill="black" stroke="black" stroke-width="0.5"/>
<rect x="0.251462" y="0.251462" width="40.2339" height="40.2339" rx="10" stroke="#CFD8DC" stroke-width="0.5"/>
</g>
<g opacity="0.8">
<rect x="45.5146" y="0.251462" width="40.2339" height="40.2339" rx="10" fill="white"/>
<path fill-rule="evenodd" clip-rule="evenodd" d="M61.6504 16.387V16.2865C61.6504 14.4695 62.8806 12.883 64.6404 12.4304C65.2908 12.2632 65.973 12.2632 66.6235 12.4304C68.3832 12.883 69.6134 14.4695 69.6134 16.2865V16.387H70.8717C71.3505 16.387 71.7569 16.7382 71.8263 17.2119L72.0096 18.4629C72.3705 20.926 72.3705 23.4284 72.0096 25.8915C71.8353 27.0809 70.8762 28.0005 69.6805 28.1245L69.1533 28.1791C66.812 28.4219 64.4518 28.4219 62.1105 28.1791L61.5834 28.1245C60.3876 28.0005 59.4285 27.0809 59.2542 25.8915C58.8933 23.4284 58.8933 20.926 59.2542 18.4629L59.4375 17.2119C59.5069 16.7382 59.9133 16.387 60.3922 16.387H61.6504ZM64.9535 13.6481C65.3985 13.5337 65.8653 13.5337 66.3103 13.6481C67.5144 13.9578 68.3561 15.0433 68.3561 16.2865V16.387H62.9077V16.2865C62.9077 15.0433 63.7494 13.9578 64.9535 13.6481ZM61.6504 17.6443V19.5302C61.6504 19.8774 61.9319 20.1589 62.2791 20.1589C62.6263 20.1589 62.9077 19.8774 62.9077 19.5302V17.6443H68.3561V19.5302C68.3561 19.8774 68.6375 20.1589 68.9847 20.1589C69.3319 20.1589 69.6134 19.8774 69.6134 19.5302V17.6443H70.6189L70.7656 18.6452C71.1088 20.9874 71.1088 23.367 70.7656 25.7092C70.6747 26.3296 70.1744 26.8092 69.5508 26.8739L69.0236 26.9285C66.7685 27.1624 64.4953 27.1624 62.2402 26.9285L61.7131 26.8739C61.0894 26.8092 60.5891 26.3296 60.4982 25.7092C60.1551 23.367 60.1551 20.9874 60.4982 18.6452L60.6449 17.6443H61.6504Z" fill="black" stroke="black" stroke-width="0.5" stroke-linecap="round"/>
<rect x="45.5146" y="0.251462" width="40.2339" height="40.2339" rx="10" stroke="#CFD8DC" stroke-width="0.5"/>
</g>
</svg>
