<svg width="59" height="86" viewBox="0 0 59 86" fill="none" xmlns="http://www.w3.org/2000/svg">
<rect x="39.6636" width="5.45071" height="20.5916" rx="2.72535" fill="#006B47"/>
<rect x="39.6636" y="65.4084" width="5.45071" height="20.5916" rx="2.72535" fill="#006B47"/>
<rect x="54.5347" y="1.66113" width="5.45071" height="20.5916" rx="2.72535" transform="rotate(20 54.5347 1.66113)" fill="#006B47"/>
<rect x="32.1636" y="63.125" width="5.45071" height="20.5916" rx="2.72535" transform="rotate(20 32.1636 63.125)" fill="#006B47"/>
<rect x="25.8975" y="58.4141" width="5.45071" height="20.5916" rx="2.72535" transform="rotate(40 25.8975 58.4141)" fill="#D3B171"/>
<rect x="21.6196" y="51.844" width="5.45071" height="20.5916" rx="2.72535" transform="rotate(60 21.6196 51.844)" fill="#006B47"/>
<rect x="19.8477" y="44.2073" width="5.45071" height="20.5916" rx="2.72535" transform="rotate(80 19.8477 44.2073)" fill="#006B47"/>
<rect x="20.7939" y="36.4248" width="5.45071" height="20.5916" rx="2.72535" transform="rotate(100 20.7939 36.4248)" fill="#D3B171"/>
<rect x="30.0728" y="24.0823" width="5.45071" height="20.5916" rx="2.72535" transform="rotate(140 30.0728 24.0823)" fill="#006B47"/>
<rect x="59.6567" y="82.4746" width="5.45071" height="20.5916" rx="2.72535" transform="rotate(160 59.6567 82.4746)" fill="#D3B171"/>
<rect x="37.2856" y="21.0107" width="5.45071" height="20.5916" rx="2.72535" transform="rotate(160 37.2856 21.0107)" fill="#D3B171"/>
<rect x="24.3452" y="29.4355" width="5.45071" height="20.5916" rx="2.72535" transform="rotate(120 24.3452 29.4355)" fill="#006B47"/>
<path d="M48.3397 31.9194C47.254 31.9194 46.3113 31.9775 45.5114 32.0357C44.7114 32.0938 44.0544 32.1809 43.5116 32.2971C42.9402 32.4134 42.4831 32.5586 42.1403 32.733C41.7689 32.9073 41.4546 33.0816 41.2261 33.2559C40.3404 34.0695 39.9119 35.5222 39.9119 37.5851C39.9119 38.7472 39.969 39.706 40.1119 40.4905C40.2262 41.304 40.3119 42.0013 40.3119 42.6115C40.3119 42.8439 40.2833 43.1345 40.2547 43.5122C40.1976 43.8899 40.169 44.2966 40.1119 44.7615C40.0547 45.2264 40.0262 45.7203 39.9976 46.2142C39.9405 46.7372 39.9405 47.2021 39.9405 47.6379C39.9405 47.9575 40.0833 48.1028 40.4261 48.1028C41.2261 48.1028 42.1403 48.1028 43.2259 48.0737C44.2829 48.0737 45.3114 48.0447 46.3399 48.0447C47.0255 48.0447 47.5683 48.0737 48.0254 48.0737C48.4825 48.0737 48.8253 48.1028 49.111 48.1028C49.3967 48.1028 49.5967 48.1318 49.711 48.1318C49.8252 48.1609 49.9109 48.1899 49.9681 48.1899C50.1966 48.2771 50.3395 48.5676 50.3395 49.0325C50.3395 49.6136 50.1966 49.9913 49.9109 50.1656C49.7681 50.3109 49.3681 50.4271 48.7111 50.5143C48.054 50.6014 47.0826 50.6305 45.8256 50.6305C44.6829 50.6305 43.6258 50.6014 42.6545 50.5143C41.6832 50.4562 40.8832 50.369 40.2262 50.2819C40.0547 50.2819 39.9405 50.34 39.8548 50.3981C39.7405 50.4562 39.7119 50.5724 39.7119 50.7177C39.7405 51.2697 39.8548 51.8217 40.0547 52.3738C40.2262 52.9549 40.5118 53.3616 40.9118 53.6231C41.2832 53.9427 41.9688 54.1751 42.9687 54.3204C43.9686 54.4657 45.2542 54.5238 46.8541 54.5238C48.6539 54.5238 50.1109 54.4076 51.1965 54.1461C52.2821 53.8846 53.1106 53.5359 53.682 53.0711C54.082 52.7224 54.4534 52.1413 54.7676 51.3278C55.0533 50.5143 55.2247 49.4683 55.2247 48.248C55.2247 47.3183 55.1104 46.5919 54.939 46.069C54.739 45.546 54.5105 45.1973 54.2534 44.9649C53.9391 44.7906 53.3678 44.6162 52.5393 44.5C51.6822 44.3838 50.4252 44.3257 48.7396 44.3257C47.8826 44.3257 47.0826 44.3547 46.397 44.3547C45.6828 44.3547 45.1971 44.3547 44.9114 44.3547C44.6257 44.3838 44.5115 44.2385 44.5115 43.948C44.5115 43.7155 44.5115 43.4831 44.54 43.2507C44.5686 43.0182 44.6257 42.873 44.74 42.8149C44.8543 42.7567 45.0543 42.7277 45.3685 42.6986C45.6828 42.6696 46.2541 42.6405 47.0541 42.6115C47.9683 42.6115 48.7396 42.5534 49.3681 42.4662C49.9966 42.4081 50.568 42.3209 51.0251 42.2047C51.4822 42.0885 51.8536 41.9723 52.1393 41.7979C52.425 41.6527 52.6821 41.4784 52.9107 41.275C53.5963 40.6648 54.082 39.5898 54.3962 38.079C54.7105 36.5681 54.8819 34.7958 54.8819 32.762C54.8819 32.4715 54.7105 32.2971 54.3677 32.239C53.7391 32.1809 52.9107 32.1228 51.8822 32.0357C50.8251 31.9775 49.6538 31.9194 48.3397 31.9194ZM44.5972 37.4107C44.5972 36.7425 44.74 36.2776 45.0257 35.9871C45.3114 35.6965 46.1399 35.5512 47.5397 35.5512C48.0254 35.5512 48.3968 35.5803 48.6825 35.5803C48.9682 35.6094 49.2253 35.6384 49.511 35.6675C49.6824 35.7256 49.7967 35.7837 49.8538 35.8708C49.9109 35.9871 49.9395 36.1033 49.9395 36.2485C49.9395 36.8296 49.8538 37.3526 49.711 37.7594C49.5681 38.1661 49.3681 38.4567 49.1396 38.602C48.9967 38.7182 48.7111 38.8344 48.3111 38.9506C47.9111 39.0668 47.254 39.1249 46.3399 39.1249C45.997 39.1249 45.7113 39.1249 45.4257 39.1249C45.14 39.1249 44.9686 39.0668 44.9114 38.9797C44.7971 38.9506 44.74 38.7763 44.6829 38.4567C44.6257 38.1661 44.5972 37.8175 44.5972 37.4107Z" fill="#006B47"/>
</svg>
