<svg width="20" height="20" viewBox="0 0 20 20" fill="none" xmlns="http://www.w3.org/2000/svg">
<path d="M9.49237 1.90582C8.69885 2.59397 8.09909 3.47768 7.75264 4.46924C7.40618 5.4608 7.32508 6.52573 7.51737 7.55832C6.24904 6.82832 4.8507 6.60832 3.24404 6.74166C3.1392 6.75046 3.03714 6.7799 2.94373 6.82828C2.85031 6.87666 2.76737 6.94303 2.69969 7.02357C2.63201 7.10411 2.58091 7.19723 2.54933 7.29758C2.51776 7.39794 2.50633 7.50354 2.5157 7.60832C2.64654 9.04666 3.30904 10.4733 4.23237 11.5883C3.88434 11.585 3.53652 11.6064 3.19154 11.6525C2.99308 11.6789 2.81228 11.7804 2.68628 11.936C2.56028 12.0916 2.49865 12.2895 2.51404 12.4892C2.63643 14.0791 3.35439 15.5642 4.52439 16.6477C5.6944 17.7312 7.23024 18.3332 8.82487 18.3333H11.1757C12.7705 18.3334 14.3065 17.7315 15.4767 16.648C16.6469 15.5645 17.365 14.0792 17.4874 12.4892C17.5027 12.2894 17.441 12.0914 17.3148 11.9357C17.1886 11.7801 17.0076 11.6788 16.809 11.6525C16.4682 11.607 16.1246 11.5856 15.7807 11.5883C16.704 10.4725 17.3665 9.04666 17.4974 7.60832C17.5067 7.50347 17.4953 7.39781 17.4637 7.2974C17.432 7.197 17.3809 7.10384 17.3131 7.02329C17.2453 6.94274 17.1623 6.87639 17.0688 6.82806C16.9753 6.77972 16.8731 6.75036 16.7682 6.74166C15.1615 6.60832 13.7557 6.82832 12.4832 7.55832C12.6756 6.5258 12.5946 5.46092 12.2483 4.46937C11.902 3.47781 11.3024 2.59406 10.509 1.90582C10.368 1.78329 10.1875 1.71582 10.0007 1.71582C9.8139 1.71582 9.63338 1.78329 9.49237 1.90582V1.90582ZM10.0007 9.77249C9.14526 8.88139 8.66756 7.69399 8.66756 6.45874C8.66756 5.22349 9.14526 4.03609 10.0007 3.14499C10.8559 4.03605 11.3335 5.22327 11.3335 6.45832C11.3335 7.69338 10.8559 8.8806 10.0007 9.77166V9.77249ZM10.0007 14.445C9.09245 13.2907 7.86577 12.4279 6.47237 11.9633C6.4459 11.9372 6.41718 11.9135 6.38654 11.8925C5.16154 11.0592 4.11987 9.52249 3.8257 7.95916C5.3832 7.90749 6.6057 8.28166 7.72154 9.22666C8.5757 9.95082 8.95487 10.8333 9.2357 11.4892C9.30904 11.6592 9.37487 11.8142 9.44154 11.9458C9.4935 12.0495 9.57328 12.1367 9.67196 12.1976C9.77064 12.2585 9.88432 12.2908 10.0003 12.2908C10.1163 12.2908 10.2299 12.2585 10.3286 12.1976C10.4273 12.1367 10.5071 12.0495 10.559 11.9458C10.6257 11.8133 10.6924 11.6592 10.7649 11.4892C11.0465 10.8333 11.4249 9.94999 12.279 9.22666C13.3949 8.28249 14.6265 7.90749 16.1874 7.95916C15.8924 9.52249 14.8515 11.0592 13.6265 11.8925C13.5982 11.9117 13.5714 11.9331 13.5465 11.9567C12.146 12.42 10.9128 13.2855 10.0007 14.445V14.445ZM10.5365 15.8667C11.6974 13.925 13.8715 12.7167 16.1857 12.8475C15.9861 14.0318 15.3734 15.1072 14.4562 15.8826C13.539 16.6581 12.3768 17.0835 11.1757 17.0833H8.8257C6.3257 17.0833 4.22237 15.27 3.81654 12.8483C6.12987 12.7167 8.30404 13.9242 9.46487 15.8667C9.52036 15.9593 9.59893 16.0361 9.69292 16.0893C9.7869 16.1426 9.89309 16.1706 10.0011 16.1706C10.1092 16.1706 10.2153 16.1426 10.3093 16.0893C10.4033 16.0361 10.4819 15.9593 10.5374 15.8667H10.5365Z" fill="#616161"/>
</svg>
