<svg width="41" height="41" viewBox="0 0 41 41" fill="none" xmlns="http://www.w3.org/2000/svg">
<g opacity="0.8">
<rect x="0.253086" y="0.253086" width="40.4938" height="40.4938" rx="10" fill="white"/>
<path d="M27.4576 26.6925L27.4574 26.6923L25.5132 24.7522C26.5323 23.5595 27.1488 22.0119 27.1488 20.3232C27.1488 16.5592 24.0875 13.4979 20.3235 13.4979C16.5596 13.4979 13.4976 16.5591 13.4976 20.3232C13.4976 24.0871 16.5595 27.1491 20.3235 27.1491C21.852 27.1491 23.265 26.6439 24.4037 25.7921L26.3845 27.7674L26.3849 27.7678C26.5332 27.9151 26.7276 27.9891 26.9209 27.9891C27.1141 27.9891 27.3102 27.9156 27.4589 27.7652C27.7553 27.4682 27.7535 26.9885 27.4576 26.6925ZM15.0161 20.3232C15.0161 17.3969 17.3972 15.0164 20.3235 15.0164C23.2492 15.0164 25.6302 17.3969 25.6302 20.3232C25.6302 23.2495 23.2491 25.6305 20.3235 25.6305C17.3972 25.6305 15.0161 23.2494 15.0161 20.3232Z" fill="black" stroke="black" stroke-width="0.5"/>
<rect x="0.253086" y="0.253086" width="40.4938" height="40.4938" rx="10" stroke="#CFD8DC" stroke-width="0.5"/>
</g>
</svg>
