<svg width="84" height="122" viewBox="0 0 84 122" fill="none" xmlns="http://www.w3.org/2000/svg">
<rect x="56.2665" width="7.73239" height="29.2112" rx="3.85526" fill="#006B47"/>
<rect x="56.2665" y="92.7887" width="7.73239" height="29.2112" rx="3.85526" fill="#006B47"/>
<rect x="77.3628" y="2.35652" width="7.73239" height="29.2112" rx="3.85526" transform="rotate(20 77.3628 2.35652)" fill="#006B47"/>
<rect x="45.6271" y="89.5494" width="7.73239" height="29.2112" rx="3.85526" transform="rotate(20 45.6271 89.5494)" fill="#006B47"/>
<rect x="36.7377" y="82.8664" width="7.73239" height="29.2112" rx="3.85526" transform="rotate(40 36.7377 82.8664)" fill="#D3B171"/>
<rect x="30.6692" y="73.5461" width="7.73239" height="29.2112" rx="3.85526" transform="rotate(60 30.6692 73.5461)" fill="#006B47"/>
<rect x="28.1558" y="62.7125" width="7.73239" height="29.2112" rx="3.85526" transform="rotate(80 28.1558 62.7125)" fill="#006B47"/>
<rect x="29.498" y="51.6722" width="7.73239" height="29.2112" rx="3.85526" transform="rotate(100 29.498 51.6722)" fill="#D3B171"/>
<rect x="42.6612" y="34.1633" width="7.73239" height="29.2112" rx="3.85526" transform="rotate(140 42.6612 34.1633)" fill="#006B47"/>
<rect x="84.6289" y="116.999" width="7.73239" height="29.2112" rx="3.85526" transform="rotate(160 84.6289 116.999)" fill="#D3B171"/>
<rect x="52.8932" y="29.806" width="7.73239" height="29.2112" rx="3.85526" transform="rotate(160 52.8932 29.806)" fill="#D3B171"/>
<rect x="34.5361" y="41.7575" width="7.73239" height="29.2112" rx="3.85526" transform="rotate(120 34.5361 41.7575)" fill="#006B47"/>
<path d="M68.5744 45.2811C67.0344 45.2811 65.697 45.3635 64.5622 45.446C63.4274 45.5284 62.4953 45.6521 61.7253 45.8169C60.9147 45.9818 60.2663 46.1879 59.7799 46.4352C59.2531 46.6825 58.8073 46.9298 58.483 47.1771C57.2267 48.3312 56.6188 50.392 56.6188 53.3184C56.6188 54.967 56.6998 56.3272 56.9025 57.44C57.0646 58.5941 57.1862 59.5833 57.1862 60.4489C57.1862 60.7786 57.1456 61.1908 57.1051 61.7266C57.024 62.2624 56.9835 62.8394 56.9025 63.4989C56.8214 64.1584 56.7809 64.8591 56.7404 65.5597C56.6593 66.3016 56.6593 66.9611 56.6593 67.5794C56.6593 68.0328 56.8619 68.2388 57.3483 68.2388C58.483 68.2388 59.7799 68.2388 61.32 68.1976C62.8195 68.1976 64.2785 68.1564 65.7375 68.1564C66.7101 68.1564 67.4802 68.1976 68.1286 68.1976C68.7771 68.1976 69.2634 68.2388 69.6687 68.2388C70.0739 68.2388 70.3576 68.28 70.5197 68.28C70.6819 68.3213 70.8034 68.3625 70.8845 68.3625C71.2087 68.4861 71.4114 68.8983 71.4114 69.5578C71.4114 70.3821 71.2087 70.9179 70.8034 71.1652C70.6008 71.3713 70.0334 71.5362 69.1013 71.6598C68.1691 71.7835 66.7912 71.8247 65.008 71.8247C63.3869 71.8247 61.8874 71.7835 60.5094 71.6598C59.1315 71.5774 57.9967 71.4537 57.0646 71.3301C56.8214 71.3301 56.6593 71.4125 56.5377 71.495C56.3756 71.5774 56.3351 71.7423 56.3351 71.9483C56.3756 72.7315 56.5377 73.5146 56.8214 74.2977C57.0646 75.122 57.4698 75.6991 58.0372 76.07C58.5641 76.5234 59.5368 76.8531 60.9552 77.0592C62.3737 77.2653 64.1974 77.3477 66.467 77.3477C69.0202 77.3477 71.0871 77.1829 72.6272 76.8119C74.1672 76.441 75.3425 75.9464 76.1531 75.2869C76.7205 74.7923 77.2473 73.968 77.6931 72.8139C78.0984 71.6598 78.3416 70.176 78.3416 68.4449C78.3416 67.126 78.1795 66.0956 77.9363 65.3537C77.6526 64.6118 77.3284 64.1172 76.9636 63.7874C76.5178 63.5401 75.7073 63.2928 74.532 63.128C73.3162 62.9631 71.5329 62.8807 69.1418 62.8807C67.926 62.8807 66.7912 62.9219 65.8185 62.9219C64.8054 62.9219 64.1164 62.9219 63.7111 62.9219C63.3058 62.9631 63.1437 62.757 63.1437 62.3448C63.1437 62.0151 63.1437 61.6854 63.1842 61.3556C63.2248 61.0259 63.3058 60.8198 63.4679 60.7374C63.6301 60.655 63.9137 60.6137 64.3595 60.5725C64.8054 60.5313 65.6159 60.4901 66.7507 60.4489C68.0476 60.4489 69.1418 60.3664 70.0334 60.2428C70.925 60.1604 71.7356 60.0367 72.384 59.8718C73.0325 59.707 73.5593 59.5421 73.9646 59.2948C74.3699 59.0887 74.7346 58.8414 75.0588 58.5529C76.0315 57.6874 76.7205 56.1623 77.1663 54.0191C77.6121 51.8758 77.8552 49.3616 77.8552 46.4764C77.8552 46.0642 77.6121 45.8169 77.1257 45.7345C76.2341 45.6521 75.0588 45.5696 73.5998 45.446C72.1003 45.3635 70.4387 45.2811 68.5744 45.2811ZM63.2653 53.0711C63.2653 52.1231 63.4679 51.4636 63.8732 51.0515C64.2785 50.6393 65.4538 50.4332 67.4396 50.4332C68.1286 50.4332 68.6555 50.4744 69.0608 50.4744C69.466 50.5156 69.8308 50.5569 70.2361 50.5981C70.4792 50.6805 70.6413 50.7629 70.7224 50.8866C70.8034 51.0515 70.844 51.2163 70.844 51.4224C70.844 52.2467 70.7224 52.9886 70.5197 53.5657C70.3171 54.1427 70.0334 54.5549 69.7092 54.761C69.5066 54.9258 69.1013 55.0907 68.5339 55.2556C67.9665 55.4204 67.0344 55.5029 65.7375 55.5029C65.2512 55.5029 64.8459 55.5029 64.4406 55.5029C64.0353 55.5029 63.7922 55.4204 63.7111 55.2968C63.549 55.2556 63.4679 55.0083 63.3869 54.5549C63.3058 54.1427 63.2653 53.6481 63.2653 53.0711Z" fill="#006B47"/>
</svg>
