<svg width="41" height="41" viewBox="0 0 41 41" fill="none" xmlns="http://www.w3.org/2000/svg">
<g opacity="0.8">
<rect x="0.253086" y="0.253086" width="40.4938" height="40.4938" rx="10" fill="white"/>
<path d="M27.4576 26.6932L27.4574 26.693L25.5132 24.7529C26.5323 23.5602 27.1488 22.0125 27.1488 20.3238C27.1488 16.5599 24.0875 13.4986 20.3235 13.4986C16.5596 13.4986 13.4976 16.5598 13.4976 20.3238C13.4976 24.0878 16.5595 27.1497 20.3235 27.1497C21.852 27.1497 23.265 26.6446 24.4037 25.7928L26.3845 27.7681L26.3849 27.7685C26.5332 27.9158 26.7276 27.9898 26.9209 27.9898C27.1141 27.9898 27.3102 27.9162 27.4589 27.7659C27.7553 27.4688 27.7535 26.9891 27.4576 26.6932ZM15.0161 20.3238C15.0161 17.3976 17.3972 15.0171 20.3235 15.0171C23.2492 15.0171 25.6302 17.3976 25.6302 20.3238C25.6302 23.2501 23.2491 25.6312 20.3235 25.6312C17.3972 25.6312 15.0161 23.2501 15.0161 20.3238Z" fill="black" stroke="black" stroke-width="0.5"/>
<rect x="0.253086" y="0.253086" width="40.4938" height="40.4938" rx="10" stroke="#CFD8DC" stroke-width="0.5"/>
</g>
</svg>
