<svg width="117" height="160" viewBox="0 0 117 160" fill="none" xmlns="http://www.w3.org/2000/svg">
<g opacity="0.25">
<path d="M57.8786 117.264C67.929 117.264 87.2159 112.094 79.2066 87.0089C74.7628 73.1287 61.7799 62.4536 61.7799 62.4536C61.7799 62.4536 45.8 70.9963 40.1289 87.9006C37.7391 95.0475 37.0673 117.341 57.8786 117.264Z" stroke="#E0F2ED" stroke-width="3.5" stroke-linecap="round" stroke-linejoin="round"/>
<path d="M72.9541 74.8347C72.9541 74.8347 93.352 54.6994 60.0359 28.309C60.0359 28.309 26.5647 49.1164 47.4148 74.8347" stroke="#E0F2ED" stroke-width="3.5" stroke-linecap="round" stroke-linejoin="round"/>
<path d="M62.3999 117.264C62.3999 117.264 77.5788 132.772 95.1606 118.646C110.482 106.33 95.4189 91.9976 105.495 82.4598C105.495 82.4598 88.5981 75.8428 78.2635 84.6181" stroke="#E0F2ED" stroke-width="3.5" stroke-linecap="round" stroke-linejoin="round"/>
<path d="M56.0955 117.264C56.0955 117.264 40.9166 132.772 23.3349 118.646C8.01385 106.33 23.0765 91.9976 13.0003 82.4598C13.0003 82.4598 29.8973 75.8428 40.2319 84.6181" stroke="#E0F2ED" stroke-width="3.5" stroke-linecap="round" stroke-linejoin="round"/>
<path d="M97.9376 80.4825C97.9376 80.4825 105.546 73.6458 101.077 60.6186C97.4338 49.9953 96.7362 41.7111 99.2165 34.5771C99.2165 34.5771 81.5701 37.0456 74.1292 43.262" stroke="#E0F2ED" stroke-width="3.5" stroke-linecap="round" stroke-linejoin="round"/>
<path d="M19.8084 80.4825C19.8084 80.4825 12.1996 73.6458 16.6693 60.6186C20.3122 49.9953 21.0098 41.7111 18.5295 34.5771C18.5295 34.5771 36.1758 37.0456 43.6167 43.262" stroke="#E0F2ED" stroke-width="3.5" stroke-linecap="round" stroke-linejoin="round"/>
<path d="M85.5104 37.7305C85.5104 37.7305 83.9602 25.44 75.8605 17.6598C67.7608 9.87971 63.0198 4.81357 59.8548 1.75063C59.8548 1.75063 54.6875 7.4888 40.5679 18.5516C31.5252 25.6726 32.2356 37.7047 32.2356 37.7047" stroke="#E0F2ED" stroke-width="3.5" stroke-linecap="round" stroke-linejoin="round"/>
<path d="M57.8783 117.264V154.019" stroke="#E0F2ED" stroke-width="3.5" stroke-linecap="round" stroke-linejoin="round"/>
<path d="M66.9084 140.475C66.9084 140.475 77.0492 159.098 97.3437 158.219C117.638 157.34 114.577 126.465 114.577 126.465C114.577 126.465 109.229 139.066 97.3437 139.066C85.459 139.066 80.5888 128.326 66.9084 140.475Z" stroke="#E0F2ED" stroke-width="3.5" stroke-linecap="round" stroke-linejoin="round"/>
<path d="M49.5848 140.475C49.5848 140.475 39.4828 159.098 19.1624 158.219C-1.15798 157.34 1.91655 126.465 1.91655 126.465C1.91655 126.465 7.29055 139.066 19.1624 139.066C31.0343 139.066 35.9044 128.326 49.5848 140.475Z" stroke="#E0F2ED" stroke-width="3.5" stroke-linecap="round" stroke-linejoin="round"/>
</g>
</svg>
