<svg width="40" height="40" viewBox="0 0 40 40" fill="none" xmlns="http://www.w3.org/2000/svg">
<rect width="40" height="40" rx="10" fill="#F4ECDC"/>
<path opacity="0.4" d="M23.2569 15.4099H21.2948C20.806 15.4131 20.342 15.1957 20.0322 14.8183L19.3861 13.9251C19.0816 13.5444 18.6175 13.3259 18.1295 13.3335H16.7424C14.2528 13.3335 13.334 14.7947 13.334 17.2792V19.9649C13.3309 20.2602 26.6644 20.2599 26.6653 19.9649V19.184C26.6771 16.6995 25.7821 15.4099 23.2569 15.4099Z" fill="#283593"/>
<path d="M23.2509 15.4099C24.1208 15.3426 24.9842 15.6045 25.6694 16.1434C25.7483 16.2104 25.8217 16.2836 25.8887 16.3623C26.102 16.6117 26.2669 16.8986 26.3748 17.2082C26.5872 17.8447 26.6855 18.5135 26.6653 19.1841V22.6861C26.6644 22.9811 26.6426 23.2756 26.6001 23.5675C26.519 24.0827 26.3378 24.577 26.0666 25.0227C25.9419 25.238 25.7906 25.4368 25.6161 25.6143C24.8262 26.3392 23.7773 26.7166 22.7056 26.6614H17.2877C16.2143 26.7162 15.1637 26.339 14.3713 25.6143C14.1989 25.4365 14.0496 25.2377 13.9267 25.0227C13.6572 24.5773 13.4798 24.0825 13.4051 23.5675C13.3576 23.2761 13.334 22.9813 13.334 22.6861V19.1841C13.334 18.8916 13.3497 18.5993 13.3814 18.3085C13.3992 18.1725 13.4407 18.0423 13.4407 17.9122C13.5009 17.5613 13.6106 17.2207 13.7667 16.9006C14.2291 15.9127 15.1775 15.4099 16.7305 15.4099H23.2509ZM23.411 21.2604H16.6475C16.3431 21.2604 16.0963 21.5067 16.0963 21.8106C16.0963 22.1144 16.3431 22.3607 16.6475 22.3607H23.3695C23.5167 22.3671 23.6604 22.3144 23.7684 22.2144C23.8765 22.1144 23.9399 21.9753 23.9445 21.8283C23.9528 21.6991 23.9103 21.5718 23.8259 21.4734C23.7289 21.3412 23.5752 21.2623 23.411 21.2604Z" fill="#283593"/>
</svg>
