<svg width="40" height="40" viewBox="0 0 40 40" fill="none" xmlns="http://www.w3.org/2000/svg">
<rect width="40" height="40" rx="10" fill="white" fill-opacity="0.15"/>
<path d="M17.0001 20.0001L19.0001 22.0001L23.0001 18.0001M15.8349 12.6972C16.5524 12.6399 17.2336 12.3578 17.7814 11.8909C19.0599 10.8014 20.9403 10.8014 22.2188 11.8909C22.7667 12.3578 23.4478 12.6399 24.1654 12.6972C25.8398 12.8308 27.1695 14.1604 27.3031 15.8349C27.3603 16.5524 27.6425 17.2336 28.1094 17.7814C29.1989 19.0599 29.1989 20.9403 28.1094 22.2188C27.6425 22.7667 27.3603 23.4479 27.3031 24.1654C27.1695 25.8398 25.8398 27.1695 24.1654 27.3031C23.4479 27.3603 22.7667 27.6425 22.2188 28.1094C20.9403 29.1989 19.0599 29.1989 17.7814 28.1094C17.2336 27.6425 16.5524 27.3603 15.8349 27.3031C14.1604 27.1695 12.8308 25.8398 12.6972 24.1654C12.6399 23.4478 12.3578 22.7667 11.8909 22.2188C10.8014 20.9403 10.8014 19.0599 11.8909 17.7814C12.3578 17.2336 12.6399 16.5524 12.6972 15.8349C12.8308 14.1604 14.1604 12.8308 15.8349 12.6972Z" stroke="white" stroke-width="2" stroke-linecap="round" stroke-linejoin="round"/>
</svg>
